<svg xmlns="http://www.w3.org/2000/svg" width="128" height="128" viewbox="0 0 128 128"><path d="M64 3.525A60.475 60.475 0 0 0 3.525 64 60.475 60.475 0 0 0 64 124.475 60.475 60.475 0 0 0 124.475 64 60.475 60.475 0 0 0 64 3.525zm-.004 17.791c1.241 0 2.483.054 3.723.163l-1.444 16.535a26.428 26.428 0 0 0-5.629.119l-.115.013c-1.066.143-2.11.353-3.13.62a26.131 26.131 0 0 0-11.848 6.787L33.82 33.818a42.684 42.684 0 0 1 8.856-6.793 42.705 42.705 0 0 1 10.281-4.248l-.004-.007c.082-.022.164-.04.246-.061.154-.04.31-.077.463-.115a42.685 42.685 0 0 1 1.766-.405c.128-.026.256-.053.385-.078a42.6 42.6 0 0 1 1.812-.31c.184-.028.368-.057.553-.082.622-.086 1.249-.159 1.875-.217.076-.007.15-.019.226-.025v.007a42.66 42.66 0 0 1 3.717-.168zm11.05 1.454a42.688 42.688 0 0 1 29.061 26.628l-15.593 5.678a26.243 26.243 0 0 0-1.924-4.119 25.953 25.953 0 0 0-8.399-8.838 25.88 25.88 0 0 0-7.44-3.318l4.296-16.031zM29.04 39.518l13.598 9.521a25.959 25.959 0 0 0-4.483 11.451l-.015.127c-.037.279-.066.558-.094.838-.01.11-.024.22-.033.33-.017.192-.029.386-.041.578-.011.18-.024.358-.032.54-.004.113-.004.227-.007.341-.007.251-.016.503-.016.756 0 .44.012.875.033 1.309l.006.101c.02.385.05.768.088 1.149l.025.24c.035.325.075.647.121.969a26.007 26.007 0 0 0 .225 1.303c.016.081.03.163.047.245.072.347.151.69.236 1.032.017.065.03.132.047.197.102.393.213.78.332 1.166.067.216.144.43.217.644.052.155.101.31.156.463.094.26.195.52.297.778.045.113.088.227.135.34.107.258.22.513.336.77.05.11.099.221.15.331.12.256.246.51.375.764.053.104.104.207.158.31a26.556 26.556 0 0 0 4.659 6.33l-11.743 11.74A42.538 42.538 0 0 1 22.81 75.18c-.015-.055-.033-.111-.047-.166a42.736 42.736 0 0 1-.719-3.213c-.026-.14-.058-.277-.082-.416-.063-.36-.112-.72-.166-1.082-.037-.25-.082-.5-.115-.75-.044-.33-.074-.663-.11-.994-.03-.279-.067-.555-.091-.834-.014-.158-.02-.317-.032-.475a42.719 42.719 0 0 1-.111-2.33c-.006-.291-.02-.582-.02-.873 0-.258.011-.517.016-.776.006-.353.007-.706.022-1.06.008-.211.027-.424.039-.635.023-.419.046-.837.082-1.256.007-.081.02-.164.027-.246.049-.534.105-1.065.174-1.597.013-.098.031-.198.045-.295.072-.528.15-1.055.242-1.58l.002-.014a42.57 42.57 0 0 1 7.074-17.07zM64 45.029c10.477 0 18.97 8.494 18.97 18.971S74.478 82.969 64 82.969c-10.477 0-18.969-8.492-18.969-18.969S53.523 45.03 64 45.03zm0 7.116c-6.548 0-11.855 5.307-11.855 11.855S57.452 75.855 64 75.855 75.855 70.548 75.855 64 70.548 52.145 64 52.145zM90.084 64h16.6c0 .63-.014 1.26-.041 1.889-.02.43-.055.855-.086 1.283-.015.19-.023.38-.04.57-1.285 14.71-10.076 27.494-22.82 34.123l-.002.002a42.436 42.436 0 0 1-5.123 2.252 42.54 42.54 0 0 1-1.707.58c-.225.072-.455.132-.681.2-.366.108-.729.22-1.098.32-.348.093-.699.173-1.049.258-.257.062-.512.13-.771.187a42.672 42.672 0 0 1-16.676.371l2.883-16.35a26.065 26.065 0 0 0 10.164-.214c.068-.015.138-.033.207-.05.297-.067.592-.138.885-.216.121-.033.243-.069.365-.103.24-.068.479-.137.717-.211.213-.067.426-.142.638-.215.128-.044.256-.083.383-.13.306-.11.61-.228.914-.35.047-.02.096-.036.143-.055 1.07-.44 2.124-.956 3.154-1.551h.002A26.16 26.16 0 0 0 88.86 71.904c.021-.066.04-.133.06-.199.091-.293.18-.587.26-.885.018-.064.032-.13.05-.195.078-.298.152-.597.22-.898.015-.066.027-.132.041-.198.067-.309.13-.619.186-.931l.002-.004c.065-.368.124-.738.174-1.112l.001-.015c.05-.369.09-.74.124-1.113.023-.26.037-.52.052-.782.008-.125.02-.247.026-.373l.002-.03c.016-.387.025-.777.025-1.169zM49.041 85.363a25.952 25.952 0 0 0 8.207 3.836l-4.295 16.03A42.685 42.685 0 0 1 39.52 98.96l9.521-13.598z"/></svg>
