<?xml version="1.0" encoding="utf-8"?>
<svg version="1.1" xmlns="http://www.w3.org/2000/svg" xmlns:xlink="http://www.w3.org/1999/xlink" x="0px" y="0px" width="24px"
	 height="24px" viewBox="0 0 24 24" enable-background="new 0 0 24 24" xml:space="preserve">
	<path d="M20.753,18.069l-8.5-5c-0.156-0.092-0.351-0.092-0.507,0l-8.5,5C3.094,18.159,3,18.323,3,18.5v3
		c0,0.388,0.423,0.625,0.753,0.431L12,17.08l8.246,4.852C20.58,22.128,21,21.884,21,21.5v-3
		C21,18.323,20.906,18.159,20.753,18.069z"/>
	<path d="M20.753,11.569l-8.5-5c-0.156-0.092-0.351-0.092-0.507,0l-8.5,5C3.094,11.659,3,11.823,3,12v3
		c0,0.388,0.423,0.626,0.753,0.431L12,10.58l8.246,4.851C20.579,15.627,21,15.385,21,15v-3C21,11.823,20.906,11.659,20.753,11.569
		z"/>
	<path d="M20.753,5.069l-8.5-5c-0.156-0.092-0.351-0.092-0.507,0l-8.5,5C3.094,5.159,3,5.323,3,5.501v3
		c0,0.385,0.419,0.626,0.753,0.431L12,4.08l8.246,4.851C20.58,9.128,21,8.884,21,8.5v-3C21,5.323,20.906,5.159,20.753,5.069z"/>
</svg>