<svg xmlns="http://www.w3.org/2000/svg" width="128" height="128" viewBox="0 0 33.867 33.867"><path d="M16.933 1.565A15.368 15.368 0 0 0 1.565 16.933a15.368 15.368 0 0 0 15.368 15.368 15.368 15.368 0 0 0 15.368-15.368A15.368 15.368 0 0 0 16.933 1.565zm1.442 5.244c2.277 0 4.178.248 5.709.738a6.575 18.57 0 0 0-.472 2.31 57.737 57.737 0 0 0-4.682-.194c-2.324 0-3.936.515-4.834 1.545-.898 1.03-1.347 2.932-1.347 5.705 0 2.8.449 4.716 1.347 5.746.898 1.03 2.509 1.545 4.834 1.545 1.574 0 3.022-.073 4.347-.22a6.575 18.57 0 0 0 .358 2.472c-1.584.399-3.349.601-5.299.601-3.328 0-5.693-.753-7.093-2.258-1.373-1.532-2.06-4.161-2.06-7.886 0-3.725.687-6.34 2.06-7.845 1.4-1.506 3.778-2.258 7.132-2.258v-.001zm1.595 4.109c1.356 0 2.491.145 3.408.432a6.575 18.57 0 0 0-.175 1.41 34.696 34.696 0 0 0-2.9-.123c-1.4 0-2.37.31-2.911.93-.541.62-.81 1.766-.81 3.437 0 1.686.27 2.84.81 3.461.542.62 1.512.93 2.912.93.988 0 1.893-.049 2.718-.145a6.575 18.57 0 0 0 .12 1.5c-.955.241-2.02.363-3.196.363-2.005 0-3.429-.453-4.272-1.36-.827-.923-1.24-2.506-1.24-4.75 0-2.243.413-3.818 1.24-4.725.843-.906 2.276-1.36 4.296-1.36z"/></svg>
