<?xml version="1.0" encoding="utf-8"?>
<!-- Generator: Adobe Illustrator 22.0.1, SVG Export Plug-In . SVG Version: 6.00 Build 0)  -->
<svg version="1.1" id="Layer_1" xmlns="http://www.w3.org/2000/svg" xmlns:xlink="http://www.w3.org/1999/xlink" x="0px" y="0px"
	 viewBox="0 0 72 72" style="enable-background:new 0 0 72 72;" xml:space="preserve">
<g id="COLOUR">
	<path style="fill:#1E70B5;" d="M63.4,64.2H49.8c-8.5,5.4-17.7,4.4-27.3,0H8.5c-4.9,1.7-5.6-1-5.5-4.5V12.4c0-3,2.4-5.5,5.5-5.5
		l12.4,0c10.4-4.6,20.1-5.5,28.9,0l13.6,0c3,0,5.5,2.4,5.5,5.5v47.4C68.7,63.8,66.6,64.9,63.4,64.2z"/>
</g>
<g id="DETAIL">
	<polygon style="fill:#2E2B28;" points="59.4,39.5 51.2,20.8 51.2,8 59.4,11.3 	"/>
	<polygon style="fill:#2E2B28;" points="12.7,32.5 20.9,20.8 20.9,8 12.7,11.3 	"/>
	<polygon style="fill:#2E2B28;" points="59.4,61.8 51.2,65.1 51.2,52.3 59.4,33.6 	"/>
	<polygon style="fill:#2E2B28;" points="12.7,61.8 20.9,65.1 20.9,52.3 12.7,40.6 	"/>
	<rect x="2.6" y="17.5" style="opacity:0.14;fill:#DFDFDF;enable-background:new    ;" width="9.5" height="35.5"/>
	<rect x="59.7" y="17.5" style="opacity:0.14;fill:#DFDFDF;enable-background:new    ;" width="9.7" height="35.5"/>
	<g>
		<path style="fill:#100F0D;" d="M12.7,64c1.1,1.1,2,2,3,2.9h4.1V64H12.7z M53.8,64v2.9h2.6c0.9-0.9,1.9-1.9,3-2.9H53.8z"/>
		<path style="fill:#100F0D;" d="M64.8,5.1h-8.5l-5-5.1H20.7l-5.1,5.1H7.2c-3.1,0-5.7,2.5-5.7,5.6v50.5c0,3.1,2.5,5.6,5.7,5.6h8.5
			l5.1,5.1h30.6l5.1-5.1H65c3.1,0,5.7-2.5,5.7-5.6V10.7C70.5,7.6,68,5.1,64.8,5.1z M51.8,9.7c2.8,2.3,5.1,5.2,6.7,8.5v9.2
			c-1.3-3.8-3.7-7.2-6.7-9.9V9.7z M40.6,4.5c3,0.5,5.8,1.7,8.3,3.2v7.7c-2.5-1.6-5.3-2.7-8.3-3.3V4.5z M22.9,7.6
			c2.5-1.5,5.3-2.6,8.3-3.2v7.5c-3,0.6-5.8,1.8-8.3,3.3V7.6z M13.3,18.2c1.6-3.3,3.9-6.2,6.7-8.5v7.8c-3,2.7-5.3,6-6.7,9.9
			C13.3,27.3,13.3,18.2,13.3,18.2z M51.9,53.1c3-2.7,5.4-6.1,6.7-9.9v9.2c-1.6,3.3-3.9,6.2-6.7,8.5V53.1z M40.7,58.5
			c3-0.6,5.8-1.7,8.3-3.3v7.7c-2.5,1.5-5.3,2.7-8.3,3.2V58.5z M23,55.4c2.5,1.5,5.3,2.7,8.3,3.3v7.5c-3-0.6-5.8-1.7-8.3-3.2V55.4z
			 M13.4,43.2c1.4,3.9,3.7,7.2,6.7,9.9v7.8c-2.8-2.3-5.1-5.2-6.7-8.5C13.4,52.3,13.4,43.2,13.4,43.2z M7.2,64
			c-1.5,0-2.7-1.2-2.7-2.7V10.7C4.5,9.3,5.7,8,7.2,8h5.5L11,9.8v52.4c0.6,0.6,1.2,1.2,1.7,1.7L7.2,64L7.2,64z M35.9,55.1
			c-10.9,0-19.8-8.8-19.8-19.8c0-4.4,1.5-8.5,3.9-11.8c0.4-0.6,0.9-1.2,1.5-1.8c0.5-0.5,1-1,1.5-1.4c2.3-2,5.1-3.5,8.3-4.3
			c1.5-0.4,3.1-0.6,4.7-0.6s3.2,0.2,4.7,0.6c3.1,0.8,5.9,2.2,8.3,4.3c0.5,0.5,1,0.9,1.5,1.4c0.5,0.6,1,1.1,1.5,1.8
			c2.5,3.3,3.9,7.4,3.9,11.8C55.7,46.3,46.8,55.1,35.9,55.1z M67.5,61.3c0,1.5-1.2,2.7-2.7,2.7h-5.5l1.7-1.7V9.8L59.3,8h5.5
			c1.5,0,2.7,1.2,2.7,2.7V61.3z"/>
		<g>
			<circle style="opacity:0.14;fill:#DFDFDF;enable-background:new    ;" cx="35.9" cy="35.4" r="15.8"/>
			<circle style="fill:#DFDFDF;" cx="36.7" cy="36.1" r="7.3"/>
			<path style="fill:#12100B;" d="M35.9,26.6c-4.8,0-8.7,3.9-8.7,8.7s3.9,8.7,8.7,8.7s8.7-3.9,8.7-8.7
				C44.6,30.6,40.7,26.6,35.9,26.6z M35.9,41.2c-3.2,0-5.8-2.6-5.8-5.8s2.6-5.8,5.8-5.8s5.8,2.6,5.8,5.8
				C41.7,38.6,39.1,41.2,35.9,41.2z"/>
			<g>
				<rect x="46.6" y="34.2" style="fill:#DFDFDF;" width="6.4" height="2.3"/>
				<rect x="18.8" y="34.2" style="fill:#DFDFDF;" width="6.4" height="2.3"/>
				<rect x="34.8" y="46.1" style="fill:#DFDFDF;" width="2.3" height="6.4"/>
				<rect x="34.8" y="18.3" style="fill:#DFDFDF;" width="2.3" height="6.4"/>
			</g>
		</g>
	</g>
	<g>
		<path style="fill:#100F0D;" d="M53.8,64v2.9h2.6c0.9-0.9,1.9-1.9,3-2.9H53.8z M12.7,64c1.1,1.1,2,2,3,2.9h4.1V64H12.7z"/>
	</g>
</g>
</svg>
