<?xml version="1.0" encoding="utf-8"?>
<!-- Generator: Adobe Illustrator 21.0.0, SVG Export Plug-In . SVG Version: 6.00 Build 0)  -->
<svg version="1.1" id="Layer_1" xmlns="http://www.w3.org/2000/svg" xmlns:xlink="http://www.w3.org/1999/xlink" x="0px" y="0px"
	 viewBox="0 0 72 72" style="enable-background:new 0 0 72 72;" xml:space="preserve">
<g id="COLOUR">
	<g>
		<g>
			<g>
				<path style="fill:#1E70B5;" d="M36.7,25.1V38c0,2.5-1.6,4.9-4,5.8l-0.4,0.1v21.3h-6.1v5.5h-2.4C11.4,70.7,1.2,60.5,1.2,48v-8.1
					v-0.1c-0.3-1.5-0.5-3.1-0.5-4.7c0-8.7,5.4-15.7,13.5-18.9l0.4-1l6.3-4.1l2-3.3c0-0.1,0-0.3,0-0.4l3.9-6.2l-0.4,10.3
					c0,0,3.8,0.5,3.8,1.7v6.3h0.5C33.9,18.9,36.7,21.7,36.7,25.1z"/>
			</g>
		</g>
	</g>
	<g id="COLOUR_1_">
		<g>
			<g>
				<g>
					<path style="fill:#1E70B5;" d="M35.3,25.1V38c0,2.5,1.6,4.9,4,5.8l0.4,0.1v21.3h6.1v5.5h2.4C60.8,70.7,71,60.5,71,47.9v-8.1
						v-0.1c0.3-1.5,0.5-3.1,0.5-4.7c0-8.7-5.7-15.4-13.8-18.5l-0.1-1.3l-6.3-4.1l-2-3.3c0-0.1,0-0.3,0-0.4l-3.9-6.2l0.4,10.3
						c0,0-3.8,0.5-3.8,1.7v6.3h-0.5C38.1,18.9,35.3,21.7,35.3,25.1z"/>
				</g>
			</g>
		</g>
	</g>
</g>
<g id="DETAIL">
	<g>
		<path style="fill:#DFDFDF;" d="M22.2,8.5v3.6l-0.5,0.8l-1.8,2.9l-0.7,0.1c-0.5,0.1-1,0.2-1.5,0.3c-0.2-0.3-0.2-0.7-0.2-1V8.5
			c0-1.3,1.1-2.3,2.4-2.3c0.9,0,1.6,0.5,2,1.2C22,7.6,22.1,7.8,22.2,8C22.2,8.2,22.2,8.4,22.2,8.5z"/>
	</g>
	<path style="fill:#2E2B28;" d="M28.8,19.8c0,0,2.5-1.2,5.1,1.6s2,14,2,14s1.8,6.8-3.5,8.6s-1-8.6-1-8.6l-2-7.8L28.8,19.8z"/>
	<path style="fill:#2E2B28;" d="M25.5,64.9v5.4c0,0-9.6,2.1-17.3-5.6S1.9,42.4,1.9,42.4L6.2,49c0,0,0.9,7.5,5.7,12
		C16.9,65.8,25.5,64.9,25.5,64.9z"/>
	<g>
		<g>
			<path style="fill:#100F0D;" d="M36.3,22.5c-0.6,1-0.9,2.1-0.9,3.3v12.9c0,1.2,0.3,2.3,0.9,3.3c0.6-1,0.9-2.1,0.9-3.3V25.8
				C37.2,24.6,36.9,23.5,36.3,22.5z"/>
			<path style="fill:#100F0D;" d="M35.5,25.8c0-1.2,0.3-2.3,0.9-3.3c-1.1-2-3.3-3.4-5.7-3.5v-5c0-1.5-1.2-2.7-2.7-2.7h-0.7V0l-5,8
				L22,8.4l-1.7,2.8h-3.5c-1.5,0-2.7,1.2-2.7,2.7v1.6c-8.3,3.2-14,11.2-14,20.3c0,1.6,0.2,3.3,0.5,4.8v8.1C0.6,61.6,11,72,23.9,72
				h2.9v-5.5h6.1V45c1.5-0.6,2.7-1.6,3.4-3c-0.6-1-0.9-2.1-0.9-3.3V25.8H35.5z M29.3,35.4c0,4.3-3.5,7.8-7.8,7.8s-7.8-3.5-7.8-7.8
				s3.5-7.8,7.8-7.8S29.3,31.1,29.3,35.4z M14,18.6c0.9-0.4,1.9-0.8,2.8-1c0.3-0.1,0.6-0.2,1-0.2c0.5-0.1,1-0.2,1.5-0.3L20,17
				l1.8-2.9l0.5-0.8l1.3-2l0.9-1.4v15.5c-0.8-0.2-1.6-0.3-2.5-0.3c-5.9,0-10.7,4.8-10.7,10.6c0,5.4,4,9.8,9.1,10.5v8.4
				c-1.9-0.1-3.8-0.6-5.5-1.3c-2.8-1.1-5.3-2.9-7.3-5.1c-1.1-1.3-2.1-2.7-2.8-4.3c-1.2-2.5-1.9-5.3-1.9-8.2
				C2.9,28.2,7.4,21.6,14,18.6z M24.3,69.5h-0.4c-11.5,0-20.8-9.3-20.8-20.8v-1.8c0.5,0.8,1,1.6,1.7,2.4c0.3,9.5,8.1,17.2,17.8,17.2
				h1.8L24.3,69.5L24.3,69.5z M30.1,63.7h-7.6c-6.9,0-12.7-4.7-14.4-11c3.7,3,8.4,4.8,13.5,4.8h0.1c0.5,0,1,0,1.4-0.1
				c3.2-0.5,5.8-2.8,6.9-5.7v12H30.1z M34.7,38.7c0,1.4-0.7,2.7-1.8,3.5c0,0,0-1.9,0-5.7s-0.7-5-2.3-7.1v-7.9c2.3,0.1,4.1,2,4.1,4.3
				V38.7z"/>
		</g>
	</g>
	<g>
		<path style="fill:#100F0D;" d="M21.5,27.6c-4.3,0-7.8,3.5-7.8,7.8s3.5,7.8,7.8,7.8s7.8-3.5,7.8-7.8S25.8,27.6,21.5,27.6z"/>
	</g>
	<circle style="fill:#2E2B28;" cx="21.5" cy="35.4" r="7.8"/>
	<g>
		<path style="fill:#12100B;" d="M17.2,39.7c2.4,2.4,6.2,2.4,8.5,0c2.4-2.4,2.4-6.2,0-8.5c-2.4-2.4-6.2-2.4-8.5,0
			C14.9,33.5,14.9,37.3,17.2,39.7z M18.7,38.3c-1.6-1.6-1.6-4.1,0-5.7c1.6-1.6,4.1-1.6,5.7,0c1.6,1.6,1.6,4.1,0,5.7
			C22.8,39.9,20.2,39.9,18.7,38.3z"/>
	</g>
	<g>
		
			<ellipse transform="matrix(0.7071 -0.7071 0.7071 0.7071 -18.7327 25.5539)" style="fill:#DFDFDF;" cx="21.5" cy="35.4" rx="4" ry="4"/>
	</g>
	<g>
		<path style="fill:#DFDFDF;" d="M15.4,51.1c-5.7-2.2-9.7-7.3-10.3-13.3c-0.5-4.3,0.8-8.5,3.6-11.9s6.7-5.5,11.1-6l0.3,2.6
			c-3.7,0.4-7,2.2-9.3,5s-3.4,6.4-3,10c0.5,5,3.9,9.3,8.6,11.2L15.4,51.1z"/>
	</g>
	<g id="DETAIL_1_">
		<g>
			<path style="fill:#DFDFDF;" d="M49.8,8.5v3.6l0.5,0.8l1.8,2.9l0.7,0.1c0.5,0.1,1,0.2,1.5,0.3c0.2-0.3,0.2-0.7,0.2-1V8.5
				c0-1.3-1.1-2.3-2.4-2.3c-0.9,0-1.6,0.5-2,1.2C50,7.6,49.9,7.8,49.8,8C49.8,8.2,49.8,8.4,49.8,8.5z"/>
		</g>
		<path style="fill:#2E2B28;" d="M43.2,19.8c0,0-2.5-1.2-5.1,1.6s-2,14-2,14s-1.8,6.8,3.5,8.6s1-8.6,1-8.6l2-7.8L43.2,19.8z"/>
		<path style="fill:#2E2B28;" d="M46.5,64.9v5.4c0,0,9.6,2.1,17.3-5.6s6.4-22.3,6.4-22.3L65.8,49c0,0-0.9,7.5-5.7,12
			C55.1,65.8,46.5,64.9,46.5,64.9z"/>
		<g>
			<g>
				<path style="fill:#100F0D;" d="M34.8,25.8v12.9c0,1.2,0.3,2.3,0.9,3.3c0.6-1,0.9-2.1,0.9-3.3V25.8c0-1.2-0.3-2.3-0.9-3.3
					C35.1,23.5,34.8,24.6,34.8,25.8z"/>
				<path style="fill:#100F0D;" d="M36.5,38.7c0,1.2-0.3,2.3-0.9,3.3c0.8,1.3,2,2.4,3.4,3v21.5h6.1V72H48c13,0,23.4-10.4,23.4-23.3
					v-8.1c0.3-1.5,0.5-3.1,0.5-4.8c0-9.1-5.7-17.1-13.9-20.3v-1.6c0-1.5-1.2-2.7-2.7-2.7h-3.5l-1.7-2.8L49.8,8l-5-8v11.2h-0.7
					c-1.5,0-2.7,1.2-2.7,2.7v5c-2.5,0.1-4.6,1.5-5.7,3.5c0.6,1,0.9,2.1,0.9,3.3L36.5,38.7L36.5,38.7z M50.5,27.6
					c4.3,0,7.8,3.5,7.8,7.8s-3.5,7.8-7.8,7.8s-7.8-3.5-7.8-7.8S46.2,27.6,50.5,27.6z M69.1,35.8c0,2.9-0.7,5.7-1.9,8.2
					c-0.7,1.5-1.7,3-2.8,4.3c-2,2.2-4.4,4-7.3,5.1c-1.7,0.7-3.6,1.1-5.5,1.3v-8.4c5.2-0.8,9.1-5.2,9.1-10.5c0-6-4.7-10.8-10.6-10.8
					c-0.8,0-1.7,0.1-2.5,0.3V9.8l0.9,1.4l1.3,2l0.5,0.8l1.8,2.9l0.7,0.1c0.5,0.1,1,0.2,1.5,0.3c0.3,0.1,0.6,0.1,1,0.2
					c1,0.3,1.9,0.6,2.8,1C64.6,21.6,69.1,28.2,69.1,35.8z M47.7,66.5h1.8c9.6,0,17.5-7.7,17.8-17.2c0.6-0.8,1.2-1.6,1.7-2.4v1.8
					c0,11.5-9.3,20.8-20.8,20.8h-0.4L47.7,66.5L47.7,66.5z M41.9,51.6c1.1,3,3.7,5.2,6.9,5.7c0.5,0.1,0.9,0.1,1.4,0.1h0.1
					c5.1,0,9.8-1.8,13.5-4.8c-1.7,6.3-7.5,11-14.4,11h-7.6L41.9,51.6L41.9,51.6z M37.3,25.8c0-2.3,1.8-4.2,4.1-4.3v7.9
					c-1.6,2.1-2.3,3.4-2.3,7.1s0,5.7,0,5.7c-1.1-0.8-1.8-2-1.8-3.5V25.8z"/>
			</g>
		</g>
		<g>
			<path style="fill:#100F0D;" d="M42.7,35.4c0,4.3,3.5,7.8,7.8,7.8s7.8-3.5,7.8-7.8s-3.5-7.8-7.8-7.8S42.7,31.1,42.7,35.4z"/>
		</g>
		<circle style="fill:#2E2B28;" cx="50.5" cy="35.4" r="7.8"/>
		<g>
			<path style="fill:#12100B;" d="M54.8,31.2c-2.4-2.4-6.2-2.4-8.5,0c-2.4,2.4-2.4,6.2,0,8.5c2.4,2.4,6.2,2.4,8.5,0
				S57.1,33.5,54.8,31.2z M47.6,38.3c-1.6-1.6-1.6-4.1,0-5.7c1.6-1.6,4.1-1.6,5.7,0c1.6,1.6,1.6,4.1,0,5.7
				C51.8,39.9,49.2,39.9,47.6,38.3z"/>
		</g>
		<g>
			
				<ellipse transform="matrix(0.7071 -0.7071 0.7071 0.7071 -10.2296 46.0636)" style="fill:#DFDFDF;" cx="50.5" cy="35.4" rx="4" ry="4"/>
		</g>
		<g>
			<path style="fill:#DFDFDF;" d="M56.6,51.1c5.7-2.2,9.7-7.3,10.3-13.3c0.5-4.3-0.8-8.5-3.6-11.9c-2.8-3.4-6.7-5.5-11.1-6L52,22.4
				c3.7,0.4,7,2.2,9.3,5s3.4,6.4,3,10c-0.5,5-3.9,9.3-8.6,11.2L56.6,51.1z"/>
		</g>
	</g>
</g>
</svg>
