<?xml version="1.0" encoding="utf-8"?>
<!-- Generator: Adobe Illustrator 21.0.0, SVG Export Plug-In . SVG Version: 6.00 Build 0)  -->
<svg version="1.1" id="Layer_1" xmlns="http://www.w3.org/2000/svg" xmlns:xlink="http://www.w3.org/1999/xlink" x="0px" y="0px"
	 viewBox="0 0 72 72" style="enable-background:new 0 0 72 72;" xml:space="preserve">
<g id="COLOUR">
	<path style="fill:#1E70B5;" d="M69.5,23.6v33.7h-0.9c-3,0-5.4-2.4-5.4-5.4v-4.7H60v5.4c0,10.4-8.4,18.8-18.8,18.8H30.8
		C20.4,71.4,12,63,12,52.7v-5.4H8.7V52c0,3-2.4,5.4-5.4,5.4H2.5V23.6c0-10.1,8.2-18.5,18.4-18.8h0.2l0.1-0.1C25.6,2,30.7,0.6,36,0.6
		S46.4,2,50.9,4.8L51,4.9h0.2C61.3,5.1,69.5,13.5,69.5,23.6z"/>
</g>
<g id="DETAIL">
	<path style="opacity:0.15;fill:#DFDFDF;enable-background:new    ;" d="M19.2,32.7v-6C19.2,17.5,26.7,10,36,10l0,0
		c9.3,0,16.8,7.5,16.8,16.8v6L19.2,32.7L19.2,32.7z"/>
	<g>
		<path style="fill:#DFDFDF;" d="M10,40.9h12.7v2.3H7.8V20.8c0-6.5,5.3-11.9,11.9-11.9h2.4v2.3h-2.4c-5.3,0-9.6,4.3-9.6,9.6v20.1H10
			z"/>
		<path style="fill:#DFDFDF;" d="M64.2,20.8v22.3H49.3v-2.3H62v-20c0-5.3-4.3-9.6-9.6-9.6h-2.6V8.9h2.6
			C58.9,8.9,64.2,14.3,64.2,20.8z"/>
	</g>
	<path style="fill:#2E2B28;" d="M36,23.1L36,23.1c-2.6,0-4.7-2.1-4.7-4.7V1.6h9.4v16.8C40.7,21,38.6,23.1,36,23.1z"/>
	<g>
		<polygon style="fill:#2E2B28;" points="24.1,43.1 17.9,43.1 17.9,50.5 24.1,57.2 29.1,57.2 29.1,51.8 		"/>
		<polygon style="fill:#2E2B28;" points="48.8,43.1 55,43.1 55,50.5 48.8,57.2 43.8,57.2 43.8,51.8 		"/>
		<rect x="3.1" y="45" style="fill:#2E2B28;" width="4.4" height="10.6"/>
		<rect x="64.8" y="45" style="fill:#2E2B28;" width="4.4" height="10.6"/>
		<path style="fill:#2E2B28;" d="M24.1,57.2H48V64c0,3.7-3,6.6-6.6,6.6H30.8c-3.7,0-6.6-3-6.6-6.6L24.1,57.2L24.1,57.2z"/>
	</g>
	<g>
		<g>
			<circle style="fill:#DFDFDF;" cx="36.1" cy="42.4" r="6.1"/>
		</g>
	</g>
	<path style="fill:#100F0D;" d="M51.2,4.3C46.8,1.6,41.6,0,36,0S25.2,1.6,20.8,4.3C10.4,4.5,1.9,13.1,1.9,23.6v34.2h1.4
		c3.3,0,6-2.7,6-6v-4.1h2.1v4.8c0,10.7,8.7,19.3,19.3,19.3h10.5c10.7,0,19.3-8.7,19.3-19.3v-4.8h2.1v4.1c0,3.3,2.7,6,6,6H70V23.6
		C70.1,13.1,61.6,4.5,51.2,4.3z M32.1,6.2c0-0.2,0-0.3,0-0.5c0-0.3,0.1-0.5,0.2-0.8c0.1-0.2,0.2-0.4,0.3-0.6
		c0.6-1.1,1.8-1.8,3.1-1.8h0.5c1.3,0,2.5,0.7,3.1,1.8c0.1,0.2,0.2,0.4,0.3,0.6s0.2,0.5,0.2,0.8c0,0.2,0,0.3,0,0.5v12.6
		c0,2-1.6,3.7-3.6,3.7h-0.5c-2,0-3.7-1.6-3.7-3.7V6.2H32.1z M6.4,51.9c0,1.2-0.7,2.3-1.7,2.8v-8h1.7C6.4,46.7,6.4,51.9,6.4,51.9z
		 M14.2,52.7v-4.5c0.7,0.9,1.5,1.7,2.4,2.4c0.9,3.1,3.2,5.7,6.2,7v5.7c0,1.7,0.5,3.3,1.4,4.6C18.4,65.3,14.2,59.5,14.2,52.7z
		 M19,47.4v-2h4.3c0.6,2.5,1.8,4.6,3.6,6.3v3.8c-0.5,0-1-0.1-1.5-0.2c-0.4-0.1-0.9-0.2-1.3-0.4s-0.9-0.4-1.3-0.7
		c-2.2-1.4-3.7-3.8-3.8-6.5C19,47.7,19,47.5,19,47.4z M31.1,69c-3.2,0-5.8-2.6-5.8-5.8v-5c0.6,0.1,1.2,0.1,1.8,0.1h2.4V64
		c0,2,0.9,3.7,2.2,4.9L31.1,69L31.1,69z M26,42.4c0-5.5,4.5-10,10-10s10,4.5,10,10s-4.5,10-10,10S26,47.9,26,42.4z M46.6,63.2
		c0,3.2-2.6,5.8-5.8,5.8h-0.6c1.4-1.2,2.2-2.9,2.2-4.9v-5.7h2.4c0.6,0,1.2-0.1,1.8-0.1C46.6,58.3,46.6,63.2,46.6,63.2z M45.1,55.5
		v-3.8c1.7-1.7,3-3.9,3.6-6.3H53v2c0,0.1,0,0.3,0,0.4c-0.1,2.7-1.6,5.1-3.8,6.5c-0.4,0.2-0.8,0.5-1.3,0.6c-0.4,0.2-0.8,0.3-1.3,0.4
		C46.1,55.5,45.6,55.5,45.1,55.5z M46.6,46.5L46.6,46.5L46.6,46.5C46.7,46.4,46.6,46.5,46.6,46.5z M57.8,52.7
		c0,6.8-4.1,12.7-10,15.2c0.9-1.3,1.4-2.9,1.4-4.6v-5.7c3-1.3,5.3-3.8,6.2-7c0.8-0.8,1.6-1.6,2.4-2.4C57.8,48.2,57.8,52.7,57.8,52.7
		z M67.3,54.7c-1-0.5-1.7-1.6-1.7-2.8v-5.2h1.7V54.7z M67.3,38.4h-8.1v-3.7c0-1.6-0.5-3-1.4-4.1c-1.2-1.5-3-2.5-5-2.6
		c-0.1,0-0.3,0-0.4,0H19.6c-0.1,0-0.2,0-0.4,0c-2,0.1-3.8,1.1-5,2.6c-0.9,1.2-1.4,2.6-1.4,4.1v3.7H4.7V23.6C4.7,16.4,9.5,10.2,16,8
		c1.6-0.6,3.4-0.9,5.2-0.9h0.5C21.8,7.6,22,8,22.2,8.5c0.2,0.4,0.4,0.9,0.6,1.3c0.2,0.4,0.5,0.8,0.7,1.2c0.3,0.5,0.7,0.9,1,1.4
		c1.3,1.5,3,2.8,4.9,3.7v2.7c0,3.4,2.8,6.2,6.2,6.2h0.5c3.4,0,6.2-2.8,6.2-6.2V16c1.9-0.9,3.5-2.2,4.9-3.7c0.4-0.4,0.7-0.9,1-1.4
		c0.3-0.4,0.5-0.8,0.7-1.2s0.4-0.8,0.6-1.3C49.7,8,49.9,7.5,50,7h0.5c1.8,0,3.6,0.3,5.2,0.8C62.3,10,67,16.2,67,23.5v14.9H67.3z"/>
	<path style="fill:#100F0D;" d="M36.1,46.4C36.1,46.4,36.1,46.5,36.1,46.4L36.1,46.4L36.1,46.4z"/>
	<g>
		<path style="fill:#12100B;" d="M43.7,42.4c0-4.2-3.4-7.6-7.6-7.6s-7.6,3.4-7.6,7.6s3.4,7.6,7.6,7.6C40.3,50.1,43.7,46.7,43.7,42.4
			z M31,42.4c0-2.8,2.3-5.1,5.1-5.1s5.1,2.3,5.1,5.1s-2.3,5.1-5.1,5.1S31,45.3,31,42.4z"/>
	</g>
</g>
</svg>
