<?xml version="1.0" encoding="utf-8"?>
<!-- Generator: Adobe Illustrator 21.0.0, SVG Export Plug-In . SVG Version: 6.00 Build 0)  -->
<svg version="1.1" id="Layer_1" xmlns="http://www.w3.org/2000/svg" xmlns:xlink="http://www.w3.org/1999/xlink" x="0px" y="0px"
	 viewBox="0 0 72 72" style="enable-background:new 0 0 72 72;" xml:space="preserve">
<g id="COLOUR">
	<path style="fill:#1E70B5;" d="M61.8,34.6L54,47.7c-4,6.6-7.2,13.7-9.8,21.1l-0.4,1.1V59L43,59.5c-0.6,0.4-1.2,0.8-1.9,1L41,60.6
		l-0.1,0.2l-4.9,10l-4.9-10L31,60.5h-0.2c-0.6-0.3-1.2-0.6-1.8-1L28.1,59v10.9l-0.4-1c-2.6-7.3-5.8-14.4-9.8-21.1l-7.8-13.1
		c-1.2-3-1.1-4.9,2-8.5l2.1-2.3l0,0l0.6-0.6l17-18.5l0,0l0,0l2.1-2.5c0.3-0.4,0.7-0.7,1.2-0.8c0.3-0.1,0.6-0.1,0.9-0.1
		c0.3,0,0.6,0,0.9,0.1c0.1,0,0.2,0.1,0.3,0.1s0.2,0.1,0.3,0.1c0.3,0.2,0.5,0.4,0.7,0.6l2,2.4l0,0l0,0l17,18.4l2.7,2.9
		C62.9,29.7,63,31.6,61.8,34.6z"/>
</g>
<g id="DETAIL">
	<g>
		<path style="fill:#2E2B28;" d="M27.2,24.2v-4c0-1.9,1.5-3.4,3.4-3.4H41c1.9,0,3.4,1.5,3.4,3.4v36.1c0,1.9-1.5,3.4-3.4,3.4H30.6
			c-1.9,0-3.4-1.5-3.4-3.4V24.2z"/>
	</g>
	
		<linearGradient id="1006_1_" gradientUnits="userSpaceOnUse" x1="36.1" y1="5403.6655" x2="36.1" y2="5387.8496" gradientTransform="matrix(1 0 0 1 0 -5370.6299)">
		<stop  offset="0" style="stop-color:#000000;stop-opacity:0"/>
		<stop  offset="0.6865" style="stop-color:#000000"/>
	</linearGradient>
	<path style="fill:url(#1006_1_);" d="M43.8,31.8c0,1.7-15.5,1.7-15.5,0v-10c0-2.5,2.1-4.6,4.6-4.6h6.4c2.5,0,4.6,2.1,4.6,4.6
		L43.8,31.8L43.8,31.8z"/>
	<path style="opacity:0.15;fill:#DFDFDF;enable-background:new    ;" d="M60.2,27.5l-4.3,11.1L43.8,25.8v-4c0-2.5-2.1-4.6-4.6-4.6
		h-6.4c-2.5,0-4.6,2-4.6,4.6v4l-12,12.8l-4.3-11.1l20.3-22c2.1-2.3,5.7-2.3,7.8,0L60.2,27.5z"/>
	<path style="fill:#DFDFDF;" d="M36,29.9L36,29.9c-0.4,0-0.7-0.3-0.7-0.7l-0.9-12.5h3.2l-0.9,12.5C36.7,29.5,36.4,29.9,36,29.9z"/>
	<circle style="fill:#DFDFDF;" cx="36" cy="48.4" r="5.3"/>
	<path style="fill:#100F0D;" d="M60.2,25l-2.7-3l-17-18.4l0,0l-2-2.4c-0.2-0.3-0.5-0.5-0.8-0.7c-0.1-0.1-0.2-0.1-0.3-0.2
		c-0.1,0-0.2-0.1-0.3-0.1c-0.7-0.2-1.4-0.2-2,0c-0.5,0.2-1.1,0.5-1.5,1l-2.1,2.5l0,0l-17,18.4l0,0l-2.7,3c-3.1,3.6-3.4,5.6-2.1,9
		l7.8,13.2c3.9,6.6,7.2,13.7,9.8,21l1.3,3.8V59.2c0.6,0.4,1.3,0.8,2,1.1l0,0L36,71.1l5.4-10.8c0.7-0.3,1.4-0.7,2-1.1V72l1.3-3.8
		c2.5-7.3,5.8-14.3,9.8-21L62.3,34C63.6,30.7,63.3,28.7,60.2,25z M36,65.6L33.7,61c0.4,0,0.8,0.1,1.3,0.1h2c0.4,0,0.8,0,1.3-0.1
		L36,65.6z M43.4,56.4c-0.7,0.7-1.5,1.3-2.4,1.7c-0.4,0.2-0.8,0.4-1.2,0.5s-0.9,0.3-1.4,0.3C37.9,59,37.5,59,37,59h-2
		c-0.5,0-0.9,0-1.4-0.1s-0.9-0.2-1.4-0.3c-0.4-0.1-0.8-0.3-1.2-0.5c-0.9-0.4-1.7-1-2.4-1.7V36.3c0.9,0.4,1.9,0.6,3,0.6h2.2V42
		c-2.7,0.9-4.7,3.5-4.7,6.5c0,3.1,2.1,5.8,4.9,6.6c0.6,0.2,1.2,0.3,1.9,0.3s1.3-0.1,1.9-0.3c2.9-0.8,4.9-3.5,4.9-6.6
		c0-3-2-5.6-4.7-6.5v-5.1h2.2c1,0,2-0.2,3-0.6v20.1H43.4z M36,44c0.8,0,1.5,0.2,2.2,0.6c1.3,0.8,2.2,2.2,2.2,3.8s-0.9,3.1-2.2,3.8
		c-0.6,0.4-1.4,0.6-2.2,0.6s-1.5-0.2-2.2-0.6c-1.3-0.8-2.2-2.2-2.2-3.8s0.9-3.1,2.2-3.8C34.5,44.2,35.2,44,36,44z M43.5,31.5
		c0,1.6-14.9,1.6-14.9,0v-9.6c0-2.4,2-4.4,4.4-4.4h2.6c0.3,0,0.6,0,0.8,0H39c2.4,0,4.4,2,4.4,4.4L43.5,31.5L43.5,31.5z M45.8,57.6
		c0,0,0.1-36.4,0.1-36.5c-0.1-3.1-2.7-5.6-5.8-5.6H32c-3.1,0-5.7,2.5-5.8,5.6c0,0.1,0.1,36.5,0.1,36.5l-11.5-32L30.4,8.5
		C32.1,9.4,34,9.9,36,9.9s3.9-0.5,5.6-1.4l15.7,17.1L45.8,57.6z"/>
	<g>
		<polygon style="fill:#DFDFDF;" points="49.1,41.9 47.8,46.9 47.8,20.2 49.1,21.8 		"/>
		<polygon style="fill:#DFDFDF;" points="22.9,41.9 24.2,46.9 24.2,20.2 22.9,21.8 		"/>
	</g>
</g>
</svg>
