<?xml version="1.0" encoding="utf-8"?>
<!-- Generator: Adobe Illustrator 21.0.0, SVG Export Plug-In . SVG Version: 6.00 Build 0)  -->
<svg version="1.1" id="Layer_1" xmlns="http://www.w3.org/2000/svg" xmlns:xlink="http://www.w3.org/1999/xlink" x="0px" y="0px"
	 viewBox="0 0 72 72" style="enable-background:new 0 0 72 72;" xml:space="preserve">
<g id="COLOUR">
	<path style="fill:#1E70B5;" d="M70.7,35.1L70.7,35.1c0-11.2-5.2-22.6-13.7-29.7c-1.9-1.6-3.9-3-6-4.1C50.4,7.6,45.9,13,39.7,14.6
		h-0.2h-0.2c-2.2-0.4-4.5-0.4-6.8,0h-0.2h-0.2c-6-1.6-10.5-7-11.1-13.3C12,6.1,5.1,15.2,2.5,25.9c-2.9,11.8-0.5,24.5,6.3,34
		c3.3,4.6,7.5,8.3,12.2,10.8c0.6-6.2,5.1-11.7,11.3-13.3h0.2h0.2c2.3,0.4,4.5,0.4,6.8,0h0.2h0.2c6.1,1.6,10.7,7,11.3,13.3
		c4.3-2.3,8.1-5.5,11.3-9.5c3.6-4.5,6.1-10,7.4-15.7C70.4,42.1,70.8,38.6,70.7,35.1z"/>
</g>
<g id="DETAIL">
	<g style="opacity:0.15;">
		<path style="fill:#DFDFDF;" d="M33.1,57c-10.3-1.5-18.2-10.3-18.2-21c0-10.8,8.1-19.7,18.5-21c-3.7-0.6-7-2.6-9.3-5.5
			C14,14.2,8.7,24.3,8.7,36C8.7,47.8,14,57.9,24,62.5C26.3,59.7,29.4,57.7,33.1,57z"/>
		<path style="fill:#DFDFDF;" d="M47.9,9.6c-2.3,2.8-5.6,4.8-9.3,5.5c10.4,1.3,18.5,10.2,18.5,21c0,10.7-7.9,19.5-18.2,20.9
			c3.6,0.7,6.8,2.7,9,5.5C58,57.9,63.3,47.8,63.3,36C63.3,24.3,58,14.2,47.9,9.6z"/>
	</g>
	<g>
		<path style="fill:#2E2B28;" d="M26.8,34.1l-6-12.3l-3.7,4.3L4.5,21.8c0,0-2.8,6.4-2.8,14.2s2.7,14.3,2.7,14.3l12-6l3.9,6l6.6-11.9
			v-4.3C26.9,34.1,26.8,34.1,26.8,34.1z"/>
		<path style="fill:#2E2B28;" d="M45.2,34.1l6-12.3l3.7,4.3l12.6-4.3c0,0,2.8,6.4,2.8,14.2s-2.7,14.3-2.7,14.3l-12-6l-3.9,6
			l-6.6-11.9L45.2,34.1L45.2,34.1z"/>
	</g>
	<circle style="fill:#DFDFDF;" cx="36" cy="36" r="7.6"/>
	<g>
		<rect x="35" y="14.9" style="fill:#DFDFDF;" width="1.9" height="42.3"/>
		<rect x="30.8" y="14.9" style="fill:#DFDFDF;" width="1.9" height="42.3"/>
		<rect x="39.3" y="14.9" style="fill:#DFDFDF;" width="1.9" height="42.3"/>
	</g>
	<path style="fill:#100F0D;" d="M71.5,35.1c0-11.4-5.2-23-14-30.4c-2.2-1.9-4.7-3.5-7.3-4.8c0,6.4-4.5,12.2-10.7,13.8
		c-2.3-0.4-4.7-0.4-7,0C26.3,12.2,21.8,6.4,21.8,0C11.5,4.9,4.4,14.8,1.7,25.7c-2.9,11.8-0.6,24.8,6.5,34.7c3.5,4.9,8.2,9,13.6,11.6
		c0-6.4,4.5-12.2,10.7-13.8c2.3,0.4,4.7,0.4,7.1,0c6.2,1.6,10.7,7.4,10.7,13.8c5-2.4,9.3-6,12.7-10.3c3.7-4.7,6.3-10.2,7.6-16
		C71.2,42.2,71.6,38.7,71.5,35.1z M66.9,48.4l-9.5-4.7c1.9-5.4,1.7-11.5-0.6-16.8l10-3.7C69.5,31.2,69.5,40.2,66.9,48.4z M51.5,47.9
		l-4.1-7.1c2.5,0,5.1,0,7.6,0C54.3,43.3,53.1,45.8,51.5,47.9z M18.5,44.6c-0.6-1.2-1.1-2.5-1.4-3.9c2.5,0,5.1,0,7.6,0l-4.1,7.2
		C19.7,46.9,19,45.8,18.5,44.6z M3.2,36c0-4.5,0.7-8.8,2.1-12.9l10,3.7C13,32,12.8,38.1,14.7,43.6l-9.5,4.7
		C3.9,44.5,3.2,40.3,3.2,36z M52.8,26.1c0.9,1.6,1.7,3.3,2.1,5.2c-2.5,0-5.1,0-7.6,0l4.1-7.2C52,24.7,52.4,25.4,52.8,26.1z M36,42.3
		c-2.6,0-5.1-1.7-6-4.2s-0.1-5.3,2-7c2-1.6,4.9-1.9,7.2-0.5s3.5,4.1,3,6.7C41.6,40.2,39,42.3,36,42.3z M36,16.5
		c5.3,0,10.1,2.1,13.6,5.5l-4.4,7.6h-2.4c-3.7-3.9-10-3.9-13.7,0h-2.4L22.4,22C25.9,18.5,30.7,16.5,36,16.5z M24.6,31.3
		c-2.5,0-5.1,0-7.6,0c0.6-2.6,1.8-5.1,3.5-7.2L24.6,31.3z M36,55.5c-5.3,0-10.1-2.1-13.6-5.5l4.4-7.6h2.4c3.7,3.9,10,3.9,13.7,0h2.4
		l4.4,7.6C46.1,53.4,41.3,55.5,36,55.5z M49.1,10.8c1.6-1.9,2.7-4.1,3.3-6.4c6,3.8,10.6,9.6,13.4,16.4l-10.3,3.8
		c-2.6-4.4-6.6-7.8-11.4-9.6C46,13.8,47.7,12.4,49.1,10.8z M19.6,4.3c1.2,4.5,4.2,8.3,8.2,10.5c-4.7,1.8-8.8,5.3-11.4,9.6L6.2,20.7
		C9,13.9,13.7,8.1,19.6,4.3z M22.9,61.2c-1.6,1.9-2.7,4.1-3.3,6.5C13.5,63.8,8.8,57.8,6,50.9l9.7-4.8c2.5,5.1,6.9,9.1,12.2,11.1
		C26,58.2,24.3,59.6,22.9,61.2z M52.4,67.7c-1.2-4.5-4.2-8.3-8.2-10.5c5.3-2,9.7-6.1,12.2-11.1l9.7,4.8
		C63.2,57.8,58.5,63.8,52.4,67.7z"/>
	<g>
		<path style="opacity:0.15;fill:#DFDFDF;enable-background:new    ;" d="M63.7,36.1c0,2.4-0.3,4.7-0.8,7l-2-1
			c0.4-1.9,0.6-3.9,0.6-6c0-2.2-0.2-4.3-0.7-6.3l2.1-0.7C63.4,31.4,63.7,33.7,63.7,36.1z"/>
		<path style="opacity:0.15;fill:#DFDFDF;enable-background:new    ;" d="M8.3,36.1c0,2.4,0.3,4.7,0.8,7l2-1c-0.4-1.9-0.6-3.9-0.6-6
			c0-2.2,0.2-4.3,0.7-6.3l-2.1-0.7C8.6,31.4,8.3,33.7,8.3,36.1z"/>
	</g>
</g>
</svg>
