<?xml version="1.0" encoding="utf-8"?>
<!-- Generator: Adobe Illustrator 21.0.0, SVG Export Plug-In . SVG Version: 6.00 Build 0)  -->
<svg version="1.1" id="Layer_1" xmlns="http://www.w3.org/2000/svg" xmlns:xlink="http://www.w3.org/1999/xlink" x="0px" y="0px"
	 viewBox="0 0 72 72" style="enable-background:new 0 0 72 72;" xml:space="preserve">
<g id="COLOUR">
	<g>
		<g>
			<path style="fill:#1E70B5;" d="M65.5,51.7l-3-3l0.3-0.6c0.5-1,0.9-2.1,1.2-3.2l0.1-0.2l0.2-0.2c2.2-2.3,3.4-5.3,3.4-8.5
				s-1.2-6.2-3.4-8.5L64,27.3v-0.1l-2.1-1.6L60.8,25l1-1l0.9-0.9l2.8-2.8l4,4c1-2.2,1.6-4.6,1.6-7c0-9-7.3-16.4-16.4-16.4
				c-2.4,0-4.9,0.6-7,1.6l4,4l-3,3l-0.6-0.3C47,8.8,46,8.4,44.9,8h-0.2l-0.2-0.1c-2.3-2.2-5.3-3.4-8.5-3.4s-6.2,1.2-8.5,3.4L27.3,8
				h-0.2C26,8.4,25,8.8,23.9,9.3l-0.6,0.3l-3-3l4-4c-2.2-1-4.6-1.6-7.1-1.6C8.2,1,0.8,8.3,0.8,17.4c0,2.4,0.6,4.9,1.6,7l4-4l3,3
				l1.7,1.7L10,25.7l-2,1.5v0.1l-0.2,0.2c-2.2,2.3-3.4,5.3-3.4,8.5c0,3.2,1.2,6.2,3.4,8.5L8,44.7v0.2C8.4,46,8.8,47,9.3,48.1
				l0.3,0.6l-3,3l-4-4c-1,2.2-1.6,4.6-1.6,7c0,9,7.3,16.4,16.4,16.4c2.4,0,4.9-0.5,7.1-1.6l-4-4l4.8-4.8l0.6,1.2l1.5,2l0,0l0.2,0.1
				l0.2,0.1c2.3,2.2,5.3,3.4,8.5,3.4s6.2-1.2,8.5-3.4L45,64l0.2-0.1c1.1-0.3,2.2-0.7,3.2-1.2l0.6-0.3l3,3l-4,4
				c2.2,1.1,4.6,1.6,7,1.6c9,0,16.4-7.3,16.4-16.4c0-2.4-0.5-4.9-1.6-7L65.5,51.7z M18.5,63.6L8.4,53.5l2.5-2.5l0.6,0.9
				c2.2,3.4,5.2,6.4,8.6,8.6l0.9,0.6L18.5,63.6z M20,11.4c-3.4,2.2-6.4,5.2-8.6,8.6l-0.6,0.9l-2.5-2.5l10.2-10l2.5,2.5L20,11.4z
				 M53.5,8.4l10.1,10.1L61.1,21l-0.5-1c-2.2-3.4-5.1-6.3-8.6-8.6l-0.9-0.6L53.5,8.4z M53.5,63.7l-2.4-2.5l0.9-0.6
				c3.4-2.2,6.4-5.2,8.6-8.6l0.6-0.9l2.5,2.4L53.5,63.7z"/>
			<path style="fill:#1E70B5;" d="M62.4,24.7L62.4,24.7c0,0.1,0,0.2,0.1,0.2C62.5,24.8,62.4,24.8,62.4,24.7z M24.8,62.3L24.8,62.3
				c0,0.1,0,0.2,0.1,0.2C24.9,62.4,24.8,62.4,24.8,62.3z M9.6,24.7c0,0.1-0.1,0.1-0.1,0.2C9.6,24.9,9.6,24.8,9.6,24.7L9.6,24.7z"/>
		</g>
	</g>
</g>
<g id="DETAIL">
	<g>
		<g>
			<path style="opacity:0.15;fill:#DFDFDF;enable-background:new    ;" d="M24.3,3.3L3.2,24.4l0,0c-2.2-2.2-2.2-5.8,0-8L16.3,3.3
				C18.5,1.1,22.1,1.1,24.3,3.3L24.3,3.3z"/>
			<path style="opacity:0.15;fill:#DFDFDF;enable-background:new    ;" d="M47.7,3.3l21.1,21.1l0,0c2.2-2.2,2.2-5.8,0-8L55.7,3.3
				C53.5,1.1,49.9,1.1,47.7,3.3L47.7,3.3z"/>
		</g>
		<g>
			<path style="opacity:0.15;fill:#DFDFDF;enable-background:new    ;" d="M24.3,69L3.2,47.9l0,0c-2.2,2.2-2.2,5.8,0,8L16.3,69
				C18.5,71.2,22.1,71.2,24.3,69L24.3,69z"/>
			<path style="opacity:0.15;fill:#DFDFDF;enable-background:new    ;" d="M47.7,69l21.1-21.1l0,0c2.2,2.2,2.2,5.8,0,8L55.7,69
				C53.5,71.2,49.9,71.2,47.7,69L47.7,69z"/>
		</g>
		<circle style="opacity:0.15;fill:#DFDFDF;enable-background:new    ;" cx="36" cy="36" r="15.2"/>
		<g>
			<path style="fill:#2E2B28;" d="M46,15.3c-3-1.5-6.4-2.3-10-2.3s-7,0.8-10,2.3c0.7-4.9,4.9-8.8,10-8.8S45.4,10.3,46,15.3z"/>
		</g>
		<g>
			<path style="fill:#2E2B28;" d="M46.1,56.7c-0.5,5.1-4.8,9.1-10.1,9.1c-5.2,0-9.5-4-10.1-9.1C29,58.2,32.4,59,36,59
				S43,58.2,46.1,56.7z"/>
		</g>
		<g>
			<g>
				<path style="fill:#2E2B28;" d="M65.6,36.2c0,5.2-3.9,9.5-9,10.1C58.2,43.1,59,39.7,59,36c0-3.5-0.8-6.9-2.2-9.9
					C61.8,26.7,65.6,31,65.6,36.2z"/>
			</g>
			<g>
				<path style="fill:#2E2B28;" d="M15.4,46.2c-5.1-0.6-9-4.8-9-10.1c0-5.2,3.9-9.4,8.8-10c-1.4,3-2.2,6.3-2.2,9.9
					C13,39.7,13.8,43.1,15.4,46.2z"/>
			</g>
		</g>
		<circle style="fill:#DFDFDF;" cx="36" cy="36" r="8"/>
		<g>
			<path style="fill:#100F0D;" d="M65.5,50.4l-1.9-1.9c0.4-0.9,0.8-1.8,1.1-2.7c0.2-0.5,0.3-0.7,0.7-1.1c0.3-0.3,0.6-0.7,0.8-1
				c1-1.4,1.7-3,2.1-4.6c0.8-3.4,0.2-7.1-1.7-10c-0.3-0.4-0.5-0.8-0.8-1.2c-0.3-0.3-0.7-0.7-0.8-1c-0.2-0.5-0.4-1.1-0.6-1.6
				c-0.2-0.6-0.4-1.1-0.7-1.6c0.6-0.7,1.3-1.3,1.9-1.9l4.2,4.2c3-5.3,3-12.1-0.1-17.3C67,4.1,62.3,1,57,0.3
				c-3.7-0.5-7.5,0.3-10.8,2.1l4.2,4.2l-1.9,1.9c-0.9-0.4-1.8-0.8-2.7-1.1C45.3,7.2,45,7,44.6,6.7c-0.3-0.3-0.7-0.6-1-0.8
				c-1.4-1-3-1.7-4.6-2.1C35.6,3,31.9,3.6,29,5.5c-0.4,0.3-0.8,0.5-1.2,0.8c-0.3,0.3-0.7,0.7-1,0.8c-0.5,0.2-1.1,0.4-1.6,0.6
				c-0.6,0.2-1.1,0.4-1.6,0.7l-1.9-1.9l4.2-4.2c-5.3-3-12.1-3-17.3,0.1C4,5.1,0.8,9.8,0.1,15.1c-0.5,3.7,0.3,7.5,2.1,10.8l4.2-4.2
				l1.9,1.9c-0.4,0.9-0.8,1.8-1.1,2.7C7,26.8,6.9,27,6.5,27.4c-0.3,0.3-0.6,0.7-0.8,1c-1,1.4-1.7,3-2.1,4.6c-0.8,3.4-0.2,7.1,1.7,10
				c0.3,0.4,0.5,0.8,0.8,1.2c0.3,0.3,0.7,0.7,0.8,1c0.2,0.5,0.4,1.1,0.6,1.6c0.2,0.6,0.4,1.1,0.7,1.6l-1.9,1.9l-4.2-4.2
				c-3,5.3-3,12,0.1,17.3c2.7,4.6,7.4,7.7,12.7,8.4c3.7,0.5,7.5-0.3,10.8-2.1l-4.2-4.2l1.9-1.9c0.9,0.4,1.8,0.8,2.7,1.1
				c0.5,0.2,0.7,0.3,1.1,0.7c0.3,0.3,0.7,0.6,1,0.8c1.4,1,3,1.7,4.6,2.1c3.4,0.8,7,0.2,10-1.7c0.4-0.3,0.8-0.5,1.2-0.8
				c0.3-0.3,0.7-0.7,1-0.8c0.5-0.2,1.1-0.4,1.6-0.6c0.6-0.2,1.1-0.4,1.6-0.7l1.9,1.9l-4.2,4.2c5.3,3.1,12.1,3,17.3-0.1
				c4.6-2.7,7.7-7.4,8.4-12.7c0.5-3.7-0.3-7.5-2.1-10.8L65.5,50.4z M63.7,36c0,3-1.6,5.8-4.1,7.3c1.5-4.7,1.5-9.9,0-14.6
				C62.1,30.2,63.7,33,63.7,36z M62.4,53.5l-8.8,8.8l-1-1C56,59,59,56,61.3,52.5L62.4,53.5z M61.3,19.5C59,16,56,13,52.5,10.7l1-1
				l8.8,8.8L61.3,19.5z M62.4,24.7c0,0.1,0.1,0.1,0.1,0.2C62.4,24.9,62.4,24.8,62.4,24.7L62.4,24.7z M54.7,3c6.5,0,12.4,4.6,13.8,11
				c0.5,2.1,0.5,4.3,0,6.4l-17-17C52.6,3.2,53.7,3,54.7,3z M50.3,12.9c4.2,2.6,7.7,6.4,10,10.9c-1.1-0.4-2.2-0.8-3.4-0.9
				c-2-3.1-4.6-5.8-7.7-7.7c-0.1-1.2-0.4-2.3-0.9-3.4C49,12.1,49.6,12.5,50.3,12.9z M32.5,9c3.9-1.7,8.6-0.3,10.7,3.4
				c-4.7-1.5-9.9-1.5-14.6,0C29.6,10.9,30.9,9.7,32.5,9z M21.7,12.9c0.7-0.4,1.3-0.8,2-1.1c-0.4,1.1-0.8,2.2-0.9,3.4
				c-3.1,2-5.8,4.6-7.7,7.7c-1.2,0.1-2.3,0.4-3.4,0.9C14,19.3,17.5,15.5,21.7,12.9z M9.6,18.5l8.8-8.8l1,1C16,13,13,16,10.7,19.5
				L9.6,18.5z M9.7,24.8c-0.1,0-0.1,0.1-0.2,0.1C9.5,24.8,9.6,24.8,9.7,24.8L9.7,24.8z M4.4,19.5l-1,1c-1.6-7.4,2.9-15,10.2-17
				c2.2-0.6,4.6-0.6,6.9-0.1L4.4,19.5z M8.3,36c0-3,1.6-5.8,4.1-7.3c-1.5,4.7-1.5,9.9,0,14.6C9.9,41.8,8.3,39,8.3,36z M19.5,61.3
				l-1,1l-8.8-8.8l1-1C13,56,16,59,19.5,61.3z M17.3,69C10.8,69,5,64.4,3.5,58c-0.5-2.1-0.5-4.3,0-6.4c2,2,3.9,3.9,5.9,5.9
				c2.4,2.4,4.8,4.8,7.2,7.2c1.3,1.3,2.7,2.7,4,4C19.4,68.8,18.3,69,17.3,69z M21.7,59.1c-4.2-2.6-7.7-6.4-10-10.9
				c1.1,0.4,2.2,0.8,3.4,0.9c2,3.1,4.6,5.8,7.7,7.7c0.1,1.2,0.4,2.3,0.9,3.4C23,59.9,22.4,59.5,21.7,59.1z M24.7,62.4L24.7,62.4
				c0.1,0,0.2,0,0.2,0.1C24.8,62.5,24.8,62.4,24.7,62.4z M39.5,63c-3.9,1.7-8.6,0.3-10.7-3.4c4.7,1.5,9.9,1.5,14.6,0
				C42.4,61.1,41.1,62.3,39.5,63z M44.5,54.6c-7.8,3.6-17.3,1.7-23.2-4.5c-5.9-6.1-7.4-15.7-3.5-23.3s12.3-12.2,20.8-11.1
				c8.3,1,15.4,7.3,17.3,15.5c2,8.4-1.6,17.3-8.8,21.9C46.2,53.7,45.4,54.2,44.5,54.6z M50.3,59.1c-0.7,0.4-1.3,0.8-2,1.1
				c0.4-1.1,0.8-2.2,0.9-3.4c3.1-2,5.8-4.6,7.7-7.7c1.2-0.1,2.3-0.4,3.4-0.9C58,52.7,54.5,56.5,50.3,59.1z M68.9,54.9
				c0.1,0.8-0.1,1.7-0.2,2.4c-0.1,0.8-0.4,1.6-0.6,2.3c-0.5,1.5-1.3,2.8-2.3,4c-2,2.4-4.8,4.2-7.8,4.9c-2.1,0.5-4.3,0.5-6.4,0
				c2-2,3.9-3.9,5.9-5.9c2.4-2.4,4.8-4.8,7.2-7.2c1.3-1.3,2.7-2.7,4-4C68.8,52.6,69,53.9,68.9,54.9z"/>
		</g>
		<path style="fill:#12100B;" d="M36,27c-5,0-9,4-9,9s4,9,9,9s9-4,9-9S41,27,36,27z M36,42c-3.3,0-6-2.7-6-6s2.7-6,6-6s6,2.7,6,6
			S39.3,42,36,42z"/>
		<g>
			
				<rect x="42.8" y="24.7" transform="matrix(0.7071 -0.7071 0.7071 0.7071 -4.7973 40.1704)" style="fill:#DFDFDF;" width="6.6" height="2.3"/>
			
				<rect x="22.6" y="45" transform="matrix(0.7071 -0.7071 0.7071 0.7071 -25.0264 31.8289)" style="fill:#DFDFDF;" width="6.6" height="2.3"/>
			
				<rect x="44.9" y="42.8" transform="matrix(0.7071 -0.7071 0.7071 0.7071 -19.1142 46.1011)" style="fill:#DFDFDF;" width="2.3" height="6.6"/>
			
				<rect x="24.8" y="22.6" transform="matrix(0.7071 -0.7071 0.7071 0.7071 -10.7084 25.8987)" style="fill:#DFDFDF;" width="2.3" height="6.6"/>
		</g>
	</g>
</g>
</svg>
