<?xml version="1.0" encoding="utf-8"?>
<!-- Generator: Adobe Illustrator 21.0.0, SVG Export Plug-In . SVG Version: 6.00 Build 0)  -->
<svg version="1.1" id="Layer_1" xmlns="http://www.w3.org/2000/svg" xmlns:xlink="http://www.w3.org/1999/xlink" x="0px" y="0px"
	 viewBox="0 0 72 72" style="enable-background:new 0 0 72 72;" xml:space="preserve">
<g id="COLOUR">
	<path style="fill:#1E70B5;" d="M70.8,11.1V9.5H46.6V17c-1.9-3.9-6-6.6-10.6-6.6c-4.8,0-8.9,2.8-10.7,6.9V14v-2.9V9.5H1.1v25.9h18.1
		v24.1c0,2.1,0.7,4,2,5.6l0,0c1.4,1.6,3.3,2.7,5.4,3l0,0l0,0c0.3,0,0.6,0.1,1,0.1V30.6c2.1,2.2,5.1,3.5,8.4,3.5s6.2-1.3,8.4-3.5
		v37.5c0.7,0,1.4-0.1,2.1-0.3c1.1-0.3,2.2-0.8,3.1-1.6c2.1-1.7,3.3-4.1,3.3-6.8v-24h17.9v-3.7V13.9L70.8,11.1z"/>
</g>
<g id="DETAIL">
	<path style="fill:#DFDFDF;" d="M44.4,61.2H27.5v7.1c2.8,1,5.8,1.6,8.8,1.6c2.8,0,5.5-0.4,8.1-1.3V61.2z"/>
	<path style="fill:#2E2B28;" d="M39.5,33.8v-0.5h-6.9v0.6c-1.6-0.2-3.1-0.6-4.5-1.2v28.5c5.2,1.7,10.7,1.8,16.3,0V32.7
		C42.6,33.2,41,33.6,39.5,33.8z"/>
	<circle style="fill:#DFDFDF;" cx="36.2" cy="22.3" r="6.1"/>
	<path style="fill:#DFDFDF;" d="M39,55.6c0,1.7-1.4,3-3,3s-3-1.4-3-3v-4.3h6V55.6z"/>
	<rect x="35.1" y="33.9" style="opacity:0.25;fill:#DFDFDF;enable-background:new    ;" width="1.9" height="12.8"/>
	<rect x="46.6" y="18.1" style="opacity:0.14;fill:#DFDFDF;enable-background:new    ;" width="24.2" height="8.3"/>
	<rect x="56.5" y="16.6" style="fill:#DFDFDF;" width="4.4" height="11.4"/>
	<rect x="1.1" y="18.1" style="opacity:0.14;fill:#DFDFDF;enable-background:new    ;" width="24.2" height="8.3"/>
	<rect x="11" y="16.6" style="fill:#DFDFDF;" width="4.4" height="11.4"/>
	<g>
		<path style="fill:#100F0D;" d="M43.5,20.5c-0.3-1.2-0.8-2.2-1.5-3.1c-1.4-1.7-3.6-2.8-6-2.8c-2.5,0-4.7,1.2-6.1,3
			c-0.7,0.9-1.2,2-1.4,3.2c-0.1,0.5-0.1,1-0.1,1.5v0.2c0,1,0.2,2,0.6,2.9c0.5,1.2,1.4,2.3,2.4,3.1c0.7,0.5,1.5,0.9,2.4,1.2
			c0.7,0.2,1.5,0.3,2.3,0.3s1.6-0.1,2.3-0.3c0.9-0.3,1.7-0.7,2.4-1.2c1.1-0.8,1.9-1.9,2.4-3.1c0.4-0.9,0.6-1.9,0.6-2.9v-0.2
			C43.7,21.6,43.6,21.1,43.5,20.5z M39,25.9c-0.8,0.7-1.9,1.1-3,1.1c-1.2,0-2.2-0.4-3-1.1c-1.1-0.9-1.7-2.2-1.7-3.7
			c0-0.9,0.2-1.7,0.7-2.4c0.8-1.4,2.4-2.4,4.1-2.4c1.7,0,3.2,0.9,4.1,2.3c0.5,0.7,0.7,1.6,0.7,2.5C40.8,23.7,40.1,25.1,39,25.9z"/>
		<path style="fill:#100F0D;" d="M72,8.1c-1.3,0-2.7,0-4,0C66.8,4,62.9,1,58.6,1s-8.2,3-9.4,7.2h-4v4c-5.1-4.7-13.3-4.7-18.4,0
			c0-1.3,0-2.7,0-4h-4C21.7,4,17.7,1,13.4,1S5.2,4,4,8.1H0v28.6h7.4v3.6h10.5c0,4.8,0,9.7,0,14.5c0,4.7-0.2,9.9,3.9,13
			c3.1,2.4,7.3,3,11.1,3.2c4.6,0.3,9.5,0.2,13.9-1.4c2.8-1,5.3-2.9,6.4-5.7c1-2.3,1-4.8,1-7.3c0-5.5,0-10.9,0-16.4h10.5v-3.6
			c2.5,0,4.9,0,7.4,0L72,8.1L72,8.1z M2.7,10.8h21.5c0,0.9,0,1.8,0,2.7s0.1,1.7-0.3,2.5H2.7V10.8z M2.7,18.9h20.1
			c-0.6,2.2-0.5,4.5,0,6.7H2.7V18.9z M2.7,34v-5.5h21.2c0.1,0.2,0.2,0.3,0.3,0.5v5H2.7z M26.3,66.6c-1.6-0.3-3-1.2-4-2.4l0,0
			c-2.4-2.8-1.7-6.9-1.7-10.3c0-4.6,0-9.2,0-13.8c0-1.1,0-2.3,0-3.4h5.8L26.3,66.6L26.3,66.6z M43.1,67.1c-4.6,1.5-9.5,1.1-14.1,0
			v-4.6c4.8,1.9,9.4,1.9,14.1,0V67.1z M43.1,60.1c-4.3,2.5-9.8,2.5-14.1,0V35c0.3-0.2,0.6-0.4,1-0.5c0.5,0.2,0.9,0.4,1.4,0.6
			c0,6.7,0,13.3,0,20c0,2.2,1.2,4.2,3.4,4.8c3,0.8,5.7-1.5,5.8-4.5c0.1-3.2,0-6.4,0-9.5c0-3.6,0-7.2,0-10.8c0.5-0.2,1-0.4,1.4-0.6
			c0.3,0.1,0.7,0.3,1,0.5L43.1,60.1L43.1,60.1z M33.7,55.4V35.7c1.5,0.3,3.1,0.3,4.6,0c0,6.5,0.1,12.9,0,19.4c0,0.8-0.2,1.6-0.9,2.1
			C36,58.4,33.7,57.3,33.7,55.4z M43.1,29.8c-3.4,3.2-8.6,3.7-12.6,1.2c-3.7-2.3-5.6-7-4.5-11.3c1-3.9,4.3-6.9,8.2-7.6
			c3.9-0.7,8,1,10.2,4.3C47.4,20.5,46.7,26.3,43.1,29.8z M51.5,59.5c0,3.2-2.4,6.7-5.8,7.2v-30h5.8V59.5z M69.3,31.7V34H47.9
			c0-0.9,0-1.8,0-2.7c0-1-0.2-2,0.3-2.8h21.2L69.3,31.7z M69.3,25.6h-20c0.5-2.2,0.6-4.5,0-6.7h20.1L69.3,25.6z M69.3,15.9H48.1
			c-0.4-0.8-0.3-1.7-0.3-2.6c0-0.8,0-1.7,0-2.5h21.5C69.3,12.5,69.3,14.2,69.3,15.9z"/>
	</g>
	<path style="fill:none;" d="M28.9,62.5v4.6c2.7,0.7,4.5,1,7.1,1s4.4-0.1,7.1-1v-4.6C38.3,64.4,33.7,64.4,28.9,62.5z"/>
	<path style="fill:none;" d="M20.5,59.5c0,0.6,0.1,1.3,0.3,1.9c0,0.2,0.1,0.4,0.2,0.6c0.1,0.2,0.2,0.5,0.3,0.7
		c0.1,0.2,0.1,0.3,0.2,0.4c0.1,0.1,0.1,0.3,0.2,0.4c0.1,0.1,0.2,0.2,0.2,0.3l0.1,0.1c0,0.1,0.1,0.1,0.2,0.2l0,0l0,0
		c1.1,1.2,2.5,2.1,4,2.4V36.7h-5.8L20.5,59.5L20.5,59.5z"/>
	<path style="fill:none;" d="M22.6,25.1c-0.1-0.4-0.2-0.9-0.2-1.3s-0.1-0.9-0.1-1.3v-0.2c0-0.6,0-1.1,0.1-1.7s0.2-1.1,0.3-1.7h-20
		v6.7h20.1C22.7,25.4,22.7,25.2,22.6,25.1z"/>
	<path style="fill:none;" d="M24.1,29L24.1,29c-0.1-0.2-0.2-0.3-0.3-0.5H2.7V34h21.5v-5H24.1z"/>
	<path style="fill:none;" d="M24.1,15.4v-1.5v-2.8v-0.3H2.7v5.1h21.2C24,15.8,24,15.6,24.1,15.4z"/>
	<path style="fill:none;" d="M38.3,55.4V35.7c-0.7,0.1-1.5,0.2-2.3,0.2s-1.5-0.1-2.3-0.2v19.7c0,1.3,1,2.3,2.3,2.3
		S38.3,56.7,38.3,55.4z"/>
	<path style="fill:none;" d="M49.5,20.2c0.1,0.7,0.2,1.4,0.2,2.1v0.2c0,0.3,0,0.6,0,0.9c0,0.6-0.1,1.1-0.2,1.7
		c0,0.2-0.1,0.3-0.1,0.5h20.1v-6.7H49.3C49.4,19.3,49.4,19.7,49.5,20.2z"/>
	<path style="fill:none;" d="M69.3,10.8H47.9v4.6c0.1,0.2,0.2,0.3,0.3,0.5h21.2v-2v-2.8L69.3,10.8L69.3,10.8z"/>
	<path style="fill:none;" d="M47.9,29v5h21.5v-2.3v-3.2H48.1C48,28.7,48,28.9,47.9,29z"/>
	<path style="fill:none;" d="M45.9,25.1c0.2-0.8,0.4-1.7,0.4-2.7v-0.2c0-0.2,0-0.5,0-0.7c-0.1-1.1-0.3-2.2-0.7-3.1
		c-0.1-0.3-0.2-0.6-0.4-0.9c-1.7-3.3-5.2-5.6-9.2-5.6s-7.5,2.3-9.2,5.6c-0.2,0.4-0.3,0.7-0.5,1.1c-0.4,1-0.6,2-0.6,3.2
		c0,0.1,0,0.3,0,0.4v0.2c0,0.9,0.1,1.8,0.4,2.7c0,0.2,0.1,0.4,0.2,0.6c0.1,0.4,0.3,0.8,0.5,1.2c0.5,1.1,1.3,2,2.1,2.9
		c0.6,0.6,1.3,1.1,2.1,1.5c0.1,0.1,0.2,0.1,0.3,0.2c0.7,0.4,1.5,0.7,2.4,0.8c0.7,0.2,1.5,0.3,2.3,0.3s1.6-0.1,2.3-0.3
		c0.8-0.2,1.6-0.5,2.4-0.8c0.1,0,0.2-0.1,0.3-0.2c0.8-0.4,1.5-0.9,2.1-1.5C44,29,44.7,28,45.2,27c0.2-0.4,0.4-0.8,0.5-1.2
		C45.8,25.5,45.9,25.3,45.9,25.1z"/>
	<path style="fill:none;" d="M45.7,66.6c0.1,0,0.1,0,0.2,0H46c1-0.3,1.9-0.7,2.6-1.3l0.1-0.1c0.2-0.1,0.3-0.3,0.5-0.4
		c0.2-0.2,0.4-0.4,0.5-0.6c0.1-0.1,0.1-0.2,0.2-0.2c0.3-0.3,0.5-0.7,0.7-1.1c0.1-0.1,0.1-0.2,0.2-0.4c0.1-0.3,0.2-0.6,0.3-1
		c0.1-0.2,0.1-0.4,0.1-0.6v-0.1c0-0.2,0.1-0.4,0.1-0.7c0-0.1,0-0.3,0-0.4v-23h-5.8v29.9H45.7z"/>
</g>
</svg>
