<?xml version="1.0" encoding="utf-8"?>
<!-- Generator: Adobe Illustrator 21.0.0, SVG Export Plug-In . SVG Version: 6.00 Build 0)  -->
<svg version="1.1" id="Layer_1" xmlns="http://www.w3.org/2000/svg" xmlns:xlink="http://www.w3.org/1999/xlink" x="0px" y="0px"
	 viewBox="0 0 72 72" style="enable-background:new 0 0 72 72;" xml:space="preserve">
<g id="COLOUR">
	<path style="fill:#1E70B5;" d="M58.3,53.7l-2.9-34h-0.1c0-9.6-6.1-17.5-13.9-18.3v27.5C39.7,28.3,37.9,28,36,28s-3.7,0.3-5.4,0.9
		V1.3C22.8,2.1,16.7,10,16.7,19.6h-0.1l-2.9,34h-2.9c4.1,10.3,14,17,25.2,17s21.1-6.8,25.2-17h-2.9V53.7z"/>
</g>
<g id="DETAIL">
	<g>
		<g style="opacity:0.15;">
			<rect x="32.8" y="56.7" style="fill:#DFDFDF;" width="6.5" height="12.2"/>
		</g>
		<g style="opacity:0.14;">
			<g>
				<path style="fill:#DFDFDF;" d="M42.6,38.5V25h11.9l0.9,10.9l0.4,4.7h-11C44.2,39.7,43.5,39,42.6,38.5z"/>
			</g>
			<g>
				<path style="fill:#DFDFDF;" d="M29.4,25v13.5c-0.8,0.6-1.6,1.3-2.3,2.1h-11l0.4-4.7L17.4,25H29.4z"/>
			</g>
		</g>
		<g style="opacity:0.15;">
			<g>
				
					<ellipse transform="matrix(0.9988 -4.915225e-02 4.915225e-02 0.9988 -1.0203 2.5088)" style="fill:#DFDFDF;" cx="50.5" cy="22" rx="1.6" ry="1.6"/>
			</g>
			<g>
				
					<ellipse transform="matrix(0.9988 -4.915225e-02 4.915225e-02 0.9988 -1.3444 2.5315)" style="fill:#DFDFDF;" cx="50.8" cy="28.6" rx="1.6" ry="1.6"/>
			</g>
			<g>
				
					<ellipse transform="matrix(0.9988 -4.915225e-02 4.915225e-02 0.9988 -1.6537 2.5539)" style="fill:#DFDFDF;" cx="51.1" cy="34.9" rx="1.6" ry="1.6"/>
			</g>
			<g>
				
					<ellipse transform="matrix(4.915225e-02 -0.9988 0.9988 4.915225e-02 -1.5921 42.4345)" style="fill:#DFDFDF;" cx="21.5" cy="22.1" rx="1.6" ry="1.6"/>
			</g>
			<g>
				
					<ellipse transform="matrix(4.915225e-02 -0.9988 0.9988 4.915225e-02 -8.4689 48.3057)" style="fill:#DFDFDF;" cx="21.1" cy="28.6" rx="1.6" ry="1.6"/>
			</g>
			<g>
				
					<ellipse transform="matrix(4.915225e-02 -0.9988 0.9988 4.915225e-02 -15.1503 54.0445)" style="fill:#DFDFDF;" cx="20.8" cy="35" rx="1.6" ry="1.6"/>
			</g>
		</g>
		<g>
			<g>
				<path style="fill:#DFDFDF;" d="M45.8,10.1v30.4h-0.9c-0.2-0.2-0.4-0.5-0.7-0.7V8.5l0,0C45.1,8.5,45.8,9.2,45.8,10.1z"/>
			</g>
			<g>
				<path style="fill:#DFDFDF;" d="M27.8,8.5v31.3c-0.2,0.2-0.4,0.5-0.7,0.7h-0.9V10.1C26.2,9.2,26.9,8.5,27.8,8.5L27.8,8.5z"/>
			</g>
		</g>
		<g>
			<g>
				<g>
					<path style="fill:#2E2B28;" d="M42.1,59.4l-0.2-8.2v-9.7h19.9l1.5,14.8c0.1,0.8-0.2,1.6-0.7,2.2c-0.5,0.6-1.3,0.9-2.1,0.9H42.1
						z"/>
				</g>
			</g>
			<g>
				<g>
					<path style="fill:#2E2B28;" d="M11.4,59.4c-0.8,0-1.6-0.3-2.1-0.9c-0.5-0.6-0.8-1.4-0.7-2.2l1.5-14.8H30v9.7l-0.2,8.1
						L11.4,59.4L11.4,59.4z"/>
				</g>
			</g>
		</g>
		<path style="fill:#DFDFDF;" d="M46.3,48.1c0,2.5-0.9,4.8-2.4,6.6c-0.1,0.1-0.2,0.3-0.3,0.4c-0.6,0.6-2.9,1.6-3.5,1.9
			c0,0-0.1,0-0.1,0.1v-8.2c0-2.3-1.8-4.4-4.1-4.4s-4.1,2.1-4.1,4.4v8.2c0,0-0.1,0-0.1-0.1c-0.5-0.3-2.9-1.3-3.4-1.9
			c-0.1-0.1-0.2-0.2-0.3-0.4c-1.5-1.8-2.4-4.1-2.4-6.6c0-2.3,0.8-4.5,2.1-6.2c0.2-0.3,0.5-0.6,0.7-0.9c0.5-0.5,1.1-1,1.7-1.5
			c0.4-0.3,0.8-0.5,1.2-0.7c1.4-0.7,3-1.1,4.7-1.1s3.3,0.4,4.7,1.1c0.4,0.2,0.8,0.4,1.2,0.7c0.6,0.4,1.2,0.9,1.7,1.5
			c0.3,0.3,0.5,0.6,0.7,0.9C45.6,43.6,46.3,45.8,46.3,48.1z"/>
	</g>
	<path style="fill:#12100B;" d="M62.8,41.2L62.8,41.2c0-0.2,0-0.4,0-0.6c0-2.8-2.2-5-4.9-5.2l-1.4-16.2l-0.1-0.9v0.1
		C56,8.1,48.8,0,40.1,0v26.9c-1.3-0.3-2.7-0.4-4.1-0.4s-2.8,0.1-4.1,0.4V0c-8.6,0-15.7,7.9-16.4,18l0,0l-0.1,1.6l0,0L14,35.4
		c-2.7,0.1-4.9,2.4-4.9,5.2c0,0.2,0,0.4,0,0.6l-1.5,15c-0.2,2.3,1.5,4.2,3.8,4.2h1.7C18.3,67.4,26.6,72,36,72s17.7-4.6,22.9-11.6
		h1.7c2.3,0,4-2,3.8-4.2L62.8,41.2z M42.6,2.8c6.5,1.5,11.5,8.5,11.5,16.8l1.4,16.2l0.4,4.7h-11c-0.7-0.8-1.4-1.5-2.3-2.1
		C42.6,38.4,42.6,2.8,42.6,2.8z M31.9,29.5c1.3-0.3,2.7-0.5,4.1-0.5s2.8,0.2,4.1,0.5v5.6c-1.3-0.5-2.7-0.8-4.1-0.8s-2.8,0.3-4.1,0.8
		V29.5z M16.5,35.8l1.4-16.2c0-8.4,5-15.4,11.5-16.8v35.6c-0.8,0.6-1.6,1.3-2.3,2.1h-11L16.5,35.8z M11.4,58.4c-0.5,0-1-0.2-1.3-0.6
		c-0.3-0.4-0.5-0.9-0.4-1.4l1.2-12l0.2-1.9h14.7c-0.9,1.6-1.4,3.5-1.4,5.5H13.9l-0.5,7.3H27c0.2,0.2,0.4,0.4,0.6,0.6
		c0.4,0.5,0.9,0.9,1.4,1.3v0.6v0.5H11.4V58.4z M31.1,69c-5.8-1.1-11-4.2-14.8-8.6h3.6c3,3.1,6.8,5.4,11.2,6.4
		C31.1,66.8,31.1,69,31.1,69z M38.4,67.8h-4.7V48c0-1.3,1.1-2.4,2.4-2.4s2.4,1.1,2.4,2.4v19.8H38.4z M36,43.1
		c-2.7,0-4.9,2.2-4.9,4.9v7.7c0,0-0.1,0-0.1-0.1c-0.6-0.4-1.2-0.9-1.7-1.4c-0.1-0.1-0.2-0.2-0.3-0.3c-1.3-1.6-2.1-3.6-2.1-5.8
		c0-2.1,0.7-4,1.8-5.5c0.2-0.3,0.4-0.5,0.6-0.8c0.5-0.5,1-0.9,1.5-1.3c0.3-0.2,0.7-0.4,1-0.6c1.2-0.6,2.6-1,4.1-1s2.9,0.4,4.1,1
		c0.4,0.2,0.7,0.4,1,0.6c0.5,0.4,1,0.8,1.5,1.3c0.2,0.2,0.4,0.5,0.6,0.8c1.1,1.5,1.8,3.4,1.8,5.5c0,2.2-0.8,4.2-2.1,5.8
		c-0.1,0.1-0.2,0.2-0.3,0.3c-0.5,0.5-1.1,1-1.7,1.4c0,0-0.1,0-0.1,0.1V48C40.9,45.3,38.7,43.1,36,43.1z M40.9,69v-2.2
		c4.3-1,8.2-3.2,11.2-6.4h3.6C51.9,64.8,46.7,67.9,40.9,69z M61.9,57.8c-0.4,0.4-0.8,0.6-1.3,0.6H43.1v-0.5v-0.6
		c0.5-0.4,1-0.8,1.4-1.3c0.2-0.2,0.4-0.4,0.6-0.6h13.6L58.1,48H47.6c0-2-0.5-3.8-1.4-5.5h14.7l0.2,1.8l1.2,12
		C62.4,56.9,62.2,57.4,61.9,57.8z"/>
</g>
</svg>
