<?xml version="1.0" encoding="utf-8"?>
<!-- Generator: Adobe Illustrator 21.0.0, SVG Export Plug-In . SVG Version: 6.00 Build 0)  -->
<svg version="1.1" id="Layer_1" xmlns="http://www.w3.org/2000/svg" xmlns:xlink="http://www.w3.org/1999/xlink" x="0px" y="0px"
	 viewBox="0 0 72 72" style="enable-background:new 0 0 72 72;" xml:space="preserve">
<g id="COLOUR">
	<g>
		<path style="fill:#1E70B5;" d="M61.8,13.6l-1.3-0.4h-2.9v-0.9h-1V5c0-0.9-0.8-1-1.1-1s-1.1,0.1-1.1,1v5.8h-5.3l-0.4-0.9
			C46.6,4.8,41.6,1.5,36,1.5S25.5,4.8,23.3,9.9l-0.4,0.9h-5.3V5c0-1.1-0.8-1.2-1.1-1.2S15.4,4,15.4,5v7.2h-0.9v0.9h-2.9l-1.3,0.4
			c-4.8,5.3-7.5,12.1-7.5,19.3V35L18,29.5l0.7,0.8c2.9,3.6,5.9,5.9,9.6,7.2l1,0.3v21l-0.1,0.3c-0.6,1.4-0.9,2.4-0.9,3.4
			c0,4.3,3.5,7.8,7.8,7.8s7.8-3.5,7.8-7.8c0-1-0.3-2-0.9-3.4l-0.1-0.3v-21l1-0.3c3.7-1.3,6.8-3.6,9.6-7.2l0.7-0.8L69.5,35v-2.2
			C69.4,25.7,66.7,18.8,61.8,13.6z"/>
	</g>
</g>
<g id="DETAIL">
	<g>
		<path style="fill:#2E2B28;" d="M20,10.3h4.9c0,0-0.4,4.9,1.2,7.6c1.5,2.7,5.1,5.7,5.1,5.7H41c0,0,4.2-3.2,5.2-5.7s0.8-7.6,0.8-7.6
			h6c0,0,0.8,7.5-2.6,12c-3.4,4.5-6.5,6.8-6.5,6.8l4.3,6.2c0,0-3.8,3.2-11.6,3.2S24,34.2,24,34.2l3.8-5.8c0,0-4.7-2.1-7-8
			S20,10.3,20,10.3z"/>
		<path style="opacity:0.15;fill:#DFDFDF;enable-background:new    ;" d="M43.9,48.5c0,3.9-15.1,3.9-15.1,0v-10h15.1V48.5z"/>
		<g style="opacity:0.15;">
			<g>
				<circle style="fill:#DFDFDF;" cx="36" cy="13.5" r="8.8"/>
			</g>
		</g>
		<polygon style="fill:#DFDFDF;" points="40.4,30 31.3,30 33.5,26.7 38.4,26.7 		"/>
		<g>
			<path style="fill:#DFDFDF;" d="M55.7,27.4l10.6,3.7c0-0.7-0.1-1.5-0.2-2.2l-9.7-3.4L55.7,27.4z"/>
			<path style="fill:#DFDFDF;" d="M16.3,27.4L5.8,31.2c0-0.7,0.1-1.5,0.2-2.2l9.7-3.4L16.3,27.4z"/>
		</g>
		<rect x="35" y="36" style="fill:#DFDFDF;" width="2" height="29.3"/>
		<circle style="fill:#2E2B28;" cx="36" cy="62.6" r="7.8"/>
		<path style="fill:#100F0D;" d="M62.1,11.7L62.1,11.7L62.1,11.7h-2.9v-0.9h-1V5c0-3.3-5.1-3.3-5.1,0v4.3h-2.9C47.8,3.9,42.4,0,36,0
			c-6.3,0-11.8,3.9-14.1,9.4H19V5c0-3.6-5.1-3.6-5.1,0v5.7H13v0.9h-3l0,0l0,0c-5.6,5.6-8.8,13.3-8.8,21.2v4.3l16.3-5.9
			c2.8,3.5,6,6.2,10.3,7.7v19.6c-0.6,1.2-1.1,2.6-1.1,4c0,5.2,4.2,9.3,9.3,9.3c5.2,0,9.3-4.2,9.3-9.3c0-1.4-0.5-2.8-1.1-4V39
			c4.3-1.5,7.5-4.2,10.3-7.7l16.3,5.9v-4.3C70.9,24.9,67.7,17.3,62.1,11.7z M36,2.4c4.9,0,9.3,2.8,11.5,7h-1.8c0,0,0,3.5,0,4.6
			c0,3.9-2.3,7.3-5.6,8.8H32c-3.3-1.5-5.6-4.9-5.6-8.8c0-1.1,0-4.6,0-4.6h-1.9C26.7,5.1,31.1,2.4,36,2.4z M3.6,33.8v-0.9
			c0-7.1,2.6-13.7,7.4-18.8h1.5c-0.1,0.8-0.1,1.5-0.1,2.3c0,3.2,0.7,6.3,1.9,9.2c0.3,0.7,0.6,1.3,0.9,2c0.3,0.6,0.7,1.2,1,1.7
			L3.6,33.8z M20.7,31c-1.7-1.7-3.1-3.8-4.1-6c0-0.1-0.1-0.2-0.1-0.3c-1.1-2.6-1.7-5.4-1.7-8.4c0-1.1,0.1-2.1,0.2-3.2h3.2l0.1,0.1
			v1.2c0,5.1,2.1,9.6,5.6,12.9L20.7,31z M20.5,14.4v-3h3.8c0,0.9,0,2,0,2.5c0,4.2,2.2,7.9,5.6,10l-2.3,3.5
			C23.3,24.6,20.5,19.9,20.5,14.4z M40.8,67.4c-1.3,1.3-3,2-4.8,2s-3.5-0.7-4.8-2s-2-3-2-4.8c0-1.8,0.7-3.5,2-4.8s3-2,4.8-2
			s3.5,0.7,4.8,2C43.4,60.5,43.4,64.8,40.8,67.4z M35.2,43.7c0.3,0.1,0.5,0.1,0.8,0.1h0.3c0.5,0,0.9-0.1,1.3-0.3
			c0.8-0.4,1.3-1.3,1.3-2.3V40c1-0.1,2-0.3,3-0.6v16.2c-1.2-1.1-2.7-1.7-4.3-2c-0.5-0.1-1-0.1-1.6-0.1c-0.3,0-0.5,0-0.8,0
			c-1.9,0.2-3.6,0.9-5.1,2.1V39.4c1.1,0.3,2.2,0.5,3.3,0.6v1.1C33.4,42.3,34.2,43.3,35.2,43.7z M44.3,35.6c-0.8,0.3-1.6,0.6-2.4,0.9
			c-1,0.3-2,0.5-3,0.6v-1.3c0-0.8-0.4-1.5-0.9-2c-0.1-0.1-0.3-0.2-0.4-0.3c-0.4-0.2-0.8-0.3-1.3-0.3H36c-0.3,0-0.6,0-0.8,0.1
			c-0.3,0.1-0.6,0.3-0.9,0.5c-0.6,0.5-0.9,1.2-0.9,2v1.3c-1.1-0.1-2.2-0.4-3.3-0.7c-0.8-0.2-1.6-0.5-2.4-0.9
			c-0.6-0.2-1.2-0.5-1.7-0.8l1.7-2.6l0.5-0.8l0.6-0.9l0.6-0.9l0.6-0.9l2.1-3.2h7.5l2.2,3.3l0.6,0.9l0.6,0.9l0.5,0.8l0.7,1.1l1.5,2.3
			C45.3,35.2,44.8,35.4,44.3,35.6z M44.4,27.5L42.1,24c3.4-2.1,5.7-5.8,5.7-10.1c0-0.5,0-1.5,0-2.5h3.8v3
			C51.6,19.9,48.7,24.8,44.4,27.5z M51.4,30.9l-3.2-3.7c3.4-3.2,5.5-7.8,5.5-12.8v-1.2l0.1-0.1H57c0.2,1,0.2,2.1,0.2,3.2
			C57.3,22,55,27.1,51.4,30.9z M68.5,33.8l-12.7-4.6c0.4-0.6,0.7-1.2,1.1-1.8c0.3-0.6,0.7-1.3,0.9-2l0,0c1.2-2.8,1.8-5.9,1.8-9.1
			c0-0.8,0-1.5-0.1-2.3H61c4.8,5.1,7.4,11.8,7.4,18.8L68.5,33.8L68.5,33.8z"/>
		<g>
			<g>
				<circle style="fill:#100F0D;" cx="36" cy="62.6" r="4.9"/>
			</g>
		</g>
		<g>
			<g>
				<circle style="fill:#DFDFDF;" cx="36" cy="62.6" r="2.8"/>
			</g>
		</g>
		<g>
			<g>
				<circle style="fill:#100F0D;" cx="36" cy="13.5" r="6.8"/>
			</g>
		</g>
		<g>
			<g>
				<circle style="fill:#DFDFDF;" cx="36" cy="13.5" r="4.4"/>
			</g>
		</g>
	</g>
</g>
</svg>
