<?xml version="1.0" encoding="utf-8"?>
<!-- Generator: Adobe Illustrator 21.0.0, SVG Export Plug-In . SVG Version: 6.00 Build 0)  -->
<svg version="1.1" id="Layer_1" xmlns="http://www.w3.org/2000/svg" xmlns:xlink="http://www.w3.org/1999/xlink" x="0px" y="0px"
	 viewBox="0 0 72 72" style="enable-background:new 0 0 72 72;" xml:space="preserve">
<g id="COLOUR">
	<circle style="fill:#1E70B5;" cx="36.1" cy="36.1" r="32"/>
</g>
<g id="DETAIL">
	<g>
		<path style="fill:#2E2B28;" d="M63.6,50.4c-4.4,8.9-11.3,12.8-11.3,12.8l-5.7-9.3L41.3,45c-1.5,0.9-3.3,1.4-5.2,1.4
			c-2.2,0-4.2-0.7-5.9-1.9l-5.4,8.8l-5.9,9.8c0,0-6.9-3.9-11.3-12.8s-4-13.7-4-13.7h22.2c0-0.2,0-0.3,0-0.5c0-4.5,2.8-8.3,6.8-9.7
			l-5.4-8.9L21,7.4c0,0,3.1-2.5,13-3.3s16.8,3,16.8,3l-5.4,10.5l-4.8,9.2c3.4,1.7,5.8,5.2,5.8,9.3c0,0.5,0,1-0.1,1.5h21.3
			C67.6,37.6,68.1,41.5,63.6,50.4z"/>
		<circle style="fill:#DFDFDF;" cx="36.1" cy="36.1" r="4.9"/>
		<path style="opacity:0.14;fill:#DFDFDF;enable-background:new    ;" d="M31.2,25.7l-6.4,10.8L18.9,37c0-0.3,0-0.7,0-1
			c0-6.8,3.9-12.7,9.7-15.5L31.2,25.7z"/>
		<path style="opacity:0.14;fill:#DFDFDF;enable-background:new    ;" d="M43.5,46.9l2.2,3.5c-2.7,1.8-6,2.9-9.6,2.9
			c-3.6,0-7-1.1-9.7-3l3.3-4.9L43.5,46.9z"/>
		<path style="opacity:0.14;fill:#DFDFDF;enable-background:new    ;" d="M53.3,36.1c0,0.5,0,1-0.1,1.6l-4.9-0.1L41,24.8l2.5-4.2
			C49.3,23.3,53.3,29.2,53.3,36.1z"/>
		<path style="fill:#100F0D;" d="M36.2,29.7c-3.5,0-6.3,2.8-6.3,6.3s2.8,6.3,6.3,6.3s6.3-2.8,6.3-6.3C42.5,32.6,39.7,29.7,36.2,29.7
			z M36.2,40.3c-2.4,0-4.3-1.9-4.3-4.3c0-2.4,1.9-4.3,4.3-4.3c2.4,0,4.3,1.9,4.3,4.3C40.4,38.4,38.5,40.3,36.2,40.3z"/>
		<path style="opacity:0.14;fill:#DFDFDF;enable-background:new    ;" d="M29.7,45.4l-4.9,8c-5.5-3.6-9.2-9.8-9.4-16.8h9.4
			C24.9,40.2,26.8,43.5,29.7,45.4z"/>
		<path style="opacity:0.14;fill:#DFDFDF;enable-background:new    ;" d="M45.4,17.6L41.1,26c-1.5-0.8-3.2-1.2-5-1.2
			c-1.4,0-2.8,0.3-4.1,0.8l-4.9-8.1c2.7-1.3,5.8-2,9-2C39.5,15.4,42.6,16.2,45.4,17.6z"/>
		<path style="opacity:0.14;fill:#DFDFDF;enable-background:new    ;" d="M56.7,37.6c-0.5,6.9-4.4,12.9-10.1,16.3l-4.9-8
			c3-1.7,5.1-4.8,5.5-8.3H56.7z"/>
		<path style="fill:#100F0D;" d="M69.2,33.2c-0.4-3.9-1.4-7.7-3-11.2c-0.8-1.7-1.7-3.3-2.8-4.8c-0.5-0.7-1.1-1.5-1.6-2.2
			c-0.2-0.2-0.2-0.2-0.1-0.5c0.1-0.2,0.1-0.4,0.2-0.5c0.1-0.4,0.1-0.9,0-1.3c-0.4-1.7-2.1-2.7-3.7-2.3c-0.2,0-0.4,0.2-0.5,0.2
			c-0.2,0-0.1,0.1-0.3-0.1c-0.1,0-0.2-0.2-0.3-0.2c-0.4-0.3-0.8-0.7-1.3-1c-0.8-0.6-1.7-1.2-2.5-1.7c-3.4-2-7.1-3.4-10.9-4.2
			c-1-0.2-2-0.3-2.9-0.4c-0.3,0-0.3-0.1-0.4-0.4c-0.1-0.2-0.2-0.3-0.3-0.5c-0.2-0.3-0.5-0.6-0.8-0.8c-1.4-0.9-3.2-0.5-4.2,0.8
			c-0.1,0.1-0.2,0.3-0.3,0.5c0,0.1-0.1,0.3-0.2,0.4c-0.1,0.1-0.6,0.1-0.8,0.1c-0.3,0-0.6,0.1-0.9,0.1c-1,0.1-1.9,0.3-2.9,0.5
			c-1.8,0.4-3.6,1-5.3,1.7c-1.7,0.7-3.3,1.6-4.9,2.5c-0.8,0.5-1.6,1-2.3,1.6c-0.3,0.3-0.7,0.5-1,0.8c-0.3,0.2-0.3,0.3-0.6,0.1
			c-0.2-0.1-0.4-0.1-0.6-0.2c-1.7-0.3-3.3,0.9-3.6,2.6c-0.1,0.4,0,0.8,0.1,1.2c0,0.2,0.2,0.4,0.2,0.5c0,0.2,0.1,0,0,0.3
			c-0.1,0.1-0.2,0.3-0.3,0.4c-0.6,0.7-1.1,1.4-1.6,2.2c-2.1,3-3.6,6.4-4.6,10c-0.2,0.9-0.4,1.8-0.6,2.7c-0.1,0.5-0.2,0.9-0.2,1.4
			c-0.1,0.4,0,1-0.2,1.4c-0.1,0.3,0,0.2-0.3,0.3c-0.2,0.1-0.3,0.2-0.5,0.3c-0.3,0.2-0.6,0.5-0.8,0.9c-0.4,0.7-0.6,1.5-0.4,2.3
			s0.6,1.4,1.3,1.9c0.2,0.1,0.3,0.2,0.5,0.3c0.3,0.1,0.3,0,0.4,0.3c0.2,0.5,0.1,1.1,0.2,1.6c0.3,1.9,0.7,3.8,1.3,5.7
			C6,50,7.8,53.3,10,56.2c0.3,0.3,0.5,0.7,0.8,1c0.2,0.3,0.2,0.2,0.1,0.5c-0.1,0.2-0.1,0.4-0.2,0.6c-0.1,0.8,0.1,1.7,0.6,2.3
			c0.5,0.7,1.3,1.1,2.1,1.2c0.4,0,0.8,0,1.2-0.1c0.1,0,0.4-0.2,0.5-0.2c0.2,0,0.5,0.4,0.7,0.5c3.1,2.5,6.7,4.4,10.5,5.6
			c1.9,0.6,3.8,1,5.8,1.3c0.2,0,0.5,0.1,0.7,0.1c0.1,0,0.6,0,0.7,0.1c0.1,0.1,0.2,0.4,0.2,0.5c0.1,0.2,0.2,0.4,0.4,0.5
			c0.5,0.6,1.2,1,1.9,1.1c0.8,0.1,1.6-0.1,2.2-0.5c0.3-0.2,0.6-0.5,0.8-0.8c0.1-0.1,0.2-0.3,0.3-0.5c0.1-0.3,0.1-0.3,0.5-0.3
			c2.1-0.2,4.1-0.6,6.1-1.2c3.8-1.1,7.4-3,10.6-5.4c0.4-0.3,0.7-0.7,1.1-0.9c0.2-0.1,0-0.1,0.3-0.1c0.1,0,0.2,0.1,0.3,0.1
			c0.2,0.1,0.5,0.1,0.7,0.2c0.8,0.1,1.6-0.2,2.3-0.7c0.6-0.5,1.1-1.3,1.1-2.2c0-0.4,0-0.8-0.1-1.1c0-0.1-0.1-0.2-0.1-0.3
			c0-0.2,0-0.1,0.1-0.3c0.1-0.3,0.4-0.5,0.6-0.7c2.4-3.1,4.3-6.6,5.4-10.3c0.6-1.8,1-3.7,1.3-5.6c0.1-0.5,0.1-0.9,0.2-1.4
			c0-0.3,0-0.3,0.3-0.4c0.2-0.1,0.4-0.2,0.5-0.3c0.7-0.5,1.1-1.2,1.3-2C71.6,35.2,70.7,33.7,69.2,33.2z M22.7,8.6
			C25.8,7,29.5,6,33,5.7c3.6-0.4,7.3-0.1,10.9,0.8c2,0.5,3.9,1.2,5.8,2.2c-1.9,3.3-3.9,6.7-5.8,10c-0.4,0.6-0.7,1.3-1.1,1.9
			c-0.3,0.6-0.7,1.1-1,1.7c-0.2,0.4-0.5,1.1-0.8,1.4c-0.1,0.1-0.1,0.3-0.3,0c0-0.1,0-0.3,0-0.3c-0.1-0.6-0.1-1.2-0.2-1.8
			c-0.1-0.8-0.2-1.7-0.3-2.5c-0.1-1.2-0.3-2.4-0.4-3.5c0-0.4-0.1-0.8-0.2-1.2c-0.2-1.1-0.9-2-1.9-2.5c-2.2-1-4.6,0.4-4.9,2.7
			c-0.1,1-0.2,2.1-0.4,3.1c-0.2,1.9-0.4,3.8-0.7,5.7c0,0.1,0,0.2,0,0.3c-0.2,0.2-0.2,0-0.3-0.1c-0.3-0.4-0.6-1-0.9-1.5
			c-0.4-0.7-0.9-1.5-1.3-2.2C27.1,16.3,25,12.7,23,9.1C22.9,9,22.7,8.6,22.7,8.6C22.6,8.6,22.7,8.6,22.7,8.6z M45.4,36.1
			c0,5.2-4.2,9.4-9.4,9.4s-9.4-4.2-9.4-9.4s4.2-9.4,9.4-9.4S45.4,30.9,45.4,36.1z M5.5,34.6c0-0.5,0.1-1,0.1-1.5
			c0.7-7.4,4.2-14.4,9.7-19.4c1.6-1.5,3.5-2.9,5.4-4c1.7,3,3.4,6,5.2,8.9c0.5,0.9,1,1.8,1.6,2.7c0.5,0.9,1,1.8,1.5,2.6
			c0.1,0.1,0.5,0.6,0.5,0.8c0,0.1-0.6,0.4-0.7,0.5c-0.4,0.2-0.7,0.5-1,0.8c-3,2.5-4.7,6.2-4.7,10c-2.2,0-4.3-0.1-6.5-0.1
			c-2.5,0-4.9-0.1-7.4-0.1c-0.9,0-1.9,0-2.8-0.1c-0.1,0-0.6,0.1-0.7,0C5.4,35.6,5.5,34.7,5.5,34.6z M18.6,61.3
			c-1.5-0.9-2.8-2.1-4-3.4c-1.3-1.3-2.5-2.7-3.5-4.1c-2-2.8-3.5-6-4.4-9.3c-0.6-2.1-1-4.2-1.1-6.4c2.6,0,5.1,0.1,7.7,0.1
			c2.2,0,4.4,0.1,6.5,0.1c0.9,0,1.7,0,2.6,0c0.2,0,0.6-0.1,0.7,0s0.3,1.1,0.3,1.2c-0.1,0.2-0.4,0.3-0.5,0.5
			c-0.3,0.3-0.6,0.6-0.9,0.9c-0.6,0.5-1.1,1.1-1.7,1.6c-0.9,0.8-1.7,1.6-2.6,2.4c-0.5,0.5-1.1,1-1.5,1.7c-0.7,1.4-0.4,3.1,0.7,4.1
			c1.1,1.1,2.8,1.2,4.1,0.5c0.5-0.3,1-0.6,1.6-0.9c1.1-0.6,2.3-1.3,3.4-1.9c0.2-0.1,0.4-0.2,0.6-0.4c-2.1,3.5-4.2,7-6.4,10.6
			C19.6,59.6,19.1,60.4,18.6,61.3z M51,63.1c-7.4,4.1-16.4,4.9-24.4,2.2c-1.1-0.4-2.1-0.8-3.2-1.3c-0.5-0.2-1-0.5-1.5-0.8
			c-0.5-0.2-1-0.5-1.4-0.8c1.7-2.8,3.4-5.7,5.1-8.5c0.6-1,1.2-1.9,1.8-2.9c0.4-0.7,0.8-1.4,1.2-2c0.2-0.4,0.5-0.8,0.7-1.2
			c0,0,0.1-0.2,0.2-0.3c0.1,0,0.7,0.3,0.8,0.4c1.9,1,4.1,1.5,6.3,1.4c1.1,0,2.2-0.2,3.2-0.5c0.9-0.3,2.1-0.6,2.9-1.2
			c0.9,1.6,1.8,3.2,2.7,4.8c1.5,2.7,3,5.4,4.5,8.2C49.9,61,51.1,62.9,51,63.1z M66.6,40.3c-0.1,0.5-0.1,1-0.2,1.5
			c-0.1,0.8-0.3,1.6-0.5,2.3c-0.5,1.7-1.1,3.3-1.8,4.9c-1.5,3.3-3.7,6.3-6.2,8.9c-1.5,1.5-3.1,2.9-4.9,4c-1.2-2.2-2.4-4.4-3.7-6.6
			c-1-1.7-1.9-3.5-2.9-5.2c-0.6-1.1-1.2-2.1-1.8-3.2c1.2,0.7,2.4,1.4,3.6,2c1.5,0.8,2.9,1.8,4.5,2.5c1.8,0.9,4,0,4.7-1.8
			c0.6-1.6,0-3.1-1.2-4.2c-1.2-1.1-2.4-2.2-3.6-3.4c-1.2-1-2.4-2-3.6-3.1c2,0,3.9,0.1,5.9,0.1c3,0,6,0.1,9,0.1c0.3,0,0.5,0,0.8,0
			c0.4,0,0.9,0,1.3,0c0.2,0,0.4,0.1,0.5,0h0.1l0,0l0,0C66.6,39.5,66.6,39.9,66.6,40.3z M66.9,36.8c-2,0-4-0.1-5.9-0.1
			c-2.5,0-5-0.1-7.5-0.1c-1.3,0-2.7,0-4-0.1c0.2-1.7-0.3-3.6-0.9-5.2c-0.6-1.5-1.5-3-2.7-4.2c-0.6-0.6-1.2-1.2-1.9-1.7
			c-0.1-0.1-0.9-0.5-1-0.6c0-0.1,0-0.1,0.1-0.2c0.4-0.9,1-1.8,1.5-2.6c1.6-2.8,3.2-5.6,4.8-8.3c0.8-1.3,1.5-2.7,2.3-4
			c0.4,0.3,0.9,0.5,1.3,0.8c0.5,0.3,1,0.7,1.5,1.1c0.8,0.6,1.7,1.3,2.4,2c1.6,1.4,3,3,4.2,4.7c2.4,3.3,4,7,4.9,10.9
			C66.6,31.7,66.9,34.3,66.9,36.8z"/>
		<g>
			<path style="fill:#DFDFDF;" d="M62.1,34.1c-0.6-7.7-4.5-14.6-11-18.9l1-1.5c6.9,4.6,11.2,12,11.8,20.3L62.1,34.1z"/>
		</g>
		<g>
			<path style="fill:#DFDFDF;" d="M24.8,59.7c6.9,3.4,14.9,3.4,21.8,0l0.8,1.7C40,65,31.4,65,24,61.3L24.8,59.7z"/>
		</g>
		<g>
			<path style="fill:#DFDFDF;" d="M10.2,34.1c0.6-7.7,4.5-14.6,11-18.9l-1-1.5c-7,4.7-11.3,12-11.9,20.3L10.2,34.1z"/>
		</g>
	</g>
</g>
</svg>
