<?xml version="1.0" encoding="utf-8"?>
<!-- Generator: Adobe Illustrator 21.0.0, SVG Export Plug-In . SVG Version: 6.00 Build 0)  -->
<svg version="1.1" id="Layer_1" xmlns="http://www.w3.org/2000/svg" xmlns:xlink="http://www.w3.org/1999/xlink" x="0px" y="0px"
	 viewBox="0 0 72 72" style="enable-background:new 0 0 72 72;" xml:space="preserve">
<g id="COLOUR">
	<path style="fill:#1E70B5;" d="M63.6,24V12.3L65,12c2.3-0.4,3.9-2.5,3.9-4.8V5.4H3.4v1.9c0,2.3,1.7,4.3,3.9,4.8l1.3,0.3V24H1.8v10
		c0,13.1,7.2,25,18.7,31l0.9,0.5v1.6h4l0.2,0.1c3.2,1.1,6.6,1.6,10.1,1.7c3.8,0.1,7.5-0.5,11.1-1.7l0.3-0.1H51v-1.6l0.9-0.5
		c11.5-5.9,18.7-17.6,18.7-30.6V24H63.6z"/>
</g>
<g id="DETAIL">
	<circle style="fill:#DFDFDF;" cx="35.9" cy="39.8" r="7"/>
	<polygon style="fill:#2E2B28;" points="18.9,45.4 22.8,51.2 26.8,55.7 32.7,57.5 37.9,57.5 43.4,56.6 47.9,53 53.6,45.5 55.1,46.6
		57.3,53.5 51.1,59.5 51.1,67.1 20.9,66.6 20.9,59.5 14.8,53 	"/>
	<rect x="4.7" y="5.4" style="fill:#2E2B28;" width="61.8" height="5.7"/>
	<g>

			<linearGradient id="1105_1_" gradientUnits="userSpaceOnUse" x1="14.8245" y1="5390.52" x2="35.9245" y2="5390.52" gradientTransform="matrix(1 0 0 1 0 -5368.52)">
			<stop  offset="0" style="stop-color:#212121"/>
			<stop  offset="0.4973" style="stop-color:#666666"/>
			<stop  offset="1" style="stop-color:#212121"/>
		</linearGradient>
		<path style="fill:url(#1105_1_);" d="M33.1,11.1H17.6c-1.6,0-2.8,1.3-2.8,2.8v16.2c0,1.6,1.3,2.8,2.8,2.8h15.5
			c1.6,0,2.8-1.3,2.8-2.8V13.9C35.9,12.4,34.7,11.1,33.1,11.1z"/>

			<linearGradient id="1105_2_" gradientUnits="userSpaceOnUse" x1="36.2" y1="5390.52" x2="57.3" y2="5390.52" gradientTransform="matrix(1 0 0 1 0 -5368.52)">
			<stop  offset="0" style="stop-color:#212121"/>
			<stop  offset="0.4973" style="stop-color:#666666"/>
			<stop  offset="1" style="stop-color:#212121"/>
		</linearGradient>
		<path style="fill:url(#1105_2_);" d="M54.5,11.1H39c-1.6,0-2.8,1.3-2.8,2.8v16.2c0,1.6,1.3,2.8,2.8,2.8h15.5
			c1.6,0,2.8-1.3,2.8-2.8V13.9C57.3,12.4,56,11.1,54.5,11.1z"/>
	</g>
	<rect x="8.5" y="15.4" style="fill:#DFDFDF;" width="6.3" height="3.5"/>
	<rect x="57.3" y="15.4" style="fill:#DFDFDF;" width="6.3" height="3.5"/>
	<path style="fill:#DFDFDF;" d="M50.8,36.3L50.8,36.3c-0.1-0.4-0.2-0.8-0.3-1.2c-0.1-0.3-0.1-1.1-0.2-1.3h-2.8
		c0.1,0.2,0.2,1.1,0.3,1.3c0.1,0.4,0.3,0.8,0.4,1.2c0.2,0.9,0.3,1.9,0.3,2.9c0,6.9-5.6,12.5-12.5,12.5s-12.5-5.6-12.5-12.5
		c0-1,0.1-2,0.3-2.9c0.1-0.4,0.2-0.8,0.4-1.2c0.1-0.3,0.2-1.1,0.3-1.3h-2.8v0.6c-0.1,0.2-0.1,0.4-0.2,0.7v0.1
		c-0.4,1.3-0.5,2.6-0.5,4c0,1.9,0.4,3.8,1,5.5c2.2,5.6,7.7,9.6,14,9.6s11.7-3.9,14-9.4c0.7-1.7,1.1-3.6,1.1-5.6
		C51.1,38.3,51,37.3,50.8,36.3z"/>
	<path style="fill:#100F0D;" d="M65.1,22.3v-8.7c3-0.6,5.3-3.2,5.3-6.4V3.7H1.6v3.5c0,3.2,2.3,5.8,5.3,6.4v8.7H0V34
		c0,14,7.9,26.4,19.6,32.5v2.3H25c3.3,1.1,6.9,1.7,10.6,1.7c4.1,0,8-0.6,11.6-1.7h5.3v-2.2c11.6-6,19.6-18.1,19.6-32V22.3H65.1z
		 M65.1,6.8c0,1.8-1.4,3.2-3.2,3.2H10.1c-0.9,0-1.7-0.4-2.3-0.9C7.2,8.5,6.9,7.7,6.9,6.8H65.1z M55.1,34.2c0.7-0.2,1.4-0.7,2-1.2
		c0.9-0.9,1.4-2.1,1.4-3.5V16.1h3.8v0.1l0,0v19.5c0,5.5-1.7,10.7-4.6,14.9l-2.2-7.3c0.2-1.2,0.4-2.5,0.4-3.8
		C55.9,37.7,55.6,35.9,55.1,34.2z M16.5,43.3l-2.2,7.3c-2.9-4.2-4.6-9.4-4.6-14.9V20.1l0,0v-4h3.8v13.4c0,1.3,0.5,2.6,1.4,3.5
		c0.5,0.5,1.2,1,2,1.2c-0.5,1.7-0.7,3.5-0.7,5.3C16.1,40.8,16.3,42.1,16.5,43.3z M15.5,29.5v-0.7h8l0,0l0,0H35v0.7
		c0,0.1,0,0.2,0,0.3l0,0c-0.1,0.5-0.2,1-0.5,1.4c-0.5,0.7-1.4,1.2-2.3,1.2H18.4c-0.3,0-0.6,0-0.9-0.1C16.3,31.9,15.5,30.8,15.5,29.5
		z M35,17.9v3.5H15.5v-3.5H35z M15.5,15.8v-2.4H35v2.4C35,15.8,15.5,15.8,15.5,15.8z M33,23.4L33,23.4L33,23.4h2v3.5l0,0H15.5v-3.5
		H33z M31.8,36.5c0.3-0.5,0.8-0.9,1.3-1.2c0.8-0.6,1.8-0.9,2.9-0.9c1.1,0,2.1,0.3,2.9,0.9c0.5,0.3,0.9,0.7,1.3,1.2
		c0.6,0.9,1,1.9,1,3.1c0,2.9-2.3,5.2-5.2,5.2s-5.2-2.3-5.2-5.2C30.8,38.5,31.1,37.4,31.8,36.5z M39.9,32.4c-0.9,0-1.8-0.5-2.3-1.2
		c-0.3-0.4-0.5-0.9-0.5-1.4l0,0c0-0.1,0-0.2,0-0.3v-0.7h11.5l0,0l0,0h8v0.7c0,1.3-0.8,2.4-2,2.7c-0.3,0.1-0.6,0.1-0.9,0.1H39.9V32.4
		z M56.5,17.9v3.5H37v-3.5H56.5z M37,15.8v-2.4h19.5v2.4C56.5,15.8,37,15.8,37,15.8z M39,23.4L39,23.4L39,23.4h17.5v3.5H37l0,0l0,0
		v-3.5H39z M19.6,63.4c-9.4-5-15.5-14.7-16.3-25.5l0,0c-0.1-1.1-0.2-2.2-0.2-3.4v-6.7c0-0.2,0-0.5,0.1-0.7v-1.7h1.9
		c0.1,0,0.2,0,0.3,0h1.4v10.2c0,6.9,2.4,13.2,6.4,18.2l0,0c0.2,0.2,0.3,0.4,0.5,0.6c0.2,0.2,0.3,0.4,0.5,0.6
		c0.2,0.2,0.4,0.4,0.5,0.6c0.2,0.2,0.4,0.4,0.6,0.6c0.3,0.3,0.6,0.6,0.9,0.8l0,0c0.3,0.3,0.6,0.5,0.9,0.8c0.6,0.5,1.2,1,1.9,1.5
		c0.2,0.1,0.3,0.2,0.5,0.4v3.7C19.5,63.4,19.6,63.4,19.6,63.4z M30.8,66.3h-3.9c-1.2-0.3-2.3-0.7-3.5-1.1c-0.5-0.2-0.9-0.4-1.4-0.6
		v-3.4c0.1,0.1,0.2,0.1,0.4,0.2c0.6,0.3,1.1,0.6,1.7,0.8c0.3,0.1,0.7,0.3,1,0.4c0.1,0,0.2,0.1,0.3,0.1c0.2,0.1,0.5,0.2,0.8,0.3
		s0.5,0.2,0.8,0.3c0.6,0.2,1.3,0.4,2,0.6c0.2,0,0.3,0.1,0.5,0.1c0.4,0.1,0.9,0.2,1.3,0.3C30.8,64.3,30.8,66.3,30.8,66.3z M30.8,61.8
		c-3.1-0.6-6.1-1.8-8.8-3.4c-0.4-0.3-0.8-0.5-1.2-0.8c-0.4-0.3-0.8-0.6-1.2-0.9c-1.3-1-2.5-2.1-3.6-3.4l0.1-0.4l1.7-5.5
		c0.5,1.1,1.1,2.2,1.8,3.2c0.4,0.6,0.8,1.1,1.2,1.6c0.4,0.5,0.8,0.9,1.2,1.3c2.4,2.4,5.4,4.1,8.8,5.1V61.8z M19.2,39.6
		c0-1.9,0.3-3.7,0.9-5.3h9.3c0,0.1-0.1,0.1-0.1,0.2c-0.1,0.1-0.1,0.2-0.2,0.3l0,0c-0.1,0-0.1,0.1-0.2,0.2s-0.1,0.2-0.1,0.2
		c-0.2,0.4-0.4,0.8-0.6,1.2c-0.4,1-0.6,2-0.6,3.1c0,4.7,3.8,8.4,8.4,8.4c4.7,0,8.4-3.8,8.4-8.4c0-1.1-0.2-2.1-0.6-3.1
		c-0.2-0.4-0.4-0.8-0.6-1.2l-0.1-0.1c-0.1-0.2-0.2-0.4-0.4-0.6c0-0.1-0.1-0.1-0.1-0.2h9.3c0.6,1.7,0.9,3.5,0.9,5.3
		c0,9.3-7.5,16.8-16.8,16.8C26.7,56.3,19.2,48.8,19.2,39.6z M50,64.4c-1.6,0.8-3.3,1.4-5,1.9h-3.7v-2l1.3-0.3c0.2,0,0.4-0.1,0.6-0.1
		l1.9-0.6c0.3-0.1,0.5-0.2,0.8-0.3c0.2-0.1,0.4-0.2,0.6-0.2l0.3-0.1c0.4-0.2,0.8-0.3,1.3-0.5c0.2-0.1,0.3-0.2,0.5-0.2l0.3-0.2
		c0.3-0.1,0.6-0.3,0.9-0.4c0.1-0.1,0.2-0.1,0.3-0.2L50,64.4L50,64.4z M51.2,57.6c-0.4,0.3-0.8,0.6-1.2,0.8c-2.7,1.7-5.6,2.8-8.8,3.4
		v-3.1c3.4-0.9,6.4-2.7,8.8-5.1c0.4-0.4,0.8-0.9,1.2-1.3c0.4-0.5,0.8-1.1,1.2-1.6c0.7-1,1.3-2.1,1.8-3.2l1.7,5.5l0.1,0.4
		c-1.1,1.2-2.3,2.4-3.6,3.4C52,57,51.6,57.3,51.2,57.6z M68.8,34.5c0,3.8-0.6,7.4-1.8,10.8c-0.1,0.2-0.1,0.3-0.2,0.5
		s-0.2,0.5-0.3,0.7c-2.7,7-7.7,12.9-14.2,16.6v-3.4c0.2-0.1,0.3-0.2,0.5-0.4c0.4-0.3,0.9-0.6,1.3-1c0.2-0.2,0.4-0.3,0.6-0.5
		c0.6-0.5,1.2-1.1,1.8-1.6c0.2-0.2,0.4-0.4,0.6-0.6c0.2-0.2,0.4-0.4,0.5-0.6c0.2-0.2,0.4-0.4,0.5-0.6c0.2-0.2,0.3-0.4,0.5-0.6l0,0
		c4-5,6.4-11.3,6.4-18.2V25.5h1.3c0.1,0,0.2,0,0.3,0h1.9v1.7c0.1,0.2,0.1,0.4,0.1,0.7v6.6H68.8z"/>
</g>
</svg>
