<?xml version="1.0" encoding="utf-8"?>
<!-- Generator: Adobe Illustrator 22.0.1, SVG Export Plug-In . SVG Version: 6.00 Build 0)  -->
<svg version="1.1" id="Layer_1" xmlns="http://www.w3.org/2000/svg" xmlns:xlink="http://www.w3.org/1999/xlink" x="0px" y="0px"
	 viewBox="0 0 72 72" style="enable-background:new 0 0 72 72;" xml:space="preserve">
<g id="COLOUR">
	<circle style="fill:#1E70B5;" cx="36" cy="36" r="32.2"/>
</g>
<g id="DETAIL">
	<polygon style="opacity:0.15;fill:#FFFFFF;enable-background:new    ;" points="68.5,31.1 40.9,31.1 40.9,3.5 31.1,3.5 31.1,31.1 
		3.5,31.1 3.5,40.9 31.1,40.9 31.1,68.5 40.9,68.5 40.9,40.9 68.5,40.9 	"/>
	<circle style="opacity:0.15;fill:#FFFFFF;enable-background:new    ;" cx="36" cy="36" r="23.9"/>
	<circle style="fill:#2E2B28;" cx="36" cy="36" r="18.1"/>
	<circle style="fill:#1E70B5;" cx="36" cy="36" r="10.2"/>
	<path style="opacity:0.43;fill:#DFDFDF;enable-background:new    ;" d="M36,50.8c-8.1,0-14.8-6.6-14.8-14.8S27.9,21.2,36,21.2
		S50.8,27.9,50.8,36S44.1,50.8,36,50.8z M36,22.3c-7.6,0-13.7,6.1-13.7,13.7S28.4,49.7,36,49.7S49.7,43.6,49.7,36S43.6,22.3,36,22.3
		z"/>
	<path style="fill:#12100B;" d="M69.6,33L69.6,33c-0.1-0.8-0.2-1.5-0.3-2.3c-1-6.3-3.6-11.8-7.4-16.4c0.6-1.2,0.4-2.7-0.6-3.6
		c-1-1-2.5-1.2-3.6-0.6C52.4,5.8,45.9,3,39,2.4c-0.4-1.3-1.6-2.2-3-2.2s-2.6,0.9-3,2.2l0,0c-0.8,0.1-1.5,0.2-2.3,0.3
		c-6.3,1-11.8,3.6-16.4,7.4c-1.2-0.6-2.7-0.4-3.6,0.6c-1,1-1.2,2.5-0.6,3.6C5.8,19.6,3,26.1,2.4,33c-1.3,0.4-2.2,1.6-2.2,3
		s0.9,2.6,2.2,3c0.1,0.8,0.2,1.5,0.3,2.3c1,6.3,3.6,11.8,7.4,16.4c-0.6,1.2-0.4,2.7,0.6,3.6c1,1,2.5,1.2,3.7,0.6
		c5.2,4.3,11.7,7.1,18.7,7.7c0.4,1.3,1.6,2.2,3,2.2s2.6-0.9,3-2.2l0,0c0.8-0.1,1.5-0.2,2.3-0.3c6.3-1,11.8-3.6,16.4-7.4
		c1.2,0.6,2.7,0.4,3.6-0.6c1-1,1.2-2.5,0.6-3.6c4.3-5.2,7.1-11.7,7.7-18.7c1.3-0.4,2.2-1.6,2.2-3C71.8,34.6,70.8,33.4,69.6,33z
		 M38.2,4.9c0.3,0,0.6,0,0.9,0.1c5.4,0.5,10.7,2.5,15.2,5.8c0.5,0.3,0.9,0.7,1.4,1.1c1.6,1.3,3.1,2.8,4.4,4.4
		c3.5,4.2,5.8,9.3,6.6,14.9l0,0l0,0c0.1,0.6,0.2,1.1,0.2,1.7c0,0.3,0.1,0.6,0.1,0.9H56.9c-0.1-0.9-0.2-1.8-0.5-2.7
		c-1.8-7.7-7.9-13.7-15.6-15.6c-0.9-0.2-1.8-0.4-2.7-0.5L38.2,4.9L38.2,4.9z M50.4,32.9l-1.1-0.2l-2-0.3c-0.1-0.4-0.3-0.8-0.5-1.2
		c-1.2-2.7-3.3-4.8-5.9-5.9c-0.4-0.2-0.8-0.3-1.2-0.5l-0.3-2l-0.2-1.1l0,0l-0.4-2.5c0.8,0.1,1.5,0.3,2.2,0.5
		c5.5,1.6,9.9,6,11.6,11.6c0.2,0.7,0.4,1.5,0.5,2.2L50.4,32.9z M52.9,38.6c-0.1,0.8-0.3,1.5-0.5,2.2c-1.6,5.5-6,9.9-11.6,11.6
		c-0.7,0.2-1.5,0.4-2.2,0.5l0.4-2.5l0.2-1.1l0.3-2c0.4-0.1,0.8-0.3,1.2-0.5c2.7-1.2,4.8-3.3,5.9-5.9c0.2-0.4,0.3-0.8,0.5-1.3l2-0.3
		l1.1-0.2L52.9,38.6z M5,32.9c0.1-0.6,0.1-1.2,0.2-1.7c0.9-5.5,3.2-10.6,6.7-14.8c1.3-1.6,2.8-3.1,4.4-4.4c4.1-3.4,9.2-5.8,14.8-6.7
		C31.7,5.1,32.3,5,32.9,5c0.3,0,0.6-0.1,0.9-0.1v10.2c-0.9,0.1-1.8,0.2-2.7,0.5c-7.7,1.8-13.7,7.9-15.6,15.6
		c-0.2,0.9-0.4,1.8-0.5,2.7H4.9C4.9,33.5,4.9,33.2,5,32.9z M22.7,39.3l2,0.3c0.1,0.4,0.3,0.8,0.5,1.3c1.2,2.7,3.3,4.8,5.9,5.9
		c0.4,0.2,0.8,0.3,1.3,0.5l0.3,2l0.2,1.1l0.4,2.5c-0.8-0.1-1.5-0.3-2.2-0.5c-5.5-1.6-9.9-6-11.6-11.6c-0.2-0.7-0.4-1.5-0.5-2.2
		l2.5,0.4l0,0L22.7,39.3z M24.7,32.4l-2,0.3l-1.1,0.2l0,0l-2.5,0.4c0.1-0.8,0.3-1.5,0.5-2.2c1.6-5.5,6-9.9,11.6-11.6
		c0.7-0.2,1.5-0.4,2.2-0.5L33,21.5l-0.2,1.1l-0.3,2c-0.4,0.1-0.8,0.3-1.3,0.5c-2.7,1.2-4.8,3.3-5.9,6C25,31.5,24.8,31.9,24.7,32.4z
		 M33.8,67.1c-0.3,0-0.6,0-0.9-0.1c-0.6-0.1-1.2-0.1-1.7-0.2c-5.5-0.9-10.6-3.2-14.8-6.7c-1.6-1.3-3.1-2.8-4.4-4.4
		c-3.4-4.1-5.8-9.2-6.7-14.8C5.1,40.3,5,39.7,5,39.1c0-0.3-0.1-0.6-0.1-0.9h10.2c0.1,0.9,0.2,1.8,0.5,2.7
		c1.8,7.7,7.9,13.7,15.6,15.5c0.9,0.2,1.8,0.4,2.7,0.5v10.2H33.8z M37.2,44.9C36.8,45,36.4,45,36,45s-0.8,0-1.2-0.1
		c-0.2,0-0.3,0-0.5-0.1c-0.2,0-0.3-0.1-0.5-0.1c-1-0.2-1.9-0.6-2.7-1.2c-1.1-0.7-2-1.6-2.7-2.7c-0.5-0.8-0.9-1.7-1.2-2.7
		c0-0.2-0.1-0.3-0.1-0.5S27,37.3,27,37.1c0-0.3,0-0.7,0-1.1s0-0.8,0.1-1.2c0-0.2,0-0.3,0.1-0.5c0-0.2,0.1-0.3,0.1-0.5
		c0.2-1,0.6-1.9,1.2-2.7c0.7-1.1,1.6-2,2.7-2.7c0.8-0.5,1.7-0.9,2.7-1.2c0.2,0,0.3-0.1,0.5-0.1s0.3-0.1,0.5-0.1c0.3,0,0.7,0,1.1,0
		s0.8,0,1.2,0.1c0.2,0,0.3,0,0.5,0.1c0.2,0,0.3,0.1,0.5,0.1c1,0.2,1.8,0.6,2.7,1.2c1.1,0.7,2,1.6,2.7,2.7c0.5,0.8,0.9,1.7,1.2,2.7
		c0,0.2,0.1,0.3,0.1,0.5s0.1,0.3,0.1,0.5c0,0.3,0,0.7,0,1.1s0,0.8-0.1,1.2c0,0.2,0,0.3-0.1,0.5c0,0.2-0.1,0.3-0.1,0.5
		c-0.2,1-0.6,1.9-1.2,2.7c-0.7,1.1-1.6,2-2.7,2.7c-0.8,0.5-1.7,0.9-2.7,1.2c-0.2,0-0.3,0.1-0.5,0.1C37.6,44.9,37.4,44.9,37.2,44.9z
		 M67,39.1c-0.5,5.4-2.5,10.7-5.8,15.2c-0.3,0.5-0.7,0.9-1.1,1.4c-1.3,1.6-2.8,3.1-4.4,4.4c-4.2,3.5-9.3,5.8-14.9,6.6
		c-0.6,0.1-1.2,0.2-1.7,0.2c-0.3,0-0.6,0.1-0.9,0.1V56.9c0.9-0.1,1.8-0.2,2.7-0.4c7.7-1.8,13.7-7.9,15.6-15.6
		c0.2-0.9,0.4-1.8,0.5-2.7h10.2C67.1,38.5,67.1,38.8,67,39.1z"/>
	<g>
		<g>
			<path style="fill:#DFDFDF;" d="M42.9,8.5v2.1c9,2.4,16,9.5,18.5,18.5h2.1C61,19,53,11,42.9,8.5z"/>
			<path style="fill:#DFDFDF;" d="M63.5,42.9h-2.1c-2.4,9-9.5,16-18.5,18.5v2.1C53,61,61,53,63.5,42.9z"/>
		</g>
		<g>
			<path style="fill:#DFDFDF;" d="M8.5,29.1h2.1c2.4-9,9.5-16,18.5-18.5V8.5C19,11,11,19,8.5,29.1z"/>
			<path style="fill:#DFDFDF;" d="M29.1,63.5v-2.1c-9-2.4-16-9.5-18.5-18.5H8.5C11,53,19,61,29.1,63.5z"/>
		</g>
	</g>
	<path style="fill:#12100B;" d="M47.8,36c0-6.4-5.2-11.8-11.8-11.8S24.2,29.4,24.2,36S29.4,47.8,36,47.8S47.8,42.4,47.8,36z
		 M27.2,36c0-4.8,4-8.8,8.8-8.8s8.8,4,8.8,8.8s-4,8.8-8.8,8.8S27.2,40.8,27.2,36z"/>
</g>
<g>
	<g>
		<path style="fill:#DFDFDF;" d="M40.8,31L38,32.6c-0.6-0.4-1.3-0.6-2-0.6s-1.5,0.2-2.1,0.6L31.2,31c1.3-1.3,3-2,4.8-2
			C37.8,29.1,39.5,29.8,40.8,31z"/>
	</g>
	<g>
		<path style="fill:#DFDFDF;" d="M34,39.6v3.2c-1.7-0.5-3.2-1.6-4.1-3.2c-0.9-1.6-1.2-3.4-0.8-5.1l2.8,1.6c0,0.7,0.2,1.4,0.5,2
			C32.9,38.7,33.4,39.2,34,39.6z"/>
	</g>
	<g>
		<path style="fill:#DFDFDF;" d="M42.1,39.6c-0.9,1.6-2.4,2.7-4.1,3.2v-3.2c0.6-0.3,1.1-0.8,1.5-1.5c0.4-0.6,0.5-1.3,0.5-2v0
			l2.8-1.6C43.2,36.2,43,38,42.1,39.6z"/>
	</g>
</g>
</svg>
