<?xml version="1.0" encoding="utf-8"?>
<!-- Generator: Adobe Illustrator 21.0.0, SVG Export Plug-In . SVG Version: 6.00 Build 0)  -->
<svg version="1.1" id="Layer_1" xmlns="http://www.w3.org/2000/svg" xmlns:xlink="http://www.w3.org/1999/xlink" x="0px" y="0px"
	 viewBox="0 0 72 72" style="enable-background:new 0 0 72 72;" xml:space="preserve">
<g id="COLOUR">
	<path style="fill:#1E70B5;" d="M70,45.2H58.1l8.4,8.3c-3.1,5.4-7.6,9.9-13,13l-8.4-8.4V70c-2.9,0.8-6,1.2-9.2,1.2s-6.2-0.4-9.2-1.2
		V58.1l-8.3,8.4c-5.4-3.1-9.9-7.6-13-13l8.3-8.3H2c-0.8-2.9-1.2-6-1.2-9.2s0.4-6.2,1.2-9.2h11.8l-8.3-8.3c3.1-5.4,7.6-9.9,13-13
		l8.3,8.3V2c2.9-0.8,6-1.2,9.2-1.2s6.3,0.4,9.2,1.2v11.8l8.3-8.3c5.4,3.1,9.9,7.6,13,13l-8.4,8.4H70c0.8,2.9,1.2,6,1.2,9.2
		C71.2,39.2,70.8,42.3,70,45.2z"/>
</g>
<g id="DETAIL">
	<g>
		<path style="fill:#DFDFDF;" d="M65.7,26.5h-2.3c1,3,1.6,6.1,1.6,9.4s-0.6,6.5-1.6,9.4h2.3c1-3,1.5-6.2,1.5-9.4
			S66.6,29.5,65.7,26.5z M62,23.4l1.6-1.6C60.7,16,56,11.3,50.3,8.4L48.7,10C54.5,12.8,59.2,17.5,62,23.4z M48.6,62l1.6,1.6
			c5.7-3,10.4-7.7,13.4-13.4L62,48.6C59.2,54.5,54.5,59.2,48.6,62z M26.5,63.3v2.3c3,1,6.2,1.5,9.4,1.5c3.3,0,6.5-0.5,9.4-1.5v-2.3
			c-3,1-6.1,1.6-9.4,1.6C32.7,64.9,29.5,64.4,26.5,63.3z M26.5,6.3v2.3c3-1,6.1-1.6,9.4-1.6c3.3,0,6.5,0.6,9.4,1.6V6.3
			c-3-1-6.2-1.5-9.4-1.5C32.7,4.9,29.5,5.4,26.5,6.3z M10,48.6l-1.6,1.6c3,5.7,7.7,10.4,13.4,13.4l1.6-1.6
			C17.5,59.2,12.8,54.5,10,48.6z M23.3,10l-1.6-1.6C16,11.3,11.3,16,8.3,21.7l1.6,1.6C12.8,17.5,17.5,12.8,23.3,10z M7.1,36
			c0-3.3,0.6-6.5,1.6-9.4H6.3c-1,3-1.5,6.2-1.5,9.4s0.5,6.5,1.5,9.4h2.3C7.6,42.5,7.1,39.3,7.1,36z"/>
	</g>
	<circle style="fill:#DFDFDF;" cx="36" cy="36" r="5.7"/>

		<radialGradient id="1108_1_" cx="36.0375" cy="36.52" r="21.8878" gradientTransform="matrix(1 0 0 -1 0 72.52)" gradientUnits="userSpaceOnUse">
		<stop  offset="0" style="stop-color:#212121"/>
		<stop  offset="0.7027" style="stop-color:#666666"/>
		<stop  offset="1" style="stop-color:#212121"/>
	</radialGradient>
	<path style="fill:url(#1108_1_);" d="M57.8,33.5c-0.1-1.1-0.3-2.3-0.6-3.3c-0.5-1.8-1.2-3.4-2.1-5c-0.6-1-1.2-1.9-1.9-2.8
		c-1-1.3-2.2-2.4-3.5-3.5c-0.9-0.7-1.8-1.3-2.8-1.9c-1.6-0.9-3.2-1.6-5-2.1c-1.1-0.3-2.2-0.5-3.4-0.6c-0.8-0.1-1.6-0.1-2.4-0.1
		c-0.8,0-1.6,0-2.4,0.1c-1.2,0.1-2.3,0.3-3.4,0.6c-1.8,0.5-3.4,1.2-5,2.1c-1,0.6-1.9,1.2-2.8,1.9c-1.3,1.1-2.5,2.2-3.6,3.6
		c-0.7,0.9-1.3,1.8-1.9,2.8c-0.9,1.6-1.6,3.2-2.1,5c-0.3,1.1-0.5,2.2-0.6,3.3c-0.1,0.8-0.1,1.6-0.1,2.5c0,0.8,0,1.7,0.1,2.5
		c0.1,1.1,0.3,2.3,0.6,3.4c0.5,1.8,1.2,3.4,2.1,5c0.6,1,1.2,1.9,1.9,2.8c1,1.3,2.2,2.5,3.5,3.5c0.9,0.7,1.8,1.3,2.8,1.9
		c1.6,0.9,3.2,1.6,5,2.1c1.1,0.3,2.2,0.5,3.4,0.6C34.4,58,35.2,58,36,58c0.8,0,1.6,0,2.4-0.1c1.2-0.1,2.3-0.3,3.4-0.6
		c1.8-0.5,3.4-1.2,5-2.1c1-0.6,1.9-1.2,2.8-1.9c1.3-1,2.5-2.2,3.5-3.5c0.7-0.9,1.4-1.8,1.9-2.8c0.9-1.5,1.6-3.2,2.1-5
		c0.3-1.1,0.5-2.2,0.6-3.4c0.1-0.8,0.1-1.6,0.1-2.5C57.9,35.2,57.9,34.3,57.8,33.5z M41,50.7c-1.6,0.5-3.3,0.8-5,0.8
		c-1.8,0-3.5-0.3-5-0.8c-0.6-0.2-1.2-0.5-1.8-0.7c-3.1-1.5-5.6-4-7.1-7.1c-0.3-0.6-0.5-1.2-0.7-1.8c-0.5-1.6-0.8-3.3-0.8-5
		s0.3-3.5,0.8-5c0.2-0.6,0.5-1.2,0.7-1.8c1.5-3.1,4-5.6,7.1-7.1c0.6-0.3,1.2-0.5,1.8-0.7c1.6-0.5,3.3-0.8,5-0.8c1.8,0,3.5,0.3,5,0.8
		c0.6,0.2,1.2,0.5,1.8,0.7c3.1,1.5,5.6,4,7.1,7.1c0.3,0.6,0.5,1.2,0.7,1.8c0.5,1.6,0.8,3.3,0.8,5s-0.3,3.5-0.8,5
		c-0.2,0.6-0.5,1.2-0.7,1.8c-1.5,3.1-4,5.6-7.1,7.1C42.3,50.2,41.7,50.5,41,50.7z"/>
	<path style="fill:#100F0D;" d="M72,36c0-3.5-0.5-6.8-1.4-10H60.1l7.4-7.4c-3.3-5.9-8.2-10.9-14.1-14.1L46,11.9V1.4
		C42.8,0.5,39.5,0,36,0s-6.8,0.5-10,1.4v10.5l-7.4-7.4C12.7,7.8,7.8,12.7,4.5,18.6l7.4,7.4H1.4C0.5,29.2,0,32.5,0,36s0.5,6.8,1.4,10
		h10.5l-7.4,7.4c3.3,5.9,8.2,10.9,14.1,14.1l7.4-7.4v10.5c3.2,0.9,6.5,1.4,10,1.4s6.8-0.5,10-1.4V60.1l7.4,7.4
		c5.9-3.3,10.9-8.2,14.1-14.1L60.1,46h10.5C71.5,42.8,72,39.5,72,36z M53.8,7.9c4.1,2.6,7.6,6.1,10.3,10.2L58.2,24L58,24.2L47.8,14
		L53.8,7.9z M27.2,57.1L25.1,55l-8.2-8.2l-2.1-2.1V27.2l2.1-2.1l10.3-10.3h17.5l2.1,2.1l8.2,8.2l2.1,2.1v17.5L46.8,55.1l-2.1,2.1
		L27.2,57.1L27.2,57.1z M28.8,3.5C31.1,3,33.5,2.8,36,2.8s4.9,0.3,7.2,0.8v8.6H28.8V3.5z M7.9,18.2C10.5,14,14,10.6,18.2,7.9
		l5.9,5.9l0.2,0.2L14,24.2L7.9,18.2z M3.5,43.2C3,40.9,2.8,38.5,2.8,36s0.3-4.9,0.8-7.2h8.6v14.5L3.5,43.2L3.5,43.2z M24.1,58.2
		l-5.9,5.9C14,61.5,10.5,58,7.9,53.8l5.9-5.9l0.2-0.2L24.2,58L24.1,58.2z M43.2,68.5c-2.4,0.5-4.8,0.8-7.2,0.8
		c-2.5,0-4.9-0.3-7.2-0.8v-8.6h14.5L43.2,68.5L43.2,68.5z M64.1,53.8C61.5,58,58,61.5,53.8,64.1l-5.9-5.9L47.8,58L58,47.8l0.2,0.2
		L64.1,53.8z M68.5,43.2h-8.6V28.8h8.6c0.5,2.4,0.8,4.8,0.8,7.2C69.2,38.5,69,40.9,68.5,43.2z"/>
	<g>
		<g>
			<g>
				<path style="fill:#100F0D;" d="M50.7,31c-0.2-0.6-0.5-1.2-0.7-1.8c-1.5-3.1-4-5.6-7.1-7.1c-0.6-0.3-1.2-0.5-1.8-0.7
					c-1.6-0.5-3.3-0.8-5-0.8c-1.8,0-3.5,0.3-5,0.8c-0.6,0.2-1.2,0.5-1.8,0.7c-3.1,1.5-5.6,4-7.1,7.1c-0.3,0.6-0.5,1.2-0.7,1.8
					c-0.5,1.6-0.8,3.3-0.8,5c0,1.8,0.3,3.5,0.8,5c0.2,0.6,0.5,1.2,0.7,1.8c1.5,3.1,4,5.6,7.1,7.1c0.6,0.3,1.2,0.5,1.8,0.7
					c1.6,0.5,3.3,0.8,5,0.8c1.8,0,3.5-0.3,5-0.8c0.6-0.2,1.2-0.5,1.8-0.7c3.1-1.5,5.6-4,7.1-7.1c0.3-0.6,0.5-1.2,0.7-1.8
					c0.5-1.6,0.8-3.3,0.8-5C51.5,34.2,51.2,32.5,50.7,31z M36,48.9c-7.1,0-12.9-5.8-12.9-12.9S28.9,23.1,36,23.1S48.9,28.9,48.9,36
					S43.1,48.9,36,48.9z"/>
			</g>
		</g>
	</g>
	<path style="fill:#12100B;" d="M57.8,29.9h0.6v-3.2h-0.1l0.1-0.1l-2.2-2.2l-0.4,0.4l-6-6l-2.5-2.5l0.4-0.4l-2.2-2.2l-0.1,0.1v-0.1
		h-3.2v0.6H29.9v-0.6h-3.2v0.1l-0.1-0.1l-2.2,2.2l0.4,0.4l-2.5,2.5l-3.6,3.6l-2.5,2.5l-0.4-0.4l-2.2,2.2l0.1,0.1h-0.1V30h0.6v12.1
		h-0.6v3.2h0.1l-0.1,0.1l2.2,2.2l0.4-0.4l8.6,8.6l-0.4,0.4l2.2,2.2l0.1-0.1v0.1h3.2v-0.6H42v0.6h3.2v-0.1l0.1,0.1l2.2-2.2l-0.4-0.4
		l2.5-2.5l6-6l0.4,0.4l2.2-2.2l-0.1-0.1h0.1v-3.2h-0.6V29.9H57.8z M56.2,42.1h-2.8V29.9h2.8V42.1z M15.8,29.9h2.8V42h-2.8V29.9z
		 M41.4,50.7c0.2,0,0.3,0.1,0.5,0.2c0.1,0.1,0.2,0.3,0.2,0.5v0.5H29.9v-0.5c0-0.2,0.1-0.3,0.2-0.5c0.1-0.1,0.3-0.2,0.5-0.2H41.4z
		 M29.4,50.2c0.1,0.1,0.2,0.3,0.2,0.5s-0.1,0.3-0.2,0.5L29,51.5l-1.9-1.9l-4.9-4.9L20.5,43l0.4-0.4c0.1-0.1,0.3-0.2,0.5-0.2
		s0.3,0.1,0.5,0.2l0.3,0.3L29.4,50.2z M30.6,21.3c-0.2,0-0.4-0.1-0.5-0.2s-0.2-0.3-0.2-0.5v-0.5H42v0.5c0,0.2-0.1,0.4-0.2,0.5
		c-0.1,0.1-0.3,0.2-0.5,0.2H30.6z M42.6,21.8c-0.1-0.1-0.2-0.3-0.2-0.5s0.1-0.3,0.2-0.5l0.4-0.4l1.9,1.9l6.7,6.7l-0.4,0.4
		c-0.1,0.1-0.3,0.2-0.5,0.2s-0.3-0.1-0.5-0.2l-0.3-0.3L42.6,21.8z M48.9,36c0,7.1-5.8,12.9-12.9,12.9S23.1,43.1,23.1,36
		S28.9,23.1,36,23.1S48.9,28.9,48.9,36z M29.4,21.8L22,29.2l-0.3,0.3c-0.1,0.1-0.3,0.2-0.5,0.2s-0.3-0.1-0.5-0.2l-0.4-0.4l1.9-1.9
		l6.7-6.7l0.4,0.4c0.1,0.1,0.2,0.3,0.2,0.5C29.6,21.5,29.6,21.7,29.4,21.8z M20.6,29.9c0.2,0,0.4,0.1,0.5,0.2s0.2,0.3,0.2,0.5v10.8
		c0,0.2-0.1,0.3-0.2,0.5c-0.1,0.1-0.3,0.2-0.5,0.2h-0.5V29.9H20.6z M42.6,50.2l7.4-7.4l0.3-0.3c0.1-0.1,0.3-0.2,0.5-0.2
		s0.3,0.1,0.5,0.2l0.4,0.4l-1.9,1.9l-4.9,4.9L43,51.5l-0.4-0.4c-0.1-0.1-0.2-0.3-0.2-0.5C42.4,50.5,42.5,50.3,42.6,50.2z M51.4,42.1
		c-0.2,0-0.4-0.1-0.5-0.2c-0.1-0.1-0.2-0.3-0.2-0.5V30.6c0-0.2,0.1-0.4,0.2-0.5c0.1-0.1,0.3-0.2,0.5-0.2h0.5V42L51.4,42.1L51.4,42.1
		z M44.1,19.4l1.2-1.2l0.8-0.8l8.6,8.6l-1.9,1.9L52,27.3L44.1,19.4z M42.1,18.5H29.9v-2.8H42L42.1,18.5L42.1,18.5z M26.8,18.2
		l0.6,0.6l0.6,0.6L19.4,28l-2-2l8.6-8.6L26.8,18.2z M18.2,45.2l1.2-1.2l8.6,8.6l-2,2L17.4,46L18.2,45.2z M29.9,53.5H42v2.8H29.9
		V53.5z M45.2,53.8L44,52.6l7.4-7.4l1.2-1.2l1.2,1.2l0.8,0.8L46,54.6L45.2,53.8z"/>
	<path style="fill:#100F0D;" d="M50.7,31c-0.2-0.6-0.5-1.2-0.7-1.8c-1.5-3.1-4-5.6-7.1-7.1c-0.6-0.3-1.2-0.5-1.8-0.7
		c-1.6-0.5-3.3-0.8-5-0.8c-1.8,0-3.5,0.3-5,0.8c-0.6,0.2-1.2,0.5-1.8,0.7c-3.1,1.5-5.6,4-7.1,7.1c-0.3,0.6-0.5,1.2-0.7,1.8
		c-0.5,1.6-0.8,3.3-0.8,5c0,1.8,0.3,3.5,0.8,5c0.2,0.6,0.5,1.2,0.7,1.8c1.5,3.1,4,5.6,7.1,7.1c0.6,0.3,1.2,0.5,1.8,0.7
		c1.6,0.5,3.3,0.8,5,0.8c1.8,0,3.5-0.3,5-0.8c0.6-0.2,1.2-0.5,1.8-0.7c3.1-1.5,5.6-4,7.1-7.1c0.3-0.6,0.5-1.2,0.7-1.8
		c0.5-1.6,0.8-3.3,0.8-5C51.5,34.2,51.2,32.5,50.7,31z M36,48.9c-7.1,0-12.9-5.8-12.9-12.9S28.9,23.1,36,23.1S48.9,28.9,48.9,36
		S43.1,48.9,36,48.9z"/>
	<path style="fill:#12100B;" d="M36,28.7c-4.1,0-7.3,3.3-7.3,7.3c0,4.1,3.3,7.3,7.3,7.3c4.1,0,7.3-3.3,7.3-7.3
		C43.3,31.9,40.1,28.7,36,28.7z M36,40.9c-2.7,0-4.9-2.2-4.9-4.9s2.2-4.9,4.9-4.9s4.9,2.2,4.9,4.9S38.7,40.9,36,40.9z"/>
</g>
</svg>
