<?xml version="1.0" encoding="utf-8"?>
<!-- Generator: Adobe Illustrator 21.0.0, SVG Export Plug-In . SVG Version: 6.00 Build 0)  -->
<svg version="1.1" id="Layer_1" xmlns="http://www.w3.org/2000/svg" xmlns:xlink="http://www.w3.org/1999/xlink" x="0px" y="0px"
	 viewBox="0 0 72 72" style="enable-background:new 0 0 72 72;" xml:space="preserve">
<g id="COLOUR">
	<circle style="fill:#1E70B5;" cx="35.7" cy="36" r="16.7"/>
	<path style="fill:#1E70B5;" d="M36,2.5C17.5,2.5,2.5,17.5,2.5,36s15,33.5,33.5,33.5s33.5-15,33.5-33.5S54.5,2.5,36,2.5z M36,57.9
		c-12.3,0-22.3-10-22.3-22.3s10-22.3,22.3-22.3s22.3,10,22.3,22.3S48.3,57.9,36,57.9z"/>
</g>
<g id="DETAIL">
	<g>
		<path style="fill:#DFDFDF;" d="M14.3,20.2l-1.5-1.3C9.2,23.7,7,29.7,7,36.2c0,6.6,2.2,12.6,5.9,17.5l1-2C10.8,47.3,9,42,9,36.2
			C8.9,30.2,10.9,24.7,14.3,20.2z M58.3,18.2L57,19.8c3.5,4.5,5.6,10.2,5.6,16.4c0,5.4-1.6,10.4-4.3,14.6l1.2,1.8
			c3.2-4.7,5.1-10.3,5.1-16.4C64.6,29.4,62.2,23.2,58.3,18.2z M35.8,63c-5.6,0-10.9-1.7-15.2-4.7l-2.2,0.9
			c4.8,3.7,10.8,5.8,17.4,5.8c7,0,13.5-2.5,18.5-6.7L52.7,57C48.1,60.8,42.2,63,35.8,63z M35.8,7.4c-6.4,0-12.3,2.1-17.1,5.6
			l1.6,1.3c4.4-3.1,9.7-4.9,15.4-4.9c6.2,0,11.9,2.1,16.5,5.7l1.4-1.4C48.8,9.7,42.5,7.4,35.8,7.4z"/>
	</g>
	<circle style="opacity:0.14;fill:#DFDFDF;enable-background:new    ;" cx="36" cy="36.2" r="13.6"/>
	<rect x="12.7" y="30.2" style="fill:#2E2B28;" width="7" height="11.6"/>
	<rect x="51.8" y="30.2" style="fill:#2E2B28;" width="7" height="11.6"/>
	<rect x="29.9" y="13" style="fill:#2E2B28;" width="11.6" height="7"/>
	<rect x="30" y="52.1" style="fill:#2E2B28;" width="11.6" height="7"/>
	<circle style="fill:#2E2B28;" cx="36" cy="36.2" r="10.3"/>
	<polygon style="fill:#DFDFDF;" points="46.3,33.1 38.9,33.1 38.9,25.7 33,25.7 33,33.1 25.6,33.1 25.6,38.9 33,38.9 33,46.3 
		38.9,46.3 38.9,38.9 46.3,38.9 	"/>
	<path style="fill:#11100E;" d="M70.7,33.5c-0.1-1-0.2-1.9-0.3-2.9c-0.4-2-0.8-3.8-1.4-5.6c0.5-0.8,0.6-1.9,0.2-2.9S68,20.5,67,20.3
		c-1.3-2.5-2.9-4.9-4.7-7c0.2-1-0.1-2-0.9-2.7c-0.7-0.7-1.8-1-2.7-0.9l0,0c-2.2-1.9-4.6-3.5-7.2-4.8c-0.2-1-0.9-1.8-1.9-2.2
		s-2-0.3-2.9,0.2c-2.6-0.9-5.4-1.4-8.2-1.6C38,0.5,37,0,36,0s-2,0.5-2.5,1.3c-1,0.1-1.9,0.2-2.9,0.3C28.6,2,26.8,2.4,25,3
		c-0.8-0.5-1.9-0.6-2.9-0.2S20.5,4,20.3,5c-2.5,1.3-4.9,2.9-7,4.7c-1-0.2-2,0.1-2.7,0.9c-0.7,0.7-1,1.8-0.9,2.7
		c-1.9,2.2-3.5,4.6-4.8,7.2c-1,0.2-1.8,0.9-2.2,1.9s-0.3,2,0.2,2.9c-0.9,2.6-1.4,5.4-1.6,8.2l0,0C0.5,34,0,35,0,36s0.5,2,1.3,2.5
		c0.1,1,0.2,1.9,0.3,2.9C2,43.4,2.4,45.2,3,47c-0.5,0.8-0.6,1.9-0.2,2.9S4,51.5,5,51.7c1.3,2.5,2.9,4.9,4.7,7l0,0
		c-0.2,1,0.1,2,0.9,2.7c0.7,0.7,1.8,1,2.7,0.9c2.2,1.9,4.6,3.5,7.2,4.8c0.2,0.9,0.9,1.8,1.9,2.2c1,0.4,2,0.3,2.9-0.2
		c2.6,0.9,5.4,1.4,8.2,1.6l0,0C34,71.5,35,72,36,72s2-0.5,2.5-1.3c1-0.1,1.9-0.2,2.9-0.3c1.9-0.3,3.8-0.8,5.6-1.4
		c0.8,0.5,1.9,0.6,2.9,0.2s1.6-1.2,1.8-2.2c2.5-1.3,4.9-2.9,7-4.7c1,0.2,2-0.1,2.7-0.9c0.7-0.7,1-1.8,0.9-2.7
		c1.9-2.2,3.5-4.6,4.8-7.2c1-0.2,1.8-0.9,2.2-1.9c0.4-1,0.3-2-0.2-2.9c0.9-2.6,1.4-5.4,1.6-8.3l0,0C71.5,38,72,37,72,36
		S71.5,34,70.7,33.5z M58.3,15l-2.8,2.8L55,18.3c-0.5-0.6-1.1-1.1-1.7-1.6l3.3-3.3C57.2,13.9,57.8,14.5,58.3,15z M36,51.3
		c-1.7,0-3.3-0.3-4.8-0.8c-0.3-0.1-0.7-0.2-1-0.4c-0.3-0.1-0.7-0.3-1-0.5c-3-1.5-5.4-3.9-6.8-6.8c-0.2-0.3-0.3-0.7-0.5-1
		c-0.1-0.3-0.3-0.7-0.4-1c-0.5-1.5-0.8-3.1-0.8-4.8s0.3-3.3,0.8-4.8c0.1-0.3,0.2-0.7,0.4-1c0.1-0.3,0.3-0.7,0.5-1
		c1.5-3,3.9-5.4,6.8-6.8c0.3-0.2,0.7-0.3,1-0.5c0.3-0.1,0.7-0.3,1-0.4c1.5-0.5,3.1-0.8,4.8-0.8s3.3,0.3,4.8,0.8
		c0.3,0.1,0.7,0.2,1,0.4c0.3,0.1,0.7,0.3,1,0.5c3,1.5,5.4,3.9,6.9,6.8c0.2,0.3,0.3,0.7,0.5,1c0.1,0.3,0.3,0.7,0.4,1
		c0.5,1.5,0.8,3.1,0.8,4.8s-0.3,3.3-0.8,4.8c-0.1,0.3-0.2,0.7-0.4,1c-0.1,0.3-0.3,0.7-0.5,1c-1.5,3-3.9,5.4-6.9,6.8
		c-0.3,0.2-0.7,0.3-1,0.5c-0.3,0.1-0.7,0.3-1,0.4C39.3,51,37.7,51.3,36,51.3z M40.8,53.1v3.8c-1.5,0.4-3.1,0.5-4.8,0.5
		c-1.6,0-3.3-0.2-4.8-0.5v-3.8c1.5,0.4,3.1,0.7,4.8,0.7S39.3,53.6,40.8,53.1z M18.9,31.2c-0.4,1.5-0.7,3.1-0.7,4.8s0.2,3.3,0.7,4.8
		h-3.8c-0.4-1.5-0.5-3.1-0.5-4.8c0-1.6,0.2-3.3,0.5-4.8H18.9z M15.7,29.2c0.2-0.6,0.5-1.2,0.7-1.9c0.1-0.2,0.2-0.4,0.3-0.6
		c0.1-0.2,0.2-0.3,0.2-0.5c0.2-0.5,0.5-0.9,0.8-1.4c0.1-0.1,0.2-0.3,0.3-0.4c0.1-0.1,0.2-0.3,0.3-0.4c0.1-0.1,0.2-0.3,0.3-0.4
		c1.1-1.5,2.4-2.9,3.9-4.1c0.1-0.1,0.3-0.2,0.4-0.3c0.3-0.2,0.6-0.4,0.9-0.6c0.1-0.1,0.3-0.2,0.4-0.3c0.1-0.1,0.3-0.2,0.4-0.3
		c0.7-0.5,1.5-0.9,2.3-1.3c0.1-0.1,0.3-0.1,0.4-0.2c0.1,0,0.1-0.1,0.2-0.1c0.6-0.3,1.2-0.5,1.9-0.7v3.9c-4.3,1.8-7.8,5.3-9.6,9.6
		C19.8,29.2,15.7,29.2,15.7,29.2z M19.6,42.8c1.8,4.3,5.3,7.8,9.6,9.6v3.9c-0.6-0.2-1.3-0.5-1.9-0.7c-0.1,0-0.1-0.1-0.2-0.1
		c-0.1-0.1-0.3-0.1-0.4-0.2c-0.2-0.1-0.3-0.2-0.5-0.2c-0.4-0.2-0.8-0.4-1.1-0.6c-0.2-0.1-0.5-0.3-0.7-0.4c-0.3-0.2-0.6-0.4-0.9-0.6
		c-0.1-0.1-0.3-0.2-0.4-0.3c-0.3-0.2-0.5-0.4-0.8-0.6c-1.1-0.9-2-1.8-2.9-2.9c-0.2-0.3-0.4-0.5-0.6-0.8c-0.1-0.1-0.2-0.3-0.3-0.4
		c-0.2-0.3-0.4-0.6-0.6-0.9c-0.1-0.2-0.3-0.4-0.4-0.7c-0.2-0.4-0.4-0.7-0.6-1.1c-0.1-0.2-0.2-0.3-0.2-0.5c-0.1-0.1-0.1-0.3-0.2-0.4
		c0-0.1-0.1-0.1-0.1-0.2c-0.3-0.6-0.5-1.2-0.7-1.9H19.6z M31.2,18.9v-3.8c1.5-0.4,3.1-0.5,4.8-0.5c1.6,0,3.2,0.2,4.8,0.5v3.8
		c-1.5-0.4-3.1-0.7-4.8-0.7C34.3,18.2,32.7,18.4,31.2,18.9z M42.8,19.6v-3.9c0.6,0.2,1.3,0.5,1.9,0.7c1,0.5,2,1,2.9,1.6
		c0.1,0.1,0.3,0.2,0.4,0.3c0.1,0.1,0.1,0.1,0.2,0.2c0.1,0.1,0.2,0.2,0.3,0.2c0.1,0.1,0.3,0.2,0.4,0.3c0.3,0.2,0.6,0.5,0.9,0.7
		c0.1,0.1,0.2,0.1,0.3,0.2c0.7,0.6,1.4,1.3,2.1,2.1c0.1,0.1,0.1,0.2,0.2,0.3c0.2,0.3,0.5,0.6,0.7,0.9c0.1,0.1,0.2,0.3,0.3,0.4
		s0.2,0.2,0.2,0.3c0.1,0.1,0.1,0.1,0.2,0.2c0.1,0.1,0.2,0.3,0.3,0.4c0.6,0.9,1.1,1.9,1.6,2.9c0.3,0.6,0.5,1.2,0.7,1.9h-3.9
		C50.6,24.8,47.2,21.4,42.8,19.6z M42.8,52.4c4.3-1.8,7.8-5.3,9.6-9.6h3.9c-0.2,0.6-0.5,1.3-0.7,1.9c0,0.1-0.1,0.1-0.1,0.2
		c-0.1,0.1-0.1,0.3-0.2,0.4c-0.4,0.8-0.8,1.5-1.3,2.3c-0.1,0.1-0.2,0.3-0.3,0.4c-0.1,0.1-0.2,0.3-0.3,0.4c-0.2,0.3-0.4,0.6-0.6,0.9
		c-0.1,0.1-0.2,0.3-0.3,0.4c-1.2,1.5-2.6,2.8-4.1,3.9c-0.1,0.1-0.3,0.2-0.4,0.3c-0.1,0.1-0.3,0.2-0.4,0.3c-0.1,0.1-0.3,0.2-0.4,0.3
		c-0.4,0.3-0.9,0.5-1.4,0.8c-0.2,0.1-0.3,0.2-0.5,0.2c-0.2,0.1-0.4,0.2-0.6,0.3c-0.6,0.3-1.2,0.5-1.9,0.7
		C42.8,56.5,42.8,52.4,42.8,52.4z M53.1,40.8c0.4-1.5,0.7-3.1,0.7-4.8s-0.2-3.3-0.7-4.8h3.8c0.4,1.5,0.5,3.1,0.5,4.8
		c0,1.6-0.2,3.3-0.5,4.8H53.1z M20.7,7.6c1.8-1,3.8-1.8,5.8-2.4c0.9-0.3,1.8-0.5,2.7-0.7c0.6-0.1,1.2-0.2,1.8-0.3
		C31.6,4,32.2,4,32.9,3.9c1-0.1,2.1-0.2,3.1-0.2s2.1,0.1,3.1,0.2c1.2,0.1,2.5,0.3,3.7,0.6c0.8,0.2,1.6,0.4,2.5,0.6
		c2,0.6,4,1.4,5.8,2.4c1.2,0.6,2.3,1.3,3.4,2.1c-1.5,0-3,0.5-4.3,1.4c-0.4,0.3-0.7,0.5-1,0.9l-2.6,2.6c-1.2-0.6-2.5-1.1-3.8-1.5
		c-0.3-0.1-0.7-0.2-1-0.3s-0.7-0.2-1-0.2C39.2,12.2,37.6,12,36,12s-3.2,0.2-4.8,0.5c-0.3,0.1-0.7,0.1-1,0.2c-0.3,0.1-0.7,0.2-1,0.3
		c-1.3,0.4-2.6,0.9-3.8,1.5l-2.1-2.1l-0.5-0.5c-0.3-0.3-0.7-0.6-1-0.9c-1.3-0.9-2.8-1.4-4.4-1.4C18.5,8.9,19.6,8.2,20.7,7.6z
		 M15.3,13.6l2.6,2.6l0.7,0.7c-0.6,0.5-1.1,1.1-1.7,1.7l-3.3-3.3C14.2,14.7,14.7,14.1,15.3,13.6z M12.4,48.6l-0.5,0.5
		c-0.3,0.3-0.6,0.7-0.9,1c-0.9,1.3-1.4,2.8-1.4,4.3c-0.7-1-1.4-2.1-2-3.2c-1-1.8-1.8-3.8-2.4-5.8c-0.3-0.9-0.5-1.8-0.7-2.7
		c-0.1-0.6-0.2-1.2-0.3-1.8C4,40.4,4,39.8,3.9,39.1c-0.2-2.1-0.2-4.2,0-6.3c0.1-1.2,0.3-2.5,0.6-3.7c0.2-0.8,0.4-1.6,0.6-2.5
		c0.6-2,1.4-4,2.4-5.8c0.6-1.2,1.3-2.3,2.1-3.4c0,1.5,0.5,3,1.4,4.3c0.2,0.4,0.5,0.7,0.9,1l0.5,0.5l2.1,2.1
		c-0.6,1.2-1.1,2.4-1.5,3.7c-0.1,0.3-0.2,0.7-0.3,1s-0.2,0.7-0.2,1c-0.3,1.8-0.5,3.4-0.5,5s0.2,3.2,0.5,4.8c0.1,0.3,0.1,0.7,0.2,1
		c0.1,0.3,0.2,0.7,0.3,1c0.4,1.3,0.9,2.6,1.5,3.8L12.4,48.6z M13.3,56.7L16,54l0.6-0.6c0.5,0.6,1.1,1.1,1.6,1.7l-0.5,0.5l-2.9,2.9
		C14.4,57.9,13.8,57.3,13.3,56.7z M51.3,64.4c-1.8,1-3.8,1.8-5.8,2.4c-0.9,0.3-1.8,0.5-2.7,0.7c-0.6,0.1-1.2,0.2-1.8,0.3
		c-0.6,0.1-1.3,0.2-1.9,0.2c-1.1,0.1-2.1,0.2-3.2,0.2c-1,0-2.1-0.1-3.1-0.2c-1.2-0.1-2.5-0.3-3.7-0.6c-0.8-0.2-1.6-0.4-2.5-0.6
		c-2-0.6-4-1.4-5.8-2.4c-1.2-0.6-2.3-1.3-3.4-2.1c1.5,0,3-0.5,4.3-1.4c0.4-0.3,0.7-0.5,1-0.9l2.6-2.6c1.2,0.6,2.5,1.1,3.8,1.5
		c0.3,0.1,0.7,0.2,1,0.3s0.7,0.2,1,0.2c1.5,0.3,3.2,0.5,4.8,0.5c1.6,0,3.2-0.2,4.8-0.5c0.3-0.1,0.7-0.1,1-0.2c0.3-0.1,0.7-0.2,1-0.3
		c1.3-0.4,2.6-0.9,3.8-1.5l2.1,2.1l0.5,0.5c0.3,0.3,0.7,0.6,1,0.9c1.3,0.9,2.8,1.4,4.3,1.4C53.5,63.1,52.4,63.8,51.3,64.4z M57,58.6
		l-2.9-2.9l-0.4-0.4c0.6-0.5,1.1-1.1,1.7-1.7l0.5,0.5l2.9,2.9C58.2,57.5,57.6,58.1,57,58.6z M68.1,39.1c-0.1,1.2-0.3,2.5-0.6,3.7
		c-0.2,0.8-0.4,1.6-0.6,2.5c-0.6,2-1.4,4-2.4,5.8c-0.6,1.2-1.3,2.3-2.1,3.4c0-1.5-0.5-3-1.4-4.3l0,0c-0.2-0.4-0.5-0.7-0.9-1
		l-2.6-2.6c0.6-1.2,1.1-2.5,1.5-3.8c0.1-0.3,0.2-0.7,0.3-1s0.2-0.7,0.2-1c0.3-1.5,0.5-3.2,0.5-4.8s-0.2-3.2-0.5-4.8
		c-0.1-0.3-0.1-0.7-0.2-1c-0.1-0.3-0.2-0.7-0.3-1c-0.4-1.3-0.9-2.6-1.5-3.7l2.6-2.6c0.3-0.3,0.6-0.7,0.9-1c0.9-1.3,1.4-2.8,1.4-4.3
		c0.7,1,1.4,2.1,2,3.2c1,1.8,1.8,3.8,2.4,5.8c0.3,0.9,0.5,1.8,0.7,2.7c0.1,0.6,0.2,1.2,0.3,1.8c0.1,0.6,0.2,1.3,0.2,1.9
		C68.3,35,68.3,37.1,68.1,39.1z"/>
	<path style="fill:#11100E;" d="M45.8,31.2c-0.2-0.3-0.4-0.7-0.6-1c-0.2-0.3-0.5-0.7-0.7-1c-0.5-0.6-1.1-1.2-1.7-1.7
		c-0.3-0.3-0.7-0.5-1-0.7s-0.7-0.4-1-0.6c-1.4-0.7-3.1-1.1-4.8-1.1s-3.3,0.4-4.8,1.1c-0.3,0.2-0.7,0.4-1,0.6s-0.7,0.5-1,0.7
		c-0.6,0.5-1.2,1.1-1.7,1.7c-0.3,0.3-0.5,0.7-0.7,1s-0.4,0.7-0.6,1c-0.7,1.4-1.1,3.1-1.1,4.8s0.4,3.3,1.1,4.8c0.2,0.3,0.4,0.7,0.6,1
		s0.5,0.7,0.7,1c0.5,0.6,1.1,1.2,1.7,1.7c0.3,0.3,0.7,0.5,1,0.7s0.7,0.4,1,0.6c1.5,0.7,3.1,1.1,4.8,1.1s3.3-0.4,4.8-1.1
		c0.3-0.2,0.7-0.4,1-0.6c0.3-0.2,0.7-0.5,1-0.7c0.6-0.5,1.2-1.1,1.7-1.7c0.3-0.3,0.5-0.7,0.7-1s0.4-0.7,0.6-1
		c0.7-1.4,1.1-3.1,1.1-4.8C46.9,34.3,46.5,32.7,45.8,31.2z M44.4,38.9c-0.2,0.7-0.5,1.3-0.9,1.9c-0.2,0.3-0.4,0.6-0.7,0.9v0.1h-0.1
		c-0.3,0.3-0.6,0.7-1,1v0.1h-0.1c-0.3,0.3-0.6,0.5-0.9,0.7c-0.6,0.4-1.3,0.7-1.9,0.9C38,44.7,37,44.9,36,44.9s-2-0.2-2.9-0.5
		c-0.7-0.2-1.3-0.5-1.9-0.9c-0.3-0.2-0.6-0.4-0.9-0.7h-0.1v-0.1c-0.3-0.3-0.7-0.6-1-1h-0.1v-0.1c-0.3-0.3-0.5-0.6-0.7-0.9
		c-0.4-0.6-0.7-1.3-0.9-1.9C27.3,38,27.1,37,27.1,36s0.2-2,0.5-2.8c0.2-0.7,0.5-1.3,0.9-1.9c0.2-0.3,0.4-0.6,0.7-0.9v-0.1h0.1
		c0.3-0.3,0.6-0.7,1-1v-0.1h0.1c0.3-0.3,0.6-0.5,0.9-0.7c0.6-0.4,1.3-0.7,1.9-0.9c0.9-0.3,1.9-0.5,2.9-0.5s2,0.2,2.8,0.5
		c0.7,0.2,1.3,0.5,1.9,0.9c0.3,0.2,0.6,0.4,0.9,0.7h0.1v0.1c0.3,0.3,0.7,0.6,0.9,0.9h0.1v0.1c0.3,0.3,0.5,0.6,0.7,0.9
		c0.4,0.6,0.7,1.3,0.9,1.9c0.3,0.9,0.5,1.9,0.5,2.8C44.9,37,44.7,38,44.4,38.9z"/>
</g>
</svg>
