<?xml version="1.0" encoding="utf-8"?>
<!-- Generator: Adobe Illustrator 21.0.0, SVG Export Plug-In . SVG Version: 6.00 Build 0)  -->
<svg version="1.1" id="Layer_1" xmlns="http://www.w3.org/2000/svg" xmlns:xlink="http://www.w3.org/1999/xlink" x="0px" y="0px"
	 viewBox="0 0 72 72" style="enable-background:new 0 0 72 72;" xml:space="preserve">
<g id="COLOUR">
	<g>
		<path style="fill:#1E70B5;" d="M58.7,1.3c-2.7,0-5,2-5.4,4.7l-0.1,1.1h-1.1c-1.5,0-1.6,1.4-1.6,1.7c0,0.2,0,1.7,1.6,1.7h1.2v10.9
			l-2.1-2.5c-2.9-3.4-6.9-5.7-11.3-6.6c-4.5-0.9-9.2-0.2-13.2,2c-2.2,1.2-4.1,2.7-5.7,4.6l-2.1,2.5V10.5h1.2c1.5,0,1.6-1.5,1.6-1.7
			c0-0.3-0.1-1.7-1.6-1.7H19L18.7,6c-0.3-2.5-2.4-4.5-4.9-4.7c-1.1-0.1-2.2-0.1-3.4,0c-0.5,0-1.1,0-1.6,0H7.9v44.2
			c0,4.1,1,8.2,2.9,11.7c3.8,7.3,11.2,12.5,19.4,13.4c0.6,0.1,1.2,0.1,1.9,0.2v-3.3H40v3.3c8.9-0.4,17.1-5.7,21.3-13.6
			c1.9-3.6,2.9-7.6,2.9-11.8c0-0.6,0-1.3,0-1.9V1.3H58.7z M52.4,48c-1.8,5.9-6.6,10.3-12.5,11.8v2.7H32v-2.7
			c-5.9-1.5-10.7-5.9-12.5-11.8L19,46.4h3.4l0.4,0.3c1.7,1.5,3.6,2.7,5.7,3.5l0.5,0.2l0.2,0.6c0.7,2.3,2.5,4.1,4.8,4.7
			c2.3,0.7,4.9,0.1,6.7-1.4c1-0.9,1.8-2,2.1-3.3l0.2-0.6l0.5-0.2c2.1-0.8,4-2,5.7-3.5l0.3-0.3h3.4L52.4,48z"/>
	</g>
</g>
<g id="DETAIL">
	<g>
		<path style="fill:#2E2B28;" d="M28.4,50.3c0.9,3.3,3.9,5.8,7.5,5.8c3.6,0,6.6-2.4,7.5-5.8H28.4z"/>
		<circle style="opacity:0.15;fill:#DFDFDF;enable-background:new    ;" cx="35.9" cy="31.8" r="11.1"/>
		<rect x="11.5" y="1.8" style="opacity:0.15;fill:#DFDFDF;enable-background:new    ;" width="1.7" height="35"/>
		<rect x="58.9" y="1.8" style="opacity:0.15;fill:#DFDFDF;enable-background:new    ;" width="1.7" height="35"/>
		<g>
			<path style="fill:#2E2B28;" d="M53.6,37.5c-1.4,4-4.1,7.5-7.7,9.7h18.3v-9.7H53.6z"/>
			<path style="fill:#2E2B28;" d="M18.2,37.5H7.6v9.7h18.3C22.3,44.9,19.6,41.5,18.2,37.5z"/>
		</g>
		<g>
			<polygon style="fill:#2E2B28;" points="52.8,27.2 40,27.2 40,14.4 31.8,14.4 31.8,27.2 19,27.2 19,35.5 31.8,35.5 31.8,48.3 
				40,48.3 40,35.5 52.8,35.5 			"/>
		</g>
		<polygon style="fill:#DFDFDF;" points="45.5,28.7 39.1,28.7 39.1,21.9 32.9,21.9 32.9,28.7 26.5,28.7 26.5,34.9 32.9,34.9 
			32.9,41.7 39.1,41.7 39.1,34.9 45.5,34.9 		"/>
		<path style="fill:#100F0D;" d="M58.7,0c-3.4,0-6.2,2.5-6.6,5.8c-3.7,0-3.7,5.7-0.1,5.8v6.5c-3.1-3.6-7.3-6.1-12-7s-9.7-0.2-14,2.1
			c-2.3,1.2-4.4,2.9-6.1,4.9v-6.4c3.7-0.1,3.7-5.8-0.1-5.8c-0.4-3.1-3-5.5-6-5.8c-1.7-0.1-3.4,0-5.1,0C8.1,0,7.4,0,6.7,0
			c0,3,0,6,0,9c0,6.1,0,12.3,0,18.4c0,5.1,0,10.2,0,15.3c0,0.9,0,1.7,0,2.6c0,4.3,1,8.5,3,12.3c4,7.7,11.7,13,20.3,14.1
			c1.1,0.1,2.2,0.2,3.2,0.2v-3.3h5.4V72c9.8,0,19-5.6,23.6-14.3c2-3.8,3-8,3-12.3c0-1,0-1.9,0-2.9c0-4.9,0-9.8,0-14.7
			c0-5.9,0-11.8,0-17.8c0-3.3,0-6.6,0-9.9V0C65.2,0,58.7,0,58.7,0z M54.4,6.7c0-2.4,2-4.2,4.4-4.2c1.3,0,2.7,0,4,0v33.7h-6.2
			c1-4.9,0.3-10.2-2.2-14.6V6.7z M41.7,46.6c-0.3,0-0.6,0.1-0.8,0.2V36.7H51C49.5,41.1,46,44.8,41.7,46.6
			C41.7,46.5,41.7,46.5,41.7,46.6z M41.2,52.3c-2.4,3.7-8,3.7-10.4,0C34.2,53.2,37.8,53.2,41.2,52.3z M40.8,16.9
			c4.8,1.5,8.5,5.3,10.1,10.1H40.8V16.9z M33.3,18.2h5.4v10.9h10.9c0,0.9,0.1,1.7,0.1,2.6c0,0.9-0.1,1.8-0.1,2.7H38.7v10.9
			c-1.8,0-3.6,0-5.4,0V34.5H22.4c0-0.9-0.1-1.8-0.1-2.7c0-0.9,0.1-1.7,0.1-2.6h10.9V18.2z M31.2,16.9V27H21.1
			C22.6,22.2,26.4,18.5,31.2,16.9z M31.2,36.7v10.1c-0.3-0.1-0.5-0.2-0.8-0.2v-0.1c-4.4-1.6-7.9-5.4-9.3-9.8
			C21.1,36.7,31.2,36.7,31.2,36.7z M9.1,2.5c1.5,0,3-0.1,4.5,0s2.9,1,3.5,2.4c0.3,0.7,0.4,1.4,0.4,2.2c0,3.6,0,7.2,0,10.8
			c0,1.3,0,2.5,0,3.8c-2.5,4.4-3.2,9.7-2.2,14.6H9.1V2.5z M8.9,38.4H16c0.8,2.6,2.2,5,4,7.1H9v-7.1H8.9z M30.8,69.4
			c-8.8-0.9-16.6-6.7-19.9-14.9C10,52.4,9.5,50,9.2,47.6h9c1.7,6.2,6.4,11.2,12.6,13.1C30.8,60.7,30.8,69.4,30.8,69.4z M38.7,66.5
			h-5.4v-3.1h5.4V66.5z M38.7,61.3h-5.4v-2.4c-6-1.1-10.8-5.5-12.5-11.2H22c1.8,1.6,3.8,2.9,6,3.8c0.8,2.6,2.9,4.8,5.6,5.6
			s5.7,0.2,7.9-1.7c1.2-1,2-2.4,2.5-3.9c2.2-0.9,4.3-2.2,6-3.8h1.3c-1.8,5.7-6.6,10.1-12.5,11.2L38.7,61.3L38.7,61.3z M55.8,62.5
			c-3.9,3.9-9.1,6.4-14.6,7v-8.7c6.2-1.9,11-6.9,12.6-13.1h9C62.3,53.3,59.8,58.5,55.8,62.5z M63.1,45.5h-11c1.8-2.1,3.1-4.5,4-7.1
			h7.1L63.1,45.5L63.1,45.5z"/>
		<path style="fill:#DFDFDF;" d="M57.9,49.6c-2.1,7.8-8.2,13.9-16,16v1.8c8.7-2.2,15.6-9.1,17.8-17.8C59.7,49.6,57.9,49.6,57.9,49.6
			z M14.1,49.6h-1.8c2.2,8.7,9,15.6,17.8,17.8v-1.8C22.3,63.5,16.2,57.4,14.1,49.6z"/>
	</g>
</g>
</svg>
