<?xml version="1.0" encoding="utf-8"?>
<!-- Generator: Adobe Illustrator 21.0.0, SVG Export Plug-In . SVG Version: 6.00 Build 0)  -->
<svg version="1.1" id="Layer_1" xmlns="http://www.w3.org/2000/svg" xmlns:xlink="http://www.w3.org/1999/xlink" x="0px" y="0px"
	 viewBox="0 0 72 72" style="enable-background:new 0 0 72 72;" xml:space="preserve">
<g id="COLOUR">
	<g>
		<path style="fill:#1E70B5;" d="M68.5,7.9l-0.2-0.8c-0.6-2.6-2.9-4.5-5.6-4.5c-2.7,0-5,1.8-5.6,4.5l-0.2,0.8h-2.5v2.5l-0.1,4.2h-11
			L43,14.5c-0.1-0.1-0.3-0.2-0.4-0.3l-0.5-0.3v-0.3l-1.2-2.1h-9.8l-1.2,2.1v0.3l-0.5,0.3c-0.1,0.1-0.3,0.2-0.4,0.3l-0.3,0.2H17.6V8
			H15l-0.2-0.8c-0.6-2.6-2.9-4.5-5.6-4.5s-5,1.8-5.6,4.5L3.4,7.9H1V39h5v2.4h6.4V39h5.2v-5.8h10.1l0.3,0.2c0.2,0.2,0.4,0.3,0.6,0.5
			l0.4,0.3v0.6l-1.7,19.8h-6.6l-2.3,1.7v8.4l2.3,1.7h8.6l0.3,0.3c1.6,1.9,4,3,6.5,3s4.9-1.1,6.5-3l0.3-0.3h8.6l2.3-1.7v-8.4
			l-2.3-1.7h-6.6L43,34.3l0.4-0.3c0.2-0.1,0.4-0.3,0.6-0.5l0.3-0.2h10.1V39h5v2.4h6.4V39H71V7.9H68.5z"/>
	</g>
</g>
<g id="DETAIL">
	<g>
		<rect x="54.3" y="13.1" style="opacity:0.15;fill:#DFDFDF;enable-background:new    ;" width="16.5" height="20.3"/>
		<rect x="0.9" y="13.1" style="opacity:0.15;fill:#DFDFDF;enable-background:new    ;" width="16.5" height="20.3"/>
		<rect x="61" y="7.2" style="fill:#DFDFDF;" width="3.4" height="31.8"/>

			<linearGradient id="1115_1_" gradientUnits="userSpaceOnUse" x1="25.666" y1="5429.0698" x2="46.2263" y2="5429.0698" gradientTransform="matrix(1 0 0 1 0 -5368.52)">
			<stop  offset="0" style="stop-color:#FFFFFF;stop-opacity:0"/>
			<stop  offset="0.4757" style="stop-color:#FFFFFF"/>
			<stop  offset="1" style="stop-color:#FFFFFF;stop-opacity:0"/>
		</linearGradient>
		<polygon style="fill:url(#1115_1_);" points="46.2,62.8 46.2,58.3 25.7,58.3 25.7,62.8 		"/>
		<rect x="7.5" y="7.2" style="fill:#DFDFDF;" width="3.4" height="31.8"/>
		<path style="fill:#2E2B28;" d="M25.5,20.6C25.2,21.7,25,22.8,25,24c0,1,0.1,2,0.4,2.9h-7.7v-6.4h7.8V20.6z"/>
		<path style="fill:#2E2B28;" d="M54.3,20.6V27h-7.2c0.3-0.9,0.4-1.9,0.4-2.9c0-1.2-0.2-2.3-0.5-3.4h7.3V20.6z"/>
		<path style="fill:#2E2B28;" d="M39.1,36.3V63c0,1.8-1.4,3.2-3.2,3.2s-3.2-1.4-3.2-3.2V36.3H39.1z"/>
		<path style="fill:#DFDFDF;" d="M39.1,58.3V63c0,1.8-1.4,3.2-3.2,3.2s-3.2-1.4-3.2-3.2v-4.7C32.7,58.3,39.1,58.3,39.1,58.3z"/>
		<rect x="35.2" y="36.2" style="opacity:0.25;fill:#DFDFDF;enable-background:new    ;" width="1.7" height="15.7"/>
		<g>
			<g>
				<circle style="fill:#100F0D;" cx="35.9" cy="24.5" r="7.4"/>
			</g>
		</g>
		<g>
			<g>
				<circle style="fill:#DFDFDF;" cx="35.9" cy="24.5" r="4.6"/>
			</g>
		</g>
		<path style="fill:#100F0D;" d="M69.3,7c-0.7-3-3.4-5.2-6.6-5.2c-3.2,0-5.9,2.2-6.6,5.2h-2.7v3.4v3.3h-9.7
			c-0.2-0.1-0.3-0.2-0.5-0.3l0,0l-1.7-2.9h-11l-1.7,2.9l0,0c-0.2,0.1-0.3,0.2-0.5,0.3h-9.8v-3.3V7h-2.8C15,4,12.3,1.8,9.1,1.8
			S3.3,4,2.6,7H0v33h5v2.4h8.4V40h5.2v-5.8h8.7c0.2,0.2,0.4,0.4,0.7,0.5l0,0l-1.7,18.9h-6.1l-3,2.1v9.4l3,2.1h8.5
			c1.8,2,4.4,3.3,7.3,3.3s5.5-1.3,7.3-3.3h8.5l3-2.1v-9.4l-3-2.1h-6.1L44,34.8c0.2-0.2,0.4-0.3,0.6-0.5h8.7V40h5v2.4h8.4V40H72V7
			H69.3z M2.4,9.4h13.7v1v2H2.4V9.4z M16.1,37.6H2.4v-3.1h13.7V37.6z M16.1,28.7v3.2v0.6H2.4v-4.6h13.8v0.8
			C16.2,28.7,16.1,28.7,16.1,28.7z M16.1,25.8H2.4v-4.6h13.8L16.1,25.8z M16.2,19.1H2.4v-4.6h13.8V19.1z M53.3,26.3H49
			c0.1-0.6,0.1-1.3,0.1-1.9c0-1-0.1-1.9-0.3-2.9h4.5V26.3z M53.3,16.1v3h-5.2c-0.5-1.1-1.1-2.1-1.9-3H53.3z M18.6,16.1h7.2
			c-0.7,0.9-1.4,1.9-1.9,3h-5.3L18.6,16.1z M23,26.3h-4.3v-4.8h4.5c-0.2,0.9-0.3,1.9-0.3,2.9C22.9,25,22.9,25.7,23,26.3z M18.7,31.8
			v-3.2h4.9c0.4,1.1,0.9,2.2,1.6,3.2H18.7z M50.2,56.1v8.8h-8l-0.7,0.8c-1.4,1.6-3.3,2.5-5.4,2.5c-2.1,0-4.1-0.9-5.4-2.5L30,64.9
			h-8.2v-8.8h6.9l0.2-2.2l1.6-17.7c0.5,0.2,0.9,0.4,1.4,0.6c0,0,0,0,0,0.1v25.6c0,2.4,1.9,4.3,4.3,4.3s4.3-1.9,4.3-4.3V36.9
			c0,0,0,0,0-0.1c0.5-0.2,1-0.4,1.4-0.6l1.6,17.7l0.2,2.2C43.7,56.1,50.2,56.1,50.2,56.1z M33.9,62.5v-25h4.2v25.1
			c0,1.2-0.9,2.1-2.1,2.1C34.8,64.6,33.9,63.7,33.9,62.5z M35.9,35.1c-5.8,0-10.5-4.7-10.5-10.5S30.1,14,35.9,14s10.5,4.7,10.5,10.5
			S41.8,35.1,35.9,35.1z M46.8,31.8c0.7-1,1.2-2,1.6-3.2h4.9v3.2H46.8z M69.6,37.6H55.9v-3.1h13.7V37.6z M69.6,32.5H55.9v-0.6v-3.2
			v-0.8h13.7V32.5z M69.6,25.8H55.8v-4.6h13.7L69.6,25.8L69.6,25.8z M69.6,19.1H55.8v-4.6h13.7L69.6,19.1L69.6,19.1z M69.6,12.4
			H55.8v-1.9v-1h13.7L69.6,12.4L69.6,12.4z"/>
	</g>
</g>
</svg>
