<?xml version="1.0" encoding="utf-8"?>
<!-- Generator: Adobe Illustrator 22.0.1, SVG Export Plug-In . SVG Version: 6.00 Build 0)  -->
<svg version="1.1" id="Layer_1" xmlns="http://www.w3.org/2000/svg" xmlns:xlink="http://www.w3.org/1999/xlink" x="0px" y="0px"
	 viewBox="0 0 72 72" style="enable-background:new 0 0 72 72;" xml:space="preserve">
<g id="DETAIL">
	<g>
		<g>
			<g>
				<g>
					<path style="fill:#1E70B5;" d="M61.3,47.4l-0.9-4.8C58,30.3,47.2,21.4,34.7,21.4c2.9-2.5,6.3-4.3,10-5.4l7-1.4l0.3,0.3
						c3.3,2.6,6,5.9,7.8,9.7c1.9,3.9,2.9,8.1,2.9,12.5c0,1.9-0.2,3.7-0.5,5.5L61.3,47.4z"/>
				</g>
			</g>
			<g>
				<g>
					<path style="fill:#1E70B5;" d="M24.8,60.9l4.8-0.9c12.3-2.4,21.2-13.2,21.2-25.7c2.5,2.9,4.3,6.3,5.4,10l1.4,7l-0.3,0.3
						c-2.6,3.3-5.9,6-9.7,7.8c-3.9,1.9-8.1,2.9-12.5,2.9c-1.9,0-3.7-0.2-5.5-0.5L24.8,60.9z"/>
				</g>
			</g>
			<g>
				<g>
					<path style="fill:#1E70B5;" d="M10.7,25l0.9,4.8C14,42,24.8,50.9,37.3,51c-2.9,2.5-6.3,4.3-10,5.4l-7,1.4L20,57.4
						c-3.3-2.6-6-5.9-7.8-9.7c-1.9-3.9-2.9-8.1-2.9-12.5c0-1.9,0.2-3.7,0.5-5.5L10.7,25z"/>
				</g>
			</g>
			<g>
				<g>
					<path style="fill:#1E70B5;" d="M46.9,11.1L42.1,12C29.9,14.4,21,25.2,20.9,37.7c-2.5-2.9-4.3-6.3-5.4-10l-1.4-7l0.3-0.3
						c2.6-3.3,5.9-6,9.7-7.8c3.9-1.9,8.1-2.9,12.5-2.9c1.9,0,3.7,0.2,5.5,0.5L46.9,11.1z"/>
				</g>
			</g>
		</g>
	</g>
</g>
</svg>
