<?xml version="1.0" encoding="utf-8"?>
<!-- Generator: Adobe Illustrator 21.0.0, SVG Export Plug-In . SVG Version: 6.00 Build 0)  -->
<svg version="1.1" id="Layer_1" xmlns="http://www.w3.org/2000/svg" xmlns:xlink="http://www.w3.org/1999/xlink" x="0px" y="0px"
	 viewBox="0 0 72 72" style="enable-background:new 0 0 72 72;" xml:space="preserve">
<g id="COLOUR">
	<g>
		<path style="fill:#1E70B5;" d="M57.1,52.9l-8,8.9C42.7,71,29.6,72,22.7,61.1l-8-7.1l-8.8,8.3l0.7-17.5L7.8,44l5.2,6.8l3.8-1.7
			c0,0-0.5-7.5,0.8-13.7c0.8-3.8,4.4-5.4,7.1-6.1L25.8,12c0-5.6,4.6-10.2,10.2-10.2c2.8,0,5.4,1.1,7.2,3s3,4.4,3,7.2l1,17l5.3,1.9
			l2.2,4.9l-0.2,13.3l4.6,1.6l6.3-6.8v17.9C65.4,61.8,57.1,52.9,57.1,52.9z"/>
	</g>
</g>
<g id="DETAIL">
	<path style="opacity:0.14;fill:#DFDFDF;enable-background:new    ;" d="M46.7,58.6c-2,3.8-6,6.4-10.7,6.4s-8.6-2.6-10.7-6.4H46.7z"
		/>
	<g>
		<polygon style="fill:#2E2B28;" points="23.7,45.6 8.5,33.8 6.1,35.3 6.1,46.3 23.7,62.3 		"/>
		<polygon style="fill:#2E2B28;" points="48.3,45.6 63.5,33.8 65.9,35.3 65.9,46.3 48.3,62.3 		"/>
	</g>
	<g>
		<path style="fill:#100F0D;" d="M48.5,60.9c-2.6,4.1-7.2,6.9-12.5,6.9s-9.9-2.7-12.5-6.9h-3.1c2.8,5.7,8.8,9.6,15.6,9.6
			s12.8-3.9,15.6-9.6H48.5z"/>
	</g>
	<polygon style="fill:#100F0D;" points="49.4,56.8 23.5,56.8 20.5,57.8 20.5,58.6 51.5,58.6 51.5,57.6 	"/>
	<g>
		<path style="fill:#DFDFDF;" d="M61.3,65c0,1.1,0.9,2,2,2h0.1c1.1,0,2-0.9,2-2v-4.4l-4.1-2.3C61.3,58.3,61.3,65,61.3,65z"/>
		<path style="fill:#DFDFDF;" d="M10.7,65c0,1.1-0.9,2-2,2H8.6c-1.1,0-2-0.9-2-2v-4.4l4.1-2.3C10.7,58.3,10.7,65,10.7,65z"/>
	</g>
	<g>
		<polygon style="opacity:0.15;fill:#DFDFDF;enable-background:new    ;" points="49.7,57.9 62.3,45.5 60.7,43.9 48.1,56.3 		"/>
		<polygon style="opacity:0.15;fill:#DFDFDF;enable-background:new    ;" points="22.3,57.9 9.7,45.5 11.3,43.9 23.9,56.3 		"/>
	</g>
	<path style="fill:#100F0D;" d="M56.3,38.5c-0.1-4.7-3.1-8.9-7.2-10.7l-1.4-12.2v-4.3C47.7,5,42.6,0,36.4,0h-0.9
		c-6.2,0-11.2,5-11.2,11.2v4.3l-1.4,12.2c-4.2,1.9-7.2,6.2-7.2,11.2v1l2.7,1.6v-2.6c0-3.2,1.6-6,4-7.8l-1.3,11.2L21,43l-0.3,3
		l-0.6,5.2L19.7,55l-0.3,2.7l-0.2,2.1l0.7,0.4l3.8,0l2.4-1h20.8l1.7,0.7l3,0.7l1.2-2.8L52.3,55l-0.8-7.2L51.3,46l-0.4-3.4l0-0.3
		l-1.3-11.2c2.4,1.7,4,4.6,4,7.8v1.6L56.3,38.5z M27.1,11.2c0-4.7,3.8-8.5,8.5-8.5h0.9c4.7,0,8.5,3.8,8.5,8.5v1.5H27.1V11.2z
		 M45.7,58.2H26.3V32.9c0-2.3,0.8-4.3,2.2-5.9c1.6-1.9,3.8-3.1,6.4-3.3l-3.8,15.7h9.8l-3.8-15.7c2.6,0.2,4.9,1.4,6.4,3.3
		c1.4,1.6,2.2,3.7,2.2,5.9V58.2z"/>
	<ellipse style="fill:#100F0D;" cx="36" cy="35.9" rx="8.2" ry="8.1"/>
	<ellipse style="fill:#DFDFDF;" cx="36" cy="35.9" rx="5.1" ry="5.1"/>
	<g>
		<path style="fill:#100F0D;" d="M62.9,32.5c-1,0-2,0.4-2.8,1.2l-5,4.9c-2,2-4.3,3.4-6.8,4.3v2.5c1.7-0.5,3.3-1.3,4.8-2.2
			c1.3-0.8,2.6-1.8,3.7-2.9l5-4.9c0.3-0.3,0.7-0.5,1.1-0.5c0.6,0,1.6,0.5,1.6,1.6V46l-0.4,0.4c-1.3,1.2-2.5,2.3-3.6,3.4
			c-0.9,0.8-1.7,1.6-2.6,2.4c0,0,0,0.1-0.1,0.1c-2.2,2-4.2,3.9-6.5,6.1L49.7,60l-1.3-1.4l-0.1,4.1l2.4-0.4c0,0,0.1-0.1,0.2-0.2
			c0.9-1,1.8-1.8,2.7-2.7c0.9-0.9,1.8-1.8,2.7-2.6c0.6-0.5,1.1-1.1,1.7-1.6l8.9,11V36.4C66.9,34.1,64.9,32.5,62.9,32.5z M64.1,58.5
			L60.5,54v-1c1.1-1.1,2.3-2.2,3.6-3.4V58.5z"/>
		<path style="fill:#100F0D;" d="M9.1,35c0.4,0,0.8,0.2,1.1,0.5l5,4.9c1.1,1.1,2.4,2.1,3.7,2.9c1.7,1,3.5,1.8,5.3,2.4v-2.5
			c-2.6-0.9-5.1-2.4-7.3-4.5l-5-4.9c-0.8-0.8-1.8-1.2-2.8-1.2c-2.1,0-4,1.6-4,3.9v29.7l8.8-11c0.6,0.5,1.1,1.1,1.7,1.6
			c0.8,0.8,1.8,1.7,2.7,2.6c0.9,0.8,1.8,1.7,2.7,2.7c0,0.1,0.1,0.1,0.2,0.2l2.6-0.8v-2.9L22.3,60l-1.6-1.6c-2.3-2.2-4.4-4.1-6.5-6.1
			l-0.1-0.1c-0.8-0.8-1.7-1.6-2.6-2.4c-1.1-1-2.3-2.2-3.6-3.4c-0.1-0.1-0.2-0.3-0.4-0.4v-9.4C7.5,35.5,8.4,35,9.1,35z M7.9,49.5
			c1.2,1.2,2.4,2.3,3.6,3.4v1l-3.6,4.5V49.5z"/>
	</g>
	<path style="fill:#2E2B28;" d="M36,70.8c-0.9,0-2-1.4-2.1-3.6l-1.5-24.5h7.3l-1.5,24.5C38,69.4,36.9,70.8,36,70.8z"/>
	<path style="fill:#100F0D;" d="M38.4,44L37,67.2c-0.1,1.5-0.7,2.3-1,2.5c-0.3-0.1-0.9-1-1-2.5L33.6,44H38.4 M40.9,41.6h-9.7
		l1.6,25.7C32.9,70,34.3,72,36,72s3.1-2,3.3-4.7L40.9,41.6L40.9,41.6z"/>
	<g>
		<polygon style="fill:#DFDFDF;" points="43.3,42.6 42.5,42.6 41.7,55.7 43.3,55.7 		"/>
		<polygon style="fill:#DFDFDF;" points="28.7,42.6 29.5,42.6 30.3,55.7 28.7,55.7 		"/>
	</g>
	<path style="fill:#DFDFDF;" d="M43.6,11.8H28.4v-0.2c0-1,0.8-1.8,1.8-1.8h11.6c1,0,1.8,0.8,1.8,1.8V11.8z"/>
	<path style="fill:#DFDFDF;" d="M36,1.4"/>
</g>
</svg>
