<?xml version="1.0" encoding="utf-8"?>
<!-- Generator: Adobe Illustrator 21.0.0, SVG Export Plug-In . SVG Version: 6.00 Build 0)  -->
<svg version="1.1" id="Layer_1" xmlns="http://www.w3.org/2000/svg" xmlns:xlink="http://www.w3.org/1999/xlink" x="0px" y="0px"
	 viewBox="0 0 72 72" style="enable-background:new 0 0 72 72;" xml:space="preserve">
<g id="COLOUR">
	<g>
		<g>
			<g>
				<path style="fill:#1E70B5;" d="M19.2,25.1V38c0,2.5,1.6,4.9,4,5.8l0.4,0.1v21.3h6.1v5.5h2.4c12.6,0,22.8-10.2,22.8-22.8v-8.1
					v-0.1c0.3-1.5,0.5-3.1,0.5-4.7c0-8.7-5.4-15.7-13.5-18.9l-0.4-1L35.2,11l-2-3.3c0-0.1,0-0.3,0-0.4l-3.9-6.2l0.4,10.3
					c0,0-3.8,0.5-3.8,1.7v6.3h-0.5C21.9,18.9,19.2,21.7,19.2,25.1z"/>
			</g>
		</g>
	</g>
</g>
<g id="DETAIL">
	<g>
		<path style="fill:#DFDFDF;" d="M33.6,8.5v3.6l0.5,0.8l1.8,2.9l0.7,0.1c0.5,0.1,1,0.2,1.5,0.3c0.2-0.3,0.2-0.7,0.2-1V8.5
			c0-1.3-1.1-2.3-2.4-2.3c-0.9,0-1.6,0.5-2,1.2c-0.1,0.2-0.2,0.5-0.3,0.7C33.7,8.2,33.6,8.4,33.6,8.5z"/>
	</g>
	<path style="fill:#2E2B28;" d="M27.1,19.8c0,0-2.5-1.2-5.1,1.6s-2,14-2,14s-1.8,6.8,3.5,8.6s1-8.6,1-8.6l2-7.8L27.1,19.8z"/>
	<path style="fill:#2E2B28;" d="M30.3,64.9v5.4c0,0,9.6,2.1,17.3-5.6S54,42.4,54,42.4L49.7,49c0,0-0.9,7.5-5.7,12
		C39,65.8,30.3,64.9,30.3,64.9z"/>
	<g>
		<g>
			<path style="fill:#100F0D;" d="M18.6,25.8v12.9c0,1.2,0.3,2.3,0.9,3.3c0.6-1,0.9-2.1,0.9-3.3V25.8c0-1.2-0.3-2.3-0.9-3.3
				C19,23.5,18.6,24.6,18.6,25.8z"/>
			<path style="fill:#100F0D;" d="M20.4,38.7c0,1.2-0.3,2.3-0.9,3.3c0.8,1.3,2,2.4,3.4,3v21.5H29V72h3c12.9,0,23.3-10.4,23.3-23.3
				v-8.1c0.3-1.5,0.5-3.1,0.5-4.8c0-9.1-5.7-17.1-13.9-20.3v-1.6c0-1.5-1.2-2.7-2.7-2.7h-3.5L34,8.5L33.7,8l-5-8v11.2H28
				c-1.5,0-2.7,1.2-2.7,2.7v5c-2.5,0.1-4.6,1.5-5.7,3.5c0.6,1,0.9,2.1,0.9,3.3L20.4,38.7L20.4,38.7z M34.4,27.6
				c4.3,0,7.8,3.5,7.8,7.8s-3.5,7.8-7.8,7.8s-7.8-3.5-7.8-7.8C26.6,31.1,30.1,27.6,34.4,27.6z M53,35.8c0,2.9-0.7,5.7-1.9,8.2
				c-0.7,1.5-1.7,3-2.8,4.3c-2,2.2-4.4,4-7.3,5.1c-1.7,0.7-3.6,1.1-5.5,1.3v-8.4c5.2-0.8,9.1-5.2,9.1-10.5c0-6-4.8-10.8-10.6-10.8
				c-0.8,0-1.7,0.1-2.5,0.3V9.8l0.9,1.4l1.3,2l0.5,0.8l1.8,3l0.7,0.1c0.5,0.1,1,0.2,1.5,0.3c0.3,0.1,0.6,0.1,1,0.2
				c1,0.3,1.9,0.6,2.8,1C48.5,21.6,53,28.2,53,35.8z M31.5,66.5h1.8c9.6,0,17.5-7.7,17.8-17.2c0.6-0.8,1.2-1.6,1.7-2.4v1.8
				c0,11.5-9.3,20.8-20.8,20.8h-0.4v-3H31.5z M25.8,51.6c1.1,3,3.7,5.2,6.9,5.7c0.5,0.1,0.9,0.1,1.4,0.1h0.1c5.1,0,9.8-1.8,13.5-4.8
				c-1.7,6.3-7.5,11-14.4,11h-7.6L25.8,51.6L25.8,51.6z M21.2,25.8c0-2.3,1.8-4.2,4.1-4.3v7.9c-1.6,2.1-2.3,3.4-2.3,7.1s0,5.7,0,5.7
				c-1.1-0.8-1.8-2-1.8-3.5C21.2,38.7,21.2,25.8,21.2,25.8z"/>
		</g>
	</g>
	<g>
		<path style="fill:#100F0D;" d="M26.6,35.4c0,4.3,3.5,7.8,7.8,7.8s7.8-3.5,7.8-7.8s-3.5-7.8-7.8-7.8S26.6,31.1,26.6,35.4z"/>
	</g>
	<circle style="fill:#2E2B28;" cx="34.3" cy="35.4" r="7.8"/>
	<g>
		<path style="fill:#12100B;" d="M38.6,31.2c-2.4-2.4-6.2-2.4-8.5,0c-2.4,2.4-2.4,6.2,0,8.5c2.4,2.4,6.2,2.4,8.5,0
			C41,37.3,41,33.5,38.6,31.2z M31.5,38.3c-1.6-1.6-1.6-4.1,0-5.7c1.6-1.6,4.1-1.6,5.7,0c1.6,1.6,1.6,4.1,0,5.7
			C35.6,39.9,33.1,39.9,31.5,38.3z"/>
	</g>
	<g>
		
			<ellipse transform="matrix(0.7071 -0.7071 0.7071 0.7071 -14.9299 34.6857)" style="fill:#DFDFDF;" cx="34.4" cy="35.4" rx="4" ry="4"/>
	</g>
	<g>
		<path style="fill:#DFDFDF;" d="M40.5,51.1c5.7-2.2,9.7-7.3,10.3-13.3c0.5-4.3-0.8-8.5-3.6-11.9s-6.7-5.5-11.1-6l-0.3,2.6
			c3.7,0.4,7,2.2,9.3,5s3.4,6.4,3,10c-0.5,5-3.9,9.3-8.6,11.2L40.5,51.1z"/>
	</g>
</g>
</svg>
