<?xml version="1.0" encoding="utf-8"?>
<!-- Generator: Adobe Illustrator 21.0.0, SVG Export Plug-In . SVG Version: 6.00 Build 0)  -->
<svg version="1.1" id="Layer_1" xmlns="http://www.w3.org/2000/svg" xmlns:xlink="http://www.w3.org/1999/xlink" x="0px" y="0px"
	 viewBox="0 0 72 72" style="enable-background:new 0 0 72 72;" xml:space="preserve">
<g id="COLOUR">
	<g>
		<g>
			<path style="fill:#1E70B5;" d="M70.7,20.5v30c0,0.6,0,1.1,0,1.7c0,2.2-0.4,4.2-1.3,6.1c-2.1,4.7-6.7,7.9-11.8,8.4v-5h-1.3
				c-1.3,0-2.5-0.5-3.3-1.5c-0.7-0.8-1.1-1.9-1.1-3.3v-3l-2.2,2c-1.6,1.5-3.5,2.7-5.6,3.6c-0.2,0.1-0.4,0.2-0.6,0.3
				c-4.7,1.9-10.1,1.8-14.8,0c-2.3-0.9-4.4-2.2-6.3-3.9l-2.2-2V57c0,1.4-0.4,2.5-1.1,3.3c-0.8,0.9-2,1.4-3.3,1.4h-1.3v5
				c-0.5,0-1-0.1-1.5-0.2C6.2,65.2,1.3,59.2,1.3,52.3c0-2.3,0-4.7,0-7V20.5l0,0c0.1-0.1,0.2-0.2,0.3-0.3c0.6-0.6,1.2-1.2,1.9-1.9
				L14.4,7.5v6.2h1.3l0,0c1.3,0,2.5,0.5,3.4,1.5c0.7,0.8,1.1,1.8,1.1,2.9c0,0.4,0,0.9,0,1.3V28l2.2-2c1.7-1.5,3.7-2.8,5.8-3.7
				c0.2-0.1,0.4-0.1,0.5-0.2c4.8-1.9,10.1-1.8,14.8,0c2.3,0.9,4.4,2.2,6.3,3.9l2.2,2v-5.1c0-0.5,0-1.1,0-1.6c0-1.1,0-2.3,0-3.4
				c0-2.4,2-4.3,4.4-4.3l0,0h1.3V7.5l10.7,10.7c0.7,0.7,1.4,1.4,2.1,2.1L70.7,20.5C70.6,20.4,70.6,20.5,70.7,20.5z"/>
		</g>
	</g>
</g>
<g id="DETAIL">
	<path style="opacity:0.15;fill:#DFDFDF;enable-background:new    ;" d="M43.4,22.1v37.8c-4.7,1.9-10.1,1.8-14.8,0V22.1
		C33.4,20.2,38.7,20.3,43.4,22.1z"/>
	<g>
		<path style="fill:#FFFFFF;" d="M12.8,9l-10,10v-5.7c0-3.2,2.6-5.8,5.8-5.8h0.2C10.3,7.5,11.7,8,12.8,9z"/>
		<path style="fill:#FFFFFF;" d="M69.2,13.3v5.6c0,0.3,0,0.7-0.1,1L58.7,9.5c1.1-1.3,2.7-2.1,4.4-2.1h0.2
			C66.6,7.5,69.2,10.1,69.2,13.3z"/>
	</g>
	<g>
		<path style="fill:#DFDFDF;" d="M36,55.6c-8.3,0-15.1-6.8-15.1-15.1S27.7,25.4,36,25.4s15.1,6.8,15.1,15.1S44.3,55.6,36,55.6z
			 M36,26.9c-7.5,0-13.6,6.1-13.6,13.6S28.5,54,36,54s13.6-6,13.6-13.5S43.5,26.9,36,26.9z"/>
	</g>
	<g>
		<polygon style="fill:#2E2B28;" points="70.4,43.3 43.4,43.3 43.4,37.6 56.9,37.6 57.6,21.8 70.4,32.2 		"/>
		<polygon style="fill:#2E2B28;" points="1.6,43.3 28.6,43.3 28.6,37.6 15.1,37.6 14.4,21.8 1.6,32.2 		"/>
	</g>
	<circle style="fill:#DFDFDF;" cx="36" cy="40.5" r="6.3"/>
	<g>
		<path style="fill:#100F0D;" d="M69.2,17c-4.3-4.3-8.6-8.6-12.9-12.9v8c-3.1,0-5.7,2.4-5.7,5.6c0,1.7,0,3.3,0,5c0,0.7,0,1.4,0,2.1
			c-6.2-5.7-15.3-7.2-23-3.9c-2.2,0.9-4.3,2.3-6.1,3.9c0-1.7,0-3.3,0-5c0-0.7,0-1.4,0-2c0-1.4-0.5-2.7-1.4-3.7c-1.1-1.3-2.7-2-4.4-2
			v-8c-4.1,4.1-8.2,8.2-12.3,12.3c-0.9,0.9-1.8,1.8-2.7,2.7c-0.2,0.2-0.6,0.5-0.7,0.8c0,0.1,0,0.3,0,0.5c0,1.6,0,3.2,0,4.8
			c0,5.5,0,10.9,0,16.4c0,3.5,0,7,0,10.6c0,7.4,5.3,14,12.7,15.4c1,0.2,2,0.3,3,0.3v-5c1.6,0,3.2-0.6,4.3-1.9
			c1.1-1.2,1.5-2.6,1.5-4.2c6.2,5.7,15.4,7.2,23.1,3.9c2.2-1,4.2-2.3,6-3.9c0,1.5,0.4,3,1.4,4.2c1.1,1.2,2.7,1.9,4.3,1.9v5
			c6.1,0,11.8-3.7,14.3-9.2c0.9-2.1,1.4-4.3,1.4-6.6c0-0.8,0-1.7,0-2.5c0-3.8,0-7.5,0-11.3c0-4.2,0-8.4,0-12.7c0-1.4,0-2.8,0-4.2
			c0-0.4,0-0.8,0-1.2c0-0.5-0.1-0.5-0.5-0.9C70.7,18.5,70,17.8,69.2,17z M58.9,10.4c2.1,2.1,4.3,4.3,6.4,6.4
			c1.3,1.3,2.5,2.5,3.8,3.8c0.3,0.3,0.3,0.5,0.3,0.9c0,0.9,0,1.9,0,2.8c0,1.9,0,3.7,0,5.6c-2.6-2.4-5.2-4.9-7.9-7.3
			c-0.9-0.8-1.8-1.6-2.6-2.4C58.9,20.2,58.9,10.4,58.9,10.4z M18.2,34.2c2.1-6,7.5-10.5,13.6-11.9c6.3-1.5,13.2,0.6,17.8,5.2
			c2.4,2.4,4.3,5.6,5,9H43c-1.4-2.5-4.2-4.1-7-4.1c-2.9,0-5.6,1.6-7,4.1H17.5C17.7,35.7,17.9,35,18.2,34.2z M41.4,40.5
			c0,2.3-1.5,4.3-3.6,5.1c-2.1,0.7-4.5,0.1-5.9-1.6c-1.5-1.8-1.8-4.4-0.5-6.4c1.2-1.9,3.4-2.9,5.6-2.5
			C39.5,35.6,41.4,37.9,41.4,40.5z M2.6,20.9c2.7-2.7,5.4-5.4,8-8c0.8-0.8,1.6-1.6,2.4-2.4v9.8c-2.7,2.5-5.4,5-8.1,7.5
			c-0.8,0.7-1.6,1.5-2.4,2.2v-9.1H2.6z M13.1,65c-4.3-0.9-8-4-9.6-8.1C2.4,54,2.6,51,2.6,48c0-1.2,0-2.3,0-3.5h2
			c0.5,4.4,4.1,8.1,8.5,8.6V65z M14.5,42.2C14.5,42.2,14.4,42.3,14.5,42.2c-3.2,0-6.4,0-9.7,0c-0.8,0-1.7,0-2.5,0v-8.8
			c2.8-2.6,5.6-5.2,8.4-7.8c0.9-0.8,1.8-1.7,2.7-2.5v15.6h14.7c-0.3,1.1-0.3,2.3,0,3.4L14.5,42.2L14.5,42.2z M54.6,44.7
			c-1.3,6.4-6.2,12.2-12.5,14.1l0,0c-4.1,1.3-8.3,1.3-12.4-0.1c-4-1.4-7.5-4.1-9.7-7.6c-1.3-2-2.2-4.3-2.7-6.6H29
			c1.4,2.5,4.1,4.1,7,4.1s5.6-1.6,7-4.1h11.6C54.6,44.6,54.6,44.7,54.6,44.7z M69.4,52.2c0,6.3-4.5,11.6-10.5,12.8V53.2
			c4.4-0.5,8-4.2,8.5-8.6h2V52.2z M69.7,42.2c-3.2,0-6.5,0-9.7,0c-0.8,0-1.6,0-2.4,0c0,0-11,0-11.9,0c-0.6,0-1.2,0-1.7,0
			c0.3-1.1,0.3-2.3,0-3.4h14.7V23.1c3.1,2.9,6.2,5.7,9.3,8.6c0.6,0.6,1.2,1.1,1.8,1.7v8.8H69.7z"/>
	</g>
</g>
</svg>
