<?xml version="1.0" encoding="utf-8"?>
<!-- Generator: Adobe Illustrator 21.0.0, SVG Export Plug-In . SVG Version: 6.00 Build 0)  -->
<svg version="1.1" id="Layer_1" xmlns="http://www.w3.org/2000/svg" xmlns:xlink="http://www.w3.org/1999/xlink" x="0px" y="0px"
	 viewBox="0 0 72 83" style="enable-background:new 0 0 72 83;" xml:space="preserve">
<g id="COLOUR">
	<g>
		<path style="fill:#1E70B5;" d="M63,18.5v45.8l-2.6,2.4c-2.2,2.1-4.5,4.1-6.7,6.3V62.6l-2,3.3c-0.4,0.6-0.8,1.3-1.3,1.8l-0.1,0.1
			c-0.1,0.1-0.3,0.4-0.4,0.7c-0.1,0.4-0.1,0.7,0,1c0,0.1,0,0.2,0,0.2V81l-9.3-6v-0.8l-1.3,0.2c-2.1,0.4-4.4,0.4-6.5,0l-1.3-0.2V75
			l-9.3,6v-9.5l1.5,1.5l-1.5-4.5c-0.1-0.4-0.5-0.8-0.7-1.1c-0.1-0.1-0.2-0.2-0.2-0.2c-0.3-0.4-0.6-0.8-0.8-1.2l-2-3.4v10.5L9,64.4
			l0,0V19.4c0-0.1,0-0.3,0-0.5c0-0.1,0-0.2,0-0.3c0.2-0.2,0.4-0.4,0.7-0.6c0.1-0.1,0.2-0.2,0.4-0.3c2.3-2.1,4.6-4.3,6.9-6.5l1.4-1.3
			v12.8h3.8V2l9.3,6v14.7h9.1V7.9L49.8,2v20.6h3.8V9.8l4.5,4.1c0.9,0.9,1.9,1.8,2.8,2.6c0.5,0.5,0.9,0.9,1.4,1.3
			c0.1,0.1,0.2,0.2,0.3,0.3C62.8,18.3,62.9,18.4,63,18.5z"/>
	</g>
</g>
<g id="DETAIL">
	<g>
		<polygon style="fill:#2E2B28;" points="24,43.3 32.1,38.9 40.5,38.9 47.9,43.3 40.4,48 31.1,48 		"/>
		<polygon style="fill:#2E2B28;" points="47.9,69.4 39.8,65 31.4,65 24,69.4 31.5,74.1 40.8,74.1 		"/>
		<g>
			<polygon style="opacity:0.15;fill:#DFDFDF;enable-background:new    ;" points="53.4,71 58.5,68.8 58.5,14.3 53.4,10.8 			"/>
			<polygon style="opacity:0.15;fill:#DFDFDF;enable-background:new    ;" points="18.5,71 13.4,68.8 13.4,14.3 18.5,10.8 			"/>
		</g>
		<g>
			<path style="fill:#DFDFDF;" d="M27.7,10.4v29.2c-0.7,0.3-1.3,0.7-1.9,1.1V9.3L27.7,10.4z"/>
			<path style="fill:#DFDFDF;" d="M46.2,9.3v31.5c-0.6-0.4-1.3-0.7-1.9-1.1V10.4L46.2,9.3z"/>
		</g>
		<g>
			<path style="fill:#DFDFDF;" d="M27.7,72.2v2.1c-0.7,0.3-1.3,0.7-1.9,1.1V71C26.3,71.3,26.9,71.7,27.7,72.2z"/>
			<path style="fill:#DFDFDF;" d="M46.2,70.9v4.4c-0.6-0.4-1.3-0.7-1.9-1.1V72C45,71.7,45.6,71.3,46.2,70.9z"/>
		</g>
		<circle style="fill:#DFDFDF;" cx="35.9" cy="56.5" r="6.9"/>
		<path style="fill:#100F0D;" d="M64.1,18.1c0,0-0.7-0.6-0.9-0.9c-0.5-0.4-0.9-0.9-1.4-1.3c-0.9-0.9-1.9-1.7-2.8-2.6
			c-0.2-0.2-0.3-0.3-0.5-0.5l-5.8-5.4v14.2H51V0L39.4,7.3v14.2h-6.9V7.3L21.1,0v21.6h-1.6V7.4c-3.4,3.1-6.8,6.4-10.2,9.5
			c-0.4,0.4-1.3,1.3-1.3,1.3s0,0.9,0,1.3v44.9c0,0.3,0,0.5,0,0.5s7.3,6.9,10.8,10.2c0.2,0.2,0.4,0.4,0.6,0.6v-9.1
			c0.3,0.4,0.6,0.9,0.9,1.3c0.2,0.3,0.7,0.7,0.8,1l0,0v14.2l11.5-7.3v-0.1c2.2,0.4,4.7,0.4,6.9,0v0.1L50.9,83V69.8
			c0-0.3-0.1-0.7,0-0.9c0-0.2,0.1-0.2,0.2-0.4c0.5-0.6,0.9-1.3,1.4-1.9v9.1c2.8-2.6,5.7-5.4,8.5-8c0.9-0.8,1.8-1.7,2.6-2.5
			c0.2-0.2,0.3-0.3,0.3-0.3L64.1,18.1L64.1,18.1z M16.6,69.3c-1.1-1-2.2-2-3.3-3.1c-0.8-0.7-1.6-1.5-2.3-2.2
			c-0.2-0.2-0.3-0.2-0.3-0.5c-0.1-1,0-2,0-3V19.9c0-0.2-0.1-0.5,0-0.7c0-0.1,0.2-0.2,0.3-0.3c0.4-0.4,0.8-0.7,1.2-1.1
			c1.3-1.2,2.5-2.4,3.8-3.5c0.2-0.2,0.4-0.4,0.6-0.6V69.3z M42.1,8.8l6-3.8v36.4c-1.8-1.4-3.8-2.6-6-3.3V8.8z M40.1,40.3
			c2.1,0.5,4.3,1.5,6.1,2.9c-2,1.2-4,2.3-6.1,3.5V40.3z M23.8,5l6,3.8v29.3c-2.1,0.7-4.3,1.8-6,3.3V5z M31.9,40.3v6.4
			c-2-1.1-4-2.3-6.1-3.4C27.7,41.9,29.7,40.9,31.9,40.3z M21.1,64c-3.1-6.2-1.9-13.9,2.7-18.9c0,0,4.1,2.5,6.2,3.7V50
			c0,0.4,0.1,0.8-0.1,1.2s-0.6,0.7-0.8,1.1c-0.2,0.4-0.5,0.8-0.6,1.3c-0.4,1-0.6,2-0.6,3c0,1,0.2,1.9,0.6,2.8
			c0.2,0.4,0.4,0.8,0.6,1.2s0.6,0.7,0.8,1.1c0.2,0.3,0.1,0.8,0.1,1.2v1.2c-2,1.2-4.1,2.4-6.2,3.5v0.1C22.7,66.8,21.8,65.5,21.1,64z
			 M23.8,78v-6.4c1.6,1.3,3.3,2.3,5.3,3L23.8,78z M31.9,72.8c-2.1-0.5-4.3-1.5-6.1-2.9c2-1.1,4-2.3,6.1-3.4V72.8z M39.2,60.9
			c-1.8,1.4-4.5,1.4-6.3,0.1c-1.9-1.3-2.7-3.7-2.1-6c0.6-2.2,2.6-3.8,4.9-3.9c2.2-0.1,4.4,1.1,5.3,3C41.9,56.5,41.3,59.4,39.2,60.9z
			 M39.4,72.9V66c2.2,1.3,4.5,2.5,6.7,3.8c-1.6,1.2-3.4,2.1-5.4,2.7C40.3,72.7,39.9,72.8,39.4,72.9z M48.2,78l-5.3-3.3
			c1.9-0.7,3.6-1.7,5.3-3V78z M48.2,45.1c3.4,3.6,5,8.7,4.4,13.6c-0.4,2.7-1.4,5.4-3,7.6c0,0-0.9,1-1.4,1.5
			c-2.1-1.2-4.1-2.4-6.2-3.5V63c0-0.4-0.1-0.8,0.1-1.2c0.2-0.4,0.6-0.7,0.8-1.1c0.2-0.4,0.5-0.8,0.6-1.2c0.4-0.9,0.6-1.8,0.6-2.8
			c0-1-0.1-2.1-0.5-3.1c-0.2-0.5-0.4-0.9-0.6-1.3c-0.2-0.4-0.6-0.7-0.8-1.1c-0.2-0.3-0.1-0.8-0.1-1.2v-1.2L48.2,45.1z M61.3,19.6v44
			c-2,1.9-4,3.7-6,5.7V58.2c0-0.2,0-3.6,0-3.2V13.7c1,0.9,2,1.9,3,2.8c0.5,0.5,1,0.9,1.5,1.4c0.3,0.3,0.7,0.6,1,0.9
			c0.1,0.1,0.4,0.3,0.5,0.5C61.3,19.3,61.3,19.5,61.3,19.6z"/>
		<g>
			<g>
				<path style="fill:#DFDFDF;" d="M24.7,65.3c-2-2.5-3.1-5.7-3.1-8.9c0-3.1,1-6.2,2.9-8.7l1.7,1.3c-1.6,2.1-2.4,4.7-2.4,7.4
					s0.9,5.4,2.6,7.5L24.7,65.3z"/>
			</g>
			<g>
				<path style="fill:#DFDFDF;" d="M47.2,65.3L45.5,64c1.7-2.1,2.6-4.8,2.6-7.5c0-2.6-0.8-5.3-2.4-7.4l1.7-1.3
					c1.9,2.5,2.9,5.6,2.9,8.7C50.3,59.6,49.2,62.7,47.2,65.3z"/>
			</g>
		</g>
	</g>
</g>
</svg>
