<?xml version="1.0" encoding="utf-8"?>
<!-- Generator: Adobe Illustrator 21.0.0, SVG Export Plug-In . SVG Version: 6.00 Build 0)  -->
<svg version="1.1" id="Layer_1" xmlns="http://www.w3.org/2000/svg" xmlns:xlink="http://www.w3.org/1999/xlink" x="0px" y="0px"
	 viewBox="0 0 72 72" style="enable-background:new 0 0 72 72;" xml:space="preserve">
<g id="COLOUR">
	<g>
		<path style="fill:#1E70B5;" d="M43.2,24.3V45h-2.6v4.2h-2.8l3.5,5.8H30.7l3.5-5.8h-2.8V45h-2.6V24.3c0-2,0.8-3.8,2.1-5.1
			c1.3-1.3,3.1-2.1,5.1-2.1s3.8,0.8,5,2.1C42.4,20.5,43.2,22.3,43.2,24.3z"/>
	</g>
</g>
<g id="DETAIL">
	<path style="fill:#DFDFDF;" d="M38.8,24c0,1-0.5,1.9-1.3,2.3c-0.4,0.3-0.9,0.4-1.4,0.4s-1-0.2-1.4-0.4c-0.8-0.5-1.3-1.3-1.3-2.3
		s0.5-1.9,1.3-2.3c0.4-0.3,0.9-0.4,1.4-0.4s1,0.2,1.4,0.4C38.2,22.1,38.8,23,38.8,24z"/>
	<polygon style="fill:#2E2B28;" points="37.4,46.3 30.7,46.3 30.7,49.6 41.3,49.6 41.3,46.3 37.7,46.3 	"/>
	<path style="fill:#DFDFDF;" d="M37.1,16.7v29.8c-0.3-1.4-1.9-1.4-2.2,0V16.7c0.4-1,0.7-0.7,1.1-0.7S36.8,15.7,37.1,16.7z"/>
	<path style="fill:#100F0D;" d="M37.1,19.8c-0.3-0.1-0.7-0.2-1.1-0.2s-0.8,0-1.1,0.2C33,20.3,31.6,22,31.6,24s1.4,3.7,3.3,4.2
		c0.3,0.1,0.7,0.2,1.1,0.2s0.8,0,1.1-0.2c1.9-0.5,3.3-2.2,3.3-4.2C40.4,22,39,20.3,37.1,19.8z M37.1,25.8c-0.3,0.2-0.7,0.3-1.1,0.3
		s-0.8-0.1-1.1-0.3c-0.6-0.4-1-1-1-1.8s0.4-1.4,1-1.8c0.3-0.2,0.7-0.3,1.1-0.3s0.8,0.1,1.1,0.3c0.6,0.4,1,1,1,1.8
		S37.7,25.4,37.1,25.8z"/>
	<path style="fill:#100F0D;" d="M42.6,47h2.6V24.3c0-5.1-4.1-9.2-9.2-9.2s-9.2,4.1-9.2,9.2V47h2.6v4.1h1.3l-3.5,5.8h17.6l-3.5-5.8
		h1.2V47H42.6z M31.7,54.3l2-3.2h4.7l1.9,3.2H31.7z M37.4,47h2.9v1.9h-8.6V47h5.4H37.4z M29.4,44.4V24.3c0-3.3,2.4-6,5.5-6.5
		c0.4-0.1,0.7-0.1,1.1-0.1s0.8,0,1.1,0.1c3.1,0.5,5.5,3.3,5.5,6.5v20.2L29.4,44.4L29.4,44.4z"/>
</g>
</svg>
