<?xml version="1.0" encoding="utf-8"?>
<!-- Generator: Adobe Illustrator 21.0.0, SVG Export Plug-In . SVG Version: 6.00 Build 0)  -->
<svg version="1.1" id="Layer_1" xmlns="http://www.w3.org/2000/svg" xmlns:xlink="http://www.w3.org/1999/xlink" x="0px" y="0px"
	 viewBox="0 0 72 72" style="enable-background:new 0 0 72 72;" xml:space="preserve">
<g id="COLOUR">
	<path style="fill:#1E70B5;" d="M62.7,28.7L59.2,29l3.1,1.8c4.5,2.7,7.6,7.3,8.5,12.6l0,0c0,0.1,0,0.2-0.1,0.3s-0.2,0.1-0.3,0
		c-1.8-1.4-3.7-2.5-5.7-3.3L61.2,39l1.9,3c1.9,3,2.9,6.3,2.9,9.7c0,1.3-0.1,2.6-0.4,3.9c0,0.1-0.1,0.2-0.3,0.2
		c-0.1,0-0.2-0.1-0.2-0.1c-1.3-2.3-3-4.3-5-6l-2.7-2.3l0.9,3.5c1.3,5.1,0.2,10.6-2.9,14.9c-0.1,0.1-0.1,0.1-0.2,0.1c0,0,0,0-0.1,0
		s-0.2-0.1-0.2-0.2c-0.3-2.2-0.8-4.3-1.7-6.4L51.7,56l-0.8,3.5c-1,4.7-3.8,8.7-7.9,11.3c-0.1,0.1-0.2,0.1-0.3,0s-0.1-0.2-0.1-0.3
		c0.7-2.6,0.9-5.2,0.7-7.8L43,59.1l-1.8,3.1c-2.7,4.5-7.3,7.6-12.6,8.5c-0.1,0-0.3,0-0.3-0.1c-0.1-0.1-0.1-0.2,0-0.3
		c1.4-1.8,2.5-3.7,3.3-5.7l1.3-3.3l-3,1.9C27,65,23.7,66,20.3,66c-1.3,0-2.6-0.1-3.9-0.4c-0.1,0-0.2-0.1-0.2-0.2s0-0.2,0.1-0.3
		c2.3-1.3,4.3-3,6-5l2.3-2.7l-3.5,0.9c-1.4,0.4-2.9,0.5-4.3,0.5c-3.8,0-7.5-1.2-10.6-3.5C6.1,55.2,6,55.1,6.1,55
		c0-0.1,0.1-0.2,0.3-0.2c2.2-0.3,4.3-0.8,6.4-1.7l3.3-1.4l-3.5-0.8C7.9,49.9,3.9,47,1.3,43c-0.1-0.1-0.1-0.2,0-0.3s0.2-0.1,0.3-0.1
		c2.6,0.7,5.2,0.9,7.8,0.7L13,43l-3.1-1.8c-4.5-2.7-7.6-7.3-8.5-12.6c0-0.1,0-0.2,0.1-0.3c0.1-0.1,0.2-0.1,0.3,0
		c1.7,1.4,3.6,2.5,5.7,3.3l3.3,1.4l-1.9-3c-2.6-4-3.4-8.9-2.4-13.6c0-0.1,0.1-0.2,0.2-0.2s0.2,0,0.3,0.1c1.3,2.3,3,4.3,5,6l2.7,2.3
		l-0.9-3.5c-1.3-5.1-0.2-10.6,2.9-14.9C16.8,6.1,16.9,6,17,6.1c0.1,0,0.2,0.1,0.2,0.2c0.3,2.2,0.8,4.3,1.7,6.4l1.4,3.3l0.8-3.5
		c1-4.7,3.9-8.7,7.9-11.3c0.1-0.1,0.2-0.1,0.3,0c0.1,0.1,0.1,0.2,0.1,0.3c-0.7,2.6-0.9,5.2-0.7,7.8l0.3,3.6l1.8-3.1
		c2.7-4.5,7.3-7.6,12.6-8.5c0.1,0,0.2,0,0.3,0.1s0.1,0.2,0,0.3c-1.4,1.7-2.5,3.7-3.3,5.7L39,10.8l3-1.9c4-2.6,8.9-3.4,13.6-2.4
		c0.1,0,0.2,0.1,0.2,0.2s0,0.2-0.1,0.3c-2.3,1.3-4.3,3-6,5l-2.3,2.7l3.5-0.9c5.1-1.3,10.6-0.2,14.9,2.9c0.1,0.1,0.1,0.2,0.1,0.3
		c0,0.1-0.1,0.2-0.2,0.2c-2.2,0.3-4.3,0.8-6.4,1.7L56,20.3l3.5,0.8c4.7,1,8.7,3.9,11.3,7.9c0.1,0.1,0.1,0.2,0,0.3
		c-0.1,0.1-0.2,0.1-0.3,0.1C67.9,28.7,65.3,28.5,62.7,28.7z"/>
</g>
<g id="DETAIL">
	<g>
		<circle style="fill:#2E2B28;" cx="36" cy="36" r="17.3"/>
	</g>
	<path style="fill:#100F0D;" d="M62.8,29.8c2.4-0.2,4.9,0,7.4,0.7c0.6,0.2,1.2-0.1,1.5-0.5c0.4-0.5,0.4-1.1,0.1-1.6
		C69,24,64.6,21,59.8,20c1.9-0.8,3.9-1.3,6.1-1.6c0.6-0.1,1.1-0.5,1.2-1.1s-0.1-1.2-0.6-1.5c-4.7-3.4-10.5-4.4-15.9-3.1
		c1.6-1.9,3.5-3.5,5.7-4.7c0.5-0.3,0.8-0.9,0.7-1.5s-0.5-1.1-1.1-1.2c-5.2-1.1-10.3-0.1-14.5,2.5c0.8-1.9,1.8-3.7,3.2-5.4
		C45,2,45,1.4,44.7,0.8c-0.3-0.5-0.9-0.8-1.5-0.7c-5.8,0.9-10.6,4.3-13.4,9c-0.2-2.5,0-4.9,0.7-7.4c0.2-0.6-0.1-1.2-0.5-1.5
		c-0.5-0.4-1.1-0.4-1.6,0C24,3,21,7.4,20,12.2c-0.8-1.9-1.3-3.9-1.6-6.1c-0.1-0.6-0.5-1.1-1.1-1.2c-0.6-0.1-1.2,0.1-1.5,0.6
		c-3.4,4.7-4.4,10.5-3.1,15.9c-1.9-1.6-3.5-3.5-4.7-5.7c-0.3-0.5-0.9-0.8-1.5-0.7s-1.1,0.5-1.2,1.1c-1.1,5.2-0.1,10.3,2.5,14.5
		c-1.9-0.8-3.7-1.8-5.4-3.2C2,27,1.4,27,0.8,27.3c-0.5,0.3-0.8,0.9-0.7,1.5c0.9,5.8,4.3,10.6,9,13.4c-2.5,0.2-4.9,0-7.4-0.7
		c-0.6-0.2-1.2,0.1-1.5,0.5c-0.3,0.5-0.4,1.1,0,1.6C3,48,7.4,51,12.2,52c-1.9,0.8-3.9,1.3-6.1,1.6c-0.6,0.1-1.1,0.5-1.2,1.1
		c-0.1,0.6,0.1,1.2,0.6,1.5c3.4,2.5,7.4,3.7,11.3,3.7c1.5,0,3.1-0.2,4.6-0.6c-1.6,1.9-3.5,3.5-5.7,4.7c-0.5,0.3-0.8,0.9-0.7,1.5
		s0.5,1.1,1.1,1.2c1.4,0.3,2.8,0.5,4.2,0.5c3.7,0,7.3-1.1,10.3-3c-0.8,1.9-1.8,3.7-3.2,5.4c-0.4,0.4-0.4,1-0.1,1.6
		c0.3,0.4,0.7,0.7,1.2,0.7c0.1,0,0.1,0,0.2,0c5.8-0.9,10.6-4.3,13.4-9c0.2,2.4,0,4.9-0.7,7.4c-0.2,0.6,0.1,1.2,0.5,1.5
		c0.3,0.2,0.6,0.3,0.9,0.3c0.3,0,0.5-0.1,0.8-0.2c4.4-2.8,7.4-7.2,8.4-12c0.8,1.9,1.3,3.9,1.6,6.1c0.1,0.6,0.5,1.1,1.1,1.2
		c0.1,0,0.2,0,0.4,0c0.5,0,0.9-0.2,1.2-0.6c3.4-4.7,4.4-10.5,3.1-15.9c1.9,1.6,3.5,3.5,4.7,5.7c0.3,0.4,0.7,0.7,1.2,0.7
		c0.1,0,0.1,0,0.2,0c0.6-0.1,1.1-0.5,1.2-1.1c0.3-1.4,0.5-2.8,0.5-4.2c0-3.7-1.1-7.3-3-10.3c1.9,0.8,3.7,1.8,5.4,3.2
		c0.3,0.2,0.6,0.3,0.9,0.3s0.5-0.1,0.7-0.2c0.5-0.3,0.8-0.9,0.7-1.5C70.9,37.5,67.5,32.7,62.8,29.8z M58.7,35.9L58.7,35.9
		c0,0.5,0,0.9,0,1.2c0,0.7-0.1,1.4-0.2,2.1c0,0.2-0.1,0.5-0.1,0.7c-0.3,1.7-0.8,3.4-1.5,4.9c-0.1,0.2-0.1,0.3-0.2,0.5
		c-0.4,0.9-0.9,1.7-1.4,2.5l0,0c0,0,0,0,0,0.1c-0.9,1.4-2,2.8-3.1,4c-0.3,0.3-0.6,0.6-0.9,0.9c-0.5,0.5-1.1,0.9-1.7,1.4
		c-0.2,0.1-0.4,0.3-0.6,0.4c-1.4,1-2.9,1.8-4.5,2.4c-0.2,0.1-0.3,0.1-0.5,0.2c-0.9,0.3-1.8,0.6-2.7,0.8c0,0,0,0,0-0.1c0,0,0,0,0,0.1
		c-1.6,0.4-3.3,0.6-5.1,0.6H36c-0.4,0-0.8,0-1.1,0c-0.7,0-1.4-0.1-2.1-0.2c-0.2,0-0.5-0.1-0.7-0.1c-1.7-0.3-3.4-0.8-4.9-1.5
		c-0.2-0.1-0.3-0.1-0.5-0.2c-0.9-0.4-1.7-0.9-2.5-1.4l0,0c0,0,0,0-0.1,0c-1.4-0.9-2.8-2-4-3.1c-0.3-0.3-0.6-0.6-0.9-0.9
		c-0.5-0.5-0.9-1.1-1.4-1.7c-0.1-0.2-0.3-0.4-0.4-0.6c-1-1.4-1.8-2.9-2.4-4.5c-0.1-0.2-0.1-0.3-0.2-0.5c-0.3-0.9-0.6-1.8-0.8-2.7
		c0,0,0,0,0.1,0c0,0,0,0-0.1,0c-0.4-1.6-0.6-3.3-0.6-5.1V36c0-0.4,0-0.8,0-1.1c0-0.7,0.1-1.4,0.2-2.1c0-0.2,0.1-0.5,0.1-0.7
		c0.3-1.7,0.8-3.4,1.5-4.9c0.1-0.2,0.1-0.3,0.2-0.5c0.4-0.9,0.9-1.7,1.4-2.5l0,0c0,0,0,0,0-0.1c0.9-1.4,2-2.8,3.1-4
		c0.3-0.3,0.6-0.6,0.9-0.9c0.5-0.5,1.1-0.9,1.7-1.4c0.2-0.1,0.4-0.3,0.6-0.4c1.4-1,2.9-1.8,4.5-2.4c0.2-0.1,0.3-0.1,0.5-0.2
		c0.9-0.3,1.8-0.6,2.7-0.8c0,0,0,0,0,0.1c0,0,0,0,0-0.1c1.6-0.4,3.3-0.6,5.1-0.6H36c0.4,0,0.8,0,1.1,0c0.7,0,1.4,0.1,2.1,0.2
		c0.2,0,0.5,0.1,0.7,0.1c1.7,0.3,3.4,0.8,4.9,1.5c0.2,0.1,0.3,0.1,0.5,0.2c0.9,0.4,1.7,0.9,2.5,1.4l0,0c0,0,0,0,0.1,0
		c1.4,0.9,2.8,2,4,3.1c0.3,0.3,0.6,0.6,0.9,0.9c0.5,0.5,0.9,1.1,1.4,1.6c0.1,0.2,0.3,0.4,0.4,0.6c1,1.4,1.8,2.9,2.4,4.5
		c0.1,0.2,0.1,0.3,0.2,0.5c0.3,0.9,0.6,1.8,0.8,2.7c0,0,0,0-0.1,0c0,0,0,0,0.1,0C58.5,32.4,58.7,34.1,58.7,35.9z M67,27
		c-2.3-0.2-4.7-0.1-7,0.3c-0.6-1.7-1.4-3.3-2.3-4.8C61.2,23,64.5,24.5,67,27z M61.6,16.3c-2.3,0.6-4.4,1.6-6.4,2.8
		c-1.2-1.3-2.5-2.6-3.9-3.6C54.6,14.6,58.3,14.9,61.6,16.3z M51.6,7.7c-1.8,1.5-3.4,3.2-4.7,5.1c-1.6-0.8-3.3-1.3-5-1.8
		C44.6,9,48,7.8,51.6,7.7z M40.1,4c-1.2,2-2,4.2-2.5,6.5c-0.5,0-1.1-0.1-1.6-0.1c-1.3,0-2.5,0.1-3.7,0.3C34.1,7.7,36.8,5.3,40.1,4z
		 M27,5c-0.2,2.3-0.1,4.7,0.3,7c-1.7,0.6-3.3,1.4-4.8,2.3C23,10.8,24.5,7.5,27,5z M16.3,10.4c0.6,2.3,1.6,4.4,2.8,6.4
		c-1.3,1.2-2.6,2.5-3.6,3.9C14.6,17.4,14.9,13.7,16.3,10.4z M7.7,20.4c1.5,1.8,3.2,3.4,5.1,4.7c-0.8,1.6-1.3,3.3-1.8,5
		C9,27.4,7.8,24,7.7,20.4z M4,31.9c2,1.2,4.2,2,6.5,2.5c0,0.5-0.1,1.1-0.1,1.6c0,1.3,0.1,2.5,0.3,3.7C7.7,37.9,5.3,35.2,4,31.9z
		 M5,45c2.3,0.2,4.7,0.1,7-0.3c0.6,1.7,1.4,3.3,2.3,4.8C10.8,49,7.5,47.5,5,45z M10.4,55.7c2.3-0.6,4.4-1.6,6.4-2.8
		c1.2,1.3,2.5,2.6,3.9,3.6C17.4,57.4,13.7,57.1,10.4,55.7z M20.4,64.3c1.8-1.5,3.4-3.2,4.7-5.1c1.6,0.8,3.3,1.3,5,1.8
		C27.4,63,24,64.2,20.4,64.3z M31.9,68c1.1-2,2-4.2,2.5-6.5c0.5,0,1.1,0.1,1.6,0.1c1.3,0,2.5-0.1,3.7-0.3
		C37.9,64.3,35.2,66.7,31.9,68z M45,67c0.2-2.3,0.2-4.7-0.3-7c1.7-0.6,3.3-1.4,4.8-2.3C49,61.2,47.5,64.5,45,67z M55.7,61.6
		c-0.6-2.3-1.6-4.4-2.8-6.4c1.3-1.2,2.6-2.5,3.6-3.9C57.4,54.6,57.1,58.3,55.7,61.6z M64.3,51.6c-1.5-1.8-3.2-3.4-5.1-4.7
		c0.8-1.6,1.3-3.3,1.8-5C63,44.6,64.2,48,64.3,51.6z M61.5,37.6c0-0.5,0.1-1.1,0.1-1.6c0-1.3-0.1-2.5-0.3-3.7c3,1.8,5.4,4.5,6.7,7.9
		C66,39,63.8,38.1,61.5,37.6z"/>
	<path style="fill:#100F0D;" d="M54.1,32.5L54.1,32.5C54.1,32.4,54.1,32.4,54.1,32.5c-0.5-2.5-1.5-4.9-2.9-6.9
		c-0.7-1-1.4-1.9-2.3-2.7c-0.4-0.4-0.9-0.9-1.4-1.2c-0.4-0.3-1-0.6-1.3-1l0,0c-2-1.4-4.4-2.3-6.8-2.8c-1.2-0.2-2.5-0.3-3.7-0.3
		c-0.6,0-1.2,0-1.8,0.1c-0.5,0.1-1.1,0.2-1.6,0.2l0,0c-2.4,0.5-4.8,1.5-6.8,2.9c-1,0.7-1.9,1.4-2.7,2.3c-0.4,0.4-0.9,0.9-1.2,1.4
		c-0.3,0.4-0.6,1-1,1.3l0,0c-1.4,2-2.3,4.4-2.8,6.8c-0.2,1.2-0.3,2.5-0.3,3.7c0,0.6,0,1.2,0.1,1.8c0.1,0.5,0.2,1.1,0.2,1.6l0,0
		c0.5,2.4,1.5,4.8,2.9,6.8c0.7,1,1.4,1.9,2.3,2.7c0.4,0.4,0.9,0.9,1.4,1.2c0.4,0.3,1,0.6,1.3,1l0,0c2,1.4,4.4,2.3,6.8,2.8
		c1.2,0.2,2.5,0.3,3.7,0.3c0.6,0,1.2,0,1.8-0.1c0.5-0.1,1.1-0.2,1.6-0.2l0,0c2.4-0.5,4.8-1.5,6.8-2.9c1-0.7,1.9-1.4,2.7-2.3
		c0.4-0.4,0.9-0.9,1.2-1.4c0.3-0.4,0.6-1,1-1.3l0,0C54,42.3,55.1,37.2,54.1,32.5z M28.3,49.7c0.8-2.2,1.6-4.4,2.3-6.5
		c1.2,0.9,2.6,1.5,4.1,1.7c-0.9,2.1-1.9,4.2-2.8,6.3C30.7,50.8,29.5,50.3,28.3,49.7z M43.7,22.3c-0.8,2.2-1.6,4.4-2.3,6.5
		c-1.2-0.9-2.6-1.5-4.1-1.7c0.9-2.1,1.9-4.2,2.8-6.3C41.3,21.2,42.5,21.7,43.7,22.3z M20.9,40.3c2.1-1,4.2-2,6.3-3
		c0.2,1.5,0.8,2.9,1.7,4.1c-2.2,0.8-4.3,1.6-6.5,2.4C21.8,42.7,21.3,41.5,20.9,40.3z M36,42c-2.5,0-4.9-1.7-5.7-4
		c-0.8-2.4-0.1-5.1,1.9-6.7c1.9-1.6,4.8-1.8,6.9-0.5c2.1,1.3,3.3,3.8,2.8,6.3C41.4,39.9,38.9,42,36,42z M50.8,31.9l-6,2.9
		c-0.2-1.5-0.8-2.9-1.7-4.1c2.2-0.8,4.3-1.6,6.5-2.5c0.6,1.1,1.2,2.3,1.5,3.6L50.8,31.9z M31.9,21.2l2.9,6c-1.5,0.2-2.9,0.8-4.1,1.7
		c-0.8-2.2-1.6-4.3-2.4-6.5c1.1-0.6,2.3-1.2,3.6-1.5V21.2z M22.3,28.3c2.2,0.8,4.4,1.6,6.5,2.3c-0.9,1.2-1.5,2.6-1.7,4.1
		c-2.1-0.9-4.2-1.9-6.3-2.8C21.2,30.7,21.7,29.5,22.3,28.3z M40.1,50.8l-2.9-6c1.5-0.2,2.9-0.8,4.1-1.7c0.8,2.2,1.6,4.3,2.4,6.5
		c-1.1,0.6-2.3,1.2-3.6,1.5V50.8z M49.7,43.7c-2.2-0.8-4.4-1.6-6.5-2.3c0.9-1.2,1.5-2.6,1.7-4.1c2.1,0.9,4.2,1.9,6.3,2.8
		C50.8,41.3,50.3,42.5,49.7,43.7z"/>
	<circle style="fill:#DFDFDF;stroke:#100F0D;stroke-width:5;stroke-miterlimit:10;" cx="36" cy="36" r="7.1"/>
</g>
</svg>
