<?xml version="1.0" encoding="utf-8"?>
<!-- Generator: Adobe Illustrator 21.0.0, SVG Export Plug-In . SVG Version: 6.00 Build 0)  -->
<svg version="1.1" id="Layer_1" xmlns="http://www.w3.org/2000/svg" xmlns:xlink="http://www.w3.org/1999/xlink" x="0px" y="0px"
	 viewBox="0 0 72 72" style="enable-background:new 0 0 72 72;" xml:space="preserve">
<g id="COLOUR">
	<g>
		<g>
			<path style="fill:#1E70B5;" d="M57.9,34.8L48,23.6v-11h-7L36,0.3l-5.2,12.3h-7v11l-9.9,11.2H1.3l12.5,14.3v4.7l10.4,11.9l3,3.4h8
				v-1.5h1.6v1.5h8l3-3.4l10.4-11.9v-4.7l12.5-14.3C70.7,34.8,57.9,34.8,57.9,34.8z M29.8,45.2L29.8,45.2L29.8,45.2L29.8,45.2z
				 M42.2,45.2L42.2,45.2L42.2,45.2L42.2,45.2z"/>
			<path style="fill:#1E70B5;" d="M29.8,45.2L29.8,45.2L29.8,45.2L29.8,45.2z"/>
			<path style="fill:#1E70B5;" d="M42.2,45.2L42.2,45.2L42.2,45.2L42.2,45.2z"/>
		</g>
	</g>
</g>
<g id="DETAIL">
	<g>
		<path style="fill:#DFDFDF;" d="M29.7,17.1c3.9-4.3,7.9-4.5,12.3,0V21H29.7V17.1z"/>
		<polygon style="fill:#DFDFDF;" points="52.4,47.8 52.4,50.6 47.6,55.6 47.6,51.9 		"/>
		<polygon style="fill:#DFDFDF;" points="19,47.8 19,50.6 23.9,55.6 23.9,51.9 		"/>

			<linearGradient id="1101_1_" gradientUnits="userSpaceOnUse" x1="41.5" y1="-725.02" x2="55.0627" y2="-725.02" gradientTransform="matrix(1 0 0 -1 0 -695.3701)">
			<stop  offset="0" style="stop-color:#FFFFFF"/>
			<stop  offset="1" style="stop-color:#FFFFFF;stop-opacity:0"/>
		</linearGradient>
		<polygon style="opacity:0.5;fill:url(#1101_1_);enable-background:new    ;" points="55.1,39 41.5,23.6 43.7,20.3 55.1,33.4
			"/>

			<linearGradient id="1101_2_" gradientUnits="userSpaceOnUse" x1="-7708.1655" y1="-725.12" x2="-7694.5337" y2="-725.12" gradientTransform="matrix(-1 0 0 -1 -7678.1089 -695.3701)">
			<stop  offset="0" style="stop-color:#FFFFFF"/>
			<stop  offset="1" style="stop-color:#FFFFFF;stop-opacity:0"/>
		</linearGradient>
		<polygon style="opacity:0.5;fill:url(#1101_2_);enable-background:new    ;" points="16.5,38.9 16.6,33.1 27.6,20.6 30.1,23.3
			"/>
		<g>
			<g>
				<g>
					<polygon style="fill:#DFDFDF;" points="62.7,42.7 55.1,42.7 55.1,39.9 65.1,39.9 					"/>
				</g>
			</g>
			<g>
				<g>
					<polygon style="fill:#DFDFDF;" points="8.7,42.7 16.5,42.7 16.5,39.9 6.4,39.9 					"/>
				</g>
			</g>
			<g>
				<polygon style="fill:#FFFFFF;" points="22.9,59.8 16.5,52.4 16.9,51.9 22.9,58.8 				"/>
			</g>
			<g>
				<polygon style="fill:#FFFFFF;" points="48.6,59.6 48.6,58.5 54.5,51.9 54.9,52.4 				"/>
			</g>
		</g>
		<path style="fill:#2E2B28;" d="M27.4,70.9c-2,0-3.6-1.9-3.6-4.1V55.6c0-2,5.4,9.8,11.9,9.8c6.6,0,11.9-11.8,11.9-9.8v11.2
			c0,2.2-1.6,4.1-3.6,4.1H27.4z"/>
		<g>
			<path style="fill:#100F0D;" d="M42.3,44.2c-4.5-2.8-8.8-2.8-12.7,0V22.9h12.7V44.2z"/>
			<polygon style="fill:#100F0D;" points="42.8,25 44.9,27.3 44.9,46.1 42.8,46.1 			"/>
			<polygon style="fill:#100F0D;" points="28.5,25 26.6,27.3 26.6,46.1 28.5,46.1 			"/>
			<g>

					<linearGradient id="1101_3_" gradientUnits="userSpaceOnUse" x1="35.7" y1="-718.6019" x2="35.7" y2="-738.4094" gradientTransform="matrix(1 0 0 -1 0 -695.3701)">
					<stop  offset="0" style="stop-color:#000000"/>
					<stop  offset="1" style="stop-color:#1C1C1C"/>
				</linearGradient>
				<path style="fill:url(#1101_3_);" d="M40.8,43.1c-3.3-2.1-6.7-1.7-10.2,0V23.2h10.2V43.1z"/>
			</g>
			<g>
				<g>
					<path style="fill:#100F0D;" d="M57.7,42l-0.6,0.7L53,47.4l-8,9.1c0.3-1.1,0.4-2.1,0.4-3.3c0-1.9-0.4-3.7-1.1-5.2V26.5L57.7,42z
						"/>
				</g>
			</g>
			<g>
				<g>
					<path style="fill:#100F0D;" d="M13.8,42l0.6,0.7l4.1,4.7l7.9,9.1c-0.3-1.1-0.4-2.1-0.4-3.3c0-1.9,0.4-3.7,1.1-5.2V26.5L13.8,42
						z"/>
				</g>
			</g>
			<g style="opacity:0.19;">
				<g>
					<path style="fill:#DFDFDF;" d="M36.8,23.3v19c-0.3,0-0.7-0.1-1-0.1s-0.6,0-1,0V23.3C34.7,23.3,36.8,23.3,36.8,23.3z"/>
				</g>
			</g>
			<g style="opacity:0.36;">

					<linearGradient id="1101_4_" gradientUnits="userSpaceOnUse" x1="44.2406" y1="-736.0071" x2="52.8775" y2="-736.0071" gradientTransform="matrix(1 0 0 -1 0 -695.3701)">
					<stop  offset="0" style="stop-color:#000000"/>
					<stop  offset="1" style="stop-color:#FFFFFF"/>
				</linearGradient>
				<path style="fill:url(#1101_4_);" d="M52.8,42L47,48.6c-1,1.2-2.8,0.4-2.8-1.3V40v-7.9L52.8,42z"/>
			</g>
			<g style="opacity:0.36;">

					<linearGradient id="1101_5_" gradientUnits="userSpaceOnUse" x1="-4405.9419" y1="-735.9071" x2="-4397.3052" y2="-735.9071" gradientTransform="matrix(-1 0 0 -1 -4378.707 -695.3701)">
					<stop  offset="0" style="stop-color:#000000"/>
					<stop  offset="1" style="stop-color:#FFFFFF"/>
				</linearGradient>
				<path style="fill:url(#1101_5_);" d="M18.6,41.9l5.8,6.6c1,1.2,2.8,0.4,2.8-1.3v-7.3V32L18.6,41.9z"/>
			</g>
		</g>
		<ellipse style="fill:#DFDFDF;" cx="35.7" cy="52.4" rx="5.2" ry="5.9"/>
		<path style="fill:#100F0D;stroke:#100F0D;stroke-width:0.25;stroke-miterlimit:10;" d="M58.1,33.7l-9.3-10.6v-9.3v-2.2h-2h-5.5
			l-4-9.6L37,1c-0.5-1.2-2.1-1.2-2.6,0L34,1.9l-4,9.6h-5.5h-2v2.2V23l-9.3,10.6H2.1c-1.4,0-2.1,1.6-1.2,2.6l1,1.2l10.5,12.1v4.7
			l0.6,0.7l9.8,11.2v0.6c0,2.8,2.1,5.2,4.5,5.2H44c2.5,0,4.5-2.4,4.5-5.2v-0.6L58.4,55l0.5-0.7v-4.7l10.5-12.1l1.7-1.9
			c0.6-0.7,0.1-1.8-0.8-1.8L58.1,33.7L58.1,33.7z M35.7,2.9l4.1,9.9c-1.2-0.8-2.7-1.2-4.1-1.2c-1.4,0-2.9,0.5-4.1,1.2L35.7,2.9z
			 M30.7,23.2h10.2V42c-0.3-0.1-0.7-0.4-1.1-0.5c-1.2-0.4-2.7-0.7-4-0.7s-2.8,0.2-4,0.7c-0.4,0.1-0.7,0.4-1.1,0.5L30.7,23.2
			L30.7,23.2z M30,20.7c0-0.1,0-0.2,0-0.2c0-0.1,0-0.2,0-0.4c0.4-3.2,2.8-5.7,5.7-5.7s5.4,2.5,5.7,5.8c0,0.1,0,0.2,0,0.4v0.1H30z
			 M23,53.9L19.6,50v-4.5l-0.3-0.2L17.6,44v5.9c0,0.6,0.2,1.2,0.5,1.5l4.7,5.4v6l-8.5-9.7v-4.7L3.3,36h10.8l10.4-12V13.8h6
			c-2,1.8-3.3,4.6-3.3,7.7v23.2c-0.4,0.5-0.8,0.9-1.2,1.4l0,0C24.3,48.3,23.3,51,23,53.9z M31.6,69.9h-4.2c-1.4,0-2.6-1.4-2.6-3.1
			v-9c0.3,1.1,0.8,2,1.3,3c1.3,2.2,3.3,4,5.6,5L31.6,69.9L31.6,69.9z M39,62.5c-1,0.5-2.2,0.7-3.3,0.7s-2.3-0.2-3.3-0.7
			c-0.1,0-0.2-0.1-0.3-0.1c-0.2-0.1-0.4-0.2-0.6-0.4c-0.6-0.4-1.1-0.8-1.6-1.3c-1.9-1.8-3-4.5-3-7.6c0-1.8,0.4-3.4,1.1-4.8
			c0.3-0.7,0.7-1.3,1.1-1.8c1.6-2.1,3.9-3.4,6.5-3.4s4.9,1.3,6.6,3.4c0.4,0.6,0.8,1.2,1.1,1.9c0.7,1.4,1,3.1,1,4.8
			c0,3-1.1,5.7-2.9,7.4c-0.5,0.5-1,0.9-1.6,1.3C39.6,62,39.3,62.3,39,62.5C39.1,62.5,39.1,62.5,39,62.5z M46.7,66.8
			c0,1.7-1.1,3.1-2.6,3.1h-4.2v-4.1c0.7-0.2,1.3-0.6,2-1.1c0.3-0.2,0.6-0.5,0.8-0.6c0.9-0.8,1.9-1.8,2.5-2.8
			c0.6-1.1,1.2-2.1,1.5-3.3C46.7,57.9,46.7,66.8,46.7,66.8z M57.1,48.7v4.7l-8.5,9.7v-5.9l4.7-5.4c0.3-0.5,0.5-0.9,0.5-1.5v-4.6
			l-2,2v2.7l-3.4,3.9c-0.3-3.1-1.3-5.8-3-8l0,0c-0.4-0.6-0.8-1.1-1.3-1.5V21.3c0-3.1-1.2-5.9-3.3-7.7h6v10.3L57.4,36h10.8L57.1,48.7
			z"/>
		<path style="fill:#100F0D;" d="M41.8,50.4c-0.3-0.7-0.6-1.4-1-2c-1.2-1.7-3-2.6-5-2.6s-3.8,1.1-4.9,2.6c-0.4,0.6-0.8,1.2-1,1.9
			c-0.3,0.9-0.5,1.9-0.5,3c0,2.4,0.9,4.4,2.4,5.8c0.5,0.5,1.1,0.9,1.8,1.2c0.8,0.4,1.6,0.6,2.5,0.6s1.8-0.2,2.6-0.6
			c0.6-0.4,1.1-0.7,1.6-1.2c1.3-1.4,2.3-3.4,2.3-5.7C42.3,52.3,42.1,51.2,41.8,50.4z M38.2,56.9c-0.5,0.5-1.2,0.8-2,0.9
			c-0.2,0-0.4,0.1-0.6,0.1c-0.2,0-0.3,0-0.5,0c-0.7-0.1-1.4-0.5-2-0.9c-1-0.8-1.6-2.2-1.6-3.7c0-0.2,0-0.5,0.1-0.7
			c0.1-0.8,0.4-1.5,0.8-2.1c0.7-1.1,1.9-1.8,3.2-1.8s2.5,0.7,3.3,1.9c0.4,0.6,0.7,1.4,0.8,2.2c0,0.2,0,0.4,0,0.6
			C39.9,54.8,39.2,56.1,38.2,56.9z"/>
		<g>
			<g>
				<path style="fill:#1E70B5;" d="M35.7,45.8c-3.6,0-6.6,3.3-6.6,7.6c0,4.1,2.9,7.6,6.6,7.6s6.6-3.3,6.6-7.6S39.3,45.8,35.7,45.8z
					 M35.7,57.9c-2.3,0-4.1-2.1-4.1-4.7s1.9-4.7,4.1-4.7c2.3,0,4.1,2.1,4.1,4.7S38,57.9,35.7,57.9z"/>
			</g>
		</g>
		<g>
			<g>
				<path style="fill:#100F0D;" d="M35.7,45.8c-3.6,0-6.6,3.3-6.6,7.6c0,4.1,2.9,7.6,6.6,7.6s6.6-3.3,6.6-7.6S39.3,45.8,35.7,45.8z
					 M35.7,57.9c-2.3,0-4.1-2.1-4.1-4.7s1.9-4.7,4.1-4.7c2.3,0,4.1,2.1,4.1,4.7S38,57.9,35.7,57.9z"/>
			</g>
		</g>
	</g>
</g>
</svg>
