<?xml version="1.0" encoding="utf-8"?>
<!-- Generator: Adobe Illustrator 21.0.0, SVG Export Plug-In . SVG Version: 6.00 Build 0)  -->
<svg version="1.1" id="Layer_1" xmlns="http://www.w3.org/2000/svg" xmlns:xlink="http://www.w3.org/1999/xlink" x="0px" y="0px"
	 viewBox="0 0 72 72" style="enable-background:new 0 0 72 72;" xml:space="preserve">
<g id="COLOUR">
	<path style="fill:#1E70B5;" d="M68.9,36.6c0.5-0.3,1-0.8,1.5-1.2l1.6-1.6L58.2,19.9l-3.6,3.6c-0.8-1.2-1.7-2.3-2.7-3.3
		c-0.8-0.8-1.6-1.5-2.5-2.2l3.5-3.5l-7.6-7.6L39,0.7l-1.6,1.6l-0.8,0.8c-0.3-0.5-0.8-1-1.2-1.5L33.8,0L19.9,13.8l3.6,3.6
		c-1.2,0.8-2.3,1.7-3.3,2.7c-0.8,0.8-1.5,1.6-2.2,2.5l-3.5-3.5l-7.6,7.6L0.7,33l1.6,1.6l0.8,0.8c-0.5,0.4-1,0.8-1.5,1.2L0,38.2
		L13.8,52l3.6-3.6c0.8,1.2,1.7,2.3,2.7,3.3c0.8,0.8,1.6,1.5,2.5,2.2l-3.5,3.5l7.6,7.6l6.2,6.2l1.6-1.6l0.8-0.8
		c0.3,0.5,0.8,1,1.2,1.5l1.6,1.6l13.8-13.8l-3.6-3.6c1.2-0.8,2.3-1.7,3.3-2.7c0.8-0.8,1.5-1.6,2.2-2.5l3.5,3.5l7.6-7.6l6.2-6.2
		l-1.6-1.7L68.9,36.6z"/>
</g>
<g id="DETAIL">
	<path style="fill:#2E2B28;" d="M28.5,64.6l7.5-6.8c0,0,0.4,4.1,0,6c-0.4,1.9-2.7,6-2.7,6l-4.8-4.5V64.6z"/>
	<polygon style="fill:#2E2B28;" points="12.7,34.4 7.1,28.4 3.2,32.5 5.6,35.3 	"/>
	<polygon style="fill:#2E2B28;" points="36.5,5.1 37.6,12.9 43.2,7 38.8,2.6 	"/>
	<polygon style="fill:#2E2B28;" points="59.3,36.3 67.4,37.3 69,39.5 65.2,43.7 58.3,37.2 	"/>
	<path style="fill:#2E2B28;" d="M36,19.8c-8.8,0-16,7.2-16,16s7.2,16,16,16s16-7.2,16-16S44.8,19.8,36,19.8z M36,46.3
		c-5.8,0-10.5-4.7-10.5-10.5S30.2,25.3,36,25.3S46.5,30,46.5,35.8S41.8,46.3,36,46.3z"/>
	
		<rect x="61.1" y="22.1" transform="matrix(0.7071 -0.7071 0.7071 0.7071 -3.3673 52.9794)" style="fill:#DFDFDF;" width="2.3" height="16.9"/>
	
		<rect x="9.6" y="33.6" transform="matrix(0.7071 -0.7071 0.7071 0.7071 -26.5973 19.9141)" style="fill:#DFDFDF;" width="2.3" height="16.9"/>
	
		<rect x="33" y="61" transform="matrix(0.7071 -0.7071 0.7071 0.7071 -31.7821 47.4803)" style="fill:#DFDFDF;" width="16.9" height="2.3"/>
	
		<rect x="21.9" y="9" transform="matrix(0.7071 -0.7071 0.7071 0.7071 1.7215 24.4554)" style="fill:#DFDFDF;" width="16.9" height="2.3"/>
	<path style="fill:#DFDFDF;" d="M44.6,42.2v-1.4h-2.8l-1.7-1.7c0.5-0.7,0.9-1.5,1-2.4h2.3l2,2l1-1L44.8,36l1.7-1.7l-1-1l-2,2h-2.3
		c-0.1-0.9-0.5-1.7-1-2.4l1.7-1.7h2.8v-1.4h-2.4v-2.4h-1.4v2.8l-1.7,1.7c-0.7-0.5-1.5-0.9-2.4-1v-2.3l2-2l-1-1L36,27.2l-1.7-1.7
		l-1,1l2,2v2.3c-0.9,0.1-1.7,0.4-2.4,1l-1.7-1.7v-2.8h-1.4v2.4h-2.4v1.4h2.8l1.7,1.7c-0.5,0.7-0.9,1.6-1,2.4h-2.3l-2-2l-1,1l1.7,1.7
		l-1.7,1.7l1,1l2-2h2.3c0.1,0.9,0.4,1.7,1,2.4l-1.6,1.6h-2.8V42h2.4v2.4h1.4v-2.8l1.6-1.6c0.7,0.5,1.6,0.9,2.4,1v2.3l-2,2l1,1
		l1.7-1.7l1.7,1.7l1-1l-2-2V41c0.9-0.1,1.7-0.5,2.4-1l1.7,1.7v2.8h1.4v-2.4L44.6,42.2z M33.8,38.2c-1.2-1.2-1.2-3.2,0-4.5
		c1.2-1.2,3.2-1.2,4.5,0c1.2,1.2,1.2,3.2,0,4.5C37,39.5,35,39.5,33.8,38.2z"/>
	<path style="fill:#100F0D;" d="M68.9,36.6c1.2-0.8,2.1-1.8,3.1-2.8L58.2,19.9l-3.6,3.6c-1.4-2.1-3.2-4-5.2-5.5l3.5-3.5
		C49.2,11,45.6,7.4,42,3.8c-1-1-2-2-3-3c-0.8,0.8-1.6,1.6-2.4,2.4C35.8,1.9,34.7,1,33.8,0L19.9,13.8l3.6,3.6c-2.1,1.4-4,3.2-5.5,5.2
		l-3.5-3.5C11,22.8,7.4,26.4,3.8,30c-1,1-2,2-3,3c0.8,0.8,1.6,1.6,2.4,2.4C1.9,36.2,1,37.3,0,38.2L13.8,52l3.6-3.6
		c1.4,2.1,3.2,4,5.2,5.5l-3.5,3.5c3.6,3.6,7.2,7.2,10.8,10.8c1,1,2,2,3,3c0.8-0.8,1.6-1.6,2.4-2.4c0.8,1.2,1.8,2.1,2.8,3.1
		l13.8-13.8l-3.6-3.6c2.1-1.4,4-3.2,5.5-5.2l3.5,3.5c3.6-3.6,7.2-7.2,10.8-10.8c1-1,2-2,3-3C70.5,38.2,69.7,37.4,68.9,36.6z
		 M57.5,49.1l-2-2c1.5-2.7,2.5-5.7,2.8-8.7l0,0l4.9,4.9L57.5,49.1z M52.1,47.5c-4.9,6.8-13.8,9.9-21.8,7.5s-13.7-9.8-14.1-18.1
		c-0.4-8.2,4.6-16,12.2-19.2c7.6-3.1,16.5-1.2,22.1,4.8C56.8,29.3,57.5,39.9,52.1,47.5z M34,60.8l0.6-0.6c0.8,2.5,0.2,5.4-1.6,7.4
		l-2.9-2.9L34,60.8z M27.6,56.8c1.9,0.8,4,1.3,6,1.5l0,0l-4.9,4.9l-5.8-5.8l2-2C25.8,56,26.7,56.4,27.6,56.8z M14.6,22.9l2,2
		c-1.5,2.7-2.5,5.7-2.8,8.7l0,0l-4.9-4.9L14.6,22.9z M8.7,33.7c-0.9,0-1.9,0.1-2.8,0.4c-0.5-0.3-1-0.6-1.5-1.1l2.9-2.9l3.9,3.9
		C10.4,33.8,9.5,33.7,8.7,33.7z M38,11.2c0.4-1.7,0.4-3.6-0.1-5.3c0.3-0.5,0.6-1,1.1-1.5l2.9,2.9L38,11.2z M44.4,15.2
		c-1.9-0.8-4-1.3-6-1.5l0,0l4.9-4.9l5.8,5.8l-2,2C46.2,16.1,45.3,15.6,44.4,15.2z M63.3,38.3c0.9,0,1.9-0.1,2.8-0.4
		c0.5,0.3,1,0.6,1.5,1.1l-2.9,2.9L60.8,38C61.6,38.2,62.5,38.3,63.3,38.3z M58.2,23.6l10.1,10.2c-2.8,2.5-7.3,2.6-10,0
		c-0.3-2.7-1-5.4-2.3-7.9L58.2,23.6z M23.6,13.8L33.8,3.7c1.9,2.1,2.5,5.3,1.4,7.9c-0.3,0.8-0.8,1.5-1.4,2.1
		c-2.7,0.3-5.4,1.1-7.9,2.3L23.6,13.8z M13.8,48.4L3.7,38.3c2.1-1.9,5.3-2.5,7.9-1.4l0,0c0.8,0.3,1.5,0.8,2.1,1.4
		c0.3,2.7,1.1,5.4,2.3,7.9L13.8,48.4z M48.4,58.2L38.3,68.3c-0.4-0.5-0.8-1-1.1-1.5c1.3-2.3,1.5-5.2,0.4-7.6
		c0.2-0.3,0.4-0.6,0.7-0.9c2.7-0.3,5.4-1.1,7.9-2.3L48.4,58.2z"/>
	<g>
		<path style="fill:#2E2B28;" d="M36,20c-4.4,0-8.4,1.8-11.3,4.7S20,31.6,20,36s1.8,8.4,4.7,11.3C27.6,50.2,31.6,52,36,52
			s8.4-1.8,11.3-4.7S52,40.4,52,36C52,27.2,44.8,20,36,20z M36,50.9c-8.2,0-14.9-6.7-14.9-14.9S27.8,21,36,21s15,6.7,15,15
			C50.9,44.2,44.2,50.9,36,50.9z"/>
		<path style="fill:#12100B;" d="M36,19c-9.4,0-17,7.6-17,17s7.6,17,17,17s17-7.6,17-17S45.4,19,36,19z M36,50.9
			c-8.2,0-14.9-6.7-14.9-14.9S27.8,21,36,21s15,6.7,15,15C50.9,44.2,44.2,50.9,36,50.9z"/>
	</g>
	<path style="fill:#100F0D;" d="M44.6,27.4c-2.4-2.4-5.5-3.6-8.6-3.6s-6.2,1.2-8.6,3.6c-4.8,4.8-4.8,12.5,0,17.2
		c2.4,2.4,5.5,3.6,8.6,3.6s6.2-1.2,8.6-3.6C49.4,39.9,49.4,32.1,44.6,27.4z M42.8,42.8c-1.8,1.8-4.2,2.8-6.8,2.8s-5-1-6.8-2.8
		c-3.7-3.7-3.7-9.8,0-13.5c1.8-1.8,4.2-2.8,6.8-2.8s5,1,6.8,2.8C46.5,33,46.5,39,42.8,42.8z"/>
</g>
</svg>
