<?xml version="1.0" encoding="utf-8"?>
<!-- Generator: Adobe Illustrator 21.0.0, SVG Export Plug-In . SVG Version: 6.00 Build 0)  -->
<svg version="1.1" id="Layer_1" xmlns="http://www.w3.org/2000/svg" xmlns:xlink="http://www.w3.org/1999/xlink" x="0px" y="0px"
	 viewBox="0 0 72 72" style="enable-background:new 0 0 72 72;" xml:space="preserve">
<g id="COLOUR">
	<g>
		<g>
			<path style="fill:#1E70B5;" d="M67.8,57.5l2.7-2.8L64,48.2l0.3-0.6C65.9,44,66.7,40,66.7,36c0-4.1-0.8-8.1-2.4-11.8L64,23.6
				l6.1-6.2l-2.5-2.5l0.2-0.6c0.3-0.9,0.5-1.9,0.5-2.8c0-4.7-3.8-8.5-8.5-8.5c-1,0-1.9,0.2-2.8,0.5l-0.6,0.2l-1.9-1.9L48.4,8
				l-0.6-0.3C44.1,6.2,40.1,5.3,36,5.3c-4,0-8,0.8-11.7,2.3l-0.6,0.3l-6.5-6.5l-2.3,2.3l-0.6-0.2C13.4,3.2,12.5,3,11.5,3
				C6.8,3,3,6.8,3,11.5c0,0.9,0.2,1.9,0.5,2.8l0.2,0.6l-2.3,2.3l6.5,6.5l-0.3,0.6C6.1,28,5.3,32,5.3,36c0,4.1,0.8,8,2.4,11.8L8,48.4
				l-6.2,6.2l2.1,2.1l-0.2,0.6c-0.4,1-0.6,2.1-0.6,3.2c0,4.7,3.8,8.5,8.5,8.5c1.1,0,2.2-0.2,3.2-0.6l0.6-0.2l2.1,2.1l6.1-6.1
				l0.6,0.3c3.8,1.6,7.7,2.4,11.8,2.4c4,0,8-0.8,11.7-2.3l0.6-0.3l6.5,6.5l2.2-2.2l0.6,0.2c0.7,0.2,1.5,0.3,2.4,0.3
				c4.7,0,8.5-3.8,8.5-8.5c0-0.8-0.1-1.6-0.4-2.3L67.8,57.5z"/>
		</g>
	</g>
</g>
<g id="DETAIL">
	<g>
		<path style="opacity:0.15;fill:#DFDFDF;enable-background:new    ;" d="M36,6.6C19.7,6.6,6.6,19.7,6.6,36S19.7,65.4,36,65.4
			S65.4,52.2,65.4,36S52.3,6.6,36,6.6z M36,49.9c-7.4,0-13.5-6-13.5-13.5s6-13.5,13.5-13.5s13.5,6,13.5,13.5S43.5,49.9,36,49.9z"/>
		<g>
			<path style="fill:#DFDFDF;" d="M42.1,31.7c-2.3,5.8-3.8,8.4-8.4,16.9c0.2-3.5,0.8-7.4,1.9-10.8c-2.5,0.8-5,1.3-7.5,2
				c0.9-1.6,7.2-13,10.4-16.2c0,1.5-0.7,3.3-1.1,4.7c-0.5,1.7-1.1,3.4-1.7,5.1c0.8,0,1.8-0.5,2.5-0.7c0.4-0.1,0.8-0.2,1.2-0.3
				C40.2,32.1,41.1,31.9,42.1,31.7z"/>
		</g>
		<path style="fill:#2E2B28;" d="M36,13.4c-12.5,0-22.7,10.2-22.7,22.7S23.5,58.8,36,58.8s22.7-10.2,22.7-22.7S48.5,13.4,36,13.4z
			 M36,48.7c-7.2,0-13-5.8-13-13s5.8-13,13-13s13,5.8,13,13S43.2,48.7,36,48.7z"/>
		<path style="opacity:0.15;fill:#DFDFDF;enable-background:new    ;" d="M36,16.9c-10.4,0-18.8,8.4-18.8,18.8S25.6,54.5,36,54.5
			s18.8-8.4,18.8-18.8S46.4,16.9,36,16.9z M36,48.8c-7.2,0-13.1-5.9-13.1-13.1S28.8,22.6,36,22.6s13.1,5.9,13.1,13.1
			S43.2,48.8,36,48.8z"/>
		<path style="fill:#100F0D;" d="M72,54.8l-6.7-6.7c1.5-3.7,2.4-7.8,2.4-12.1s-0.9-8.5-2.4-12.2l6.4-6.4l-2.8-2.8
			c0.3-1,0.5-2,0.5-3.1c0-5.2-4.2-9.5-9.5-9.5c-1.1,0-2.2,0.2-3.1,0.5l-2.2-2.2l-6.4,6.4C44.4,5.2,40.3,4.3,36,4.3
			s-8.3,0.9-12.1,2.4L17.2,0l-2.6,2.6c-1-0.3-2-0.5-3.1-0.5C6.3,2.1,2,6.3,2,11.6c0,1.1,0.2,2.1,0.5,3.1L0,17.2l6.7,6.7
			C5.2,27.7,4.3,31.7,4.3,36s0.9,8.5,2.5,12.2l-6.4,6.4l2.3,2.3C2.3,58,2,59.2,2,60.4c0,5.2,4.2,9.5,9.5,9.5c1.3,0,2.5-0.2,3.5-0.7
			l2.3,2.3l6.4-6.4c3.8,1.6,7.9,2.4,12.2,2.4s8.4-0.9,12.1-2.4l6.7,6.7l2.5-2.5c0.8,0.3,1.7,0.4,2.7,0.4c5.2,0,9.5-4.2,9.5-9.5
			c0-0.9-0.1-1.8-0.4-2.6L72,54.8z M64.2,14l3.2,3.2l0.2,0.2l-5.7,5.7l0.7,1.7c0.8,2,1.5,4.1,1.8,6.3H60c-0.7-3.3-2-6.4-3.8-9l3-3
			L64.2,14z M40.9,7.6c2.1,0.3,4.2,1,6.3,1.8l1.7,0.7l1.3-1.3l1-1.1l3.3-3.3l2.8,2.8l-6.6,6.6l-1.6,1.5c-2.5-1.6-5.3-2.8-8.3-3.4
			L40.9,7.6L40.9,7.6z M40.9,14.3c2.4,0.5,4.7,1.5,6.7,2.7c0.7,0.4,1.4,0.9,2.1,1.4c1.2,1,2.4,2.1,3.4,3.3c0.5,0.6,1,1.3,1.5,2
			c1.5,2.2,2.6,4.7,3.1,7.4h-7.5c-0.3-0.8-0.6-1.5-0.9-2.2c-0.4-0.8-0.9-1.5-1.4-2.1c-1-1.3-2.1-2.3-3.4-3.2
			c-0.7-0.5-1.5-0.9-2.3-1.3c-0.4-0.2-0.9-0.4-1.4-0.6v-7.4H40.9z M14.3,31.1c0.6-2.5,1.6-4.9,2.9-7c0.5-0.7,1-1.4,1.5-2.1
			c1-1.2,2.1-2.3,3.3-3.3c0.6-0.5,1.3-1,2.1-1.5c2.1-1.4,4.5-2.4,7-2.9v7.5c-0.6,0.2-1.2,0.5-1.8,0.7c-0.8,0.4-1.5,0.8-2.2,1.3
			c-1.3,0.9-2.4,2-3.3,3.3c-0.5,0.7-1,1.4-1.3,2.2c-0.3,0.6-0.5,1.2-0.7,1.8H14.3z M36,23.6c6.9,0,12.4,5.6,12.4,12.4
			S42.9,48.4,36,48.4S23.6,42.8,23.6,36S29.1,23.6,36,23.6z M40.9,50.2c0.6-0.2,1.2-0.5,1.8-0.7c0.8-0.4,1.5-0.8,2.2-1.3
			c1.3-0.9,2.4-2.1,3.3-3.3c0.5-0.7,0.9-1.4,1.3-2.2c0.3-0.6,0.5-1.2,0.7-1.8h7.5c-0.6,2.5-1.6,4.9-2.9,7c-0.5,0.7-0.9,1.4-1.5,2.1
			c-1,1.2-2.1,2.3-3.3,3.3c-0.7,0.5-1.3,1-2.1,1.5c-2.1,1.4-4.5,2.4-7,2.9V50.2z M17.2,4l1.9,1.9l0,0l4.1,4.1L25,9.3
			c2-0.8,4-1.4,6.1-1.8V12c-3.1,0.6-6.1,1.9-8.7,3.6l-1.8-1.8l-1.3-1.3L14,7.2L17.2,4z M5.8,19.1C5.1,18.6,4.5,18,4,17.3l0,0L7.2,14
			l8.5,8.5c-1.7,2.6-3,5.5-3.6,8.7H7.6C7.9,29,8.5,27,9.3,25l0.7-1.7L8.7,22L5.8,19.1z M12.6,52l-5.4,5.4l-2.8-2.8l4.4-4.4l1.3-1.3
			l-0.7-1.7c-0.8-2-1.5-4.1-1.8-6.3H12c0.6,3,1.8,5.8,3.4,8.3l-2,2L12.6,52z M31.1,64.4c-2.1-0.4-4.2-1-6.3-1.8l-1.7-0.7l-1.3,1.3
			l-2.3,2.3l-2.1,2.1L14,64.2l5.3-5.3l1.2-1.2l1.6-1.6c2.7,1.9,5.7,3.2,9,3.8V64.4z M31.1,57.7c-2.7-0.6-5.2-1.7-7.4-3.2
			c-0.7-0.5-1.4-1-2-1.5c-1.2-1-2.3-2.1-3.3-3.4c-0.5-0.7-1-1.4-1.5-2.1c-1.2-2-2.2-4.3-2.7-6.7h7.5c0.2,0.5,0.3,0.9,0.5,1.4l0,0
			c0.4,0.8,0.8,1.5,1.3,2.3c0.9,1.3,2,2.5,3.2,3.4c0.7,0.5,1.4,1,2.1,1.4s1.4,0.7,2.1,0.9v7.5H31.1z M54.8,68l-3.4-3.4L50,63.2
			L48.7,62L47,62.7c-2,0.8-4,1.4-6.1,1.8V60c3.2-0.6,6.1-1.9,8.7-3.6l2.7,2.7l5.7,5.7L54.8,68z M64.8,58l-5.7-5.7L58,51.2l-1.7-1.7
			c1.7-2.6,3-5.5,3.6-8.7h4.4C64.1,43,63.5,45,62.7,47L62,48.7l1.3,1.3l4.8,4.7L64.8,58z"/>
		<g>
			<path style="fill:#DFDFDF;" d="M19.5,17.9c-0.5,0.4-0.9,0.9-1.4,1.4L10,11.2l1.4-1.4L19.5,17.9z"/>
			<path style="fill:#DFDFDF;" d="M61.5,11.4l-7.8,7.8c-0.4-0.5-0.9-0.9-1.4-1.4l7.8-7.8L61.5,11.4z"/>
			<path style="fill:#DFDFDF;" d="M62.3,60.7L60.9,62l-8.2-8.2c0.5-0.5,0.9-0.9,1.4-1.4L62.3,60.7z"/>
			<path style="fill:#DFDFDF;" d="M19.2,53.7l-7.8,7.8L10,60.2l7.8-7.8C18.3,52.8,18.7,53.3,19.2,53.7z"/>
		</g>
		<path style="opacity:0.15;fill:#DFDFDF;enable-background:new    ;" d="M21.2,33.8c-0.1,0.7-0.2,1.5-0.2,2.3s0.1,1.5,0.2,2.3H15
			v-4.5L21.2,33.8L21.2,33.8z"/>
		<path style="opacity:0.15;fill:#DFDFDF;enable-background:new    ;" d="M33.7,15.1h4.5v6.1C37.5,21.1,36.7,21,36,21
			c-0.8,0-1.5,0.1-2.3,0.2V15.1z"/>
		<path style="opacity:0.15;fill:#DFDFDF;enable-background:new    ;" d="M36,51.1c0.8,0,1.5-0.1,2.2-0.2V57h-4.5v-6.1
			C34.5,51,35.2,51.1,36,51.1z"/>
		<path style="opacity:0.15;fill:#DFDFDF;enable-background:new    ;" d="M56.9,33.8v4.5h-6.1c0.1-0.7,0.2-1.5,0.2-2.3
			s-0.1-1.5-0.2-2.3L56.9,33.8L56.9,33.8z"/>
	</g>
</g>
</svg>
