<?xml version="1.0" encoding="utf-8"?>
<!-- Generator: Adobe Illustrator 21.0.0, SVG Export Plug-In . SVG Version: 6.00 Build 0)  -->
<svg version="1.1" id="Layer_1" xmlns="http://www.w3.org/2000/svg" xmlns:xlink="http://www.w3.org/1999/xlink" x="0px" y="0px"
	 viewBox="0 0 72 72" style="enable-background:new 0 0 72 72;" xml:space="preserve">
<g id="COLOUR">
	<polygon style="fill:#1E70B5;" points="36,3.6 28,20.5 20.9,27.8 4.2,35.2 22.3,44.3 28,49.9 36,67.2 43.7,49.7 50.1,43.2 68,35.8 
		50.9,27.3 42.9,19.9 	"/>
</g>
<g id="DETAIL">
	<polygon style="opacity:0.15;fill:#DFDFDF;enable-background:new    ;" points="36,5.1 36,20.5 44.3,20.3 	"/>
	<polygon style="opacity:0.15;fill:#DFDFDF;enable-background:new    ;" points="36,66.6 36,51.2 27.8,51.4 	"/>
	<polygon style="opacity:0.15;fill:#DFDFDF;enable-background:new    ;" points="66.8,35.8 51.4,35.8 51.6,44.1 	"/>
	<polygon style="opacity:0.15;fill:#DFDFDF;enable-background:new    ;" points="5.3,35.8 20.6,35.8 20.4,27.6 	"/>
	<polygon style="fill:#2E2B28;" points="43.4,20.5 55.9,15.8 50.9,28.1 	"/>
	<polygon style="fill:#2E2B28;" points="28.4,51 15.9,55.7 20.8,43.3 	"/>
	<polygon style="fill:#2E2B28;" points="51.1,43.2 55.8,55.7 43.5,50.8 	"/>
	<polygon style="fill:#2E2B28;" points="20.6,28.2 15.9,15.7 28.3,20.7 	"/>
	<path style="fill:#DFDFDF;" d="M36,21.1c-8.2,0-14.9,6.7-14.9,14.9S27.8,50.9,36,50.9S50.9,44.2,50.9,36S44.2,21.1,36,21.1z
		 M36,48.2c-6.7,0-12.2-5.5-12.2-12.2S29.3,23.8,36,23.8S48.2,29.3,48.2,36C48.2,42.8,42.8,48.2,36,48.2z"/>
	<g>
		<circle style="fill:#DFDFDF;" cx="24.9" cy="24.9" r="4.1"/>
		<circle style="fill:#DFDFDF;" cx="47.1" cy="24.9" r="4.1"/>
		<circle style="fill:#DFDFDF;" cx="24.9" cy="47.2" r="4.1"/>
		<circle style="fill:#DFDFDF;" cx="47.1" cy="47.2" r="4.1"/>
	</g>
	<g>
		<g>
			<path style="fill:#2E2B28;" d="M31.6,20.5v4.4c0,0-6.8,3.4-6.8,11.2s6.8,10.7,6.8,10.7v4.9c0,0-11.6-2.4-11.6-15.5
				S31.6,20.5,31.6,20.5z"/>
			<path style="fill:#2E2B28;" d="M40.4,20.5v4.4c0,0,6.8,3.4,6.8,11.2s-6.8,10.7-6.8,10.7v4.9c0,0,11.6-2.4,11.6-15.5
				S40.4,20.5,40.4,20.5z"/>
		</g>
	</g>
	<path style="fill:#100F0D;" d="M72,35.7c0-2.2-0.2-4.5-0.7-6.6c-2.3,1-4.5,2-6.8,3c-0.2,0.1-0.3,0.2-0.5,0.1
		c-0.3-0.1-0.7-0.3-1-0.4c-1.3-0.6-2.6-1.2-4-1.8c-1.5-0.6-2.9-1.3-4.4-1.9c-0.5-0.2-1-0.4-1.4-0.6c-0.1,0-0.5-0.2-0.5-0.2
		c0-0.1,0.2-0.5,0.2-0.6c0.2-0.5,0.4-0.9,0.5-1.4c0.5-1.4,1.1-2.8,1.6-4.3c0.6-1.5,1.2-3,1.8-4.5c0.2-0.6,0.4-1.1,0.6-1.7
		c0.1-0.3,0.3-0.7,0.4-1c0,0,0-0.1,0.1-0.1c-2,0.8-4,1.5-6,2.3c-2.4,0.9-4.9,2-7.3,2.8c-0.2,0.1-0.1,0.1-0.2,0
		c-0.2-0.2-0.3-0.7-0.4-1c-0.6-1.3-1.2-2.6-1.8-4s-1.3-2.8-1.9-4.2c-0.2-0.4-0.4-0.9-0.6-1.3c-0.1-0.1-0.1-0.2-0.1-0.4
		c0-0.4,0.4-0.9,0.5-1.2C40.4,6,40.7,5.3,41,4.6c0.5-1.2,1.1-2.5,1.6-3.7c0-0.1,0.1-0.1,0.1-0.2c-4.5-0.9-9.3-0.9-13.8,0
		c1,2.3,2,4.5,3,6.8C32,7.7,32.1,7.9,32.1,8c0,0.3-0.3,0.6-0.4,0.9c-0.6,1.3-1.1,2.6-1.7,3.9c-0.6,1.4-1.3,2.9-1.9,4.3
		c-0.2,0.5-0.4,0.9-0.6,1.4c0,0.1-0.1,0.4-0.2,0.4s-0.5-0.2-0.6-0.2c-0.5-0.2-1-0.4-1.4-0.6c-1.4-0.6-2.9-1.1-4.3-1.7
		c-1.5-0.6-3-1.1-4.4-1.7c-0.6-0.2-1.1-0.4-1.7-0.6c-0.3-0.1-0.6-0.3-0.9-0.4c0,0-0.1,0-0.1-0.1c0.8,2,1.6,4.1,2.4,6.1
		c0.6,1.5,1.2,3,1.7,4.5c0.3,0.9,0.8,1.8,1.1,2.8c0.1,0.2,0.1,0.1,0,0.2c-0.2,0.2-0.7,0.3-1,0.5c-1.3,0.6-2.7,1.2-4,1.8
		c-1.4,0.6-2.9,1.3-4.3,1.9c-0.5,0.2-0.9,0.4-1.4,0.6c-0.1,0.1-0.3,0.2-0.5,0.2c-0.3,0-0.8-0.3-1-0.5c-0.7-0.3-1.4-0.6-2.1-0.9
		c-1.3-0.6-2.5-1.1-3.8-1.7c-0.1,0-0.2-0.1-0.2-0.1c-1,4.4-1,9.3,0,13.8c2.3-1,4.6-2,6.9-3.1c0.2-0.1,0.6-0.3,0.8-0.4
		c0.2,0,0.5,0.2,0.6,0.3c1.2,0.5,2.5,1.1,3.7,1.6c1.5,0.6,2.9,1.3,4.4,1.9c0.5,0.2,1,0.4,1.5,0.7c0.1,0,0.5,0.2,0.5,0.2
		c0,0.1-0.2,0.5-0.2,0.6c-0.2,0.5-0.4,0.9-0.5,1.4c-0.5,1.4-1.1,2.8-1.6,4.3c-0.6,1.5-1.2,3-1.8,4.5c-0.2,0.6-0.4,1.1-0.6,1.7
		c-0.1,0.3-0.3,0.7-0.4,1c0,0,0,0.1-0.1,0.1c2.1-0.8,4.1-1.6,6.2-2.4c1.5-0.6,3-1.2,4.5-1.8c0.6-0.2,1.1-0.4,1.7-0.7
		c0.3-0.1,0.7-0.3,1-0.4c0.2,0,0.1-0.1,0.2,0.1c0.2,0.3,0.3,0.8,0.5,1.1c0.6,1.4,1.2,2.8,1.8,4.1c0.6,1.4,1.3,2.8,1.9,4.2
		c0.2,0.4,0.4,0.8,0.6,1.3c0.1,0.2,0.1,0.2,0.1,0.4c-0.1,0.4-0.4,0.9-0.6,1.3c-0.3,0.7-0.6,1.5-1,2.2c-0.6,1.2-1.1,2.5-1.7,3.7
		c0,0.1-0.1,0.1-0.1,0.2c4.4,1,9.3,1,13.8,0c-1-2.3-2.1-4.6-3.1-7c-0.1-0.2-0.3-0.4-0.3-0.6c0-0.2,0.3-0.6,0.3-0.8
		c0.6-1.3,1.1-2.6,1.7-3.8c0.7-1.5,1.3-3,2-4.4c0.2-0.5,0.5-1,0.7-1.5c0-0.1,0.2-0.6,0.3-0.6s0.4,0.2,0.5,0.2
		c0.5,0.2,0.9,0.4,1.4,0.5c1.4,0.6,2.9,1.1,4.3,1.7c1.5,0.6,3,1.2,4.5,1.8c0.6,0.2,1.1,0.4,1.7,0.7c0.3,0.1,0.7,0.3,1,0.4
		c0,0,0.1,0,0.1,0.1c-0.8-2-1.6-4.1-2.4-6.1c-0.6-1.5-1.2-3-1.8-4.6c-0.2-0.6-0.4-1.1-0.7-1.7c-0.1-0.3-0.3-0.7-0.4-1
		c0-0.2-0.1-0.1,0.1-0.2c0.3-0.2,0.8-0.3,1.1-0.5c1.4-0.6,2.7-1.2,4.1-1.8c1.4-0.6,2.8-1.2,4.2-1.8c0.4-0.2,1.1-0.7,1.5-0.5
		c2.5,1,4.9,2.2,7.3,3.2c0.1,0,0.1,0.1,0.2,0.1C71.8,40.6,72.1,38.1,72,35.7z M45.4,20.9c0.9-0.4,2-0.8,2.9-1.1
		c1.6-0.6,3.2-1.2,4.8-1.9c0.4-0.1,0.8-0.3,1.1-0.4c-1,2.6-2,5.2-3,7.8c-0.1,0.4-0.3,0.8-0.4,1.1c-0.3-0.1-0.3-0.3-0.5-0.5
		c-0.2-0.3-0.4-0.5-0.6-0.8c-0.4-0.5-0.9-1.1-1.4-1.6c-1-1-2.1-1.8-3.2-2.6C45.3,20.9,45.3,20.9,45.4,20.9z M51.9,29.5L51.9,29.5z
		 M33.7,11c0.8-1.7,1.5-3.5,2.3-5.2c1.6,3.7,3.3,7.4,4.9,11.2c0.4,0.8,0.7,1.6,1.1,2.5c-3.9-1.4-8.2-1.4-12.1,0
		c1.1-2.4,2.2-4.9,3.3-7.3C33.4,11.7,33.5,11.3,33.7,11z M30.2,44.1c-2.9-2.1-4.6-5.5-4.5-9s2-6.7,4.9-8.6c0.3-0.2,0.7-0.4,1-0.6
		c0.2-0.1,0.4-0.2,0.6-0.3c0.1,0,0.6-0.2,0.6-0.2c0.1-0.2,0-0.6,0-0.8c0-0.9,0-1.8,0-2.7c0,0,0-0.2,0-0.3c0.1-0.1,0.7-0.1,0.8-0.2
		c0.9-0.2,1.9-0.2,2.8-0.2c0.4,0,0.9,0,1.3,0.1c0.4,0.1,1,0,1.3,0.2c0.2,0.1,0.1,0,0.1,0.1s0,0.3,0,0.4c0,0.9,0,1.9,0,2.8
		c0,0.1,0,0.3,0,0.4c0.1,0.2,0.4,0.2,0.6,0.3c0.8,0.3,1.5,0.7,2.2,1.2c2.8,2.1,4.5,5.4,4.4,8.9c-0.1,3.3-1.8,6.4-4.5,8.3
		c-0.7,0.5-1.5,0.9-2.3,1.3c-0.4,0.2-0.3,0.2-0.3,0.6c0,0.9,0,1.9,0,2.8c0,0.2,0.1,0.7,0,0.9c0,0.1-0.2,0.1-0.4,0.1
		c-0.5,0.1-0.9,0.2-1.4,0.2c-0.9,0.1-1.9,0.1-2.9,0c-0.4,0-0.9-0.1-1.3-0.2c-0.1,0-0.4,0-0.4-0.1c-0.1-0.2,0-0.7,0-0.9
		c0-0.5,0-1,0-1.5s0-0.9,0-1.4c0-0.4,0.1-0.4-0.3-0.6C31.7,45.1,30.9,44.7,30.2,44.1z M17.7,17.5c2.6,1,5.2,2,7.8,3
		c0.4,0.1,0.8,0.3,1.1,0.4c-0.1,0.3-0.3,0.3-0.5,0.5c-0.3,0.2-0.6,0.4-0.9,0.7c-0.5,0.4-1.1,0.9-1.6,1.4s-1,1-1.4,1.6
		c-0.2,0.3-0.5,0.6-0.7,0.9c-0.1,0.2-0.2,0.4-0.5,0.5c-1-2.6-2-5.2-3-7.8C18,18.2,17.9,17.8,17.7,17.5z M11.4,38.1
		c-1.8-0.8-3.6-1.6-5.4-2.4c3.8-1.7,7.5-3.3,11.3-5c0.8-0.3,1.6-0.7,2.4-1c-1.4,3.9-1.4,8.2,0,12.1c-2.4-1.1-4.8-2.1-7.2-3.2
		C12.1,38.4,11.8,38.3,11.4,38.1z M26.7,50.6c-2.6,1-5.2,2-7.8,3c-0.4,0.1-0.8,0.3-1.1,0.4c1-2.6,2-5.2,3-7.8
		c0.1-0.4,0.3-0.8,0.4-1.1c0.3,0.1,0.3,0.3,0.5,0.5c0.2,0.3,0.4,0.5,0.6,0.8c0.4,0.5,0.9,1.1,1.4,1.6c1,1,2,1.9,3.2,2.6
		C26.8,50.5,26.7,50.6,26.7,50.6z M28.2,48.6c-3.7-2.3-6.2-6.2-6.9-10.5c-0.7-4.4,0.6-8.9,3.5-12.3c1.6-1.9,3.6-3.2,5.8-4.2
		c0,0.6,0,1.2,0,1.8c0,0.1,0.1,0.5,0,0.7c-0.1,0.1-0.5,0.3-0.7,0.4c-0.3,0.2-0.6,0.4-0.9,0.6c-2.1,1.5-3.8,3.6-4.7,6
		c-2.1,5.5-0.1,11.9,4.8,15.1c0.3,0.2,0.7,0.4,1,0.6c0.2,0.1,0.4,0.2,0.5,0.3c0.1,0.2,0,0.7,0,0.9c0,0.6,0,1.3,0,1.9
		C29.8,49.5,29,49.1,28.2,48.6z M38.2,60.7c-0.7,1.7-1.5,3.3-2.2,5c-1.7-3.7-3.3-7.5-5-11.2c-0.4-0.8-0.7-1.6-1.1-2.4
		c3.9,1.4,8.2,1.4,12.1,0c-1.1,2.5-2.2,5.1-3.4,7.6C38.5,60,38.4,60.4,38.2,60.7z M43.8,48.6c-0.8,0.5-1.6,0.9-2.5,1.3
		c0-0.6,0-1.1,0-1.7c0-0.3,0-0.7,0-1V47c0.1-0.2,0.6-0.3,0.7-0.4c2.2-1.3,4-3.3,5.1-5.6c2.5-5.2,1.1-11.6-3.4-15.3
		c-0.6-0.5-1.2-0.9-1.8-1.3c-0.2-0.1-0.7-0.3-0.7-0.4s0-0.2,0-0.3c0-0.7,0-1.4,0-2.1c2,0.9,3.8,2,5.3,3.6s2.7,3.5,3.5,5.6
		c1.4,4.1,1,8.8-1.2,12.6C47.6,45.5,45.9,47.3,43.8,48.6z M54.3,54c-2.6-1-5.2-2-7.8-3c-0.4-0.1-0.8-0.3-1.1-0.4
		c0.1-0.3,0.3-0.3,0.5-0.5c0.3-0.2,0.6-0.4,0.9-0.7c0.5-0.4,1.1-0.9,1.6-1.4s1-1,1.4-1.6c0.2-0.3,0.5-0.6,0.7-0.9
		c0.1-0.2,0.2-0.4,0.5-0.5c1,2.6,2,5.2,3,7.8C54,53.3,54.1,53.6,54.3,54z M60.6,38.1c-2.4,1.1-4.8,2.1-7.2,3.2
		c-0.3,0.2-0.7,0.3-1,0.5c1.4-3.9,1.4-8.2,0-12.1c3.5,1.5,6.9,3.1,10.4,4.6c1.1,0.5,2.2,1,3.3,1.5C64.2,36.5,62.4,37.3,60.6,38.1z"
		/>
	<g>
		<g>
			<circle style="fill:#100F0D;" cx="36" cy="36" r="7.4"/>
		</g>
	</g>
	<g>
		<g>
			<circle style="fill:#DFDFDF;" cx="36" cy="36" r="4.6"/>
		</g>
	</g>
	<path style="fill:#100F0D;" d="M40.3,2l-1,2.5c-2.1-0.2-4.2-0.2-6.3,0L32,2C34.7,1.7,37.5,1.7,40.3,2z"/>
	<g>
		<path style="opacity:0.15;fill:#DFDFDF;enable-background:new    ;" d="M40.3,2l-1,2.5c-2.1-0.2-4.2-0.2-6.3,0L32,2
			C34.7,1.7,37.5,1.7,40.3,2z"/>
		<path style="opacity:0.15;fill:#DFDFDF;enable-background:new    ;" d="M40.3,70l-1-2.5c-2.1,0.2-4.2,0.2-6.3,0L32,70
			C34.7,70.3,37.5,70.3,40.3,70z"/>
	</g>
	<g>
		<path style="opacity:0.15;fill:#DFDFDF;enable-background:new    ;" d="M70.1,40.2l-2.5-1c0.2-2.1,0.2-4.2,0-6.3l2.5-1
			C70.4,34.6,70.4,37.4,70.1,40.2z"/>
		<path style="opacity:0.15;fill:#DFDFDF;enable-background:new    ;" d="M2.1,40.2l2.5-1c-0.2-2.1-0.2-4.2,0-6.3l-2.5-1
			C1.8,34.6,1.8,37.4,2.1,40.2z"/>
	</g>
</g>
</svg>
