<?xml version="1.0" encoding="utf-8"?>
<!-- Generator: Adobe Illustrator 22.0.1, SVG Export Plug-In . SVG Version: 6.00 Build 0)  -->
<svg version="1.1" id="DETAIL" xmlns="http://www.w3.org/2000/svg" xmlns:xlink="http://www.w3.org/1999/xlink" x="0px" y="0px"
	 viewBox="0 0 72 72" style="enable-background:new 0 0 72 72;" xml:space="preserve">
<path style="fill:#1E70B5;" d="M36.8,20.4C21.6,20.4,9.2,36,9.2,36s12.3,15.6,27.6,15.6C52,51.5,64.3,36,64.3,36S52,20.4,36.8,20.4z
	 M36.8,46.6c-5.9,0-10.6-4.8-10.6-10.6c0-5.9,4.8-10.6,10.6-10.6c1.1,0,2.1,0.2,3.1,0.5c-1.3,0.6-2.3,2-2.3,3.6
	c0,2.2,1.8,3.9,3.9,3.9c2,0,3.7-1.5,3.9-3.5c1.2,1.7,2,3.9,2,6.2C47.4,41.8,42.6,46.6,36.8,46.6z"/>
</svg>
