<?xml version="1.0" encoding="UTF-8" standalone="no"?>
<!-- Generator: Adobe Illustrator 22.0.1, SVG Export Plug-In . SVG Version: 6.00 Build 0)  -->

<svg
   xmlns:dc="http://purl.org/dc/elements/1.1/"
   xmlns:cc="http://creativecommons.org/ns#"
   xmlns:rdf="http://www.w3.org/1999/02/22-rdf-syntax-ns#"
   xmlns:svg="http://www.w3.org/2000/svg"
   xmlns="http://www.w3.org/2000/svg"
   xmlns:sodipodi="http://sodipodi.sourceforge.net/DTD/sodipodi-0.dtd"
   xmlns:inkscape="http://www.inkscape.org/namespaces/inkscape"
   version="1.1"
   id="DETAIL"
   x="0px"
   y="0px"
   viewBox="0 0 72 72"
   style="enable-background:new 0 0 72 72;"
   xml:space="preserve"
   sodipodi:docname="1402.svg"
   inkscape:version="0.92.2 (5c3e80d, 2017-08-06)"><metadata
     id="metadata35"><rdf:RDF><cc:Work
         rdf:about=""><dc:format>image/svg+xml</dc:format><dc:type
           rdf:resource="http://purl.org/dc/dcmitype/StillImage" /><dc:title></dc:title></cc:Work></rdf:RDF></metadata><defs
     id="defs33" /><sodipodi:namedview
     pagecolor="#ffffff"
     bordercolor="#666666"
     borderopacity="1"
     objecttolerance="10"
     gridtolerance="10"
     guidetolerance="10"
     inkscape:pageopacity="0"
     inkscape:pageshadow="2"
     inkscape:window-width="1316"
     inkscape:window-height="810"
     id="namedview31"
     showgrid="false"
     inkscape:zoom="4.6354778"
     inkscape:cx="20.950453"
     inkscape:cy="38.036398"
     inkscape:window-x="0"
     inkscape:window-y="0"
     inkscape:window-maximized="0"
     inkscape:current-layer="DETAIL" /><path
     style="fill:#1e70b5"
     d="M 54.878906 8.8457031 L 44.400391 30.699219 L 44.332031 30.841797 C 42.286812 30.620498 40.241584 31.639604 39.300781 33.599609 L 39.107422 34 C 39.104863 33.999998 39.102168 34 39.099609 34 C 34.299609 33.8 29.600391 36.499609 27.400391 41.099609 C 24.400391 47.299609 27.100781 54.799219 33.300781 57.699219 C 39.500781 60.599219 47.000391 58.000781 49.900391 51.800781 C 52.091692 47.218969 51.205167 42.042856 48.134766 38.345703 L 48.300781 38 C 49.270892 35.978935 48.8013 33.633243 47.265625 32.173828 L 47.300781 32.099609 L 57.414062 10.984375 L 54.878906 8.8457031 z M 31.501953 41.287109 C 31.737891 41.305859 31.974219 41.375 32.199219 41.5 C 33.099219 41.9 33.5 43.000391 33 43.900391 C 31.6 46.900391 32.800781 50.400781 35.800781 51.800781 C 36.700781 52.300781 37.099219 53.299219 36.699219 54.199219 C 36.299219 55.099219 35.200781 55.5 34.300781 55 C 29.600781 52.7 27.600781 47.100781 29.800781 42.300781 C 30.100781 41.625781 30.794141 41.230859 31.501953 41.287109 z "
     id="path2" /><g
     id="g28"><g
       id="g18"><path
         style="fill:#1e70b5"
         d="m 28,35 c -0.3,0 -0.6,-0.1 -0.9,-0.2 L 16.3,28.4 C 15.5,27.9 15.2,26.9 15.7,26.1 16.2,25.3 17.2,25 18,25.5 l 10.8,6.4 c 0.8,0.5 1.1,1.5 0.6,2.3 C 29.2,34.7 28.6,35 28,35 Z"
         id="path16"
         inkscape:connector-curvature="0" /></g><g
       id="g22"><path
         style="fill:#1e70b5"
         d="m 23,40.4 c -0.3,0 -0.6,-0.1 -0.9,-0.2 L 8.9,32.3 C 8.1,31.8 7.8,30.8 8.3,30 8.8,29.2 9.8,28.9 10.6,29.4 l 13.2,7.8 c 0.8,0.5 1.1,1.5 0.6,2.3 -0.3,0.6 -0.8,0.9 -1.4,0.9 z"
         id="path20"
         inkscape:connector-curvature="0" /></g><g
       id="g26"><path
         style="fill:#1e70b5"
         d="m 21.8,47.8 c -0.3,0 -0.6,-0.1 -0.9,-0.2 L 9.7,40.8 c -0.8,-0.5 -1,-1.5 -0.6,-2.3 0.5,-0.8 1.5,-1 2.3,-0.6 l 11.3,6.8 c 0.8,0.5 1,1.5 0.6,2.3 -0.4,0.6 -0.9,0.8 -1.5,0.8 z"
         id="path24"
         inkscape:connector-curvature="0" /></g></g></svg>