<?xml version="1.0" encoding="UTF-8" standalone="no"?>
<!-- Generator: Adobe Illustrator 22.0.1, SVG Export Plug-In . SVG Version: 6.00 Build 0)  -->

<svg
   xmlns:dc="http://purl.org/dc/elements/1.1/"
   xmlns:cc="http://creativecommons.org/ns#"
   xmlns:rdf="http://www.w3.org/1999/02/22-rdf-syntax-ns#"
   xmlns:svg="http://www.w3.org/2000/svg"
   xmlns="http://www.w3.org/2000/svg"
   xmlns:sodipodi="http://sodipodi.sourceforge.net/DTD/sodipodi-0.dtd"
   xmlns:inkscape="http://www.inkscape.org/namespaces/inkscape"
   version="1.1"
   id="DETAIL"
   x="0px"
   y="0px"
   viewBox="0 0 72 72"
   style="enable-background:new 0 0 72 72;"
   xml:space="preserve"
   sodipodi:docname="140477.svg"
   inkscape:version="0.92.2 (5c3e80d, 2017-08-06)"><metadata
     id="metadata9"><rdf:RDF><cc:Work
         rdf:about=""><dc:format>image/svg+xml</dc:format><dc:type
           rdf:resource="http://purl.org/dc/dcmitype/StillImage" /></cc:Work></rdf:RDF></metadata><defs
     id="defs7" /><sodipodi:namedview
     pagecolor="#ffffff"
     bordercolor="#666666"
     borderopacity="1"
     objecttolerance="10"
     gridtolerance="10"
     guidetolerance="10"
     inkscape:pageopacity="0"
     inkscape:pageshadow="2"
     inkscape:window-width="742"
     inkscape:window-height="480"
     id="namedview5"
     showgrid="false"
     inkscape:zoom="2.3177389"
     inkscape:cx="26.54512"
     inkscape:cy="55.334008"
     inkscape:window-x="0"
     inkscape:window-y="0"
     inkscape:window-maximized="0"
     inkscape:current-layer="DETAIL" /><path
     style="fill:#1e70b5;stroke-width:1.24208629"
     d="M 36.062104,16.623453 C 17.182392,16.623453 1.7805227,36 1.7805227,36 c 0,0 15.2776613,19.376547 34.2815823,19.376547 C 54.941817,55.252338 70.219477,36 70.219477,36 c 0,0 -15.277661,-19.376547 -34.157373,-19.376547 z m 0,32.542662 c -7.328309,0 -13.166115,-5.962014 -13.166115,-13.166114 0,-7.32831 5.962014,-13.166115 13.166115,-13.166115 1.366295,0 2.608381,0.248417 3.850467,0.621043 -1.614712,0.745251 -2.856798,2.484173 -2.856798,4.47151 0,2.732591 2.235755,4.844137 4.844136,4.844137 2.484173,0 4.59572,-1.86313 4.844137,-4.347303 1.490504,2.111547 2.484173,4.844138 2.484173,7.700936 0,7.079892 -5.962014,13.041906 -13.166115,13.041906 z"
     id="path2"
     inkscape:connector-curvature="0" /></svg>