<?xml version="1.0" encoding="utf-8"?>
<!-- Generator: Adobe Illustrator 22.0.1, SVG Export Plug-In . SVG Version: 6.00 Build 0)  -->
<svg version="1.1" id="DETAIL" xmlns="http://www.w3.org/2000/svg" xmlns:xlink="http://www.w3.org/1999/xlink" x="0px" y="0px"
	 viewBox="0 0 72 72" style="enable-background:new 0 0 72 72;" xml:space="preserve">
<path style="fill:#1E70B5;" d="M52.4,16.1c0.7,0,1.2,0.6,1.2,1.2V39c0,5.1-3.1,10-8.8,14.2l-8.5,6.2l-8.6-6.1
	c-5.9-4.2-9.1-9.3-9.1-14.5V17.4c0-0.7,0.6-1.2,1.2-1.2h0.5c0.5,0,1,0.3,1.2,0.9c0.6,2.1,2.6,3.7,4.9,3.7H30c2.3,0,4.3-1.6,4.9-3.7
	c0.2-0.5,0.6-0.9,1.2-0.9h0c0.5,0,1,0.3,1.2,0.9c0.6,2.1,2.6,3.7,4.9,3.7h3.5c2.3,0,4.3-1.6,4.9-3.7c0.2-0.5,0.6-0.9,1.2-0.9H52.4z"
	/>
</svg>
