<?xml version="1.0" encoding="UTF-8" standalone="no"?>
<!-- Generator: Adobe Illustrator 22.0.1, SVG Export Plug-In . SVG Version: 6.00 Build 0)  -->

<svg
   xmlns:dc="http://purl.org/dc/elements/1.1/"
   xmlns:cc="http://creativecommons.org/ns#"
   xmlns:rdf="http://www.w3.org/1999/02/22-rdf-syntax-ns#"
   xmlns:svg="http://www.w3.org/2000/svg"
   xmlns="http://www.w3.org/2000/svg"
   xmlns:sodipodi="http://sodipodi.sourceforge.net/DTD/sodipodi-0.dtd"
   xmlns:inkscape="http://www.inkscape.org/namespaces/inkscape"
   version="1.1"
   id="DETAIL"
   x="0px"
   y="0px"
   viewBox="0 0 72 72"
   style="enable-background:new 0 0 72 72;"
   xml:space="preserve"
   sodipodi:docname="140977.svg"
   inkscape:version="0.92.2 (5c3e80d, 2017-08-06)"><metadata
     id="metadata19"><rdf:RDF><cc:Work
         rdf:about=""><dc:format>image/svg+xml</dc:format><dc:type
           rdf:resource="http://purl.org/dc/dcmitype/StillImage" /></cc:Work></rdf:RDF></metadata><defs
     id="defs17" /><sodipodi:namedview
     pagecolor="#ffffff"
     bordercolor="#666666"
     borderopacity="1"
     objecttolerance="10"
     gridtolerance="10"
     guidetolerance="10"
     inkscape:pageopacity="0"
     inkscape:pageshadow="2"
     inkscape:window-width="1278"
     inkscape:window-height="1008"
     id="namedview15"
     showgrid="false"
     inkscape:zoom="3.2777778"
     inkscape:cx="114.57516"
     inkscape:cy="36"
     inkscape:window-x="-7"
     inkscape:window-y="0"
     inkscape:window-maximized="0"
     inkscape:current-layer="DETAIL" /><g
     id="g12"
     transform="matrix(1.4348796,0,0,1.4348796,-15.655666,-15.655666)"><g
       id="g4"><path
         style="fill:#1e70b5"
         d="M 36,58.8 C 23.4,58.8 13.2,48.6 13.2,36 13.2,23.4 23.4,13.2 36,13.2 48.6,13.2 58.8,23.4 58.8,36 58.8,48.6 48.6,58.8 36,58.8 Z m 0,-40.7 c -9.9,0 -17.9,8 -17.9,17.9 0,9.9 8,17.9 17.9,17.9 9.9,0 17.9,-8 17.9,-17.9 0,-9.9 -8,-17.9 -17.9,-17.9 z"
         id="path2"
         inkscape:connector-curvature="0" /></g><g
       id="g8"><path
         style="fill:#1e70b5"
         d="m 36,49.4 c -7.4,0 -13.4,-6 -13.4,-13.4 0,-0.1 0,-0.2 0,-0.3 0,-0.1 0,-0.2 0,-0.2 0.3,-7.2 6.1,-12.9 13.4,-12.9 7.4,0 13.4,6 13.4,13.4 0,7.4 -6,13.4 -13.4,13.4 z m 0,-21.9 c -4.6,0 -8.3,3.6 -8.5,8.1 v 0.3 c 0,4.7 3.8,8.5 8.5,8.5 4.7,0 8.5,-3.8 8.5,-8.5 0,-4.7 -3.8,-8.4 -8.5,-8.4 z"
         id="path6"
         inkscape:connector-curvature="0" /></g><circle
       style="fill:#1e70b5"
       cx="36"
       cy="36"
       r="3.7"
       id="circle10" /></g></svg>