<?xml version="1.0" encoding="utf-8"?>
<!-- Generator: Adobe Illustrator 22.0.1, SVG Export Plug-In . SVG Version: 6.00 Build 0)  -->
<svg version="1.1" id="DETAIL" xmlns="http://www.w3.org/2000/svg" xmlns:xlink="http://www.w3.org/1999/xlink" x="0px" y="0px"
	 viewBox="0 0 72 72" style="enable-background:new 0 0 72 72;" xml:space="preserve">
<g>
	<g>
		<path style="fill:#1E70B5;" d="M36,58.8c-12.6,0-22.8-10.2-22.8-22.8c0-12.6,10.2-22.8,22.8-22.8S58.8,23.4,58.8,36
			C58.8,48.6,48.6,58.8,36,58.8z M36,18.1c-9.9,0-17.9,8-17.9,17.9c0,9.9,8,17.9,17.9,17.9s17.9-8,17.9-17.9
			C53.9,26.1,45.9,18.1,36,18.1z"/>
	</g>
	<g>
		<path style="fill:#1E70B5;" d="M36,49.4c-7.4,0-13.4-6-13.4-13.4c0-0.1,0-0.2,0-0.3c0-0.1,0-0.2,0-0.2c0.3-7.2,6.1-12.9,13.4-12.9
			c7.4,0,13.4,6,13.4,13.4S43.4,49.4,36,49.4z M36,27.5c-4.6,0-8.3,3.6-8.5,8.1l0,0.3c0,4.7,3.8,8.5,8.5,8.5s8.5-3.8,8.5-8.5
			S40.7,27.5,36,27.5z"/>
	</g>
	<circle style="fill:#1E70B5;" cx="36" cy="36" r="3.7"/>
</g>
</svg>
