<?xml version="1.0" encoding="utf-8"?>
<!-- Generator: Adobe Illustrator 22.0.1, SVG Export Plug-In . SVG Version: 6.00 Build 0)  -->
<svg version="1.1" id="DETAIL" xmlns="http://www.w3.org/2000/svg" xmlns:xlink="http://www.w3.org/1999/xlink" x="0px" y="0px"
	 viewBox="0 0 72 72" style="enable-background:new 0 0 72 72;" xml:space="preserve">
<g>
	<polygon style="fill:#1E70B5;" points="38.1,30.3 37.1,32 43.7,36.1 41.5,39.7 34.8,35.6 33.8,37.3 40.4,41.4 38.2,45 31.6,41
		30.5,42.7 37.1,46.8 34.9,50.4 28.3,46.3 27.2,48 33.8,52.1 30.6,57.4 18,49.7 35.8,20.8 48.3,28.5 44.7,34.3 	"/>
	<path style="fill:#1E70B5;" d="M34.1,21.7l14.1,8.7c1.2,0.7,2.7,0.3,3.4-0.8v0c0.7-1.2,0.3-2.7-0.8-3.4l-14.1-8.7
		c-1.2-0.7-2.7-0.3-3.4,0.8l0,0C32.6,19.5,33,21,34.1,21.7z"/>
	<path style="fill:#1E70B5;" d="M41.3,14.4l10.2,6.3c1.2,0.7,2.7,0.3,3.4-0.8v0c0.7-1.2,0.3-2.7-0.8-3.4l-10.2-6.3
		c-1.2-0.7-2.7-0.3-3.4,0.8v0C39.8,12.2,40.1,13.7,41.3,14.4z"/>
	<polygon style="fill:#1E70B5;" points="21.5,61.2 20.6,56.6 24.7,49.9 27.4,51.5 	"/>

		<rect x="43.5" y="14.9" transform="matrix(0.8523 0.523 -0.523 0.8523 15.8959 -21.9364)" style="fill:#1E70B5;" width="6.5" height="4.6"/>
</g>
</svg>
