<?xml version="1.0" encoding="UTF-8" standalone="no"?>
<!-- Generator: Adobe Illustrator 22.0.1, SVG Export Plug-In . SVG Version: 6.00 Build 0)  -->

<svg
   xmlns:dc="http://purl.org/dc/elements/1.1/"
   xmlns:cc="http://creativecommons.org/ns#"
   xmlns:rdf="http://www.w3.org/1999/02/22-rdf-syntax-ns#"
   xmlns:svg="http://www.w3.org/2000/svg"
   xmlns="http://www.w3.org/2000/svg"
   xmlns:sodipodi="http://sodipodi.sourceforge.net/DTD/sodipodi-0.dtd"
   xmlns:inkscape="http://www.inkscape.org/namespaces/inkscape"
   version="1.1"
   id="Layer_1"
   x="0px"
   y="0px"
   viewBox="0 0 72 72"
   style="enable-background:new 0 0 72 72;"
   xml:space="preserve"
   sodipodi:docname="141377.svg"
   inkscape:version="0.92.2 (5c3e80d, 2017-08-06)"><metadata
     id="metadata26"><rdf:RDF><cc:Work
         rdf:about=""><dc:format>image/svg+xml</dc:format><dc:type
           rdf:resource="http://purl.org/dc/dcmitype/StillImage" /></cc:Work></rdf:RDF></metadata><defs
     id="defs24" /><sodipodi:namedview
     pagecolor="#ffffff"
     bordercolor="#666666"
     borderopacity="1"
     objecttolerance="10"
     gridtolerance="10"
     guidetolerance="10"
     inkscape:pageopacity="0"
     inkscape:pageshadow="2"
     inkscape:window-width="1278"
     inkscape:window-height="1008"
     id="namedview22"
     showgrid="false"
     inkscape:zoom="3.2777778"
     inkscape:cx="36"
     inkscape:cy="36"
     inkscape:window-x="-7"
     inkscape:window-y="0"
     inkscape:window-maximized="0"
     inkscape:current-layer="Layer_1" /><g
     id="DETAIL"
     transform="matrix(1.4330235,0,0,1.4330235,-13.081055,-15.92469)"><g
       id="g18"><path
         style="fill:#1e70b5"
         d="m 44,44.6 c 0,0 0,0 0,0 v 0 c 0,0 0,0 0,0 z"
         id="path2"
         inkscape:connector-curvature="0" /><path
         style="fill:#1e70b5"
         d="m 32.6,30.4 c -2.7,-0.1 -5.1,1 -6.7,2.9 -1.6,-1.7 -3.8,-2.8 -6.4,-2.8 -4.7,0 -8.5,3.8 -8.5,8.5 0,0.1 0,0.3 0,0.4 0.1,1.3 0.4,2.5 1,3.6 0,0 0,0 0,0 2.8,5.7 10.8,10.4 13.2,14.7 0.3,0.5 1.1,0.5 1.4,0 2.4,-4.4 10.5,-9.1 13.3,-14.9 0,0 0,0 0,0 0.6,-1.3 1,-2.7 0.9,-4.2 -0.2,-4.4 -3.8,-8 -8.2,-8.2 z m -6.7,14.2 v 0 c 0,0 0,0 0,0 0,0 0,0 0,0 z"
         id="path4"
         inkscape:connector-curvature="0" /><g
         id="g8"><path
           style="fill:#1e70b5"
           d="m 25.9,44.6 v 0 c 0,0 0,0 0,0 0,0 0,0 0,0 z"
           id="path6"
           inkscape:connector-curvature="0" /></g><path
         style="fill:#1e70b5"
         d="m 57.5,22.6 c -0.2,-4.4 -3.8,-8 -8.2,-8.2 -2.7,-0.1 -5.1,1 -6.7,2.9 -1.6,-1.7 -3.8,-2.8 -6.4,-2.8 -4.7,0 -8.5,3.8 -8.5,8.5 0,0.1 0,0.3 0,0.4 0.1,1.3 0.4,2.5 1,3.6 0,0 0,0 0,0 0.1,0.3 0.3,0.6 0.5,0.9 1.1,-0.3 2.3,-0.5 3.5,-0.4 5.9,0.2 10.8,5.1 11,11 0,1 -0.1,2 -0.3,3 2.6,-4.3 10.4,-9 13.2,-14.7 0,0 0,0 0,0 0.6,-1.2 0.9,-2.7 0.9,-4.2 z m -14.9,6.1 v 0 c 0,-0.1 0,-0.1 0,0 0,0 0,0 0,0 z"
         id="path10"
         inkscape:connector-curvature="0" /><path
         style="fill:#1e70b5"
         d="m 44,44.6 c 0,0 0,0 0,0 v 0 c 0,0 0,0 0,0 z"
         id="path12"
         inkscape:connector-curvature="0" /><g
         id="g16"><path
           style="fill:#1e70b5"
           d="m 55.3,33.4 c -1.1,1.2 -2.2,2.3 -3.4,3.3 -0.4,0.3 -0.7,0.7 -1.1,1 0.3,0.9 0.4,1.8 0.4,2.8 0,5.3 -4.3,9.6 -9.6,9.6 -1.1,0 -2.2,-0.2 -3.2,-0.5 -1.4,1.5 -2.9,2.9 -4.3,4.2 0,0 -0.1,0.1 -0.1,0.1 2.3,1.3 4.9,2 7.7,2 8.5,0 15.4,-6.9 15.4,-15.4 0,-2.5 -0.6,-4.9 -1.8,-7.1 z"
           id="path14"
           inkscape:connector-curvature="0" /></g></g></g></svg>