<?xml version="1.0" encoding="utf-8"?>
<!-- Generator: Adobe Illustrator 22.0.1, SVG Export Plug-In . SVG Version: 6.00 Build 0)  -->
<svg version="1.1" id="Layer_1" xmlns="http://www.w3.org/2000/svg" xmlns:xlink="http://www.w3.org/1999/xlink" x="0px" y="0px"
	 viewBox="0 0 72 72" style="enable-background:new 0 0 72 72;" xml:space="preserve">
<g id="DETAIL">
	<g>
		<path style="fill:#1E70B5;" d="M44,44.6C44,44.6,44,44.6,44,44.6L44,44.6C44,44.6,44,44.6,44,44.6z"/>
		<path style="fill:#1E70B5;" d="M32.6,30.4c-2.7-0.1-5.1,1-6.7,2.9c-1.6-1.7-3.8-2.8-6.4-2.8c-4.7,0-8.5,3.8-8.5,8.5
			c0,0.1,0,0.3,0,0.4c0.1,1.3,0.4,2.5,1,3.6c0,0,0,0,0,0c2.8,5.7,10.8,10.4,13.2,14.7c0.3,0.5,1.1,0.5,1.4,0
			c2.4-4.4,10.5-9.1,13.3-14.9c0,0,0,0,0,0c0.6-1.3,1-2.7,0.9-4.2C40.6,34.2,37,30.6,32.6,30.4z M25.9,44.6L25.9,44.6
			C25.9,44.6,25.9,44.6,25.9,44.6C25.9,44.6,25.9,44.6,25.9,44.6z"/>
		<g>
			<path style="fill:#1E70B5;" d="M25.9,44.6L25.9,44.6C25.9,44.6,25.9,44.6,25.9,44.6C25.9,44.6,25.9,44.6,25.9,44.6z"/>
		</g>
		<path style="fill:#1E70B5;" d="M57.5,22.6c-0.2-4.4-3.8-8-8.2-8.2c-2.7-0.1-5.1,1-6.7,2.9c-1.6-1.7-3.8-2.8-6.4-2.8
			c-4.7,0-8.5,3.8-8.5,8.5c0,0.1,0,0.3,0,0.4c0.1,1.3,0.4,2.5,1,3.6c0,0,0,0,0,0c0.1,0.3,0.3,0.6,0.5,0.9c1.1-0.3,2.3-0.5,3.5-0.4
			c5.9,0.2,10.8,5.1,11,11c0,1-0.1,2-0.3,3c2.6-4.3,10.4-9,13.2-14.7c0,0,0,0,0,0C57.2,25.6,57.5,24.1,57.5,22.6z M42.6,28.7
			L42.6,28.7C42.6,28.6,42.6,28.6,42.6,28.7C42.6,28.7,42.6,28.7,42.6,28.7z"/>
		<path style="fill:#1E70B5;" d="M44,44.6C44,44.6,44,44.6,44,44.6L44,44.6C44,44.6,44,44.6,44,44.6z"/>
		<g>
			<path style="fill:#1E70B5;" d="M55.3,33.4c-1.1,1.2-2.2,2.3-3.4,3.3c-0.4,0.3-0.7,0.7-1.1,1c0.3,0.9,0.4,1.8,0.4,2.8
				c0,5.3-4.3,9.6-9.6,9.6c-1.1,0-2.2-0.2-3.2-0.5c-1.4,1.5-2.9,2.9-4.3,4.2c0,0-0.1,0.1-0.1,0.1c2.3,1.3,4.9,2,7.7,2
				c8.5,0,15.4-6.9,15.4-15.4C57.1,38,56.5,35.6,55.3,33.4z"/>
		</g>
	</g>
</g>
</svg>
