<?xml version="1.0" encoding="utf-8"?>
<!-- Generator: Adobe Illustrator 22.0.1, SVG Export Plug-In . SVG Version: 6.00 Build 0)  -->
<svg version="1.1" id="Layer_1" xmlns="http://www.w3.org/2000/svg" xmlns:xlink="http://www.w3.org/1999/xlink" x="0px" y="0px"
	 viewBox="0 0 72 72" style="enable-background:new 0 0 72 72;" xml:space="preserve">
<g id="DETAIL">
	<g>
		<g>
			<g>
				<g>
					<g>
						<path style="fill:#1E70B5;" d="M49.7,33.2H35.4H22.1c-2.1,0-4.1,0.8-5.6,2.3c-0.2,0.2-0.4,0.4-0.5,0.4l-3.7,3.5v-5.1
							c0-3.3,1.3-6.4,3.6-8.7s5.4-3.6,8.7-3.6h9.1v-4.3v-6.8l4,5.5l9.5,13.3L49.7,33.2z"/>
					</g>
				</g>
			</g>
		</g>
		<g>
			<g>
				<g>
					<g>
						<path style="fill:#1E70B5;" d="M59.7,37.6c0,3.3-1.3,6.4-3.6,8.7s-5.4,3.6-8.7,3.6h-9.1v4.3V61l-4-5.5l-9.5-13.3l-2.5-3.4
							h14.3h13.3c2.1,0,4.1-0.8,5.6-2.3c0.2-0.2,0.4-0.4,0.5-0.4l3.7-3.5V37.6z"/>
					</g>
				</g>
			</g>
		</g>
	</g>
</g>
</svg>
