<?xml version="1.0" encoding="UTF-8" standalone="no"?>
<!-- Generator: Adobe Illustrator 21.0.0, SVG Export Plug-In . SVG Version: 6.00 Build 0)  -->

<svg
   xmlns:dc="http://purl.org/dc/elements/1.1/"
   xmlns:cc="http://creativecommons.org/ns#"
   xmlns:rdf="http://www.w3.org/1999/02/22-rdf-syntax-ns#"
   xmlns:svg="http://www.w3.org/2000/svg"
   xmlns="http://www.w3.org/2000/svg"
   xmlns:sodipodi="http://sodipodi.sourceforge.net/DTD/sodipodi-0.dtd"
   xmlns:inkscape="http://www.inkscape.org/namespaces/inkscape"
   version="1.1"
   id="DETAIL"
   x="0px"
   y="0px"
   viewBox="0 0 72 72"
   style="enable-background:new 0 0 72 72;"
   xml:space="preserve"
   sodipodi:docname="1417.svg"
   inkscape:version="0.92.3 (2405546, 2018-03-11)"><metadata
   id="metadata9"><rdf:RDF><cc:Work
       rdf:about=""><dc:format>image/svg+xml</dc:format><dc:type
         rdf:resource="http://purl.org/dc/dcmitype/StillImage" /></cc:Work></rdf:RDF></metadata><defs
   id="defs7" /><sodipodi:namedview
   pagecolor="#ffffff"
   bordercolor="#666666"
   borderopacity="1"
   objecttolerance="10"
   gridtolerance="10"
   guidetolerance="10"
   inkscape:pageopacity="0"
   inkscape:pageshadow="2"
   inkscape:window-width="2560"
   inkscape:window-height="1017"
   id="namedview5"
   showgrid="false"
   inkscape:zoom="2.3177389"
   inkscape:cx="-372.88325"
   inkscape:cy="48.144949"
   inkscape:window-x="-8"
   inkscape:window-y="-8"
   inkscape:window-maximized="1"
   inkscape:current-layer="DETAIL" />

<path
   style="color:#000000;font-style:normal;font-variant:normal;font-weight:normal;font-stretch:normal;font-size:medium;line-height:normal;font-family:sans-serif;font-variant-ligatures:normal;font-variant-position:normal;font-variant-caps:normal;font-variant-numeric:normal;font-variant-alternates:normal;font-feature-settings:normal;text-indent:0;text-align:start;text-decoration:none;text-decoration-line:none;text-decoration-style:solid;text-decoration-color:#000000;letter-spacing:normal;word-spacing:normal;text-transform:none;writing-mode:lr-tb;direction:ltr;text-orientation:mixed;dominant-baseline:auto;baseline-shift:baseline;text-anchor:start;white-space:normal;shape-padding:0;clip-rule:nonzero;display:inline;overflow:visible;visibility:visible;opacity:1;isolation:auto;mix-blend-mode:normal;color-interpolation:sRGB;color-interpolation-filters:linearRGB;solid-color:#000000;solid-opacity:1;vector-effect:none;fill:#1e70b5;fill-opacity:1;fill-rule:nonzero;stroke:none;stroke-width:2.426404;stroke-linecap:butt;stroke-linejoin:miter;stroke-miterlimit:4;stroke-dasharray:none;stroke-dashoffset:0;stroke-opacity:1;color-rendering:auto;image-rendering:auto;shape-rendering:auto;text-rendering:auto;enable-background:accumulate"
   d="m 12.469328,16.193289 v 2.426404 h 17.707536 l 0.07583,0.362539 -14.63425,4.606376 c -0.08442,0.02634 -0.162054,0.07082 -0.227475,0.130324 l -6.2887459,5.741385 c -0.5779521,0.510629 0.1343146,1.398735 0.7582504,0.945445 l 7.0493675,-4.928634 14.153234,-2.604119 1.22742,5.893033 -11.565703,3.006941 c -0.226192,0.05872 -0.398549,0.242134 -0.443102,0.471538 l -1.241638,6.390636 -5.08976,7.504318 c -0.419252,0.611376 0.414713,1.297174 0.933596,0.767728 l 8.255461,-8.309958 c 0.137153,-0.13915 0.198893,-0.335838 0.165868,-0.528407 l -0.684796,-4.070862 10.414107,-1.253484 c 0.02983,-0.0035 0.04982,-0.02784 0.0782,-0.03555 l 1.241636,5.959382 -3.87182,7.132301 c -0.06555,0.120847 -0.0881,0.26037 -0.06398,0.395713 l 1.867193,10.501779 c 0.125197,0.763025 1.259735,0.629022 1.203724,-0.142172 l -0.544993,-9.667704 4.74144,-5.506799 2.168124,3.168068 -1.040225,6.262681 v 0.0047 l -0.0072,0.04503 c -0.119451,0.762194 0.996218,0.991564 1.187138,0.244063 l 1.656305,-6.78161 c 0.03116,-0.127157 0.02036,-0.260985 -0.0308,-0.381495 l -2.213147,-5.175065 2.277124,-12.880793 6.111031,0.260648 3.423978,5.407281 -3.554303,4.163272 c -0.03176,0.03764 -0.05881,0.07903 -0.08057,0.123217 l -1.926432,3.881297 c -0.04931,0.09902 -0.07062,0.209636 -0.06161,0.319888 l 0.542624,6.539917 c 0.07553,0.736437 1.153171,0.721646 1.208463,-0.01659 l 0.322256,-5.660819 1.812694,-3.239155 4.1301,-2.331623 2.990355,4.720115 c 0.03858,0.06024 0.08752,0.113191 0.144542,0.156389 l 5.383583,4.118251 c 0.581384,0.442209 1.304541,-0.33082 0.824598,-0.881466 l -3.293662,-3.760412 -6.660762,-11.802653 3.051961,-0.45969 4.532921,1.554415 c 0.682493,0.229864 1.125609,-0.709463 0.514188,-1.089986 l -3.800688,-2.338729 c -0.06119,-0.03764 -0.128587,-0.06412 -0.199041,-0.0782 L 50.713575,24.1881 42.507874,21.235659 42.969935,18.619693 h 15.39487 v -2.426404 z"
   id="path4531"
   inkscape:connector-curvature="0" /></svg>