<?xml version="1.0" encoding="UTF-8" standalone="no"?>
<!-- Generator: Adobe Illustrator 21.0.0, SVG Export Plug-In . SVG Version: 6.00 Build 0)  -->

<svg
   xmlns:dc="http://purl.org/dc/elements/1.1/"
   xmlns:cc="http://creativecommons.org/ns#"
   xmlns:rdf="http://www.w3.org/1999/02/22-rdf-syntax-ns#"
   xmlns:svg="http://www.w3.org/2000/svg"
   xmlns="http://www.w3.org/2000/svg"
   xmlns:sodipodi="http://sodipodi.sourceforge.net/DTD/sodipodi-0.dtd"
   xmlns:inkscape="http://www.inkscape.org/namespaces/inkscape"
   version="1.1"
   id="DETAIL"
   x="0px"
   y="0px"
   viewBox="0 0 72 72"
   style="enable-background:new 0 0 72 72;"
   xml:space="preserve"
   sodipodi:docname="141777.svg"
   inkscape:version="0.92.3 (2405546, 2018-03-11)"><metadata
   id="metadata9"><rdf:RDF><cc:Work
       rdf:about=""><dc:format>image/svg+xml</dc:format><dc:type
         rdf:resource="http://purl.org/dc/dcmitype/StillImage" /><dc:title></dc:title></cc:Work></rdf:RDF></metadata><defs
   id="defs7" /><sodipodi:namedview
   pagecolor="#ffffff"
   bordercolor="#666666"
   borderopacity="1"
   objecttolerance="10"
   gridtolerance="10"
   guidetolerance="10"
   inkscape:pageopacity="0"
   inkscape:pageshadow="2"
   inkscape:window-width="2560"
   inkscape:window-height="1017"
   id="namedview5"
   showgrid="false"
   inkscape:zoom="4.6354778"
   inkscape:cx="-110.9863"
   inkscape:cy="44.923564"
   inkscape:window-x="-8"
   inkscape:window-y="-8"
   inkscape:window-maximized="1"
   inkscape:current-layer="DETAIL" />

<path
   style="color:#000000;font-style:normal;font-variant:normal;font-weight:normal;font-stretch:normal;font-size:medium;line-height:normal;font-family:sans-serif;font-variant-ligatures:normal;font-variant-position:normal;font-variant-caps:normal;font-variant-numeric:normal;font-variant-alternates:normal;font-feature-settings:normal;text-indent:0;text-align:start;text-decoration:none;text-decoration-line:none;text-decoration-style:solid;text-decoration-color:#000000;letter-spacing:normal;word-spacing:normal;text-transform:none;writing-mode:lr-tb;direction:ltr;text-orientation:mixed;dominant-baseline:auto;baseline-shift:baseline;text-anchor:start;white-space:normal;shape-padding:0;clip-rule:nonzero;display:inline;overflow:visible;visibility:visible;opacity:1;isolation:auto;mix-blend-mode:normal;color-interpolation:sRGB;color-interpolation-filters:linearRGB;solid-color:#000000;solid-opacity:1;vector-effect:none;fill:#1e70b5;fill-opacity:1;fill-rule:nonzero;stroke:none;stroke-width:3.15843534;stroke-linecap:butt;stroke-linejoin:miter;stroke-miterlimit:4;stroke-dasharray:none;stroke-dashoffset:0;stroke-opacity:1;color-rendering:auto;image-rendering:auto;shape-rendering:auto;text-rendering:auto;enable-background:accumulate"
   d="m 5.3702609,9.306357 v 3.158435 H 28.420051 l 0.09869,0.471914 -19.0493114,5.996093 c -0.109883,0.03428 -0.2109459,0.09219 -0.2961035,0.169642 L 0.98730424,26.575966 C 0.2349887,27.240648 1.162141,28.396692 1.9743153,27.806645 l 9.1761177,-6.415572 18.423177,-3.389765 1.597724,7.670925 -15.055004,3.914115 c -0.294431,0.07645 -0.518788,0.315186 -0.576783,0.613798 l -1.616231,8.318653 -6.6253099,9.768324 C 6.752268,49.082947 7.8378349,49.975646 8.513263,49.286471 L 19.259349,38.469447 c 0.178531,-0.181128 0.258897,-0.437156 0.21591,-0.687823 l -0.891397,-5.299015 13.555981,-1.631654 c 0.03882,-0.0045 0.06485,-0.03625 0.101768,-0.04626 l 1.61623,7.757291 -5.039925,9.284072 c -0.08533,0.15731 -0.114686,0.338923 -0.08327,0.515096 l 2.430514,13.670104 c 0.162968,0.993223 1.639788,0.818793 1.56688,-0.185067 l -0.709414,-12.584389 6.171904,-7.168169 2.822234,4.123857 -1.354056,8.152094 v 0.0061 l -0.0093,0.05861 c -0.155492,0.992141 1.296769,1.290712 1.545289,0.317694 l 2.156002,-8.827581 c 0.04057,-0.165518 0.02651,-0.339721 -0.0401,-0.496589 l -2.880839,-6.73635 2.964117,-16.766849 7.95469,0.339285 4.456973,7.038624 -4.626615,5.419305 c -0.04133,0.049 -0.07656,0.102867 -0.104879,0.160387 l -2.507624,5.052262 c -0.06418,0.128888 -0.09194,0.272881 -0.0802,0.416394 l 0.706329,8.51297 c 0.09832,0.958617 1.501076,0.939364 1.573049,-0.02159 l 0.419481,-7.368653 2.359571,-4.216387 5.376127,-3.035059 3.892524,6.144143 c 0.05022,0.07843 0.113929,0.147344 0.18815,0.203571 l 7.007778,5.360703 c 0.756784,0.57562 1.698112,-0.430626 1.073373,-1.147399 l -4.287329,-4.894958 -8.670273,-15.363444 3.972719,-0.598375 5.900475,2.023374 c 0.888395,0.299213 1.465198,-0.923504 0.669317,-1.418829 L 63.72412,21.48663 c -0.07966,-0.049 -0.167381,-0.08347 -0.259092,-0.101767 l -8.312474,-1.671732 -10.68131,-3.843175 0.601462,-3.405187 H 65.112112 V 9.306333 Z"
   id="path4531"
   inkscape:connector-curvature="0" /></svg>