<?xml version="1.0" encoding="utf-8"?>
<!-- Generator: Adobe Illustrator 21.0.0, SVG Export Plug-In . SVG Version: 6.00 Build 0)  -->
<svg version="1.1" id="Layer_1" xmlns="http://www.w3.org/2000/svg" xmlns:xlink="http://www.w3.org/1999/xlink" x="0px" y="0px"
	 viewBox="0 0 72 72" style="enable-background:new 0 0 72 72;" xml:space="preserve">
<g id="COLOUR">
	<path style="fill:#1E70B5;" d="M66.2,53.3L48.4,66.7l-0.1-0.1l-0.4,0.3c-1.7,1.5-3.5,2.7-5.6,3.5c-0.2,0.1-0.3,0.1-0.5,0.2
		c-0.4,0.1-0.7,0.2-1.1,0.3c-0.2,0-0.3,0.1-0.5,0.1l0,0h-0.1c-0.7,0.2-1.4,0.3-2.1,0.4c-0.7,0.1-1.4,0.1-2.1,0.1
		c-2.6,0-5.2-0.6-7.5-1.7c-0.2-0.1-0.4-0.2-0.6-0.3c-0.4-0.2-0.8-0.4-1.2-0.7c-0.4-0.2-0.8-0.5-1.1-0.8c-0.1-0.1-0.3-0.2-0.4-0.3
		c-0.6-0.5-1.2-1-1.7-1.5c-0.2-0.2-0.3-0.3-0.5-0.5v-0.1l-0.2-0.2l0,0L5.8,53.3l6.6-4.2l2.3-1.4l3.3-2.1l0.2-0.2V13.5
		c0-6.9,5.5-12.5,12.5-12.8l-0.2,20.9v0.7l0.7-0.2c1.6-0.4,3.2-0.7,4.8-0.7s3.3,0.2,4.8,0.7l0.7,0.2v-0.7L41.1,0.7
		C48,1,53.6,6.6,53.6,13.5v31.6l0.3,0.2l0,0l3.5,2.3l2.3,1.5L66.2,53.3z"/>
</g>
<g id="DETAIL">
	<g>
		<g>
			<path style="fill:#2E2B28;" d="M28.9,35v3.1c-3.4,2.3-5.7,6.2-5.7,10.7c0,0.9,0.1,1.9,0.3,2.8c-1.6,1-2.9,2.5-3.5,4.4h-1.3v-8.6
				h-5V35.1l5-8.1v-3.6h5.4L28.9,35z"/>
		</g>
		<g>
			<path style="fill:#2E2B28;" d="M43.1,35v3.1c3.4,2.3,5.7,6.2,5.7,10.7c0,0.9-0.1,1.9-0.3,2.8c1.6,1,2.9,2.5,3.5,4.4h1.3v-8.6h5
				V35.1l-5-8.1v-3.6h-5.4L43.1,35z"/>
		</g>
	</g>
	<g>
		<path style="fill:#DFDFDF;" d="M24,8.9v14.5h-2V13.2c0-1.5,0.6-3,1.7-4.1L24,8.9z"/>
		<path style="fill:#DFDFDF;" d="M50,13.2v10.2h-2V8.9l0.2,0.2C49.3,10.2,50,11.7,50,13.2z"/>
	</g>
	<g>
		<path style="fill:#DFDFDF;" d="M63.5,45.5L63.5,45.5c-1.5,0-2.6,1.2-2.6,2.6V50l5.3,3.2v-5.1C66.1,46.7,64.9,45.5,63.5,45.5z"/>
		<path style="fill:#DFDFDF;" d="M8.5,45.5L8.5,45.5c-1.5,0-2.6,1.2-2.6,2.6v5.1l5.3-3.2v-1.9C11.2,46.7,10,45.5,8.5,45.5z"/>
	</g>
	<g>
		<path style="fill:#100F0D;" d="M59.9,48.5v-8.9c0-5.2-2.2-9.9-5.8-13.2c-0.1-0.1-0.1-0.1-0.2-0.2V13.4C53.9,6,47.8,0,40.4,0
			l0.3,17.6h-9.8L31,0c-7.5,0-13.5,6-13.5,13.4v13.4c-3.3,3.2-5.4,7.8-5.4,12.8v8.7l-0.2,0.1L4.7,53l9.2,6.8
			c4.3,6.7,11.4,11.3,19.7,12c0.3,0,0.5,0,0.8,0.1c0.2,0,0.4,0,0.6,0l0,0c0.3,0,0.5,0,0.8,0H36c9.4,0,17.6-4.9,22.2-12.3l8.7-6.6
			L59.9,48.5z M20.2,13.4c0-5,3.5-9.2,8.2-10.4l-0.1,14.6l-0.1,8.5c0,4.2,3.4,7.6,7.7,7.6c4.2,0,7.7-3.4,7.7-7.6V20L43.1,3
			c4.7,1.2,8.2,5.4,8.2,10.4v9h-4.9l-4.8,13.9c-1.8-0.8-3.7-1.3-5.8-1.3c-2,0-4,0.5-5.8,1.3l-4.8-13.9h-5.1v-9H20.2z M19.9,24.7h3.7
			L28,37.5c-1.4,0.9-2.6,2.1-3.6,3.5v-5.3L22,29.8v21.3c-0.1,0.1-0.2,0.2-0.3,0.3C21,52.2,20.3,53,19.8,54L19.9,24.7L19.9,24.7z
			 M31,68.6c-0.2,0-9.8-7.4-9.8-7.4v-1.9c0-0.7,0.1-1.4,0.2-2c0.1-0.4,0.2-0.7,0.3-1.1c0.3-0.8,0.7-1.6,1.3-2.3
			c1.4,3.6,4.3,6.4,8,7.8V68.6z M14.3,39.6c0-3.5,1.2-6.8,3.1-9.4v14.7l-3.1,2C14.3,46.9,14.3,39.6,14.3,39.6z M9.4,53.2l8.3-5.3
			v11.4L9.4,53.2z M35.8,60.3c-5.7,0-10.5-4.2-11.3-9.7c-0.1-0.6-0.1-1.2-0.1-1.7c0-0.6,0-1.2,0.1-1.7c0.8-5.5,5.6-9.7,11.3-9.7
			c5.8,0,10.6,4.3,11.3,9.9c0.1,0.5,0.1,1,0.1,1.6s0,1.1-0.1,1.6C46.4,56,41.6,60.3,35.8,60.3z M50.4,61.3c0,0-9.1,7-9.4,7.2v-6.8
			c3.4-1.4,6.2-4.2,7.6-7.6c0.5,0.7,1,1.4,1.3,2.3c0.1,0.3,0.2,0.7,0.3,1.1c0.2,0.6,0.2,1.3,0.2,2C50.4,59.5,50.4,61.3,50.4,61.3z
			 M51.7,53.9c-0.5-0.9-1.1-1.8-1.9-2.6c-0.1-0.1-0.2-0.2-0.2-0.2V29.8l-2.5,5.9V41c-1-1.4-2.2-2.6-3.6-3.6L48,24.7h3.7V53.9z
			 M53.9,29.5c0.1,0.1,0.1,0.2,0.2,0.2c2.2,2.7,3.5,6.1,3.5,9.9v7.5L57.5,47L54,44.7l0,0L53.9,29.5L53.9,29.5z M54,59.5V47.9
			l8.3,5.4L54,59.5z"/>
	</g>
	<circle style="opacity:0.14;fill:#DFDFDF;enable-background:new    ;" cx="36" cy="48.9" r="9.3"/>
	<path style="fill:#100F0D;" d="M35.9,69.3c-0.7,0-1.5,0-2.2-0.2C34.4,69.3,35.2,69.3,35.9,69.3c1.4,0,2.9-0.2,4.2-0.6
		C38.8,69.1,37.3,69.3,35.9,69.3z"/>
	<g>
		<g>
			<path style="fill:#100F0D;" d="M48.4,67.2"/>
		</g>
	</g>
	<path style="fill:#12100B;" d="M43,47.6c-0.1-0.4-0.2-0.7-0.3-1.1c-0.2-0.6-0.5-1.1-0.8-1.6c-0.8-1.2-1.9-2.1-3.2-2.6
		C37.9,42,37,41.8,36,41.8s-1.8,0.2-2.7,0.5c-1.3,0.5-2.5,1.5-3.2,2.6c-0.3,0.5-0.6,1.1-0.8,1.7c-0.1,0.4-0.2,0.7-0.3,1.1
		c-0.1,0.4-0.1,0.8-0.1,1.3c0,0.3,0,0.6,0.1,0.9c0,0.1,0,0.2,0,0.3c0.2,1.1,0.6,2.1,1.2,2.9c1.3,1.8,3.4,3,5.8,3s4.5-1.2,5.8-3
		c0.4-0.6,0.7-1.2,0.9-1.8c0.1-0.3,0.2-0.7,0.3-1.1c0.1-0.4,0.1-0.8,0.1-1.2C43.1,48.4,43.1,48,43,47.6z M36,53.6
		c-1.4,0-2.7-0.6-3.6-1.6c-0.5-0.5-0.8-1.2-1-1.9c-0.1-0.4-0.2-0.8-0.2-1.2v-0.1c0-0.2,0-0.5,0.1-0.7V48c0-0.1,0-0.2,0.1-0.3
		c0.1-0.4,0.3-0.8,0.4-1.1c0.4-0.7,0.9-1.2,1.5-1.7c0.2-0.2,0.5-0.3,0.7-0.4c0.6-0.2,1.2-0.4,1.9-0.4s1.3,0.1,1.9,0.4
		c0.3,0.1,0.5,0.2,0.7,0.4c0.6,0.4,1.2,1,1.5,1.7c0.2,0.3,0.3,0.7,0.4,1.1c0,0.1,0,0.2,0.1,0.3v0.1c0,0.2,0.1,0.4,0.1,0.7v0.1
		c0,0.4-0.1,0.8-0.2,1.2c-0.2,0.7-0.6,1.4-1,1.9C38.7,53,37.4,53.6,36,53.6z"/>
	<circle style="fill:#DFDFDF;" cx="36" cy="48.9" r="4.8"/>
</g>
</svg>
