<?xml version="1.0" encoding="utf-8"?>
<!-- Generator: Adobe Illustrator 21.0.0, SVG Export Plug-In . SVG Version: 6.00 Build 0)  -->
<svg version="1.1" id="Layer_1" xmlns="http://www.w3.org/2000/svg" xmlns:xlink="http://www.w3.org/1999/xlink" x="0px" y="0px"
	 viewBox="0 0 72 72" style="enable-background:new 0 0 72 72;" xml:space="preserve">
<g id="COLOUR">
	<path style="fill:#1E70B5;" d="M59,1.9h-8.1c-1.8,0-3.2,1.4-3.2,3.2v36.5c0,6.5-5.2,11.7-11.6,11.9c-6.4-0.1-11.6-5.4-11.6-11.9
		V5.1c0-1.8-1.4-3.2-3.2-3.2H13c-3.5,0-6.3,2.9-6.3,6.3v29.1c0,13.9,9.1,25.8,21.6,30c1.1,1,2.6,1.7,4.3,1.7h1c0.8,0,1.6,0,2.4-0.1
		c0.8,0.1,1.6,0.1,2.4,0.1h1c1.6,0,3.1-0.6,4.3-1.7c12.5-4.3,21.6-16.1,21.6-30V8.2C65.3,4.7,62.4,1.9,59,1.9z"/>
</g>
<g id="DETAIL">
	<g>
		<g>
			<path style="fill:#100F0D;" d="M24.1,59.4l-5.5,5.5c-0.9,0.9-2.3,0.9-3.2,0l0,0c-0.9-0.9-0.9-2.3,0-3.2l5.5-5.5
				c0.9-0.9,2.3-0.9,3.2,0l0,0C25,57.1,25,58.5,24.1,59.4z"/>
			<path style="fill:#100F0D;" d="M47.9,59.4l5.5,5.5c0.9,0.9,2.3,0.9,3.2,0l0,0c0.9-0.9,0.9-2.3,0-3.2l-5.5-5.5
				c-0.9-0.9-2.3-0.9-3.2,0l0,0C47,57.1,47,58.5,47.9,59.4z"/>
		</g>
		<g>
			<path style="opacity:0.15;fill:#DFDFDF;enable-background:new    ;" d="M65.3,7.7c0-3.5-2.9-6.3-6.3-6.3h-3.5l-7.6,11.9V36
				l12.7,12.7l3.6-3.3l0,0l1.1-6.1c0.1-0.8,0.1-1.6,0.1-2.4L65.3,7.7L65.3,7.7z"/>
		</g>
		<g>
			<path style="opacity:0.15;fill:#DFDFDF;enable-background:new    ;" d="M6.7,7.7c0-3.5,2.9-6.3,6.3-6.3h3.5l7.6,11.9V36
				L11.5,48.5l-3.6-3.3l0,0l-1.1-6.1c-0.1-0.8-0.1-1.6-0.1-2.4C6.7,36.7,6.7,7.7,6.7,7.7z"/>
		</g>
		<g>
			<g>
				<path style="fill:#100F0D;" d="M22.7,6.4v33.9H21V8.1C21,7.2,21.8,6.4,22.7,6.4 M25,4.1L25,4.1c-3.5,0-6.4,2.9-6.4,6.4v29.8
					l0.9,1.2l1.4,1.1h1.7H25v-2.3V6.4V4.1L25,4.1z"/>
			</g>
			<g>
				<path style="fill:#100F0D;" d="M49.3,6.4c1,0,1.7,0.8,1.7,1.7v32.2h-1.7V6.4 M49.3,4.1H47v2.3v33.9v2.3h2.3H51l1.6-1.6l0.8-0.7
					V8.1C53.4,5.9,51.5,4.1,49.3,4.1L49.3,4.1z"/>
			</g>
		</g>
		<g>
			<path style="fill:#100F0D;" d="M39.4,69.8h-1c-0.7,0-1.5,0-2.4-0.1c-0.9,0.1-1.7,0.1-2.4,0.1h-1c-1.8,0-3.6-0.7-5-1.8
				C14.3,63.3,5.4,50.8,5.4,36.7v-29C5.4,3.4,8.8,0,13,0h8.1c2.5,0,4.5,2,4.5,4.5V41c0,5.7,4.6,10.4,10.3,10.5
				c5.7-0.1,10.3-4.8,10.3-10.5V4.5c0-2.5,2-4.5,4.5-4.5H59c4.2,0,7.7,3.4,7.7,7.7v29.1c0,14.1-8.9,26.6-22.2,31.2
				C43,69.1,41.2,69.8,39.4,69.8z M36,67L36,67c1,0.1,1.7,0.1,2.4,0.1h1c1.2,0,2.4-0.5,3.4-1.3l0.2-0.2l0.3-0.1
				C55.7,61.3,64,49.7,64,36.7v-29c0-2.8-2.2-5-5-5h-8.1c-1,0-1.9,0.9-1.9,1.9V41c0,7.1-5.8,13-12.9,13.2c-7.2-0.1-13-6-13-13.2V4.5
				c0-1-0.9-1.9-1.9-1.9H13c-2.8,0-5,2.2-5,5v29.1c0,13,8.3,24.6,20.7,28.8l0.3,0.1l0.2,0.2c0.9,0.9,2.1,1.3,3.4,1.3h1
				C34.3,67.1,35,67.1,36,67L36,67z"/>
		</g>
		<g>
			<path style="fill:#DFDFDF;" d="M14,37.3h-3V8.8c0-1.7,1.3-3,3-3l0,0V37.3z"/>
			<path style="fill:#DFDFDF;" d="M58,37.3h3V8.8c0-1.7-1.3-3-3-3l0,0V37.3z"/>
		</g>
		<g>
			<path style="fill:#100F0D;" d="M16.5,21.3c-10.8,10.8-10.8,28.3,0,39.1s28.3,10.8,39.1,0s10.8-28.3,0-39.1S27.3,10.5,16.5,21.3z
				 M50.3,55.1c-7.9,7.9-20.7,7.9-28.5,0s-7.9-20.7,0-28.5s20.7-7.9,28.5,0S58.2,47.2,50.3,55.1z"/>
			<g>
				<path style="fill:#2E2B28;" d="M57.3,39.6C56.7,28.4,47.4,19.5,36,19.5s-20.7,9-21.3,20.2H9.6c0.6-14,12.2-25.3,26.4-25.3
					s25.8,11.2,26.4,25.3h-5.1C57.3,39.7,57.3,39.6,57.3,39.6z"/>
				<path style="fill:#100F0D;" d="M36,15.5c13.2,0,24,10.1,25.2,22.9h-2.8C57.2,27.1,47.6,18.3,36,18.3s-21.2,8.9-22.4,20.2h-2.8
					C12,25.6,22.8,15.5,36,15.5L36,15.5z M36,13.2c-15.3,0-27.6,12.4-27.6,27.6h7.5c0-11.1,9-20.2,20.2-20.2s20.2,9,20.2,20.2h7.5
					C63.6,25.6,51.3,13.2,36,13.2L36,13.2z"/>
			</g>
		</g>
		<rect x="21.2" y="63.1" style="fill:#100F0D;" width="29.7" height="6.5"/>
		<g>
			<path style="fill:#2E2B28;" d="M29.5,64.3v-5c0-3.6,2.9-6.5,6.5-6.5l0,0c3.6,0,6.5,2.9,6.5,6.5v5c0,3.6-2.9,6.5-6.5,6.5l0,0
				C32.4,70.8,29.5,67.9,29.5,64.3z"/>
			<path style="fill:#100F0D;" d="M37.4,54c2.2,0,4,1.8,4,4v6.3c0,2.9-2.4,5.3-5.3,5.3l0,0c-2.9,0-5.3-2.4-5.3-5.3v-5
				c0-2.9,2.4-5.3,5.3-5.3L37.4,54 M37.4,51.7H36c-4.2,0-7.7,3.5-7.7,7.7v5c0,4.2,3.5,7.7,7.7,7.7l0,0c4.2,0,7.7-3.5,7.7-7.7V58
				C43.7,54.5,40.8,51.7,37.4,51.7L37.4,51.7z"/>
		</g>
	</g>
	<g>
		<path style="fill:#2E2B28;" d="M36,57c-4.3,0-8.4-1.7-11.4-4.7c-3.1-3.1-4.7-7.1-4.7-11.4s1.7-8.4,4.7-11.4
			c3.1-3.1,7.1-4.7,11.4-4.7s8.4,1.7,11.4,4.7c3.1,3.1,4.7,7.1,4.7,11.4s-1.7,8.4-4.7,11.4C44.4,55.3,40.3,57,36,57z"/>
		<path style="fill:#100F0D;" d="M36,25.8c4,0,7.8,1.6,10.6,4.4c5.9,5.9,5.9,15.4,0,21.2c-2.8,2.8-6.6,4.4-10.6,4.4
			s-7.8-1.6-10.6-4.4c-5.9-5.9-5.9-15.4,0-21.2C28.2,27.4,32,25.8,36,25.8 M36,23.5c-4.4,0-8.9,1.7-12.3,5.1
			c-6.8,6.8-6.8,17.8,0,24.5c3.4,3.4,7.8,5.1,12.3,5.1s8.9-1.7,12.3-5.1c6.8-6.8,6.8-17.8,0-24.5C44.9,25.2,40.4,23.5,36,23.5
			L36,23.5z"/>
	</g>
	<path style="fill:#12100B;" d="M44.4,32.5c-4.6-4.6-12.1-4.6-16.7,0s-4.6,12.1,0,16.7s12.1,4.6,16.7,0S49,37.1,44.4,32.5z"/>
	<path style="fill:#DFDFDF;" d="M45.3,44.3H40v5.3c-2.4,1-5.1,1-7.4,0v-5.3h-5.3c-1-2.4-1-5.1,0-7.4h5.3v-5.3c2.4-1,5.1-1,7.4,0v5.3
		h5.3C46.3,39.2,46.3,41.9,45.3,44.3z"/>
</g>
</svg>
