<?xml version="1.0" encoding="utf-8"?>
<!-- Generator: Adobe Illustrator 21.0.0, SVG Export Plug-In . SVG Version: 6.00 Build 0)  -->
<svg version="1.1" id="Layer_1" xmlns="http://www.w3.org/2000/svg" xmlns:xlink="http://www.w3.org/1999/xlink" x="0px" y="0px"
	 viewBox="0 0 72 72" style="enable-background:new 0 0 72 72;" xml:space="preserve">
<g id="COLOUR">
	<g>
		<g>
			<g>
				<path style="fill:#1E70B5;" d="M55.2,25.1V38c0,2.5-1.6,4.9-4,5.8l-0.4,0.1v21.3h-6.1v5.5h-2.4c-12.6,0-22.8-10.2-22.8-22.8
					v-8.1v-0.1C19.2,38.2,19,36.6,19,35c0-8.7,5.4-15.7,13.5-18.9l0.4-1l6.3-4.1l2-3.3c0-0.1,0-0.3,0-0.4l3.9-6.2l-0.4,10.3
					c0,0,3.8,0.5,3.8,1.7v6.3H49C52.5,18.9,55.2,21.7,55.2,25.1z"/>
			</g>
		</g>
	</g>
</g>
<g id="DETAIL">
	<g>
		<path style="fill:#DFDFDF;" d="M40.8,8.5v3.6l-0.5,0.8l-1.8,2.9l-0.7,0.1c-0.5,0.1-1,0.2-1.5,0.3c-0.2-0.3-0.2-0.7-0.2-1V8.5
			c0-1.3,1.1-2.3,2.4-2.3c0.9,0,1.6,0.5,2,1.2c0.1,0.2,0.2,0.5,0.3,0.7C40.8,8.2,40.8,8.4,40.8,8.5z"/>
	</g>
	<path style="fill:#2E2B28;" d="M47.4,19.8c0,0,2.5-1.2,5.1,1.6s2,14,2,14s1.8,6.8-3.5,8.6s-1-8.6-1-8.6l-2-7.8L47.4,19.8z"/>
	<path style="fill:#2E2B28;" d="M44.1,64.9v5.4c0,0-9.6,2.1-17.3-5.6s-6.4-22.3-6.4-22.3l4.2,6.6c0,0,0.9,7.5,5.7,12
		C35.4,65.8,44.1,64.9,44.1,64.9z"/>
	<g>
		<g>
			<path style="fill:#100F0D;" d="M54.9,22.5c-0.6,1-0.9,2.1-0.9,3.3v12.9c0,1.2,0.3,2.3,0.9,3.3c0.6-1,0.9-2.1,0.9-3.3V25.8
				C55.8,24.6,55.5,23.5,54.9,22.5z"/>
			<path style="fill:#100F0D;" d="M54,25.8c0-1.2,0.3-2.3,0.9-3.3c-1.1-2-3.3-3.4-5.7-3.5v-5c0-1.5-1.2-2.7-2.7-2.7h-0.7V0l-5,8
				l-0.3,0.4l-1.7,2.8h-3.5c-1.5,0-2.7,1.2-2.7,2.7v1.6c-8.2,3.2-13.9,11.1-13.9,20.3c0,1.6,0.2,3.3,0.5,4.8v8.1
				C19.2,61.6,29.6,72,42.5,72h2.9v-5.5h6.1V45c1.5-0.6,2.7-1.6,3.4-3c-0.6-1-0.9-2.1-0.9-3.3V25.8z M47.9,35.4
				c0,4.3-3.5,7.8-7.8,7.8s-7.8-3.5-7.8-7.8s3.5-7.8,7.8-7.8S47.9,31.1,47.9,35.4z M32.5,18.6c0.9-0.4,1.9-0.8,2.8-1
				c0.3-0.1,0.6-0.2,1-0.2c0.5-0.1,1-0.2,1.5-0.3l0.7-0.1l1.8-2.9l0.5-0.8l1.3-2L43,9.8v15.5c-0.8-0.2-1.6-0.3-2.5-0.3
				c-5.9,0-10.7,4.8-10.7,10.6c0,5.4,4,9.8,9.1,10.5v8.4c-1.9-0.1-3.8-0.6-5.5-1.3c-2.8-1.1-5.3-2.9-7.3-5.1
				c-1.1-1.3-2.1-2.7-2.8-4.3c-1.2-2.5-1.9-5.3-1.9-8.2C21.5,28.2,26,21.6,32.5,18.6z M42.9,69.5h-0.4c-11.5,0-20.8-9.3-20.8-20.8
				v-1.8c0.5,0.8,1,1.6,1.7,2.4c0.3,9.5,8.1,17.2,17.8,17.2H43L42.9,69.5L42.9,69.5z M48.7,63.7h-7.6c-6.9,0-12.7-4.7-14.4-11
				c3.7,3,8.4,4.8,13.5,4.8h0.1c0.5,0,1,0,1.4-0.1c3.2-0.5,5.8-2.8,6.9-5.7L48.7,63.7L48.7,63.7z M53.3,38.7c0,1.4-0.7,2.7-1.8,3.5
				c0,0,0-1.9,0-5.7s-0.7-5-2.3-7.1v-7.9c2.3,0.1,4.1,2,4.1,4.3V38.7z"/>
		</g>
	</g>
	<g>
		<path style="fill:#100F0D;" d="M40.1,27.6c-4.3,0-7.8,3.5-7.8,7.8s3.5,7.8,7.8,7.8s7.8-3.5,7.8-7.8C47.9,31.1,44.4,27.6,40.1,27.6
			z"/>
	</g>
	<circle style="fill:#2E2B28;" cx="40.1" cy="35.4" r="7.8"/>
	<g>
		<path style="fill:#12100B;" d="M35.8,39.7c2.4,2.4,6.2,2.4,8.5,0c2.4-2.4,2.4-6.2,0-8.5c-2.4-2.4-6.2-2.4-8.5,0
			C33.5,33.5,33.5,37.3,35.8,39.7z M37.2,38.3c-1.6-1.6-1.6-4.1,0-5.7c1.6-1.6,4.1-1.6,5.7,0c1.6,1.6,1.6,4.1,0,5.7
			C41.4,39.9,38.8,39.9,37.2,38.3z"/>
	</g>
	<g>
		
			<ellipse transform="matrix(0.7071 -0.7071 0.7071 0.7071 -13.2767 38.7094)" style="fill:#DFDFDF;" cx="40.1" cy="35.4" rx="4" ry="4"/>
	</g>
	<g>
		<path style="fill:#DFDFDF;" d="M34,51.1c-5.7-2.2-9.7-7.3-10.3-13.3c-0.5-4.3,0.8-8.5,3.6-11.9s6.7-5.5,11.1-6l0.3,2.6
			c-3.7,0.4-7,2.2-9.3,5s-3.4,6.4-3,10c0.5,5,3.9,9.3,8.6,11.2L34,51.1z"/>
	</g>
</g>
</svg>
