<?xml version="1.0" encoding="utf-8"?>
<!-- Generator: Adobe Illustrator 21.0.0, SVG Export Plug-In . SVG Version: 6.00 Build 0)  -->
<svg version="1.1" id="Layer_1" xmlns="http://www.w3.org/2000/svg" xmlns:xlink="http://www.w3.org/1999/xlink" x="0px" y="0px"
	 viewBox="0 0 72 72" style="enable-background:new 0 0 72 72;" xml:space="preserve">
<g id="COLOUR">
	<g>
		<path style="fill:#1E70B5;" d="M63.2,23.1h-1v3.5h-1.9v-7.4l-7.4-7.4h-4.6l-0.1-0.1C46.6,10.1,45,8.5,43,6.5H29l-5.3,5.3h-4.6
			l-7.4,7.4v7.4H9.8v-3.5h-1c-4.7,0-8.5,3.8-8.5,8.5v8.7c0,4.7,3.8,8.5,8.5,8.5h1v-3.5h1.9v7.4l7.4,7.4h4.7l0.2,0.2
			c0.1,0.1,0.1,0.1,0.2,0.2c1.4,1.4,2.9,2.9,4.6,4.6l0.3,0.3H43c2-2,3.6-3.6,5.2-5.2l0.1-0.1h4.6l7.4-7.4v-7.4h1.9v3.5h1
			c4.7,0,8.5-3.8,8.5-8.5v-8.7C71.7,27,67.9,23.1,63.2,23.1z"/>
	</g>
</g>
<g id="DETAIL">
	<g style="opacity:0.14;">
		<circle style="fill:#DFDFDF;" cx="36" cy="36" r="11.6"/>
	</g>
	<g>
		<path style="fill:#2E2B28;" d="M21,14.9V57c0,0-8.2-6.4-8.2-6.8c0-0.3,0-30.6,0-30.6L21,14.9z"/>
		<path style="fill:#2E2B28;" d="M51,14.9V57c0,0,8.2-6.4,8.2-6.8c0-0.3,0-30.6,0-30.6L51,14.9z"/>
	</g>
	<g>
		<path style="fill:#12100B;" d="M63.2,22.9h-1.3v3.5h-1.4v-7.2c-2.9-2.9-4.6-4.6-7.5-7.5h-4.6c-1.6-1.6-3.3-3.3-5.3-5.3H28.9
			c-1.9,1.9-3.5,3.5-5,5l-0.3,0.3H19c-2.9,2.9-4.6,4.6-7.5,7.5v7.2h-1.4v-3.5H8.8c-4.9,0-8.8,3.9-8.8,8.8v8.7c0,4.9,3.9,8.8,8.8,8.8
			h1.3v-3.5h1.4v7.2c2.9,2.9,4.6,4.6,7.5,7.5h4.7c0.1,0.1,0.2,0.2,0.3,0.3c1.5,1.5,3.1,3.1,5,5h14.1c2-2,3.7-3.7,5.3-5.3H53
			c2.9-2.9,4.6-4.6,7.5-7.5v-7.2h1.4v3.5h1.3c4.9,0,8.8-3.9,8.8-8.8v-8.7C72,26.8,68.1,22.9,63.2,22.9z M7.5,46.5
			c-2.9-0.6-5-3.1-5-6.2v-8.7c0-3,2.2-5.6,5-6.2V46.5z M30,8.9h12l2.8,2.8H27.2L30,8.9z M20.4,55.3c-0.1-0.1-0.2-0.1-0.3-0.2
			c-0.4-0.3-0.7-0.5-1.1-0.8c-1.4-1-2.9-2-4.4-3.3c-0.3-0.2-0.6-0.5-0.9-0.7V21.7c0.3-0.3,0.6-0.5,0.9-0.7c1.5-1.2,3-2.3,4.4-3.3
			c0.4-0.3,0.7-0.5,1.1-0.8c0.1-0.1,0.2-0.1,0.3-0.2V55.3z M42,63.1H30c-1-1-1.9-1.9-2.8-2.8h17.6C43.9,61.2,43,62.1,42,63.1z
			 M49.4,46.6c-3.1,3.9-8,6.5-13.4,6.5s-10.2-2.5-13.4-6.5V25.4c3.1-3.9,8-6.5,13.4-6.5s10.2,2.5,13.4,6.5V46.6z M58.3,50.3
			c-0.3,0.3-0.6,0.5-0.9,0.7c-1.5,1.2-3,2.3-4.4,3.3c-0.4,0.3-0.7,0.5-1.1,0.8c-0.1,0.1-0.2,0.1-0.3,0.2V16.7
			c0.1,0.1,0.2,0.1,0.3,0.2c0.4,0.3,0.7,0.5,1.1,0.8c1.4,1,2.9,2,4.4,3.3c0.3,0.2,0.6,0.5,0.9,0.7V50.3z M69.5,40.3
			c0,3-2.2,5.6-5,6.2v-21c2.9,0.6,5,3.1,5,6.2V40.3z"/>
	</g>
	<g>
		<path style="fill:#12100B;" d="M36,28.2c-4.3,0-7.8,3.5-7.8,7.8s3.5,7.8,7.8,7.8s7.8-3.5,7.8-7.8S40.3,28.2,36,28.2z M36,41.2
			c-2.9,0-5.2-2.3-5.2-5.2s2.3-5.2,5.2-5.2s5.2,2.3,5.2,5.2S38.9,41.2,36,41.2z"/>
	</g>
	<g>
		<circle style="fill:#DFDFDF;" cx="36" cy="36" r="5.2"/>
	</g>
	<g>
		<g>
			<path style="fill:#DFDFDF;" d="M36,50.9c-4.1,0-8.3-1.6-11.4-4.7l1.1-1.1c5.7,5.7,15,5.7,20.7,0l1.1,1.1
				C44.3,49.3,40.1,50.9,36,50.9z"/>
		</g>
		<g>
			<path style="fill:#DFDFDF;" d="M46.3,26.9c-5.7-5.7-15-5.7-20.7,0l-1.1-1.1c6.3-6.3,16.5-6.3,22.8,0L46.3,26.9z"/>
		</g>
	</g>
	<g>
		<g style="opacity:0.15;">
			<polygon style="fill:#DFDFDF;" points="55.1,50.2 56.6,49.1 56.6,22.9 55.1,21.8 			"/>
		</g>
		<g style="opacity:0.15;">
			<polygon style="fill:#DFDFDF;" points="16.9,50.2 15.4,49.1 15.4,22.9 16.9,21.8 			"/>
		</g>
	</g>
	<g>
		<path style="fill:#DFDFDF;" d="M66.8,42L66.8,42V30l0,0c0.7,0,1.3,0.6,1.3,1.3v9.6C68,41.5,67.5,42,66.8,42z"/>
		<path style="fill:#DFDFDF;" d="M5.2,42L5.2,42V29.9l0,0C4.5,30,4,30.5,4,31.2v9.6C4,41.5,4.5,42,5.2,42z"/>
	</g>
</g>
</svg>
