<?xml version="1.0" encoding="utf-8"?>
<!-- Generator: Adobe Illustrator 21.0.0, SVG Export Plug-In . SVG Version: 6.00 Build 0)  -->
<svg version="1.1" id="Layer_1" xmlns="http://www.w3.org/2000/svg" xmlns:xlink="http://www.w3.org/1999/xlink" x="0px" y="0px"
	 viewBox="0 0 72 72" style="enable-background:new 0 0 72 72;" xml:space="preserve">
<g id="COLOUR">
	<g>
		<g>
			<g>
				<g>
					<g>
						<path style="fill:#1E70B5;" d="M64.1,1v66.5c0,1.6-1.3,2.9-2.9,2.9c-1.6,0-2.9-1.3-2.9-2.9v-6.1l-1.8,1.8
							c-3.8,3.8-8.7,6.2-14,7h-0.1c-4.3,1-8.6,1-12.9,0h-0.1c-5.3-0.8-10.1-3.2-14-7l-1.8-1.7v6.1c0,1.6-1.3,2.9-2.9,2.9
							s-2.9-1.3-2.9-2.9V1h5.6C16.5,1,19,3.5,19,6.6v3l0.9,0.1c1.4,0.2,2.7,0.9,3.7,1.8c1.2,1.2,1.9,2.9,1.9,4.6V29l0.7,0.2
							c2.9,0.9,5.4,2.7,7.2,5.1l0.3,0.4h4.5l0.3-0.4c1.8-2.4,4.3-4.2,7.2-5.1l0.7-0.2V16.2c0-1.8,0.7-3.4,1.9-4.6
							c1-1,2.3-1.6,3.7-1.8l1-0.2v-3C53,3.5,55.5,1,58.5,1H64.1z"/>
					</g>
				</g>
			</g>
		</g>
	</g>
</g>
<g id="DETAIL">
	<g>
		<path style="fill:#2E2B28;" d="M17,39.7c0,0,0,4.2,0,10.1c0,6,6,15.2,19.7,15.2S55,52.8,55,50.4s0-10.7,0-10.7H17z M35.9,60.4
			c-12.6,0-15-13.6-15-13.6h30C50.9,46.8,48.5,60.4,35.9,60.4z"/>
	</g>
	<g>
		
			<rect x="7.7" y="56.5" transform="matrix(0.9025 -0.4307 0.4307 0.9025 -23.7012 12.0142)" style="fill:#2E2B28;" width="14" height="3.7"/>
		
			<rect x="55.4" y="51.4" transform="matrix(0.4095 -0.9123 0.9123 0.4095 -19.5056 86.6991)" style="fill:#2E2B28;" width="3.7" height="14"/>
	</g>
	<rect x="28.6" y="47.1" style="opacity:0.15;fill:#DFDFDF;enable-background:new    ;" width="14.8" height="12.3"/>
	<g>
		<path style="fill:#DFDFDF;" d="M13.2,7.2v36.7h-2.1V5.2C12.3,5.2,13.2,6.1,13.2,7.2z"/>
		<path style="fill:#DFDFDF;" d="M60.9,5.2V44h-2.1V7.2C58.8,6.1,59.7,5.2,60.9,5.2z"/>
	</g>
	<g>
		<g>
			<g>
				<g>
					<path style="fill:#100F0D;" d="M58.5,0c-3.6,0-6.6,3-6.6,6.6v2.1c-1.6,0.2-3.1,1-4.3,2.1c-1.4,1.4-2.2,3.3-2.2,5.4v12.1
						c-3.1,0.9-5.8,2.9-7.7,5.5h-3.4c-1.9-2.6-4.6-4.5-7.7-5.5V16.2c0-2.1-0.9-4-2.2-5.4c-1.1-1.1-2.6-1.9-4.3-2.1V6.6
						c0-3.6-3-6.6-6.6-6.6H6.9v67.6c0,2.2,1.8,3.9,3.9,3.9c2.2,0,3.9-1.8,3.9-3.9V64c3.9,3.8,8.9,6.4,14.5,7.3
						c2.1,0.5,4.4,0.8,6.7,0.8s4.5-0.3,6.7-0.8c5.6-0.9,10.7-3.5,14.5-7.3v3.6c0,2.2,1.8,3.9,3.9,3.9c2.2,0,3.9-1.8,3.9-3.9V0H58.5z
						 M45.4,31.1c1.3-0.5,2.8-0.8,4.3-0.8c0.7,0,1.5,0.1,2.2,0.2v3.3H41.2C42.4,32.6,43.8,31.7,45.4,31.1z M31.4,50.9
						c0.3,0.3,0.7,0.5,1.1,0.8c0.4,0.2,0.8,0.4,1.2,0.6c0.7,0.3,1.5,0.4,2.3,0.4s1.6-0.1,2.3-0.4c0.4-0.2,0.8-0.3,1.2-0.6
						c0.4-0.2,0.7-0.5,1.1-0.8c0.3-0.3,0.6-0.6,0.9-0.9c0.3-0.3,0.5-0.7,0.7-1l0.1-0.1h6.3c-0.6,2-1.7,3.9-3.1,5.3
						c-0.3,0.3-0.7,0.7-1.1,1c-0.4,0.3-0.8,0.6-1.2,0.9c-0.1,0.1-0.2,0.1-0.3,0.2c-2,1.2-4.3,1.9-6.8,1.9s-4.8-0.7-6.8-1.9
						c-0.1-0.1-0.2-0.1-0.3-0.2c-0.4-0.3-0.8-0.6-1.2-0.9c-0.4-0.3-0.7-0.6-1.1-1c-1.4-1.5-2.5-3.3-3.1-5.3h6.3c0,0,0,0.1,0.1,0.1
						c0.2,0.4,0.4,0.7,0.7,1C30.8,50.3,31.1,50.6,31.4,50.9z M20.1,30.5c0.7-0.1,1.4-0.2,2.2-0.2c1.5,0,3,0.3,4.3,0.8
						c1.6,0.6,3,1.5,4.3,2.7H20.1V30.5z M17.6,41.6h12.8c-0.8,1.1-1.2,2.3-1.3,3.7h-9.8l0.5,2.7c0.5,2.6,1.5,4.9,3,6.9
						c0.3,0.4,0.7,0.8,1,1.2c0.4,0.4,0.7,0.8,1.2,1.1c3,2.7,6.9,4.3,11.1,4.3s8.1-1.6,11.1-4.3c0.4-0.4,0.8-0.7,1.2-1.2
						c0.4-0.4,0.7-0.8,1-1.2c1.5-2,2.5-4.3,3-6.9l0.5-2.7h-9.8c-0.1-1.4-0.5-2.7-1.3-3.7h12.8v4.1c0,0.6,0,1.2-0.1,1.7
						c-0.2,2.6-1,5.1-2.3,7.3c0,0.1-0.1,0.1-0.1,0.2c-0.2,0.4-0.5,0.8-0.8,1.3l0,0c-0.1,0.2-0.3,0.4-0.4,0.6
						c-0.2,0.3-0.4,0.5-0.7,0.8c-0.5,0.6-1.1,1.2-1.6,1.7c-3.4,3.1-7.8,4.8-12.4,4.8s-9-1.7-12.4-4.8c-0.6-0.5-1.1-1.1-1.6-1.7
						c-0.2-0.3-0.4-0.5-0.6-0.8c-0.1-0.2-0.3-0.4-0.4-0.6l0,0c-0.3-0.4-0.5-0.8-0.8-1.3c0-0.1-0.1-0.1-0.1-0.2l0,0
						c-1.3-2.2-2-4.7-2.3-7.3c-0.1-0.5-0.1-1.1-0.1-1.7v-4H17.6z M9.5,2.6h4c2.2,0,4,1.8,4,4v27.2h-2.2v8.5H9.5V2.6z M12.2,67.6
						c0,0.7-0.6,1.3-1.3,1.3s-1.3-0.6-1.3-1.3v-1.9l2.7-1.1L12.2,67.6L12.2,67.6z M10.1,61.5v-2.3l1.2-0.5l2.1-0.9l3.1-1.3l1.4-0.6
						c0.2,0.4,0.5,0.9,0.8,1.3c0.1,0.2,0.2,0.4,0.4,0.5L10.1,61.5z M42.3,68.6h-0.2c-2,0.5-4.1,0.7-6.1,0.7s-4.1-0.2-6.1-0.7h-0.2
						c-4.8-0.7-9.1-2.8-12.7-6.2l4.5-1.9c3.7,3.6,8.8,5.9,14.5,5.9s10.7-2.2,14.5-5.9l4.5,1.9C51.4,65.8,47.1,67.9,42.3,68.6z
						 M52.9,57.7c0.1-0.2,0.3-0.4,0.4-0.5c0.3-0.4,0.5-0.8,0.8-1.3l1.4,0.6l3.1,1.3l2.1,0.9l1.2,0.5v2.3L52.9,57.7z M62.5,67.6
						c0,0.7-0.6,1.3-1.3,1.3s-1.3-0.6-1.3-1.3v-3l2.7,1.1v1.9H62.5z M62.5,42.3h-5.8v-8.5h-2.2V6.6c0-2.2,1.8-4,4-4h4V42.3z"/>
				</g>
			</g>
		</g>
	</g>
	<circle style="fill:#DFDFDF;" cx="36" cy="45.6" r="4.3"/>
</g>
</svg>
