<?xml version="1.0" encoding="utf-8"?>
<!-- Generator: Adobe Illustrator 21.0.0, SVG Export Plug-In . SVG Version: 6.00 Build 0)  -->
<svg version="1.1" id="Layer_1" xmlns="http://www.w3.org/2000/svg" xmlns:xlink="http://www.w3.org/1999/xlink" x="0px" y="0px"
	 viewBox="0 0 72 72" style="enable-background:new 0 0 72 72;" xml:space="preserve">
<g id="COLOUR">
	<path style="fill:#1E70B5;" d="M58.3,49l0.4-0.5c4.2-5.2,6.4-11.5,6.4-18.2c0-6.9-2.5-13.7-7-18.9l-0.2-0.2V5
		c-0.1-0.5-1.3-4.1-7.3-4.2l-11.7,17l-0.5-0.1c-1.5-0.3-3.2-0.3-4.8,0l-0.5,0.1l-11.7-17C15.5,1,14.3,4.5,14.1,5v6.1l-0.2,0.2
		c-4.5,5.3-7,12-7,18.9c0,6.7,2.2,13,6.4,18.2l0.4,0.5L6.1,58l7.8,6.5c6.6,4.3,14.2,6.6,22.1,6.6c8.1,0,15.9-2.4,22.6-6.9l0.6-0.4
		l0,0l6.8-5.7L58.3,49z M26,58.8c-1.3,1.3-2.3,2.9-3,4.6l-0.3,0.8l-0.8-0.3c-1.9-0.8-3.7-1.8-5.5-2.9l-0.8-0.5l4.8-5.7l0.6,0.4
		c1.5,0.9,3.1,1.7,4.7,2.3l1.2,0.4L26,58.8z M31.2,48.6l-1.1-0.4c-7.8-2.6-13-9.8-13-18c0-2.1,0.4-4.2,1.1-6.2l0.6-1.7l1.7,2.9
		l3,1.1L23.3,27c-0.4,1.2-0.5,2.4-0.5,3.7c0,5.3,3.1,10.1,8,12.2l0.5,0.2v5.5H31.2z M37.9,66h-3.7v-6.7h0.9c0.7,0,1.3,0,2,0H38V66
		H37.9z M37.9,49.1h-0.8c-0.4,0-0.7,0-1.1,0c-0.4,0-0.7,0-1.1,0h-0.8V44l0.9,0.1c0.6,0,1.4,0,1.9,0l0.9-0.1L37.9,49.1L37.9,49.1z
		 M40.8,48.6v-5.3l0.5-0.2c4.9-2.1,8-6.9,8-12.2c0-1-0.1-1.9-0.3-2.9l-0.2,0.1v-0.3h-0.5l0.8-1.6h0.4l2.1-0.7l1.7-2.9l0.6,1.7
		c0.7,2,1,4.1,1,6.2c0,8.2-5.2,15.4-13,18L40.8,48.6z M55.5,60.9C53.8,62,51.9,63,50,63.8l-0.8,0.3L49,63.4c-0.7-1.7-1.7-3.3-3-4.6
		l-0.9-0.9l1.2-0.5c1.6-0.6,3.2-1.4,4.7-2.3l0.6-0.4l4.7,5.6L55.5,60.9z"/>
</g>
<g id="DETAIL">
	<circle style="fill:#DFDFDF;" cx="36" cy="30.8" r="6.2"/>
	<g>
		
			<rect x="38.4" y="11.4" transform="matrix(0.5622 -0.827 0.827 0.5622 10.6579 45.0034)" style="opacity:0.15;fill:#DFDFDF;enable-background:new    ;" width="18.9" height="2.1"/>
		
			<rect x="23.1" y="2.9" transform="matrix(0.827 -0.5622 0.5622 0.827 -2.7983 15.6967)" style="opacity:0.15;fill:#DFDFDF;enable-background:new    ;" width="2.1" height="18.9"/>
	</g>
	<rect x="34.3" y="44.3" style="fill:#DFDFDF;" width="3.5" height="5"/>
	<rect x="34.3" y="58.6" style="fill:#DFDFDF;" width="3.5" height="11.2"/>
	<g>
		<path style="fill:#DFDFDF;" d="M30.9,13.8L23.3,2.7C27.4,4.9,30.3,9,30.9,13.8z"/>
		<path style="fill:#DFDFDF;" d="M48.7,2.7l-7.6,11.1C41.7,9,44.6,4.9,48.7,2.7z"/>
	</g>
	<g>
		<path style="fill:#100F0D;" d="M59.3,49c6.9-8.6,8.5-20.6,4.1-30.7c-1.2-2.7-2.8-5.3-4.7-7.5c0-1,0-2,0-2.9s0.1-2,0-2.9
			c-0.2-1.4-1.5-2.7-2.6-3.4C54.3,0.4,52.2,0,50.2,0c-1.3,2-2.7,3.9-4,5.9c-1.7,2.5-3.4,5-5.2,7.5c-0.8,1.2-1.6,2.4-2.5,3.6
			c-1.7-0.3-3.4-0.3-5.1,0c-1.3-1.9-2.6-3.8-3.9-5.7c-1.8-2.7-3.6-5.3-5.5-8c-0.7-1.1-1.5-2.2-2.2-3.2c-2.9,0-6.2,0.8-7.9,3.5
			C13.6,4,13.3,4.5,13.3,5c-0.1,0.8,0,1.6,0,2.4c0,1.2,0,2.3,0,3.5C6.2,19.1,4.1,31,8.1,41.2c1.1,2.8,2.6,5.4,4.5,7.8l-7.7,9.3
			l8,6.7v0.1c5.2,3.5,11.2,5.8,17.5,6.7c6.4,0.9,13.1,0.2,19.2-2c3.3-1.2,6.5-2.8,9.4-4.8v0l8.1-6.7L59.3,49z M51.6,2.8
			c1.5,0.2,3.1,0.7,4,1.9C56,5.3,56,5.6,56,6.3c0,2,0,4,0,5.9c0,0.6,0,1.2,0,1.7l-1.3,2.2c-1.7-2.1-4.8-1.9-6.3,0.3
			c-0.9,1.3-1.7,2.7-2.8,4c-1.2-1.1-2.7-2.1-4.2-2.7L51.6,2.8z M49.6,26.9L49.6,26.9L49.6,26.9L49.6,26.9l2.6-0.9l0.9-1.6
			c2.6,7.3,0,15.7-6.2,20.4c-1.6,1.2-3.3,2.1-5.2,2.7v-3.7C48.1,41,51.6,33.6,49.6,26.9z M31.1,20.5L31.1,20.5L31.1,20.5
			c3.1-1.5,6.7-1.5,9.8,0l0,0c3.8,1.9,6.5,5.8,6.5,10.1c0.1,3.7-1.7,7.2-4.7,9.4c-3.5,2.5-8.3,2.9-12.1,0.9c-3.2-1.7-5.5-4.9-6-8.6
			C24.1,27.5,26.7,22.6,31.1,20.5z M37,44.9v3.4c-0.7,0-1.4,0-2.1,0v-3.4C35.7,45,36.3,45,37,44.9z M17.9,30.3c0-2.1,0.4-4.1,1-5.9
			l0.9,1.6l2.6,0.9c-2,6.7,1.5,14.1,7.9,16.9v3.7C23.1,45.1,17.9,38.3,17.9,30.3z M16.1,5.3c0.7-1.7,2.7-2.3,4.4-2.5l10.2,14.9
			c-1.6,0.6-3,1.6-4.2,2.7c-1-1.2-1.9-2.6-2.8-4c-1.5-2.1-4.6-2.4-6.3-0.3l-1.3-2.2C16.1,13.9,16.1,5.3,16.1,5.3z M12.6,61.1
			l-3.8-3.2l5.7-6.8c1.2,1.2,2.4,2.3,3.8,3.3L12.6,61.1z M22.2,63.2c-1.9-0.8-3.7-1.8-5.4-2.9l3.7-4.4c1.5,0.9,3.2,1.7,4.9,2.4
			C24.1,59.7,23,61.3,22.2,63.2z M37,65.2h-2v-5c0.7,0,1.4,0,2.1,0L37,65.2L37,65.2z M41.7,56.8c-8.6,1.8-17.7-0.7-24.1-6.6
			c-5.9-5.4-9.1-13.4-8.7-21.4c0.2-4.6,1.7-9.2,4.2-13.1l3.7,6.5c-3.1,7.4-1.6,16.2,3.8,22.1c5.6,6.1,14.5,8.4,22.4,5.6
			c4.1-1.5,7.6-4.2,10.1-7.7l0,0l0,0c4-5.8,4.9-13.4,2.1-19.9l3.7-6.5c3.7,5.8,5,12.8,3.7,19.5c-1.2,6.5-4.9,12.5-10.2,16.5
			C49.3,54.3,45.6,56,41.7,56.8z M49.7,63.1c-0.7-1.8-1.8-3.5-3.2-4.8c1.7-0.6,3.3-1.4,4.9-2.4l3.6,4.3
			C53.4,61.3,51.6,62.3,49.7,63.1z M53.7,54.4c1.4-1,2.6-2.1,3.8-3.3l5.7,6.8l-3.8,3.2L53.7,54.4z"/>
		<g>
			<path style="fill:#12100B;" d="M36,23.5c-3.1,0-5.9,2-6.9,4.9s-0.1,6.2,2.2,8.2c2.4,2,5.8,2.2,8.4,0.6c2.6-1.6,4-4.7,3.4-7.7
				C42.5,26,39.5,23.5,36,23.5z M36,35.7c-2,0-3.9-1.3-4.6-3.2c-0.7-1.9-0.1-4.2,1.5-5.5c1.6-1.3,3.9-1.5,5.6-0.4
				c1.7,1,2.7,3.1,2.3,5.1C40.4,34,38.3,35.7,36,35.7z"/>
		</g>
	</g>
	<g>
		<path style="fill:#DFDFDF;" d="M36,55.1c-13.6,0-24.6-11-24.6-24.6c0-1.7,0.2-3.4,0.5-5.1l1.6,0.3c-0.3,1.5-0.5,3.1-0.5,4.7
			c0,12.7,10.3,23,23,23s23-10.3,23-23c0-1.6-0.2-3.2-0.5-4.7l1.6-0.3c0.3,1.7,0.5,3.4,0.5,5.1C60.6,44.1,49.6,55.1,36,55.1z"/>
	</g>
</g>
</svg>
