<?xml version="1.0" encoding="utf-8"?>
<!-- Generator: Adobe Illustrator 21.0.0, SVG Export Plug-In . SVG Version: 6.00 Build 0)  -->
<svg version="1.1" id="Layer_1" xmlns="http://www.w3.org/2000/svg" xmlns:xlink="http://www.w3.org/1999/xlink" x="0px" y="0px"
	 viewBox="0 0 72 72" style="enable-background:new 0 0 72 72;" xml:space="preserve">
<g id="COLOUR">
	<g>
		<path style="fill:#1E70B5;" d="M63,62.8l-6-17.2l1.6-3.5l-4.4-12.5l-4.4-4.4l-8.4-24h-2.5v34.1l-1.3-0.2c-1.5-0.2-2.7-0.2-4.2,0
			L32,35.3V1.2h-2.5l-8.4,23.9l-4.4,4.4L12.4,42l1.6,3.5L7.9,62.9l-0.5,1l2.9,2.9l3.5,3.5l7.4-8l0.9,1.1c3.3,4,8.2,6.3,13.4,6.3
			s10.1-2.3,13.4-6.3l0.9-1.1l7.4,8l3.5-3.5l2.9-2.9L63,62.8z"/>
	</g>
</g>
<g id="DETAIL">
	<g>
		<polygon style="fill:#FFFFFF;" points="40.2,21 46.9,40.2 38.5,36 39.5,21 		"/>
		<polygon style="fill:#FFFFFF;" points="30.6,21 23.9,40.2 32.3,36 31.3,21 		"/>
		<polygon style="fill:#FFFFFF;" points="26.6,8.3 32.4,10 32.4,1.4 29,1.4 		"/>
		<polygon style="fill:#FFFFFF;" points="44.3,8.3 38.5,10 38.5,1.4 41.9,1.4 		"/>
		<path style="opacity:0.15;fill:#FFFFFF;enable-background:new    ;" d="M23.7,41.4c0,0-4.6,6-4.5,9.3c0,2.5,1.4,12.1,8.1,16.4
			c-1.8-1-3.5-2.4-4.8-4l-1.2-1.5l-7.4,8L8,63.8L8.4,63l6.1-17.4L12.9,42l3.5-10l0.2-0.1c3.6-2.5,7.7-4.2,12-5.1L23.7,41.4z"/>
		<path style="opacity:0.15;fill:#FFFFFF;enable-background:new    ;" d="M62.9,63.8l-5.8,5.8l-7.4-8L48.4,63
			c-3.2,3.9-7.9,6.1-13,6.1c14-0.4,15.9-13.7,15.9-18s-4.5-11-4.5-11l-4.9-13.5c4.4,0.9,8.6,2.6,12.4,5.1l0.2,0.1L58,42l-1.6,3.5
			l6.3,17.8L62.9,63.8z"/>
		<polygon style="fill:#2E2B28;" points="10.6,56.7 18.5,65.3 13.8,70.4 7.3,63.8 		"/>
		<polygon style="fill:#2E2B28;" points="52.9,64.9 60.7,56.7 63.2,63.8 57.1,69.9 		"/>
		<path style="fill:#2E2B28;" d="M31.3,36.8v4.5c0,0-6.9,2.5-6.9,10.2s6.9,11.8,6.9,11.8V68c0,0-12.1-1.2-12.1-16.4
			C19.2,38.6,31.3,36.8,31.3,36.8z"/>
		<path style="fill:#2E2B28;" d="M40.2,36.8v4.5c0,0,6.9,2.5,6.9,10.2s-6.9,11.8-6.9,11.8V68c0,0,12.1-1.2,12.1-16.4
			C52.2,38.6,40.2,36.8,40.2,36.8z"/>
		<g>
			<path style="fill:#DFDFDF;" d="M35.5,39c-1.6,0-3.2,0.3-4.6,0.8v2.4c1.4-0.7,3-1,4.6-1c1.4,0,2.8,0.3,4,0.8v-2.4
				C38.2,39.2,36.9,39,35.5,39z"/>
		</g>
		<circle style="fill:#FFFFFF;" cx="35.3" cy="52.1" r="4.8"/>
		<path style="fill:#DFDFDF;" d="M39.5,39.7V42c-1.2-0.5-2.6-0.8-4-0.8c-1.6,0-3.2,0.4-4.6,1v-2.4c1.4-0.5,3-0.8,4.6-0.8
			C36.9,39,38.2,39.2,39.5,39.7z"/>
		<path style="fill:#DFDFDF;" d="M39.5,62.3v2.4c-1.3,0.4-2.6,0.6-4,0.6c-1.6,0-3.2-0.3-4.6-0.8V62c1.4,0.7,3,1,4.6,1
			C36.9,63.1,38.2,62.8,39.5,62.3z"/>
		<g>
			<path style="fill:none;" d="M32.2,38.2v1.1v2.3v0.6c-4.1,1.4-7.1,5.4-7.1,10s3,8.5,7.1,10v0.2v2.3v1.4c1,0.2,2.1,0.4,3.2,0.4
				c1.1,0,2.1-0.1,3.2-0.4v-1.4v-2.3v-0.3c4.1-1.4,7.1-5.4,7.1-10s-3-8.5-7.1-10v-0.6v-2.3v-1.1c-1-0.2-2.1-0.4-3.2-0.4
				C34.3,37.8,33.3,37.9,32.2,38.2z M42.8,52.2c0,4.1-3.3,7.3-7.3,7.3c-4.1,0-7.3-3.3-7.3-7.3c0-4.1,3.3-7.3,7.3-7.3
				C39.5,44.8,42.8,48.1,42.8,52.2z"/>
			<polygon style="fill:none;" points="16.7,65.3 10.7,58.5 10.6,58.8 9.1,63.2 9,63.3 9,63.4 8.9,63.6 11.2,65.9 13.8,68.5 			"/>
			<path style="fill:none;" d="M40.2,23.4V35l1.6,1l0,0c1.1,0.4,2.2,1,3.2,1.6L40.2,23.4z"/>
			<circle style="fill:none;" cx="35.4" cy="52.2" r="4.6"/>
			<path style="fill:none;" d="M30.1,66.5v-1V64v-0.4C25.8,61.5,23,57,23,52.2s2.8-9.3,7.1-11.4V40v-1.2v-0.5
				c-5.6,2.3-9.5,7.8-9.5,14.1S24.4,64.2,30.1,66.5z"/>
			<path style="fill:none;" d="M26,37.7c1-0.7,2.1-1.2,3.2-1.6l0,0l1.6-1V23.4L26,37.7z"/>
			<path style="fill:none;" d="M50.3,52.4c0-6.3-3.9-11.8-9.5-14.1v0.5V40v0.8c4.3,2.1,7.1,6.5,7.1,11.4s-2.8,9.3-7.1,11.4V64v1.5v1
				C46.4,64.2,50.3,58.7,50.3,52.4z"/>
			<path style="fill:none;" d="M59.1,55.4l-3.2-9l-0.3-0.9l1.6-3.5l-4.1-11.8l-4.4-4.4l-0.2-0.5L42.3,7.6l-1.8-5.2h-0.4v12.3
				L49,41.4l0,0c2.3,3,3.7,6.7,3.7,10.7c0,3.3-0.9,6.4-2.5,9l1.2,1.3l0.8,0.9L59.1,55.4z"/>
			<polygon style="fill:none;" points="57.1,68.5 59.7,65.9 62,63.6 61.9,63.4 61.9,63.3 61.8,63.2 60.3,58.8 60.2,58.5 54.2,65.3 
							"/>
			<path style="fill:none;" d="M18.1,52.2c0-4.1,1.4-7.8,3.7-10.7l0,0l8.9-26.7V2.4h-0.4l-8,22.9l-0.2,0.5l-4.4,4.4l-4,11.8l1.6,3.5
				L15,46.4l-3.2,9l6.8,7.9l0.8-0.9l1.2-1.3C19,58.5,18.1,55.4,18.1,52.2z"/>
			<path style="fill:#100F0D;" d="M61.4,67.6l3.5-3.5l-0.8-1.8l-5.9-16.7l1.6-3.5l-4.6-13.2l-4.4-4.4L42.2,0h-4.6v7.5V34
				c-0.7-0.1-1.5-0.1-2.2-0.1s-1.5,0-2.2,0.1V7.5V0h-4.6L20,24.5l-4.4,4.4L11,42.1l1.6,3.5L6.8,62.4L6,64.1l3.5,3.5l4.4,4.4l7.3-7.9
				c3.5,4.3,8.7,6.7,14.3,6.7s10.8-2.4,14.3-6.7L57,72L61.4,67.6z M30.7,35l-1.6,1l0,0c-1.1,0.4-2.2,1-3.2,1.6l4.8-14.3V35z
				 M40.8,65.5V64v-0.4c4.3-2.1,7.1-6.5,7.1-11.4s-2.8-9.3-7.1-11.4V40v-1.1v-0.5c5.6,2.3,9.5,7.8,9.5,14.1c0,6.2-3.9,11.8-9.5,14.1
				V65.5z M38.6,38.2v1.1v2.3v0.6c4.1,1.4,7.1,5.4,7.1,10s-3,8.5-7.1,10v0.3v2.3v1.4c-1,0.2-2.1,0.4-3.2,0.4c-1.1,0-2.2-0.1-3.2-0.4
				v-1.4v-2.3v-0.2c-4.1-1.4-7.1-5.4-7.1-10s3-8.5,7.1-10v-0.6v-2.3v-1.1c1-0.2,2.1-0.4,3.2-0.4C36.5,37.8,37.6,37.9,38.6,38.2z
				 M20.6,52.4c0-6.3,3.9-11.8,9.5-14.1v0.5V40v0.7c-4.3,2.1-7.1,6.5-7.1,11.4s2.8,9.3,7.1,11.4V64v1.5v1
				C24.4,64.2,20.6,58.7,20.6,52.4z M41.7,36L41.7,36l-1.6-1V23.4l4.8,14.3C43.9,37,42.9,36.5,41.7,36z M13.8,68.5l-4.9-4.9l1.7-4.8
				l0.1-0.2l6,6.8l0,0L13.8,68.5z M19.4,62.5l-0.8,0.9l-6.8-7.9l3.2-9l0.3-0.9L13.7,42l4.1-11.8l4.4-4.4l0.2-0.5l8-22.9h0.4v12.3
				l-8.9,26.7l0,0c-2.3,3-3.7,6.7-3.7,10.7c0,3.3,0.9,6.4,2.5,9L19.4,62.5z M50.3,61.1c1.6-2.6,2.5-5.7,2.5-9
				c0-4.1-1.4-7.8-3.7-10.7l0,0l-8.9-26.7V2.4h0.4l1.8,5.2l6.2,17.7l0.2,0.5l4.4,4.4l4,11.8l-1.6,3.5l0.3,0.9l3.2,9l-6.8,7.9
				l-0.8-0.9L50.3,61.1z M54.1,65.4L54.1,65.4l6.1-6.8l0.1,0.2l1.7,4.8l-4.9,4.9L54.1,65.4z"/>
			<path style="fill:#100F0D;" d="M28.1,52.2c0,4.1,3.3,7.3,7.3,7.3c4.1,0,7.3-3.3,7.3-7.3c0-4.1-3.3-7.3-7.3-7.3
				C31.4,44.8,28.1,48.1,28.1,52.2z M40,52.2c0,2.5-2,4.6-4.6,4.6c-2.5,0-4.6-2-4.6-4.6c0-2.5,2-4.6,4.6-4.6
				C38,47.6,40,49.6,40,52.2z"/>
			<polygon style="fill:#2E2B28;" points="57.1,68.5 62,63.6 59.7,65.9 			"/>
			<polygon style="fill:#2E2B28;" points="61.8,63.2 61.9,63.3 61.9,63.4 62,63.6 60.3,58.8 			"/>
			<polygon style="fill:#2E2B28;" points="54.2,65.3 54.1,65.4 57.1,68.5 			"/>
			<polygon style="fill:#2E2B28;" points="11.2,65.9 8.9,63.6 13.8,68.5 			"/>
			<polygon style="fill:#2E2B28;" points="16.7,65.3 13.8,68.5 16.8,65.4 			"/>
			<polygon style="fill:#2E2B28;" points="9,63.4 9,63.3 9.1,63.2 10.6,58.8 8.9,63.6 			"/>
		</g>
		<g>
			<g>
				<polygon style="fill:#DFDFDF;" points="10.6,63.6 13.3,66.4 14.7,64.9 11.4,61.3 				"/>
			</g>
			<g>
				<polygon style="fill:#DFDFDF;" points="60.3,63.6 57.6,66.4 56.2,64.9 59.5,61.3 				"/>
			</g>
		</g>
	</g>
</g>
</svg>
