<?xml version="1.0" encoding="utf-8"?>
<!-- Generator: Adobe Illustrator 21.0.0, SVG Export Plug-In . SVG Version: 6.00 Build 0)  -->
<svg version="1.1" id="Layer_1" xmlns="http://www.w3.org/2000/svg" xmlns:xlink="http://www.w3.org/1999/xlink" x="0px" y="0px"
	 viewBox="0 0 72 72" style="enable-background:new 0 0 72 72;" xml:space="preserve">
<g id="COLOUR">
	<path style="fill:#1E70B5;" d="M55.2,4.2l-0.3-0.5C54,2,52.3,1,50.4,1c-0.3,0-0.6,0-0.9,0H21.7C20.3,1,19,1.5,18,2.4
		c-0.4,0.4-0.7,0.8-0.9,1.2l-0.3,0.5H9.1c0,0.5,0,0.9,0,1.4c0,1.6,0.8,3,2,3.9l0.4,0.3v41.5c0,1.7,0,3.4,0,5.1
		c0,6.9,5.1,13.1,11.9,14.3c0.6,0.1,1.2,0.2,1.7,0.2v-4.1l1.4,0.6c6.1,2.6,13,2.6,19.1,0l1.4-0.6V71c7-0.5,12.8-6.1,13.5-13.1
		c0.1-0.8,0.1-1.6,0.1-2.4V9.8L61,9.5c1.2-0.9,2-2.3,2-3.9c0-0.5,0-0.9,0-1.4H55.2z"/>
</g>
<g id="DETAIL">
	<path style="fill:#2E2B28;" d="M36,57.9L36,57.9c-5.9,0-10.8-4.8-10.8-10.8V31.3h21.5v15.8C46.8,53.1,41.9,57.9,36,57.9z"/>
	<path style="opacity:0.14;fill:#DFDFDF;enable-background:new    ;" d="M46.7,37.1v9.7c0,6-4.8,10.8-10.8,10.8l0,0
		c-6,0-10.8-4.8-10.8-10.8v-9.4c-2.1,2.5-3.3,5.7-3.3,9.1c0,7.9,6.4,14.3,14.3,14.3s14.3-6.4,14.3-14.3
		C50.3,42.9,48.9,39.6,46.7,37.1z"/>
	<polygon style="fill:#DFDFDF;" points="24.7,62.3 35.9,65.2 47.2,62.3 47.2,66.6 36.4,69.1 24.7,66.3 	"/>
	<circle style="fill:#DFDFDF;" cx="36" cy="46.1" r="6.9"/>
	<rect x="28.9" y="25.3" style="fill:#DFDFDF;" width="15" height="6.7"/>

		<linearGradient id="1111_1_" gradientUnits="userSpaceOnUse" x1="10.6" y1="5375.1201" x2="61.1642" y2="5375.1201" gradientTransform="matrix(1 0 0 1 0 -5368.52)">
		<stop  offset="0" style="stop-color:#212121"/>
		<stop  offset="0.4973" style="stop-color:#666666"/>
		<stop  offset="1" style="stop-color:#212121"/>
	</linearGradient>
	<path style="fill:url(#1111_1_);" d="M54.4,4.2H17.3c-3.8,0-6.7,0.3-6.7,0.6v3.6c0,0.4,3.1,0.6,6.7,0.6h37.1
		c3.8,0,6.7-0.3,6.7-0.6V4.8C61.2,4.5,58,4.2,54.4,4.2z"/>
	<g>
		
			<linearGradient id="1111_2_" gradientUnits="userSpaceOnUse" x1="18.044" y1="5387.02" x2="35.894" y2="5387.02" gradientTransform="matrix(1 0 0 1 0 -5368.52)">
			<stop  offset="0" style="stop-color:#212121"/>
			<stop  offset="0.4973" style="stop-color:#666666"/>
			<stop  offset="1" style="stop-color:#212121"/>
		</linearGradient>
		<path style="fill:url(#1111_2_);" d="M33.5,9.7H20.4c-1.4,0-2.4,1-2.4,2.3v13c0,1.3,1.1,2.3,2.4,2.3h13.1c1.4,0,2.4-1,2.4-2.3V12
			C35.9,10.7,34.9,9.7,33.5,9.7z"/>

			<linearGradient id="1111_3_" gradientUnits="userSpaceOnUse" x1="36.127" y1="5387.02" x2="53.9769" y2="5387.02" gradientTransform="matrix(1 0 0 1 0 -5368.52)">
			<stop  offset="0" style="stop-color:#212121"/>
			<stop  offset="0.4973" style="stop-color:#666666"/>
			<stop  offset="1" style="stop-color:#212121"/>
		</linearGradient>
		<path style="fill:url(#1111_3_);" d="M51.6,9.7H38.5c-1.4,0-2.4,1-2.4,2.3v13c0,1.3,1.1,2.3,2.4,2.3h13.1c1.4,0,2.4-1,2.4-2.3V12
			C54,10.7,52.9,9.7,51.6,9.7z"/>
	</g>
	<g>
		<path style="fill:#100F0D;" d="M55.7,3.2c-1.1-2-3.1-3.2-5.3-3.2c-0.5,0-0.9,0-1.4,0c-2.5,0-5,0-7.4,0c-3.3,0-6.7,0-10,0
			c-2.7,0-5.3,0-8,0c-0.6,0-1.2,0-1.9,0c-1.6,0-3.2,0.6-4.4,1.7c-0.4,0.4-0.8,0.9-1.1,1.4H8.1c0,0.8,0,1.6,0,2.4
			c0,1.8,0.9,3.6,2.4,4.7c0,2.4,0,4.7,0,7.1c0,5.2,0,10.4,0,15.5c0,5.3,0,10.6,0,15.8c0,2.6,0,5.1,0,7.7c0,7.4,5.4,13.9,12.6,15.3
			c1,0.2,1.9,0.3,2.9,0.3v-3.7c6.3,2.7,13.6,2.7,19.8,0V72c7.9,0,14.7-6.2,15.5-14c0.1-1,0.1-2,0.1-3c0-1.6,0-3.2,0-4.7
			c0-5.1,0-10.2,0-15.3c0-5.3,0-10.7,0-16c0-2.8,0-5.7,0-8.5v-0.1c1.5-1.1,2.4-2.8,2.4-4.7c0-0.8,0-1.6,0-2.4L55.7,3.2L55.7,3.2z
			 M23.7,69.3c-3.6-0.7-6.7-2.8-8.7-5.9c-1.4-2.2-2-4.6-2-7.2c0-2.7,0-5.3,0-8c0-4.9,0-9.8,0-14.8c0-4.9,0-9.7,0-14.6
			c0-2.5,0-5,0-7.6v-0.1c0.7,0.1,1.5,0.1,2.2,0.1c0,1.5,0,3.1,0,4.6c0,3.5,0,7,0,10.5c0,3.9,0,7.8,0,11.7c0,2.7,0,5.3,0,8
			c0,0.6,0,1.1,0,1.7c0.1,3.1,1.3,6.2,3.3,8.6c0.5,0.6,1,1.1,1.6,1.7l0,0c1,1.4,2.3,2.7,3.6,3.7V69.3z M39.1,26.4
			c-0.9,0-1.7-0.5-2.1-1.4c-0.2-0.5-0.2-1-0.2-1.5h11.5l0,0l0,0h4.2c0,0.8,0,1.5-0.6,2.1c-0.5,0.5-1.1,0.8-1.8,0.8
			c-0.6,0-1.3,0-1.9,0c-2.4,0-4.8,0-7.2,0C40.4,26.4,39.8,26.4,39.1,26.4z M50.3,28.1v4.3c-0.7-0.8-1.5-1.5-2.4-2.1v-2.2H50.3z
			 M21.7,28.1h2.4v2.2c-0.9,0.6-1.7,1.3-2.4,2.1V28.1z M21.7,26.4c-0.8,0-1.6-0.4-2-1.1c-0.3-0.5-0.3-1.1-0.3-1.7h4.2l0,0l0,0h11.5
			c0,0.7,0,1.3-0.4,1.8c-0.4,0.7-1.2,1-2,1c-0.6,0-1.2,0-1.9,0c-2.4,0-4.9,0-7.3,0C23,26.4,22.4,26.4,21.7,26.4z M35.2,11.3V13H19.3
			v-1.7c4.6,0,9.2,0,13.8,0C33.8,11.3,34.5,11.3,35.2,11.3z M33.1,30.7c-0.9,0-1.8-0.4-2.3-1.1l0,0c-0.4-0.5-0.6-1.2-0.6-1.8
			c3,0,5.9,0,8.9,0c0.9,0,1.8,0,2.8,0c0,1.5-1.2,2.8-2.8,2.9c-0.5,0-1.1,0-1.6,0C36,30.7,34.6,30.7,33.1,30.7z M38.1,40.8
			c2,0.8,3.5,2.7,3.7,4.9c0.2,2.5-1.3,5-3.7,5.9s-5.1,0.2-6.7-1.9c-1.5-1.9-1.6-4.7-0.3-6.7C32.6,40.8,35.6,39.8,38.1,40.8z
			 M35.2,14.6v2.8H19.3v-2.8C19.3,14.6,35.2,14.6,35.2,14.6z M35.2,19.1V22H19.3v-2.8h15.9C35.2,19.2,35.2,19.1,35.2,19.1z
			 M26.3,32.3c1.2,1.3,2.8,2.3,4.6,2.6c1,0.2,2,0.1,3,0.1v3.6c-2.7,0.8-4.9,3-5.6,5.8c-0.7,3.1,0.5,6.3,3,8.2c2.4,1.7,5.7,2,8.3,0.6
			c2.8-1.5,4.4-4.5,4.1-7.7c-0.3-3.2-2.6-6-5.7-6.9V35c0.6,0,1.2,0,1.8,0c1.4-0.1,2.7-0.5,3.9-1.2l0,0c0.7-0.4,1.3-1,1.9-1.6
			c0,3,0,6,0,8.9c0,1.6,0,3.2,0,4.8c0,2.1-0.4,4.1-1.5,5.9c-1.6,2.4-4.2,4.1-7.1,4.4c-2.9,0.3-5.9-0.7-8-2.8c-1.9-1.9-2.9-4.4-2.9-7
			c0-1.3,0-2.6,0-3.9c0-3.4,0-6.8,0-10.2C26.3,32.4,26.3,32.4,26.3,32.3z M36.8,22v-2.8h15.8V22H36.8z M36.8,17.5v-2.8h15.8v2.8
			H36.8z M36.8,13v-1.7h15.8V13H36.8z M45.9,65.7c-6.2,3-13.6,3-19.8,0v-2.2c6.1,3.5,13.8,3.5,19.8,0V65.7z M45.9,60.6
			c-0.5,0.4-1.1,0.7-1.7,1.1l0,0c-5.1,2.7-11.3,2.7-16.4,0l0,0c-3.7-2-6.7-5.3-8.2-9.3s-1.5-8.6,0.1-12.6c0.9-2.4,2.4-4.6,4.3-6.3
			c0,3,0,6,0,9c0,1.4,0,2.7,0,4.1c0,2.9,0.9,5.6,2.8,7.8c4.1,4.9,11.7,5.6,16.7,1.6c2.7-2.2,4.2-5.5,4.3-8.9c0-1.1,0-2.1,0-3.2
			c0-3.4,0-6.7,0-10.1c0-0.1,0-0.2,0-0.2c6.3,5.5,7.2,15.5,2.7,22.4C49.3,57.7,47.8,59.3,45.9,60.6z M59,56.5
			c0,6.4-4.6,11.7-10.7,12.9v-7.5c1.4-1.1,2.6-2.3,3.6-3.7l0,0c2.3-2.1,3.9-4.9,4.6-7.9c0.2-1.2,0.3-2.4,0.3-3.6c0-2.4,0-4.8,0-7.2
			c0-3.8,0-7.7,0-11.5c0-3.6,0-7.3,0-10.9c0-1.9,0-3.7,0-5.6v-0.1c0.7,0,1.5,0,2.2-0.1C59,11.3,59,56.5,59,56.5z M59.5,6
			c-0.2,1.4-1.4,2.3-2.7,2.3c-0.6,0-1.2,0-1.8,0c-2.1,0-4.1,0-6.2,0c-2,0-4,0-6,0c-4.2,0-8.4,0-12.6,0c-2.1,0-4.1,0-6.2,0
			c-2,0-3.9,0-5.9,0c-0.8,0-1.7,0-2.5,0c-0.7,0-1.5,0-2.1-0.5c-0.7-0.5-1.1-1.3-1.1-2.1h47.2C59.6,5.8,59.6,5.9,59.5,6z"/>
	</g>
</g>
</svg>
