<?xml version="1.0" encoding="utf-8"?>
<!-- Generator: Adobe Illustrator 21.0.0, SVG Export Plug-In . SVG Version: 6.00 Build 0)  -->
<svg version="1.1" id="Layer_1" xmlns="http://www.w3.org/2000/svg" xmlns:xlink="http://www.w3.org/1999/xlink" x="0px" y="0px"
	 viewBox="0 0 72 72" style="enable-background:new 0 0 72 72;" xml:space="preserve">
<g id="COLOUR">
	<g>
		<path style="fill:#1E70B5;" d="M66.2,56.5c-0.1-2.1-0.7-4.2-1.8-6l-4.3,5.8L54,51.8l0.1-0.7c0.1-0.6,0.1-1.1,0.1-1.6
			c0-6.6-3.6-12.7-9.4-15.9l-0.3-0.2L44.3,33c-0.1-0.2-0.2-0.3-0.3-0.4c-0.3-0.3-0.6-0.4-1-0.5L42,32l-0.4-4.5l-1.1-15.9l0.3-0.4
			c0.6-0.8,0.9-1.7,0.9-2.7V5.3c0-1.1-0.4-2.2-1.2-3c-0.5-0.5-1.1-0.9-1.8-1.1v2.6h-5.2V1.3c-0.7,0.2-1.3,0.6-1.8,1.1
			c-0.8,0.8-1.2,1.9-1.2,3v3.3c0,1,0.3,1.9,0.9,2.7l0.3,0.4l-1.1,15.7l-0.4,4.7l-1,0.1c-0.6,0-1,0.4-1.3,0.9l-0.2,0.4l-0.3,0.2
			C21.6,37,18,43.1,18,49.7c0,0.5,0,1.1,0.1,1.6l0.1,0.7L12,56.5l-4.3-5.8c-1.1,1.8-1.7,3.8-1.8,6c-0.1,3.3,1,6.4,3.2,8.9
			c2.2,2.4,5.3,3.8,8.5,4c1.3,0.1,2.4-0.1,3.6-0.4l-2.5-3.5l3.6,1.2c0.9,0.3,1.8,0.5,2.8,0.5h0.8l0.3,0.7c0.6,1.6,2.2,2.7,3.9,2.7
			h12.1c1.1,0,2.2-0.4,2.9-1.2c0.4-0.4,0.7-0.9,0.9-1.5l0.3-0.7h0.8c1-0.1,1.9-0.2,2.8-0.5l3.6-1.2L50.9,69c1.2,0.3,2.4,0.4,3.6,0.4
			c3.3-0.1,6.3-1.6,8.5-4C65.2,62.9,66.4,59.8,66.2,56.5z"/>
	</g>
</g>
<g id="DETAIL">
	<g>
		<path style="opacity:0.14;fill:#DFDFDF;enable-background:new    ;" d="M42.9,37.5v2.2H29v-2.1c-4.2,2.4-7,6.9-7,12.1
			c0,7.7,6.2,13.9,13.9,13.9s13.9-6.2,13.9-13.9C49.9,44.4,47.1,39.9,42.9,37.5z"/>
		<rect x="35" y="14.9" style="opacity:0.14;fill:#DFDFDF;enable-background:new    ;" width="1.9" height="24.8"/>
		<polygon style="fill:#2E2B28;" points="50.2,60.6 43.3,67.7 48.4,67 52.5,66.3 54.5,63.3 		"/>
		<polygon style="fill:#2E2B28;" points="22.3,60.6 23.2,62.6 28.2,66.3 27.5,67.7 23,67.1 18.6,65.9 17.4,63.8 		"/>
		<path style="fill:#2E2B28;" d="M28.2,56.4c0,0,1.2,1.8,2,2c0.8,0.3,3.8,1.2,3.8,1.2V55l-3.1-1.6L28.2,56.4z"/>
		<polygon style="fill:#2E2B28;" points="37.6,55 41.1,53.5 43.8,56.2 41.8,58.6 38.3,59.6 37.6,59.1 		"/>
		<path style="fill:#2E2B28;" d="M30.2,38.2h11.6v7.4c-4.3-2.5-8.1-2.2-11.6,0C30.2,45.6,30.2,38.2,30.2,38.2z"/>
		<circle style="fill:#DFDFDF;" cx="36" cy="7.1" r="2.9"/>
		<circle style="fill:#DFDFDF;" cx="36" cy="49.6" r="5.1"/>
		
			<rect x="17.6" y="53.4" transform="matrix(0.8396 -0.5433 0.5433 0.8396 -25.8287 22.0539)" style="fill:#DFDFDF;" width="13.6" height="2.7"/>
		
			<rect x="46.2" y="47.9" transform="matrix(0.5433 -0.8396 0.8396 0.5433 -24.1697 64.9305)" style="fill:#DFDFDF;" width="2.7" height="13.6"/>
		<path style="fill:#100F0D;" d="M67.4,56.5c-0.1-3-1.3-5.8-3-8l-4.5,6.2l-4.6-3.4c0.6-7.6-3.2-15-9.9-18.7
			c-0.4-0.9-1.3-1.5-2.3-1.6c-0.5-5.4-0.8-10.7-1.2-16.1c-0.1-0.9-0.1-1.9-0.2-2.8c1.5-1.8,1.2-4.2,1.2-6.4c0-3.1-2.2-5.8-5.4-5.8
			v2.8h-2.8V0c-3.2,0-5.4,2.7-5.4,5.8c0,2.2-0.3,4.6,1.2,6.4c-0.4,5.1-0.7,10.1-1.1,15.2c-0.1,1.2-0.2,2.5-0.3,3.7
			c-1,0.1-1.9,0.7-2.3,1.6c-6.7,3.7-10.6,11.1-9.9,18.7l-4.6,3.4l-4.5-6.2c-3.9,4.8-4,11.8-0.3,16.7c3.6,4.8,10.2,6.7,15.8,4.4
			L22,67.9c1,0.3,2,0.5,3.1,0.6c0.8,2.1,2.8,3.4,5.1,3.5c1,0,2,0,2.9,0c2.9,0,5.9,0,8.8,0c2.3,0,4.5-1.2,5.4-3.5
			c1.1-0.1,2.1-0.3,3.1-0.6l-1.3,1.8C57.9,73.3,67.9,66.2,67.4,56.5z M45.6,42v-6.3c4.5,3.1,7.3,8.4,7.3,13.9
			c-1.1-0.8-2.1-1.6-3.2-2.3c-0.8-0.6-1.6-1.2-2.5-1.8c-0.2-0.2-0.6-0.4-0.8-0.6c-0.4-0.5-0.7-1.3-1.1-1.8
			C45.5,42.7,45.6,42.4,45.6,42z M43,50.6c3.2,2.1,6.4,4.3,9.6,6.4c-0.3,0.5-0.6,1-1,1.4c-2.9-1.9-5.8-3.9-8.7-5.8v-2H43z
			 M42.5,56.4L42.5,56.4c-1.1,1-2.3,1.7-3.7,2.2c0-0.8,0.1-1.7-0.1-2.5c0.6-0.3,1.2-0.6,1.8-1.1L42.5,56.4z M34.6,6.3
			c1.1-1.8,3.9-0.1,2.8,1.7C36.3,9.8,33.5,8.1,34.6,6.3z M31.3,32.1c0.5-5.2,0.9-10.5,1.4-15.7c0.1-0.8,0.1-1.6,0.2-2.4
			c0.5,0.2,1.1,0.3,1.7,0.3V11c0.9,0.3,1.9,0.3,2.8,0v3.3c0.6,0,1.1-0.1,1.7-0.3c0.5,5.3,0.9,10.5,1.4,15.8c0.1,0.8,0.1,1.6,0.2,2.4
			l0,0c-1.1,1.3-0.6,3.7-0.6,5.3c-2.5-1-5.6-1-8,0C32,35.8,32.4,33.4,31.3,32.1L31.3,32.1L31.3,32.1z M31,41.1
			c0-1.8,2.8-2.3,4.1-2.4c1.6-0.2,3.7,0,5,1.1c1.3,1,0.8,3.4,0.8,4.9c-2.7-2.7-7.2-2.7-9.9,0C31,44.7,31,41.1,31,41.1z M29.5,56.4
			l2-1.4c0.5,0.4,1.1,0.8,1.8,1.1c-0.2,0.8-0.1,1.7-0.1,2.5C31.8,58.1,30.6,57.4,29.5,56.4L29.5,56.4L29.5,56.4z M26.9,51.9
			c0.7-0.5,1.4-0.9,2.1-1.4v2.1c-2.9,1.9-5.8,3.9-8.7,5.8c-0.3-0.5-0.6-1-1-1.4C21.9,55.3,24.4,53.6,26.9,51.9z M19.1,49.6
			c0-5.8,2.9-10.9,7.3-13.9c0,1.2,0,2.3,0,3.5s-0.3,2.8,0.2,3.9c-0.4,0.5-0.6,1.4-1.1,1.8c-0.2,0.2-0.5,0.4-0.7,0.5
			c-0.8,0.6-1.7,1.2-2.5,1.9C21.2,48.1,20.2,48.9,19.1,49.6L19.1,49.6z M18.1,68.2c-3.1,0-6.1-1.3-8.1-3.6l0,0
			c-3-3.1-3.8-7.7-2.2-11.7c3,4.1,6,8.1,8.9,12.2c0.8,1,1.5,2.1,2.3,3.1C18.7,68.2,18.4,68.2,18.1,68.2z M25.6,66.5
			c-2.6,0-4.9-1-6.9-2.7c0.8-0.6,1.7-1.2,2.5-1.7c1.5,1.8,3.4,3.3,5.4,4.4H25.6z M25.9,63.1c-1-0.7-1.8-1.5-2.6-2.4
			c1.5-1,3-2.1,4.5-3.1c1.4,1.6,3.4,2.6,5.4,3.1c0,0.9,0,1.7,0,2.6c0,1-0.1,2.1,0.4,3C30.7,65.9,28.1,64.8,25.9,63.1z M31.6,49.6
			c0-2.4,2-4.4,4.4-4.4s4.5,2,4.5,4.4S38.5,54,36,54C33.6,54.1,31.6,52.1,31.6,49.6z M38.4,66.3c0.5-0.9,0.4-2,0.4-3
			c0-0.9,0-1.7,0-2.6c2-0.5,4.1-1.5,5.4-3.1c0,0,3,2.1,4.5,3.1C46.1,63.7,42.4,65.7,38.4,66.3z M47.4,66.5c-0.7,0.1-1.4,0.1-2.1,0.1
			c2.1-1.1,3.9-2.6,5.4-4.4c0.8,0.6,1.7,1.1,2.5,1.7C51.7,65.3,49.5,66.2,47.4,66.5z M64.8,59.4c-0.4,2-1.4,3.8-2.7,5.3l0,0
			c-2.3,2.5-5.7,3.8-9.1,3.5c2.9-4,5.9-8,8.8-12c0.8-1.1,1.6-2.2,2.4-3.3C65,55,65.2,57.2,64.8,59.4z"/>
	</g>
</g>
</svg>
