<svg xmlns="http://www.w3.org/2000/svg" width="1024" height="1024" viewBox="0 0 1024 1024">
  <path fill="#1E70B5" d="M512 408.353l-15.66 39.142c-23.452 4.417-44.906 18.657-57.774 40.945-12.867 22.286-14.46 47.98-6.56 70.498L405.92 592.08l41.718-6.008c6.076 7.08 13.426 13.27 21.963 18.2 35.926 20.74 80.714 12.207 106.752-18.2l41.727 6.01-26.067-33.125c13.315-37.754-1.69-80.81-37.614-101.553-8.54-4.93-17.58-8.197-26.75-9.918L512 408.353zm-.017 56.523l.017.01.017-.01c11.202-.006 22.56 2.838 32.958 8.842 31.545 18.212 42.356 58.552 24.144 90.097-18.214 31.545-58.553 42.356-90.098 24.144-10.404-6.008-18.55-14.426-24.144-24.136v-.01l-.01-.008c-11.36-19.73-12.192-44.81.01-65.944 12.202-21.135 34.336-32.96 57.102-32.986z"/>
</svg>
