<?xml version="1.0" encoding="utf-8"?>
<!-- Generator: Adobe Illustrator 21.0.0, SVG Export Plug-In . SVG Version: 6.00 Build 0)  -->
<svg version="1.1" id="DETAIL" xmlns="http://www.w3.org/2000/svg" xmlns:xlink="http://www.w3.org/1999/xlink" x="0px" y="0px"
	 viewBox="0 0 72 72" style="enable-background:new 0 0 72 72;" xml:space="preserve">
<path style="fill:#1E70B5;" d="M36,26.7l1.8,5l4.8-2.3l-2.3,4.8l5,1.8l-5,1.8l2.3,4.8l-4.8-2.3l-1.8,5l-1.8-5l-4.8,2.3l2.3-4.8
	l-5-1.8l5-1.8l-2.3-4.8l4.8,2.3L36,26.7 M36,10.2l-4.9,13.9l-13.3-6.3l6.3,13.3L10.2,36l13.9,4.9l-6.3,13.3l13.3-6.3L36,61.8
	l4.9-13.9l13.3,6.3l-6.3-13.3L61.8,36l-13.9-4.9l6.3-13.3l-13.3,6.3L36,10.2L36,10.2z"/>
</svg>
