<?xml version="1.0" encoding="utf-8"?>
<!-- Generator: Adobe Illustrator 22.0.1, SVG Export Plug-In . SVG Version: 6.00 Build 0)  -->
<svg version="1.1" id="DETAIL" xmlns="http://www.w3.org/2000/svg" xmlns:xlink="http://www.w3.org/1999/xlink" x="0px" y="0px"
	 viewBox="0 0 72 72" style="enable-background:new 0 0 72 72;" xml:space="preserve">
<g>
	<g>
		<path style="fill:#1E70B5;" d="M21,30.8c1.6-4.9,5.5-8.7,10.3-10.3l-1.6-2.8c-0.7-1.2-1-2.5-1-3.8c-3.2,1.1-6.2,3-8.7,5.5
			s-4.4,5.5-5.5,8.7c1.3,0,2.6,0.4,3.8,1L21,30.8z M21,40.8l-2.8,1.6c-1.2,0.7-2.5,1-3.8,1c1.1,3.2,3,6.2,5.5,8.7
			c2.5,2.5,5.5,4.4,8.7,5.5c0-1.3,0.4-2.6,1-3.8l1.6-2.8C26.4,49.5,22.5,45.7,21,40.8z M52.7,19.4c-2.5-2.5-5.5-4.4-8.7-5.5
			c0,1.3-0.4,2.6-1,3.8l-1.6,2.8c4.9,1.6,8.7,5.5,10.3,10.3l2.8-1.6c1.2-0.7,2.5-1,3.8-1C57.1,24.9,55.2,21.9,52.7,19.4z M54.4,42.4
			l-2.8-1.6c-1.6,4.9-5.5,8.7-10.3,10.3l1.6,2.8c0.7,1.2,1,2.5,1,3.8c3.2-1.1,6.2-3,8.7-5.5c2.5-2.5,4.4-5.5,5.5-8.7
			C56.9,43.4,55.6,43.1,54.4,42.4z"/>
	</g>
	<g>
		<path style="fill:#1E70B5;" d="M36.3,49.4l-3.6,6.2c-1.6,2.8,0.4,6.2,3.6,6.2h0c3.2,0,5.2-3.4,3.6-6.2L36.3,49.4z"/>
		<path style="fill:#1E70B5;" d="M36.3,22.1l-3.6-6.2c-1.6-2.8,0.4-6.2,3.6-6.2h0c3.2,0,5.2,3.4,3.6,6.2L36.3,22.1z"/>
	</g>
	<g>
		<path style="fill:#1E70B5;" d="M22.6,35.8l-6.2-3.6c-2.8-1.6-6.2,0.4-6.2,3.6v0c0,3.2,3.4,5.2,6.2,3.6L22.6,35.8z"/>
		<path style="fill:#1E70B5;" d="M50,35.8l6.2-3.6c2.8-1.6,6.2,0.4,6.2,3.6v0c0,3.2-3.4,5.2-6.2,3.6L50,35.8z"/>
	</g>
	<circle style="fill:#1E70B5;" cx="36.3" cy="35.8" r="4"/>
	<circle style="fill:#1E70B5;" cx="36.3" cy="35.8" r="5.7"/>
</g>
</svg>
