<?xml version="1.0" encoding="UTF-8" standalone="no"?>
<!-- Generator: Adobe Illustrator 22.0.1, SVG Export Plug-In . SVG Version: 6.00 Build 0)  -->

<svg
   xmlns:dc="http://purl.org/dc/elements/1.1/"
   xmlns:cc="http://creativecommons.org/ns#"
   xmlns:rdf="http://www.w3.org/1999/02/22-rdf-syntax-ns#"
   xmlns:svg="http://www.w3.org/2000/svg"
   xmlns="http://www.w3.org/2000/svg"
   xmlns:sodipodi="http://sodipodi.sourceforge.net/DTD/sodipodi-0.dtd"
   xmlns:inkscape="http://www.inkscape.org/namespaces/inkscape"
   version="1.1"
   id="DETAIL"
   x="0px"
   y="0px"
   viewBox="0 0 72 72"
   style="enable-background:new 0 0 72 72;"
   xml:space="preserve"
   sodipodi:docname="140877.svg"
   inkscape:version="0.92.2 (5c3e80d, 2017-08-06)"><metadata
     id="metadata9"><rdf:RDF><cc:Work
         rdf:about=""><dc:format>image/svg+xml</dc:format><dc:type
           rdf:resource="http://purl.org/dc/dcmitype/StillImage" /></cc:Work></rdf:RDF></metadata><defs
     id="defs7" /><sodipodi:namedview
     pagecolor="#ffffff"
     bordercolor="#666666"
     borderopacity="1"
     objecttolerance="10"
     gridtolerance="10"
     guidetolerance="10"
     inkscape:pageopacity="0"
     inkscape:pageshadow="2"
     inkscape:window-width="742"
     inkscape:window-height="480"
     id="namedview5"
     showgrid="false"
     inkscape:zoom="3.2777778"
     inkscape:cx="36"
     inkscape:cy="36"
     inkscape:window-x="0"
     inkscape:window-y="0"
     inkscape:window-maximized="0"
     inkscape:current-layer="DETAIL" /><path
     style="fill:#1e70b5;stroke-width:1.64111078"
     d="m 62.750105,0.46995225 c 1.148779,0 1.969333,0.98466595 1.969333,1.96933305 V 38.051389 c 0,8.369665 -5.087442,16.411108 -14.441774,23.303773 L 36.328222,71.530048 22.214669,61.519274 C 12.532115,54.626608 7.2805615,46.256942 7.2805615,37.723167 V 2.6033958 c 0,-1.1487776 0.984666,-1.96933205 1.969333,-1.96933205 H 10.07045 c 0.820555,0 1.64111,0.49233245 1.969333,1.47699955 0.984666,3.4463326 4.266887,6.0721094 8.041443,6.0721094 h 5.907998 c 3.774554,0 7.056777,-2.6257768 8.041443,-6.0721094 C 34.358889,1.2905077 35.015334,0.63406375 36,0.63406375 v 0 c 0.820555,0 1.641111,0.49233245 1.969333,1.47699955 0.984666,3.4463326 4.266888,6.0721094 8.041443,6.0721094 h 5.743887 c 3.774555,0 7.056776,-2.6257768 8.041443,-6.0721094 0.328222,-0.8205556 0.984666,-1.47699955 1.969333,-1.47699955 h 0.984666 z"
     id="path2"
     inkscape:connector-curvature="0" /></svg>