<?xml version="1.0" encoding="UTF-8" standalone="no"?>
<!-- Generator: Adobe Illustrator 22.0.1, SVG Export Plug-In . SVG Version: 6.00 Build 0)  -->

<svg
   xmlns:dc="http://purl.org/dc/elements/1.1/"
   xmlns:cc="http://creativecommons.org/ns#"
   xmlns:rdf="http://www.w3.org/1999/02/22-rdf-syntax-ns#"
   xmlns:svg="http://www.w3.org/2000/svg"
   xmlns="http://www.w3.org/2000/svg"
   xmlns:sodipodi="http://sodipodi.sourceforge.net/DTD/sodipodi-0.dtd"
   xmlns:inkscape="http://www.inkscape.org/namespaces/inkscape"
   version="1.1"
   id="DETAIL"
   x="0px"
   y="0px"
   viewBox="0 0 72 72"
   style="enable-background:new 0 0 72 72;"
   xml:space="preserve"
   sodipodi:docname="141077.svg"
   inkscape:version="0.92.2 (5c3e80d, 2017-08-06)"><metadata
     id="metadata59"><rdf:RDF><cc:Work
         rdf:about=""><dc:format>image/svg+xml</dc:format><dc:type
           rdf:resource="http://purl.org/dc/dcmitype/StillImage" /></cc:Work></rdf:RDF></metadata><defs
     id="defs57" /><sodipodi:namedview
     pagecolor="#ffffff"
     bordercolor="#666666"
     borderopacity="1"
     objecttolerance="10"
     gridtolerance="10"
     guidetolerance="10"
     inkscape:pageopacity="0"
     inkscape:pageshadow="2"
     inkscape:window-width="1278"
     inkscape:window-height="1008"
     id="namedview55"
     showgrid="false"
     inkscape:zoom="3.2777778"
     inkscape:cx="36"
     inkscape:cy="36"
     inkscape:window-x="-7"
     inkscape:window-y="0"
     inkscape:window-maximized="0"
     inkscape:current-layer="DETAIL" /><g
     id="g52"
     transform="matrix(1.3707205,0,0,1.3707205,-13.345938,-13.48301)"><g
       id="g50"><path
         style="fill:#1e70b5"
         d="m 29.2,34 v 0 c -2.6,0 -4.7,-2.1 -4.7,-4.7 0,-2.6 2.1,-4.7 4.7,-4.7 2.6,0 4.7,2.1 4.7,4.7 0,2.6 -2.1,4.7 -4.7,4.7 z"
         id="path2"
         inkscape:connector-curvature="0" /><path
         style="fill:#1e70b5"
         d="m 29.2,20.4 v 0 c -2.6,0 -4.7,-2.1 -4.7,-4.7 0,-2.6 2.1,-4.7 4.7,-4.7 2.6,0 4.8,2 4.8,4.7 0,2.7 -2.2,4.7 -4.8,4.7 z"
         id="path4"
         inkscape:connector-curvature="0" /><path
         style="fill:#1e70b5"
         d="m 29.2,47.6 v 0 c -2.6,0 -4.7,-2.1 -4.7,-4.7 0,-2.6 2.1,-4.7 4.7,-4.7 2.6,0 4.7,2.1 4.7,4.7 0,2.6 -2.1,4.7 -4.7,4.7 z"
         id="path6"
         inkscape:connector-curvature="0" /><path
         style="fill:#1e70b5"
         d="m 24.5,29.3 v 0 c 0,-2.6 2.1,-4.7 4.7,-4.7 2.6,0 4.7,2.1 4.7,4.7 0,2.6 -2.1,4.7 -4.7,4.7 -2.6,0 -4.7,-2.1 -4.7,-4.7 z"
         id="path8"
         inkscape:connector-curvature="0" /><path
         style="fill:#1e70b5"
         d="m 38.1,29.3 v 0 c 0,-2.6 2.1,-4.7 4.7,-4.7 2.6,0 4.7,2.1 4.7,4.7 0,2.6 -2,4.7 -4.7,4.7 -2.6,0 -4.7,-2.1 -4.7,-4.7 z"
         id="path10"
         inkscape:connector-curvature="0" /><path
         style="fill:#1e70b5"
         d="m 10.9,29.3 v 0 c 0,-2.6 2.1,-4.7 4.7,-4.7 2.6,0 4.7,2.1 4.7,4.7 0,2.6 -2.1,4.7 -4.7,4.7 -2.6,0 -4.7,-2.1 -4.7,-4.7 z"
         id="path12"
         inkscape:connector-curvature="0" /><path
         style="fill:#1e70b5"
         d="m 42.8,34 v 0 c -2.6,0 -4.7,-2.1 -4.7,-4.7 0,-2.6 2.1,-4.7 4.7,-4.7 2.6,0 4.7,2.1 4.7,4.7 0,2.6 -2,4.7 -4.7,4.7 z"
         id="path14"
         inkscape:connector-curvature="0" /><path
         style="fill:#1e70b5"
         d="m 42.8,20.4 v 0 c -2.6,0 -4.7,-2.1 -4.7,-4.7 0,-2.6 2.1,-4.7 4.7,-4.7 2.6,0 4.7,2.1 4.7,4.7 0,2.6 -2,4.7 -4.7,4.7 z"
         id="path16"
         inkscape:connector-curvature="0" /><path
         style="fill:#1e70b5"
         d="m 42.8,47.6 v 0 c -2.6,0 -4.7,-2.1 -4.7,-4.7 0,-2.6 2.1,-4.7 4.7,-4.7 2.6,0 4.7,2.1 4.7,4.7 0,2.6 -2,4.7 -4.7,4.7 z"
         id="path18"
         inkscape:connector-curvature="0" /><path
         style="fill:#1e70b5"
         d="m 38.1,29.3 v 0 c 0,-2.6 2.1,-4.7 4.7,-4.7 2.6,0 4.7,2.1 4.7,4.7 0,2.6 -2,4.7 -4.7,4.7 -2.6,0 -4.7,-2.1 -4.7,-4.7 z"
         id="path20"
         inkscape:connector-curvature="0" /><path
         style="fill:#1e70b5"
         d="m 51.7,29.3 v 0 c 0,-2.6 2.1,-4.7 4.7,-4.7 2.6,0 4.7,2.1 4.7,4.7 0,2.6 -2,4.7 -4.6,4.7 -2.6,0 -4.8,-2.1 -4.8,-4.7 z"
         id="path22"
         inkscape:connector-curvature="0" /><path
         style="fill:#1e70b5"
         d="m 24.5,29.3 v 0 c 0,-2.6 2.1,-4.7 4.7,-4.7 2.6,0 4.7,2.1 4.7,4.7 0,2.6 -2.1,4.7 -4.7,4.7 -2.6,0 -4.7,-2.1 -4.7,-4.7 z"
         id="path24"
         inkscape:connector-curvature="0" /><path
         style="fill:#1e70b5"
         d="m 29.2,47.6 v 0 c -2.6,0 -4.7,-2.1 -4.7,-4.7 0,-2.6 2.1,-4.7 4.7,-4.7 2.6,0 4.7,2.1 4.7,4.7 0,2.6 -2.1,4.7 -4.7,4.7 z"
         id="path26"
         inkscape:connector-curvature="0" /><path
         style="fill:#1e70b5"
         d="m 29.2,34 v 0 c -2.6,0 -4.7,-2.1 -4.7,-4.7 0,-2.6 2.1,-4.7 4.7,-4.7 2.6,0 4.7,2.1 4.7,4.7 0,2.6 -2.1,4.7 -4.7,4.7 z"
         id="path28"
         inkscape:connector-curvature="0" /><path
         style="fill:#1e70b5"
         d="m 29.2,61.2 v 0 c -2.6,0 -4.7,-2.1 -4.7,-4.7 0,-2.6 2.1,-4.7 4.7,-4.7 2.6,0 4.7,2.1 4.7,4.7 0,2.6 -2.1,4.7 -4.7,4.7 z"
         id="path30"
         inkscape:connector-curvature="0" /><path
         style="fill:#1e70b5"
         d="m 24.5,42.9 v 0 c 0,-2.6 2.1,-4.7 4.7,-4.7 2.6,0 4.7,2.1 4.7,4.7 0,2.6 -2.1,4.7 -4.7,4.7 -2.6,0 -4.7,-2.1 -4.7,-4.7 z"
         id="path32"
         inkscape:connector-curvature="0" /><path
         style="fill:#1e70b5"
         d="m 38.1,42.9 v 0 c 0,-2.6 2.1,-4.7 4.7,-4.7 2.6,0 4.7,2.1 4.7,4.7 0,2.6 -2.1,4.7 -4.7,4.7 -2.6,0 -4.7,-2.1 -4.7,-4.7 z"
         id="path34"
         inkscape:connector-curvature="0" /><path
         style="fill:#1e70b5"
         d="m 10.9,42.9 v 0 c 0,-2.6 2.1,-4.7 4.7,-4.7 2.6,0 4.7,2.1 4.7,4.7 0,2.6 -2.1,4.7 -4.7,4.7 -2.6,0 -4.7,-2.1 -4.7,-4.7 z"
         id="path36"
         inkscape:connector-curvature="0" /><path
         style="fill:#1e70b5"
         d="m 42.8,47.6 v 0 c -2.6,0 -4.7,-2.1 -4.7,-4.7 0,-2.6 2.1,-4.7 4.7,-4.7 2.6,0 4.7,2.1 4.7,4.7 0,2.6 -2,4.7 -4.7,4.7 z"
         id="path38"
         inkscape:connector-curvature="0" /><path
         style="fill:#1e70b5"
         d="m 42.8,34 v 0 c -2.6,0 -4.7,-2.1 -4.7,-4.7 0,-2.6 2.1,-4.7 4.7,-4.7 2.6,0 4.7,2.1 4.7,4.7 0,2.6 -2,4.7 -4.7,4.7 z"
         id="path40"
         inkscape:connector-curvature="0" /><path
         style="fill:#1e70b5"
         d="m 42.8,61.2 v 0 c -2.6,0 -4.7,-2.1 -4.7,-4.7 0,-2.6 2.1,-4.7 4.7,-4.7 2.6,0 4.7,2.1 4.7,4.7 0,2.6 -2,4.7 -4.7,4.7 z"
         id="path42"
         inkscape:connector-curvature="0" /><path
         style="fill:#1e70b5"
         d="m 38.1,42.9 v 0 c 0,-2.6 2.1,-4.7 4.7,-4.7 2.6,0 4.7,2.1 4.7,4.7 0,2.6 -2.1,4.7 -4.7,4.7 -2.6,0 -4.7,-2.1 -4.7,-4.7 z"
         id="path44"
         inkscape:connector-curvature="0" /><path
         style="fill:#1e70b5"
         d="m 51.7,42.9 v 0 c 0,-2.6 2.1,-4.7 4.7,-4.7 2.6,0 4.7,2.1 4.7,4.7 0,2.6 -2.1,4.7 -4.7,4.7 -2.5,0 -4.7,-2.1 -4.7,-4.7 z"
         id="path46"
         inkscape:connector-curvature="0" /><path
         style="fill:#1e70b5"
         d="m 24.5,42.9 v 0 c 0,-2.6 2.1,-4.7 4.7,-4.7 2.6,0 4.7,2.1 4.7,4.7 0,2.6 -2.1,4.7 -4.7,4.7 -2.6,0 -4.7,-2.1 -4.7,-4.7 z"
         id="path48"
         inkscape:connector-curvature="0" /></g></g></svg>