<?xml version="1.0" encoding="utf-8"?>
<!-- Generator: Adobe Illustrator 22.0.1, SVG Export Plug-In . SVG Version: 6.00 Build 0)  -->
<svg version="1.1" id="DETAIL" xmlns="http://www.w3.org/2000/svg" xmlns:xlink="http://www.w3.org/1999/xlink" x="0px" y="0px"
	 viewBox="0 0 72 72" style="enable-background:new 0 0 72 72;" xml:space="preserve">
<g>
	<g>
		<path style="fill:#1E70B5;" d="M29.2,34L29.2,34c-2.6,0-4.7-2.1-4.7-4.7s2.1-4.7,4.7-4.7s4.7,2.1,4.7,4.7S31.8,34,29.2,34z"/>
		<path style="fill:#1E70B5;" d="M29.2,20.4L29.2,20.4c-2.6,0-4.7-2.1-4.7-4.7s2.1-4.7,4.7-4.7S34,13,34,15.7S31.8,20.4,29.2,20.4z"
			/>
		<path style="fill:#1E70B5;" d="M29.2,47.6L29.2,47.6c-2.6,0-4.7-2.1-4.7-4.7s2.1-4.7,4.7-4.7s4.7,2.1,4.7,4.7S31.8,47.6,29.2,47.6
			z"/>
		<path style="fill:#1E70B5;" d="M24.5,29.3L24.5,29.3c0-2.6,2.1-4.7,4.7-4.7s4.7,2.1,4.7,4.7S31.8,34,29.2,34S24.5,31.9,24.5,29.3z
			"/>
		<path style="fill:#1E70B5;" d="M38.1,29.3L38.1,29.3c0-2.6,2.1-4.7,4.7-4.7c2.6,0,4.7,2.1,4.7,4.7S45.5,34,42.8,34
			C40.2,34,38.1,31.9,38.1,29.3z"/>
		<path style="fill:#1E70B5;" d="M10.9,29.3L10.9,29.3c0-2.6,2.1-4.7,4.7-4.7s4.7,2.1,4.7,4.7S18.2,34,15.6,34S10.9,31.9,10.9,29.3z
			"/>
		<path style="fill:#1E70B5;" d="M42.8,34L42.8,34c-2.6,0-4.7-2.1-4.7-4.7s2.1-4.7,4.7-4.7c2.6,0,4.7,2.1,4.7,4.7S45.5,34,42.8,34z"
			/>
		<path style="fill:#1E70B5;" d="M42.8,20.4L42.8,20.4c-2.6,0-4.7-2.1-4.7-4.7s2.1-4.7,4.7-4.7c2.6,0,4.7,2.1,4.7,4.7
			S45.5,20.4,42.8,20.4z"/>
		<path style="fill:#1E70B5;" d="M42.8,47.6L42.8,47.6c-2.6,0-4.7-2.1-4.7-4.7s2.1-4.7,4.7-4.7c2.6,0,4.7,2.1,4.7,4.7
			S45.5,47.6,42.8,47.6z"/>
		<path style="fill:#1E70B5;" d="M38.1,29.3L38.1,29.3c0-2.6,2.1-4.7,4.7-4.7c2.6,0,4.7,2.1,4.7,4.7S45.5,34,42.8,34
			C40.2,34,38.1,31.9,38.1,29.3z"/>
		<path style="fill:#1E70B5;" d="M51.7,29.3L51.7,29.3c0-2.6,2.1-4.7,4.7-4.7c2.6,0,4.7,2.1,4.7,4.7S59.1,34,56.5,34
			C53.9,34,51.7,31.9,51.7,29.3z"/>
		<path style="fill:#1E70B5;" d="M24.5,29.3L24.5,29.3c0-2.6,2.1-4.7,4.7-4.7s4.7,2.1,4.7,4.7S31.8,34,29.2,34S24.5,31.9,24.5,29.3z
			"/>
		<path style="fill:#1E70B5;" d="M29.2,47.6L29.2,47.6c-2.6,0-4.7-2.1-4.7-4.7s2.1-4.7,4.7-4.7s4.7,2.1,4.7,4.7S31.8,47.6,29.2,47.6
			z"/>
		<path style="fill:#1E70B5;" d="M29.2,34L29.2,34c-2.6,0-4.7-2.1-4.7-4.7s2.1-4.7,4.7-4.7s4.7,2.1,4.7,4.7S31.8,34,29.2,34z"/>
		<path style="fill:#1E70B5;" d="M29.2,61.2L29.2,61.2c-2.6,0-4.7-2.1-4.7-4.7s2.1-4.7,4.7-4.7s4.7,2.1,4.7,4.7S31.8,61.2,29.2,61.2
			z"/>
		<path style="fill:#1E70B5;" d="M24.5,42.9L24.5,42.9c0-2.6,2.1-4.7,4.7-4.7s4.7,2.1,4.7,4.7s-2.1,4.7-4.7,4.7S24.5,45.5,24.5,42.9
			z"/>
		<path style="fill:#1E70B5;" d="M38.1,42.9L38.1,42.9c0-2.6,2.1-4.7,4.7-4.7c2.6,0,4.7,2.1,4.7,4.7s-2.1,4.7-4.7,4.7
			C40.2,47.6,38.1,45.5,38.1,42.9z"/>
		<path style="fill:#1E70B5;" d="M10.9,42.9L10.9,42.9c0-2.6,2.1-4.7,4.7-4.7s4.7,2.1,4.7,4.7s-2.1,4.7-4.7,4.7S10.9,45.5,10.9,42.9
			z"/>
		<path style="fill:#1E70B5;" d="M42.8,47.6L42.8,47.6c-2.6,0-4.7-2.1-4.7-4.7s2.1-4.7,4.7-4.7c2.6,0,4.7,2.1,4.7,4.7
			S45.5,47.6,42.8,47.6z"/>
		<path style="fill:#1E70B5;" d="M42.8,34L42.8,34c-2.6,0-4.7-2.1-4.7-4.7s2.1-4.7,4.7-4.7c2.6,0,4.7,2.1,4.7,4.7S45.5,34,42.8,34z"
			/>
		<path style="fill:#1E70B5;" d="M42.8,61.2L42.8,61.2c-2.6,0-4.7-2.1-4.7-4.7s2.1-4.7,4.7-4.7c2.6,0,4.7,2.1,4.7,4.7
			S45.5,61.2,42.8,61.2z"/>
		<path style="fill:#1E70B5;" d="M38.1,42.9L38.1,42.9c0-2.6,2.1-4.7,4.7-4.7c2.6,0,4.7,2.1,4.7,4.7s-2.1,4.7-4.7,4.7
			C40.2,47.6,38.1,45.5,38.1,42.9z"/>
		<path style="fill:#1E70B5;" d="M51.7,42.9L51.7,42.9c0-2.6,2.1-4.7,4.7-4.7c2.6,0,4.7,2.1,4.7,4.7s-2.1,4.7-4.7,4.7
			C53.9,47.6,51.7,45.5,51.7,42.9z"/>
		<path style="fill:#1E70B5;" d="M24.5,42.9L24.5,42.9c0-2.6,2.1-4.7,4.7-4.7s4.7,2.1,4.7,4.7s-2.1,4.7-4.7,4.7S24.5,45.5,24.5,42.9
			z"/>
	</g>
</g>
</svg>
