<?xml version="1.0" encoding="UTF-8" standalone="no"?>
<!-- Generator: Adobe Illustrator 22.0.1, SVG Export Plug-In . SVG Version: 6.00 Build 0)  -->

<svg
   xmlns:dc="http://purl.org/dc/elements/1.1/"
   xmlns:cc="http://creativecommons.org/ns#"
   xmlns:rdf="http://www.w3.org/1999/02/22-rdf-syntax-ns#"
   xmlns:svg="http://www.w3.org/2000/svg"
   xmlns="http://www.w3.org/2000/svg"
   xmlns:sodipodi="http://sodipodi.sourceforge.net/DTD/sodipodi-0.dtd"
   xmlns:inkscape="http://www.inkscape.org/namespaces/inkscape"
   version="1.1"
   id="DETAIL"
   x="0px"
   y="0px"
   viewBox="0 0 72 72"
   style="enable-background:new 0 0 72 72;"
   xml:space="preserve"
   sodipodi:docname="141177.svg"
   inkscape:version="0.92.2 (5c3e80d, 2017-08-06)"><metadata
     id="metadata19"><rdf:RDF><cc:Work
         rdf:about=""><dc:format>image/svg+xml</dc:format><dc:type
           rdf:resource="http://purl.org/dc/dcmitype/StillImage" /></cc:Work></rdf:RDF></metadata><defs
     id="defs17" /><sodipodi:namedview
     pagecolor="#ffffff"
     bordercolor="#666666"
     borderopacity="1"
     objecttolerance="10"
     gridtolerance="10"
     guidetolerance="10"
     inkscape:pageopacity="0"
     inkscape:pageshadow="2"
     inkscape:window-width="742"
     inkscape:window-height="480"
     id="namedview15"
     showgrid="false"
     inkscape:zoom="3.2777778"
     inkscape:cx="36"
     inkscape:cy="36"
     inkscape:window-x="0"
     inkscape:window-y="0"
     inkscape:window-maximized="0"
     inkscape:current-layer="DETAIL" /><g
     id="g12"
     transform="matrix(1.3208401,0,0,1.3208401,-12.374609,-10.924004)"><polygon
       style="fill:#1e70b5"
       points="34.9,50.4 28.3,46.3 27.2,48 33.8,52.1 30.6,57.4 18,49.7 35.8,20.8 48.3,28.5 44.7,34.3 38.1,30.3 37.1,32 43.7,36.1 41.5,39.7 34.8,35.6 33.8,37.3 40.4,41.4 38.2,45 31.6,41 30.5,42.7 37.1,46.8 "
       id="polygon2" /><path
       style="fill:#1e70b5"
       d="m 34.1,21.7 14.1,8.7 c 1.2,0.7 2.7,0.3 3.4,-0.8 v 0 c 0.7,-1.2 0.3,-2.7 -0.8,-3.4 L 36.7,17.5 C 35.5,16.8 34,17.2 33.3,18.3 v 0 c -0.7,1.2 -0.3,2.7 0.8,3.4 z"
       id="path4"
       inkscape:connector-curvature="0" /><path
       style="fill:#1e70b5"
       d="m 41.3,14.4 10.2,6.3 c 1.2,0.7 2.7,0.3 3.4,-0.8 v 0 c 0.7,-1.2 0.3,-2.7 -0.8,-3.4 L 43.9,10.2 C 42.7,9.5 41.2,9.9 40.5,11 v 0 c -0.7,1.2 -0.4,2.7 0.8,3.4 z"
       id="path6"
       inkscape:connector-curvature="0" /><polygon
       style="fill:#1e70b5"
       points="27.4,51.5 21.5,61.2 20.6,56.6 24.7,49.9 "
       id="polygon8" /><rect
       x="43.5"
       y="14.9"
       transform="matrix(0.8523,0.523,-0.523,0.8523,15.8959,-21.9364)"
       style="fill:#1e70b5"
       width="6.5"
       height="4.5999999"
       id="rect10" /></g></svg>