<?xml version="1.0" encoding="utf-8"?>
<svg xmlns="http://www.w3.org/2000/svg" width="128" height="128" viewbox="0 0 128 128">
  <path style="fill:#cf1020;fill-opacity:0.62745098;stroke:#000000;stroke-width:0.2;" d="m 32.024816,8.5604366 c -4.81832,2.7791604 -9.28743,6.1936904 -13.27722,10.1834804 l 17.59226,17.5958 c 2.36499,-2.36184 5.0732,-4.46059 8.10525,-6.21114 5.11742,-2.95455 10.62681,-4.61864 16.14922,-5.09791 L 58.421866,0.24022657 C 49.053616,1.0598366 40.055346,3.9285266 32.024816,8.5604366 z M 0.97226638,52.886177 c -2.61278998,14.81787 0.0798,30.08248 7.60305002,43.11308 l 21.5542396,-12.4443 c -4.78689,-8.29117 -6.18978,-17.60393 -4.64287,-26.34712 L 0.97226638,52.886177 z M 95.998506,8.5753366 83.559176,30.126677 c 5.76004,3.31817 10.74951,8.14657 14.31227,14.31745 1.15823,2.00611 2.11617,4.07343 2.884624,6.17685 l 23.38317,-8.51266 C 118.99306,27.969267 109.02911,16.098557 95.998506,8.5753366 z m -38.7897,93.9380234 -4.32165,24.5144 c 14.81786,2.6128 30.08248,-0.08 43.11309,-7.603 L 83.555896,97.870457 c -8.29114,4.786903 -17.60389,6.189803 -26.34709,4.642903 z">
    <animateTransform attributeName="transform" type="rotate" from="0 64 64" to="20 64 64" dur="1s" repeatCount="indefinite"></animateTransform>
  </path>
  <path style="fill:#cf1020;fill-opacity:0.62745098;stroke:#000000;stroke-width:0.2;" d="m 11.577316,27.291507 c -17.8144496,25.44168 -14.7950996,60.00295 7.16661,81.964653 l 17.60402,-17.604003 c -7.07765,-7.0777 -11.45823,-16.85245 -11.45823,-27.6526 0,-8.34755 2.62061,-16.07903 7.07633,-22.43038 l -20.38873,-14.27767 z m 91.533994,36.70805 c 0,19.2838 -13.956264,35.3054 -32.319194,38.520503 l 4.31942,24.5068 C 105.69823,121.63356 128,95.058157 128,63.999557 l -24.88869,0 z">
    <animateTransform attributeName="transform" type="rotate" from="0 64 64" to="40 64 64" dur="1s" repeatCount="indefinite"></animateTransform>
  </path>
  <path style="fill:#cf1020;fill-opacity:0.62745098;stroke:#000000;stroke-width:0.2;" d="M 63.993566,4.6572144e-5 C 58.410346,3.6657214e-4 52.846586,0.73139657 47.438146,2.1805866 l 6.43745,24.0345404 c 3.22905,-0.86292 6.62381,-1.32638 10.12491,-1.32638 1.14935,0 2.28553,0.0487 3.4097,0.14583 l 2.16665,-24.79147043 c -1.85931,-0.16267 -3.72221,-0.24320999786 -5.58329,-0.243059997856 z M 80.562876,2.1805866 74.125426,26.215127 c 4.46987,1.1945 8.61797,3.16304 12.30546,5.74995 L 100.70855,11.576347 C 94.593056,7.2942366 87.774136,4.1128366 80.562876,2.1805866 z M 103.11131,63.999557 c 0,4.70185 -0.83318,9.20598 -2.35415,13.3818 l 23.38176,8.5069 C 126.69232,78.872857 128,71.465197 128,63.999557 l -24.88869,0 z m -61.541174,32.0345 -14.27767,20.388703 c 6.1155,4.2821 12.93442,7.4635 20.14568,9.3958 l 6.43745,-24.0346 c -4.46988,-1.1945 -8.61797,-3.163003 -12.30546,-5.749903 z">
    <animateTransform attributeName="transform" type="rotate" from="60 64 64" to="0 64 64" dur="1s" repeatCount="indefinite"></animateTransform>
  </path>
  <path style="fill:#cf1020;fill-opacity:1;stroke:#000000;stroke-width:0.2;" d="m 64.000506,35.555337 c -15.70931,0 -28.44421,12.73491 -28.44421,28.44422 0,15.7093 12.7349,28.4442 28.44421,28.4442 15.70931,0 28.44422,-12.7349 28.44422,-28.4442 0,-15.70931 -12.73491,-28.44422 -28.44422,-28.44422 z m 0,10.66658 c 9.81832,0 17.77764,7.95932 17.77764,17.77764 0,9.81832 -7.95932,17.7776 -17.77764,17.7776 -9.81832,0 -17.77763,-7.95928 -17.77763,-17.7776 0,-9.81832 7.95931,-17.77764 17.77763,-17.77764 z" />
</svg>
